G04*
G04 #@! TF.GenerationSoftware,Altium Limited,Altium Designer,18.1.6 (161)*
G04*
G04 Layer_Color=16711935*
%FSTAX24Y24*%
%MOIN*%
G70*
G01*
G75*
%ADD25O,0.1080X0.0880*%
%ADD26R,0.1080X0.0880*%
%ADD27R,0.0789X0.0710*%
%ADD28O,0.0789X0.0710*%
%ADD29C,0.0730*%
%ADD30R,0.0730X0.0730*%
%ADD31O,0.0710X0.0789*%
G04:AMPARAMS|DCode=32|XSize=74.9mil|YSize=82.8mil|CornerRadius=20.7mil|HoleSize=0mil|Usage=FLASHONLY|Rotation=0.000|XOffset=0mil|YOffset=0mil|HoleType=Round|Shape=RoundedRectangle|*
%AMROUNDEDRECTD32*
21,1,0.0749,0.0413,0,0,0.0*
21,1,0.0335,0.0828,0,0,0.0*
1,1,0.0415,0.0167,-0.0207*
1,1,0.0415,-0.0167,-0.0207*
1,1,0.0415,-0.0167,0.0207*
1,1,0.0415,0.0167,0.0207*
%
%ADD32ROUNDEDRECTD32*%
%ADD33O,0.0749X0.0828*%
%ADD34C,0.0580*%
D25*
X031463Y03025D02*
D03*
Y03125D02*
D03*
D26*
Y03225D02*
D03*
D27*
X047904Y021234D02*
D03*
X028904Y035234D02*
D03*
Y026234D02*
D03*
D28*
X047904Y022234D02*
D03*
Y023234D02*
D03*
Y024234D02*
D03*
Y025234D02*
D03*
Y026234D02*
D03*
Y027234D02*
D03*
Y028234D02*
D03*
X028904Y034234D02*
D03*
Y033234D02*
D03*
Y032234D02*
D03*
Y031234D02*
D03*
Y030234D02*
D03*
Y029234D02*
D03*
Y028234D02*
D03*
Y021234D02*
D03*
Y022234D02*
D03*
Y023234D02*
D03*
Y024234D02*
D03*
Y025234D02*
D03*
X047904Y029833D02*
D03*
Y030833D02*
D03*
Y031833D02*
D03*
Y032833D02*
D03*
Y033833D02*
D03*
Y034833D02*
D03*
Y035833D02*
D03*
Y036833D02*
D03*
Y037833D02*
D03*
Y038833D02*
D03*
D29*
X038853Y024974D02*
D03*
X041691Y029281D02*
D03*
X035113Y029281D02*
D03*
X038892Y032825D02*
D03*
X036687Y024974D02*
D03*
X041691Y031545D02*
D03*
X035113Y031545D02*
D03*
X036727Y032825D02*
D03*
X041018Y024974D02*
D03*
X041605Y026943D02*
D03*
X035113D02*
D03*
X041057Y032825D02*
D03*
D30*
X037853Y024974D02*
D03*
X042691Y029281D02*
D03*
X034113Y029281D02*
D03*
X037892Y032825D02*
D03*
X035687Y024974D02*
D03*
X042691Y031545D02*
D03*
X034113Y031545D02*
D03*
X035727Y032825D02*
D03*
X040018Y024974D02*
D03*
X042605Y026943D02*
D03*
X034113D02*
D03*
X040057Y032825D02*
D03*
D31*
X042983Y022907D02*
D03*
X044754D02*
D03*
Y020348D02*
D03*
X042983D02*
D03*
X039308Y022907D02*
D03*
X04108D02*
D03*
Y020348D02*
D03*
X039308D02*
D03*
X035634Y022907D02*
D03*
X037405D02*
D03*
Y020348D02*
D03*
X035634D02*
D03*
X031959Y022907D02*
D03*
X033731D02*
D03*
Y020348D02*
D03*
X031959D02*
D03*
D32*
X035853Y035156D02*
D03*
D33*
X036853D02*
D03*
X037853D02*
D03*
X038853D02*
D03*
X039853D02*
D03*
X040853D02*
D03*
Y039156D02*
D03*
X039853D02*
D03*
X038853D02*
D03*
X037853D02*
D03*
X036853D02*
D03*
X035853D02*
D03*
D34*
X029002Y039715D02*
D03*
X047852Y019881D02*
D03*
M02*
