G04*
G04 #@! TF.GenerationSoftware,Altium Limited,Altium Designer,18.1.6 (161)*
G04*
G04 Layer_Color=8421504*
%FSTAX24Y24*%
%MOIN*%
G70*
G01*
G75*
%ADD17R,0.0335X0.0315*%
%ADD18R,0.0236X0.0394*%
%ADD19R,0.0315X0.0335*%
%ADD20R,0.0315X0.0315*%
D17*
X045932Y021998D02*
D03*
Y022667D02*
D03*
X034908Y021998D02*
D03*
Y022667D02*
D03*
X042191Y021998D02*
D03*
Y022667D02*
D03*
X03855Y021998D02*
D03*
Y022667D02*
D03*
X043471Y027352D02*
D03*
Y026683D02*
D03*
Y029616D02*
D03*
Y028947D02*
D03*
Y03188D02*
D03*
Y031211D02*
D03*
X033333Y027254D02*
D03*
Y026585D02*
D03*
Y029616D02*
D03*
Y028947D02*
D03*
X033235Y03197D02*
D03*
Y031301D02*
D03*
X045932Y021289D02*
D03*
Y02062D02*
D03*
X042191Y021289D02*
D03*
Y02062D02*
D03*
X03855Y021289D02*
D03*
Y02062D02*
D03*
X034908Y021289D02*
D03*
Y02062D02*
D03*
D18*
X04662Y024951D02*
D03*
X046994Y024163D02*
D03*
X046246D02*
D03*
X042487Y024951D02*
D03*
X042861Y024163D02*
D03*
X042113D02*
D03*
X043865Y024951D02*
D03*
X044239Y024163D02*
D03*
X043491D02*
D03*
X045243Y024951D02*
D03*
X045617Y024163D02*
D03*
X044868D02*
D03*
D19*
X047152Y029872D02*
D03*
X046483D02*
D03*
X047152Y028199D02*
D03*
X046483D02*
D03*
X047152Y027215D02*
D03*
X046483D02*
D03*
X047152Y026329D02*
D03*
X046483D02*
D03*
X047152Y038829D02*
D03*
X046483D02*
D03*
X047152Y034793D02*
D03*
X046483D02*
D03*
X047152Y037844D02*
D03*
X046483D02*
D03*
X047152Y032825D02*
D03*
X046483D02*
D03*
X047152Y031841D02*
D03*
X046483D02*
D03*
X047152Y030856D02*
D03*
X046483D02*
D03*
X047152Y033809D02*
D03*
X046483D02*
D03*
X035754Y023671D02*
D03*
X036424D02*
D03*
X038018D02*
D03*
X038687D02*
D03*
X040183D02*
D03*
X040853D02*
D03*
X035892Y034006D02*
D03*
X036561D02*
D03*
X038057D02*
D03*
X038727D02*
D03*
X040223D02*
D03*
X040892D02*
D03*
D20*
X031463Y03499D02*
D03*
X030872D02*
D03*
X031463Y036467D02*
D03*
X030872D02*
D03*
X031463Y037943D02*
D03*
X030872D02*
D03*
X031463Y039419D02*
D03*
X030872D02*
D03*
M02*
