M48
;Layer_Color=9474304
;FILE_FORMAT=2:4
INCH,LZ
;TYPE=PLATED
T1F00S00C0.0200
T2F00S00C0.0280
T3F00S00C0.0390
T4F00S00C0.0394
T5F00S00C0.0600
%
T01
X033071Y020472
X033858Y022047
X032283Y025197
X031496Y026772
X035433Y028346
X034646Y029921
X03622
X037795
X03937
X040157Y028346
X041732
X04252Y029921
Y023622
X044094Y020472
X029921
Y03622
X028346
X029134Y037795
X032283Y034646
X033858
X034646Y033071
X03937Y03622
X04252
X044094
X045669
T02
X047152Y02564
X045735
X044357
X042979
X044357Y032982
Y033833
X031463Y034104
T03
X035687Y024974
X036687
X037853
X038853
X040018
X041018
X041605Y026943
X042605
X042691Y029281
X041691
X035113Y029281
X034113
Y026943
X035113
Y031545
X034113
X035727Y032825
X036727
X037892
X038892
X040057
X041057
X041691Y031545
X042691
T04
X047904Y021234
Y022234
Y023234
Y024234
Y025234
Y026234
Y027234
Y028234
Y029833
Y030833
X044754Y022907
X042983
X04108Y022907
X039308
X037405
X035634
X033731Y022907
X031959
Y020348
X033731
X035634Y020348
X037405
X039308
X04108
X042983Y020348
X044754
X028904Y021234
Y022234
Y023234
Y024234
Y025234
Y026234
Y028234
Y029234
Y030234
Y031234
Y032234
Y033234
Y034234
Y035234
X035853Y035156
X036853
X037853
X038853
X039853
X040853
Y039156
X039853
X038853
X037853
X036853
X035853
X047904Y038833
Y037833
Y036833
Y035833
Y034833
Y033833
Y032833
Y031833
T05
X031463Y03025
Y03125
Y03225
M30
