G04*
G04 #@! TF.GenerationSoftware,Altium Limited,Altium Designer,18.1.6 (161)*
G04*
G04 Layer_Color=255*
%FSTAX24Y24*%
%MOIN*%
G70*
G01*
G75*
%ADD17R,0.0335X0.0315*%
%ADD18R,0.0236X0.0394*%
%ADD19R,0.0315X0.0335*%
%ADD20R,0.0315X0.0315*%
%ADD39O,0.1000X0.0800*%
%ADD40R,0.1000X0.0800*%
%ADD41R,0.0709X0.0630*%
%ADD42O,0.0709X0.0630*%
%ADD43C,0.0650*%
%ADD44R,0.0650X0.0650*%
%ADD45O,0.0630X0.0709*%
G04:AMPARAMS|DCode=46|XSize=66.9mil|YSize=74.8mil|CornerRadius=16.7mil|HoleSize=0mil|Usage=FLASHONLY|Rotation=0.000|XOffset=0mil|YOffset=0mil|HoleType=Round|Shape=RoundedRectangle|*
%AMROUNDEDRECTD46*
21,1,0.0669,0.0413,0,0,0.0*
21,1,0.0335,0.0748,0,0,0.0*
1,1,0.0335,0.0167,-0.0207*
1,1,0.0335,-0.0167,-0.0207*
1,1,0.0335,-0.0167,0.0207*
1,1,0.0335,0.0167,0.0207*
%
%ADD46ROUNDEDRECTD46*%
%ADD47O,0.0669X0.0748*%
D17*
X045932Y021998D02*
D03*
Y022667D02*
D03*
X034908Y021998D02*
D03*
Y022667D02*
D03*
X042191Y021998D02*
D03*
Y022667D02*
D03*
X03855Y021998D02*
D03*
Y022667D02*
D03*
X043471Y027352D02*
D03*
Y026683D02*
D03*
Y029616D02*
D03*
Y028947D02*
D03*
Y03188D02*
D03*
Y031211D02*
D03*
X033333Y027254D02*
D03*
Y026585D02*
D03*
Y029616D02*
D03*
Y028947D02*
D03*
X033235Y03197D02*
D03*
Y031301D02*
D03*
X045932Y021289D02*
D03*
Y02062D02*
D03*
X042191Y021289D02*
D03*
Y02062D02*
D03*
X03855Y021289D02*
D03*
Y02062D02*
D03*
X034908Y021289D02*
D03*
Y02062D02*
D03*
D18*
X04662Y024951D02*
D03*
X046994Y024163D02*
D03*
X046246D02*
D03*
X042487Y024951D02*
D03*
X042861Y024163D02*
D03*
X042113D02*
D03*
X043865Y024951D02*
D03*
X044239Y024163D02*
D03*
X043491D02*
D03*
X045243Y024951D02*
D03*
X045617Y024163D02*
D03*
X044868D02*
D03*
D19*
X047152Y029872D02*
D03*
X046483D02*
D03*
X047152Y028199D02*
D03*
X046483D02*
D03*
X047152Y027215D02*
D03*
X046483D02*
D03*
X047152Y026329D02*
D03*
X046483D02*
D03*
X047152Y038829D02*
D03*
X046483D02*
D03*
X047152Y034793D02*
D03*
X046483D02*
D03*
X047152Y037844D02*
D03*
X046483D02*
D03*
X047152Y032825D02*
D03*
X046483D02*
D03*
X047152Y031841D02*
D03*
X046483D02*
D03*
X047152Y030856D02*
D03*
X046483D02*
D03*
X047152Y033809D02*
D03*
X046483D02*
D03*
X035754Y023671D02*
D03*
X036424D02*
D03*
X038018D02*
D03*
X038687D02*
D03*
X040183D02*
D03*
X040853D02*
D03*
X035892Y034006D02*
D03*
X036561D02*
D03*
X038057D02*
D03*
X038727D02*
D03*
X040223D02*
D03*
X040892D02*
D03*
D20*
X031463Y03499D02*
D03*
X030872D02*
D03*
X031463Y036467D02*
D03*
X030872D02*
D03*
X031463Y037943D02*
D03*
X030872D02*
D03*
X031463Y039419D02*
D03*
X030872D02*
D03*
D39*
X031463Y03025D02*
D03*
Y03125D02*
D03*
D40*
Y03225D02*
D03*
D41*
X047904Y021234D02*
D03*
X028904Y035234D02*
D03*
Y026234D02*
D03*
D42*
X047904Y022234D02*
D03*
Y023234D02*
D03*
Y024234D02*
D03*
Y025234D02*
D03*
Y026234D02*
D03*
Y027234D02*
D03*
Y028234D02*
D03*
X028904Y034234D02*
D03*
Y033234D02*
D03*
Y032234D02*
D03*
Y031234D02*
D03*
Y030234D02*
D03*
Y029234D02*
D03*
Y028234D02*
D03*
Y021234D02*
D03*
Y022234D02*
D03*
Y023234D02*
D03*
Y024234D02*
D03*
Y025234D02*
D03*
X047904Y029833D02*
D03*
Y030833D02*
D03*
Y031833D02*
D03*
Y032833D02*
D03*
Y033833D02*
D03*
Y034833D02*
D03*
Y035833D02*
D03*
Y036833D02*
D03*
Y037833D02*
D03*
Y038833D02*
D03*
D43*
X038853Y024974D02*
D03*
X041691Y029281D02*
D03*
X035113Y029281D02*
D03*
X038892Y032825D02*
D03*
X036687Y024974D02*
D03*
X041691Y031545D02*
D03*
X035113Y031545D02*
D03*
X036727Y032825D02*
D03*
X041018Y024974D02*
D03*
X041605Y026943D02*
D03*
X035113D02*
D03*
X041057Y032825D02*
D03*
D44*
X037853Y024974D02*
D03*
X042691Y029281D02*
D03*
X034113Y029281D02*
D03*
X037892Y032825D02*
D03*
X035687Y024974D02*
D03*
X042691Y031545D02*
D03*
X034113Y031545D02*
D03*
X035727Y032825D02*
D03*
X040018Y024974D02*
D03*
X042605Y026943D02*
D03*
X034113D02*
D03*
X040057Y032825D02*
D03*
D45*
X042983Y022907D02*
D03*
X044754D02*
D03*
Y020348D02*
D03*
X042983D02*
D03*
X039308Y022907D02*
D03*
X04108D02*
D03*
Y020348D02*
D03*
X039308D02*
D03*
X035634Y022907D02*
D03*
X037405D02*
D03*
Y020348D02*
D03*
X035634D02*
D03*
X031959Y022907D02*
D03*
X033731D02*
D03*
Y020348D02*
D03*
X031959D02*
D03*
D46*
X035853Y035156D02*
D03*
D47*
X036853D02*
D03*
X037853D02*
D03*
X038853D02*
D03*
X039853D02*
D03*
X040853D02*
D03*
Y039156D02*
D03*
X039853D02*
D03*
X038853D02*
D03*
X037853D02*
D03*
X036853D02*
D03*
X035853D02*
D03*
M02*
