G04*
G04 #@! TF.GenerationSoftware,Altium Limited,Altium Designer,18.1.6 (161)*
G04*
G04 Layer_Color=128*
%FSTAX24Y24*%
%MOIN*%
G70*
G01*
G75*
%ADD53C,0.0020*%
D53*
X031163Y03025D02*
X031763D01*
X031463Y02995D02*
Y03055D01*
X031163Y03125D02*
X031763D01*
X031463Y03095D02*
Y03155D01*
X031163Y03225D02*
X031763D01*
X031463Y03195D02*
Y03255D01*
X047707Y021234D02*
X048101D01*
X047904Y021037D02*
Y021431D01*
X047707Y022234D02*
X048101D01*
X047904Y022037D02*
Y022431D01*
X047707Y023234D02*
X048101D01*
X047904Y023037D02*
Y023431D01*
X047707Y024234D02*
X048101D01*
X047904Y024037D02*
Y024431D01*
X047707Y025234D02*
X048101D01*
X047904Y025037D02*
Y025431D01*
X047707Y026234D02*
X048101D01*
X047904Y026037D02*
Y026431D01*
X047707Y027234D02*
X048101D01*
X047904Y027037D02*
Y027431D01*
X047707Y028234D02*
X048101D01*
X047904Y028037D02*
Y028431D01*
X028707Y035234D02*
X029101D01*
X028904Y035037D02*
Y035431D01*
X028707Y034234D02*
X029101D01*
X028904Y034037D02*
Y034431D01*
X028707Y033234D02*
X029101D01*
X028904Y033037D02*
Y033431D01*
X028707Y032234D02*
X029101D01*
X028904Y032037D02*
Y032431D01*
X028707Y031234D02*
X029101D01*
X028904Y031037D02*
Y031431D01*
X028707Y030234D02*
X029101D01*
X028904Y030037D02*
Y030431D01*
X028707Y029234D02*
X029101D01*
X028904Y029037D02*
Y029431D01*
X028707Y028234D02*
X029101D01*
X028904Y028037D02*
Y028431D01*
X028707Y021234D02*
X029101D01*
X028904Y021037D02*
Y021431D01*
X028707Y022234D02*
X029101D01*
X028904Y022037D02*
Y022431D01*
X028707Y023234D02*
X029101D01*
X028904Y023037D02*
Y023431D01*
X028707Y024234D02*
X029101D01*
X028904Y024037D02*
Y024431D01*
X028707Y025234D02*
X029101D01*
X028904Y025037D02*
Y025431D01*
X028707Y026234D02*
X029101D01*
X028904Y026037D02*
Y026431D01*
X047707Y029833D02*
X048101D01*
X047904Y029636D02*
Y03003D01*
X047707Y030833D02*
X048101D01*
X047904Y030636D02*
Y03103D01*
X047707Y031833D02*
X048101D01*
X047904Y031636D02*
Y03203D01*
X047707Y032833D02*
X048101D01*
X047904Y032636D02*
Y03303D01*
X047707Y033833D02*
X048101D01*
X047904Y033636D02*
Y03403D01*
X047707Y034833D02*
X048101D01*
X047904Y034636D02*
Y03503D01*
X047707Y035833D02*
X048101D01*
X047904Y035636D02*
Y03603D01*
X047707Y036833D02*
X048101D01*
X047904Y036636D02*
Y03703D01*
X047707Y037833D02*
X048101D01*
X047904Y037636D02*
Y03803D01*
X047707Y038833D02*
X048101D01*
X047904Y038636D02*
Y03903D01*
X038658Y024974D02*
X039048D01*
X038853Y024779D02*
Y025169D01*
X037658Y024974D02*
X038048D01*
X037853Y024779D02*
Y025169D01*
X042496Y029281D02*
X042886D01*
X042691Y029086D02*
Y029476D01*
X041496Y029281D02*
X041886D01*
X041691Y029086D02*
Y029476D01*
X033918Y029281D02*
X034308D01*
X034113Y029086D02*
Y029476D01*
X034918Y029281D02*
X035308D01*
X035113Y029086D02*
Y029476D01*
X037697Y032825D02*
X038087D01*
X037892Y03263D02*
Y03302D01*
X038697Y032825D02*
X039087D01*
X038892Y03263D02*
Y03302D01*
X035492Y024974D02*
X035882D01*
X035687Y024779D02*
Y025169D01*
X036492Y024974D02*
X036882D01*
X036687Y024779D02*
Y025169D01*
X042496Y031545D02*
X042886D01*
X042691Y03135D02*
Y03174D01*
X041496Y031545D02*
X041886D01*
X041691Y03135D02*
Y03174D01*
X033918Y031545D02*
X034308D01*
X034113Y03135D02*
Y03174D01*
X034918Y031545D02*
X035308D01*
X035113Y03135D02*
Y03174D01*
X035532Y032825D02*
X035922D01*
X035727Y03263D02*
Y03302D01*
X036532Y032825D02*
X036922D01*
X036727Y03263D02*
Y03302D01*
X039823Y024974D02*
X040213D01*
X040018Y024779D02*
Y025169D01*
X040823Y024974D02*
X041213D01*
X041018Y024779D02*
Y025169D01*
X04241Y026943D02*
X0428D01*
X042605Y026748D02*
Y027138D01*
X04141Y026943D02*
X0418D01*
X041605Y026748D02*
Y027138D01*
X033918Y026943D02*
X034308D01*
X034113Y026748D02*
Y027138D01*
X034918Y026943D02*
X035308D01*
X035113Y026748D02*
Y027138D01*
X039862Y032825D02*
X040252D01*
X040057Y03263D02*
Y03302D01*
X040862Y032825D02*
X041252D01*
X041057Y03263D02*
Y03302D01*
X042786Y022907D02*
X04318D01*
X042983Y022711D02*
Y023104D01*
X044557Y022907D02*
X044951D01*
X044754Y022711D02*
Y023104D01*
X044557Y020348D02*
X044951D01*
X044754Y020152D02*
Y020545D01*
X042786Y020348D02*
X04318D01*
X042983Y020152D02*
Y020545D01*
X039111Y022907D02*
X039505D01*
X039308Y022711D02*
Y023104D01*
X040883Y022907D02*
X041277D01*
X04108Y022711D02*
Y023104D01*
X040883Y020348D02*
X041277D01*
X04108Y020152D02*
Y020545D01*
X039111Y020348D02*
X039505D01*
X039308Y020152D02*
Y020545D01*
X035437Y022907D02*
X03583D01*
X035634Y022711D02*
Y023104D01*
X037208Y022907D02*
X037602D01*
X037405Y022711D02*
Y023104D01*
X037208Y020348D02*
X037602D01*
X037405Y020152D02*
Y020545D01*
X035437Y020348D02*
X03583D01*
X035634Y020152D02*
Y020545D01*
X031762Y022907D02*
X032156D01*
X031959Y022711D02*
Y023104D01*
X033534Y022907D02*
X033928D01*
X033731Y022711D02*
Y023104D01*
X033534Y020348D02*
X033928D01*
X033731Y020152D02*
Y020545D01*
X031762Y020348D02*
X032156D01*
X031959Y020152D02*
Y020545D01*
X035656Y035156D02*
X03605D01*
X035853Y034959D02*
Y035352D01*
X036656Y035156D02*
X03705D01*
X036853Y034959D02*
Y035352D01*
X037656Y035156D02*
X03805D01*
X037853Y034959D02*
Y035352D01*
X038656Y035156D02*
X03905D01*
X038853Y034959D02*
Y035352D01*
X039656Y035156D02*
X04005D01*
X039853Y034959D02*
Y035352D01*
X040656Y035156D02*
X04105D01*
X040853Y034959D02*
Y035352D01*
X040656Y039156D02*
X04105D01*
X040853Y038959D02*
Y039352D01*
X039656Y039156D02*
X04005D01*
X039853Y038959D02*
Y039352D01*
X038656Y039156D02*
X03905D01*
X038853Y038959D02*
Y039352D01*
X037656Y039156D02*
X03805D01*
X037853Y038959D02*
Y039352D01*
X036656Y039156D02*
X03705D01*
X036853Y038959D02*
Y039352D01*
X035656Y039156D02*
X03605D01*
X035853Y038959D02*
Y039352D01*
X045569Y03622D02*
X045769D01*
X045669Y03612D02*
Y03632D01*
X043994Y03622D02*
X044194D01*
X044094Y03612D02*
Y03632D01*
X043994Y020472D02*
X044194D01*
X044094Y020372D02*
Y020572D01*
X04242Y03622D02*
X04262D01*
X04252Y03612D02*
Y03632D01*
X04242Y029921D02*
X04262D01*
X04252Y029821D02*
Y030021D01*
X04242Y023622D02*
X04262D01*
X04252Y023522D02*
Y023722D01*
X041632Y028346D02*
X041832D01*
X041732Y028246D02*
Y028446D01*
X03927Y03622D02*
X03947D01*
X03937Y03612D02*
Y03632D01*
X03927Y029921D02*
X03947D01*
X03937Y029821D02*
Y030021D01*
X040057Y028346D02*
X040257D01*
X040157Y028246D02*
Y028446D01*
X037695Y029921D02*
X037895D01*
X037795Y029821D02*
Y030021D01*
X03612Y029921D02*
X03632D01*
X03622Y029821D02*
Y030021D01*
X034546Y033071D02*
X034746D01*
X034646Y032971D02*
Y033171D01*
X034546Y029921D02*
X034746D01*
X034646Y029821D02*
Y030021D01*
X035333Y028346D02*
X035533D01*
X035433Y028246D02*
Y028446D01*
X033758Y034646D02*
X033958D01*
X033858Y034546D02*
Y034746D01*
X033758Y022047D02*
X033958D01*
X033858Y021947D02*
Y022147D01*
X032971Y020472D02*
X033171D01*
X033071Y020372D02*
Y020572D01*
X032183Y034646D02*
X032383D01*
X032283Y034546D02*
Y034746D01*
X031396Y026772D02*
X031596D01*
X031496Y026672D02*
Y026872D01*
X032183Y025197D02*
X032383D01*
X032283Y025097D02*
Y025297D01*
X029821Y03622D02*
X030021D01*
X029921Y03612D02*
Y03632D01*
X029821Y020472D02*
X030021D01*
X029921Y020372D02*
Y020572D01*
X029034Y037795D02*
X029234D01*
X029134Y037695D02*
Y037895D01*
X028246Y03622D02*
X028446D01*
X028346Y03612D02*
Y03632D01*
X031323Y034104D02*
X031603D01*
X031463Y033964D02*
Y034244D01*
X044217Y032982D02*
X044497D01*
X044357Y032842D02*
Y033122D01*
X044217Y033833D02*
X044497D01*
X044357Y033693D02*
Y033973D01*
X047012Y02564D02*
X047292D01*
X047152Y0255D02*
Y02578D01*
X045595Y02564D02*
X045875D01*
X045735Y0255D02*
Y02578D01*
X044217Y02564D02*
X044497D01*
X044357Y0255D02*
Y02578D01*
X042839Y02564D02*
X043119D01*
X042979Y0255D02*
Y02578D01*
M02*
