G04*
G04 #@! TF.GenerationSoftware,Altium Limited,Altium Designer,18.1.6 (161)*
G04*
G04 Layer_Physical_Order=2*
G04 Layer_Color=16711680*
%FSTAX24Y24*%
%MOIN*%
G70*
G01*
G75*
%ADD36C,0.0120*%
%ADD39O,0.1000X0.0800*%
%ADD40R,0.1000X0.0800*%
%ADD41R,0.0709X0.0630*%
%ADD42O,0.0709X0.0630*%
%ADD43C,0.0650*%
%ADD44R,0.0650X0.0650*%
%ADD45O,0.0630X0.0709*%
G04:AMPARAMS|DCode=46|XSize=66.9mil|YSize=74.8mil|CornerRadius=16.7mil|HoleSize=0mil|Usage=FLASHONLY|Rotation=0.000|XOffset=0mil|YOffset=0mil|HoleType=Round|Shape=RoundedRectangle|*
%AMROUNDEDRECTD46*
21,1,0.0669,0.0413,0,0,0.0*
21,1,0.0335,0.0748,0,0,0.0*
1,1,0.0335,0.0167,-0.0207*
1,1,0.0335,-0.0167,-0.0207*
1,1,0.0335,-0.0167,0.0207*
1,1,0.0335,0.0167,0.0207*
%
%ADD46ROUNDEDRECTD46*%
%ADD47O,0.0669X0.0748*%
%ADD48C,0.0500*%
%ADD49C,0.0400*%
G36*
X039227Y039445D02*
X039209Y039426D01*
X039194Y039408D01*
X039181Y039391D01*
X039171Y039375D01*
X039163Y03936D01*
X039159Y039346D01*
X039157Y039334D01*
X039158Y039322D01*
X039161Y039311D01*
X039168Y039301D01*
X039014Y039486D01*
X039022Y039478D01*
X039031Y039473D01*
X039042Y039471D01*
X039054Y039472D01*
X039067Y039476D01*
X039081Y039482D01*
X039096Y039492D01*
X039113Y039504D01*
X039131Y039519D01*
X03915Y039537D01*
X039227Y039445D01*
D02*
G37*
G36*
X036227D02*
X036209Y039426D01*
X036194Y039408D01*
X036181Y039391D01*
X036171Y039375D01*
X036163Y03936D01*
X036159Y039346D01*
X036157Y039334D01*
X036158Y039322D01*
X036161Y039311D01*
X036168Y039301D01*
X036014Y039486D01*
X036022Y039478D01*
X036031Y039473D01*
X036042Y039471D01*
X036054Y039472D01*
X036067Y039476D01*
X036081Y039482D01*
X036096Y039492D01*
X036113Y039504D01*
X036131Y039519D01*
X03615Y039537D01*
X036227Y039445D01*
D02*
G37*
G36*
X036472Y040006D02*
X036056Y039589D01*
X03605Y039584D01*
X035966Y039618D01*
X035853Y039633D01*
X035739Y039618D01*
X035634Y039575D01*
X035543Y039505D01*
X035473Y039414D01*
X035429Y039308D01*
X035414Y039195D01*
Y039116D01*
X035429Y039003D01*
X035473Y038897D01*
X035543Y038806D01*
X035634Y038736D01*
X035739Y038693D01*
X035853Y038678D01*
X035966Y038693D01*
X036072Y038736D01*
X036163Y038806D01*
X036232Y038897D01*
X036276Y039003D01*
X036291Y039116D01*
Y039195D01*
X036276Y039308D01*
X036266Y039334D01*
X036273Y039344D01*
X036279Y039351D01*
X03676Y039832D01*
X039228D01*
X039249Y039782D01*
X039056Y039589D01*
X03905Y039584D01*
X038966Y039618D01*
X038853Y039633D01*
X038739Y039618D01*
X038634Y039575D01*
X038543Y039505D01*
X038473Y039414D01*
X038429Y039308D01*
X038414Y039195D01*
Y039116D01*
X038429Y039003D01*
X038473Y038897D01*
X038543Y038806D01*
X038634Y038736D01*
X038739Y038693D01*
X038853Y038678D01*
X038966Y038693D01*
X039072Y038736D01*
X039163Y038806D01*
X039232Y038897D01*
X039276Y039003D01*
X039291Y039116D01*
Y039195D01*
X039276Y039308D01*
X039266Y039334D01*
X039273Y039344D01*
X039279Y039351D01*
X03945Y039522D01*
X0395Y039518D01*
X03952Y039475D01*
X039473Y039414D01*
X039429Y039308D01*
X039414Y039195D01*
Y039116D01*
X039429Y039003D01*
X039473Y038897D01*
X039543Y038806D01*
X039634Y038736D01*
X039739Y038693D01*
X039853Y038678D01*
X039966Y038693D01*
X04005Y038727D01*
X040056Y038722D01*
X040271Y038506D01*
X040324Y038471D01*
X040387Y038458D01*
X041581D01*
X041634Y038469D01*
X042321D01*
X044258Y036532D01*
X044229Y036489D01*
X044173Y036513D01*
X044144Y036516D01*
Y03627D01*
X04439D01*
X044387Y036299D01*
X044363Y036355D01*
X044406Y036384D01*
X046753Y034037D01*
Y028266D01*
X04465Y026164D01*
X044564Y02609D01*
X044526Y026062D01*
X04449Y026038D01*
X044456Y02602D01*
X044427Y026006D01*
X044401Y025998D01*
X044379Y025993D01*
X044362Y025992D01*
X044357Y025993D01*
X044265Y025981D01*
X04418Y025945D01*
X044107Y025889D01*
X044051Y025816D01*
X044016Y025731D01*
X044004Y02564D01*
X044016Y025548D01*
X044051Y025463D01*
X044107Y02539D01*
X04418Y025334D01*
X044265Y025299D01*
X044357Y025287D01*
X044448Y025299D01*
X044533Y025334D01*
X044606Y02539D01*
X044662Y025463D01*
X044698Y025548D01*
X04471Y02564D01*
X044709Y025645D01*
X04471Y025662D01*
X044715Y025684D01*
X044723Y02571D01*
X044737Y025739D01*
X044755Y025773D01*
X044779Y025809D01*
X044807Y025847D01*
X044881Y025933D01*
X047031Y028083D01*
X047066Y028136D01*
X047079Y028199D01*
Y034104D01*
X047066Y034167D01*
X047031Y03422D01*
X042504Y038747D01*
X042451Y038783D01*
X042388Y038795D01*
X041592D01*
X041539Y038785D01*
X041209D01*
X041185Y038835D01*
X041232Y038897D01*
X041276Y039003D01*
X041291Y039116D01*
Y039195D01*
X041276Y039308D01*
X041232Y039414D01*
X041163Y039505D01*
X041088Y039562D01*
X041105Y039612D01*
X041215D01*
X041253Y039574D01*
X041306Y039539D01*
X041369Y039526D01*
X041369Y039526D01*
X047713D01*
X047938Y039301D01*
X047917Y039251D01*
X047865D01*
X047756Y039237D01*
X047655Y039195D01*
X047569Y039129D01*
X047502Y039042D01*
X04746Y038941D01*
X047446Y038833D01*
X04746Y038724D01*
X047502Y038623D01*
X047569Y038537D01*
X047655Y03847D01*
X047756Y038428D01*
X047865Y038414D01*
X047943D01*
X048052Y038428D01*
X048153Y03847D01*
X048205Y038511D01*
X048255Y038486D01*
Y038179D01*
X048205Y038155D01*
X048153Y038195D01*
X048052Y038237D01*
X047943Y038251D01*
X047865D01*
X047756Y038237D01*
X047655Y038195D01*
X047569Y038129D01*
X047502Y038042D01*
X04746Y037941D01*
X047446Y037833D01*
X04746Y037724D01*
X047502Y037623D01*
X047569Y037537D01*
X047655Y03747D01*
X047756Y037428D01*
X047865Y037414D01*
X047943D01*
X048052Y037428D01*
X048153Y03747D01*
X048205Y037511D01*
X048255Y037486D01*
Y037179D01*
X048205Y037155D01*
X048153Y037195D01*
X048052Y037237D01*
X047943Y037251D01*
X047865D01*
X047756Y037237D01*
X047655Y037195D01*
X047569Y037129D01*
X047502Y037042D01*
X04746Y036941D01*
X047446Y036833D01*
X04746Y036724D01*
X047502Y036623D01*
X047569Y036537D01*
X047655Y03647D01*
X047756Y036428D01*
X047865Y036414D01*
X047943D01*
X048052Y036428D01*
X048153Y03647D01*
X048205Y036511D01*
X048255Y036486D01*
Y036179D01*
X048205Y036155D01*
X048153Y036195D01*
X048052Y036237D01*
X047954Y03625D01*
Y035833D01*
Y035416D01*
X048052Y035428D01*
X048153Y03547D01*
X048205Y035511D01*
X048255Y035486D01*
Y035179D01*
X048205Y035155D01*
X048153Y035195D01*
X048052Y035237D01*
X047943Y035251D01*
X047865D01*
X047756Y035237D01*
X047655Y035195D01*
X047569Y035129D01*
X047502Y035042D01*
X04746Y034941D01*
X047446Y034833D01*
X04746Y034724D01*
X047502Y034623D01*
X047569Y034537D01*
X047655Y03447D01*
X047756Y034428D01*
X047865Y034414D01*
X047943D01*
X048052Y034428D01*
X048153Y03447D01*
X048205Y034511D01*
X048255Y034486D01*
Y034179D01*
X048205Y034155D01*
X048153Y034195D01*
X048052Y034237D01*
X047943Y034251D01*
X047865D01*
X047756Y034237D01*
X047655Y034195D01*
X047569Y034129D01*
X047502Y034042D01*
X04746Y033941D01*
X047446Y033833D01*
X04746Y033724D01*
X047502Y033623D01*
X047569Y033537D01*
X047655Y03347D01*
X047756Y033428D01*
X047865Y033414D01*
X047943D01*
X048052Y033428D01*
X048153Y03347D01*
X048205Y033511D01*
X048255Y033486D01*
Y033179D01*
X048205Y033155D01*
X048153Y033195D01*
X048052Y033237D01*
X047943Y033251D01*
X047865D01*
X047756Y033237D01*
X047655Y033195D01*
X047569Y033129D01*
X047502Y033042D01*
X04746Y032941D01*
X047446Y032833D01*
X04746Y032724D01*
X047502Y032623D01*
X047569Y032537D01*
X047655Y03247D01*
X047756Y032428D01*
X047865Y032414D01*
X047943D01*
X048052Y032428D01*
X048153Y03247D01*
X048205Y032511D01*
X048255Y032486D01*
Y032179D01*
X048205Y032155D01*
X048153Y032195D01*
X048052Y032237D01*
X047943Y032251D01*
X047865D01*
X047756Y032237D01*
X047655Y032195D01*
X047569Y032129D01*
X047502Y032042D01*
X04746Y031941D01*
X047446Y031833D01*
X04746Y031724D01*
X047502Y031623D01*
X047569Y031537D01*
X047655Y03147D01*
X047756Y031428D01*
X047865Y031414D01*
X047943D01*
X048052Y031428D01*
X048153Y03147D01*
X048205Y031511D01*
X048255Y031486D01*
Y031179D01*
X048205Y031155D01*
X048153Y031195D01*
X048052Y031237D01*
X047943Y031251D01*
X047865D01*
X047756Y031237D01*
X047655Y031195D01*
X047569Y031129D01*
X047502Y031042D01*
X04746Y030941D01*
X047446Y030833D01*
X04746Y030724D01*
X047502Y030623D01*
X047569Y030537D01*
X047655Y03047D01*
X047756Y030428D01*
X047865Y030414D01*
X047943D01*
X048052Y030428D01*
X048153Y03047D01*
X048205Y030511D01*
X048255Y030486D01*
Y030179D01*
X048205Y030155D01*
X048153Y030195D01*
X048052Y030237D01*
X047943Y030251D01*
X047865D01*
X047756Y030237D01*
X047655Y030195D01*
X047569Y030129D01*
X047502Y030042D01*
X04746Y029941D01*
X047446Y029833D01*
X04746Y029724D01*
X047502Y029623D01*
X047569Y029537D01*
X047655Y02947D01*
X047756Y029428D01*
X047865Y029414D01*
X047928D01*
X047953Y029368D01*
X047274Y02869D01*
X047239Y028637D01*
X047226Y028574D01*
Y027038D01*
X047239Y026975D01*
X047245Y026966D01*
Y026692D01*
X046356Y025803D01*
X046313D01*
X046199Y025812D01*
X046153Y025819D01*
X04611Y025828D01*
X046074Y025838D01*
X046043Y02585D01*
X046019Y025862D01*
X046Y025874D01*
X045987Y025885D01*
X045984Y025889D01*
X045911Y025945D01*
X045826Y025981D01*
X045735Y025993D01*
X045643Y025981D01*
X045558Y025945D01*
X045485Y025889D01*
X045429Y025816D01*
X045394Y025731D01*
X045382Y02564D01*
X045394Y025548D01*
X045429Y025463D01*
X045485Y02539D01*
X045558Y025334D01*
X045643Y025299D01*
X045735Y025287D01*
X045826Y025299D01*
X045911Y025334D01*
X045984Y02539D01*
X045987Y025394D01*
X046Y025405D01*
X046019Y025418D01*
X046043Y02543D01*
X046074Y025442D01*
X04611Y025452D01*
X046153Y025461D01*
X046199Y025468D01*
X046313Y025477D01*
X046424D01*
X046486Y025489D01*
X046539Y025524D01*
X046765Y02575D01*
X046798Y025737D01*
X04681Y025725D01*
X046799Y02564D01*
X046811Y025548D01*
X046846Y025463D01*
X046902Y02539D01*
X046975Y025334D01*
X047061Y025299D01*
X047152Y025287D01*
X047243Y025299D01*
X047328Y025334D01*
X047402Y02539D01*
X047458Y025463D01*
X047501Y025441D01*
X04746Y025343D01*
X047446Y025234D01*
X04746Y025126D01*
X047502Y025025D01*
X047569Y024938D01*
X047655Y024872D01*
X047756Y02483D01*
X047865Y024816D01*
X047943D01*
X048052Y02483D01*
X048153Y024872D01*
X048239Y024938D01*
X048306Y025025D01*
X048348Y025126D01*
X048362Y025234D01*
X048348Y025343D01*
X048306Y025444D01*
X048242Y025527D01*
X048235Y025542D01*
X048237Y025583D01*
X048252Y025594D01*
X048856Y026198D01*
X048903Y026179D01*
Y020422D01*
X04823Y01975D01*
X048188Y019778D01*
X048193Y01979D01*
X048205Y019881D01*
X048193Y019972D01*
X048157Y020058D01*
X048101Y020131D01*
X048028Y020187D01*
X047943Y020222D01*
X047852Y020234D01*
X04776Y020222D01*
X047675Y020187D01*
X047602Y020131D01*
X047546Y020058D01*
X047511Y019972D01*
X047499Y019881D01*
X047511Y01979D01*
X047546Y019705D01*
X047602Y019631D01*
X047675Y019575D01*
X047684Y019571D01*
X047675Y019521D01*
X028979Y019519D01*
X028053Y020466D01*
Y036028D01*
X028103Y036045D01*
X028132Y036007D01*
X028195Y035958D01*
X028268Y035928D01*
X028296Y035924D01*
Y03622D01*
Y036516D01*
X028268Y036513D01*
X028195Y036483D01*
X028132Y036434D01*
X028103Y036396D01*
X028053Y036413D01*
Y039225D01*
X028608Y03978D01*
X028655Y039757D01*
X028649Y039715D01*
X028661Y039623D01*
X028697Y039538D01*
X028753Y039465D01*
X028826Y039409D01*
X028911Y039374D01*
X029002Y039362D01*
X029094Y039374D01*
X029179Y039409D01*
X029252Y039465D01*
X029308Y039538D01*
X029343Y039623D01*
X029355Y039715D01*
X029343Y039806D01*
X029308Y039891D01*
X029252Y039964D01*
X029203Y040002D01*
X02922Y040052D01*
X036453D01*
X036472Y040006D01*
D02*
G37*
G36*
X040161Y039D02*
X040158Y038989D01*
X040157Y038977D01*
X040159Y038965D01*
X040163Y038951D01*
X040171Y038936D01*
X040181Y03892D01*
X040194Y038903D01*
X040209Y038885D01*
X040227Y038866D01*
X04015Y038774D01*
X040131Y038792D01*
X040113Y038807D01*
X040096Y038819D01*
X040081Y038829D01*
X040067Y038835D01*
X040054Y038839D01*
X040042Y03884D01*
X040031Y038838D01*
X040022Y038833D01*
X040014Y038825D01*
X040168Y03901D01*
X040161Y039D01*
D02*
G37*
G36*
X044854Y026052D02*
X044806Y026003D01*
X044727Y025911D01*
X044695Y025867D01*
X044668Y025825D01*
X044645Y025785D01*
X044628Y025747D01*
X044616Y02571D01*
X044609Y025675D01*
X044607Y025642D01*
X044359Y02589D01*
X044392Y025892D01*
X044427Y025899D01*
X044464Y025911D01*
X044502Y025928D01*
X044542Y025951D01*
X044584Y025978D01*
X044627Y02601D01*
X04472Y026089D01*
X044769Y026137D01*
X044854Y026052D01*
D02*
G37*
G36*
X047319Y02583D02*
X047349Y025818D01*
X047383Y025806D01*
X047422Y025796D01*
X047467Y025788D01*
X047571Y025776D01*
X047696Y02577D01*
X047766Y025769D01*
X047802Y025649D01*
X047733Y025648D01*
X047612Y025638D01*
X04756Y025629D01*
X047514Y025617D01*
X047474Y025603D01*
X04744Y025587D01*
X047411Y025567D01*
X047389Y025546D01*
X047372Y025521D01*
X047295Y025845D01*
X047319Y02583D01*
D02*
G37*
G36*
X045938Y025793D02*
X045968Y025773D01*
X046002Y025756D01*
X046042Y025741D01*
X046086Y025729D01*
X046134Y025718D01*
X046188Y02571D01*
X046309Y025701D01*
X046377Y0257D01*
Y02558D01*
X046309Y025579D01*
X046188Y025569D01*
X046134Y025561D01*
X046086Y025551D01*
X046042Y025538D01*
X046002Y025523D01*
X045968Y025506D01*
X045938Y025487D01*
X045913Y025465D01*
Y025815D01*
X045938Y025793D01*
D02*
G37*
%LPC*%
G36*
X037853Y039633D02*
X037739Y039618D01*
X037634Y039575D01*
X037543Y039505D01*
X037473Y039414D01*
X037429Y039308D01*
X037414Y039195D01*
Y039116D01*
X037429Y039003D01*
X037473Y038897D01*
X037543Y038806D01*
X037634Y038736D01*
X037739Y038693D01*
X037853Y038678D01*
X037966Y038693D01*
X038072Y038736D01*
X038163Y038806D01*
X038232Y038897D01*
X038276Y039003D01*
X038291Y039116D01*
Y039195D01*
X038276Y039308D01*
X038232Y039414D01*
X038163Y039505D01*
X038072Y039575D01*
X037966Y039618D01*
X037853Y039633D01*
D02*
G37*
G36*
X029184Y038091D02*
Y037845D01*
X02943D01*
X029426Y037874D01*
X029396Y037947D01*
X029348Y038009D01*
X029285Y038057D01*
X029212Y038088D01*
X029184Y038091D01*
D02*
G37*
G36*
X029084D02*
X029056Y038088D01*
X028983Y038057D01*
X02892Y038009D01*
X028872Y037947D01*
X028842Y037874D01*
X028838Y037845D01*
X029084D01*
Y038091D01*
D02*
G37*
G36*
X02943Y037745D02*
X029184D01*
Y037499D01*
X029212Y037503D01*
X029285Y037533D01*
X029348Y037581D01*
X029396Y037644D01*
X029426Y037717D01*
X02943Y037745D01*
D02*
G37*
G36*
X029084D02*
X028838D01*
X028842Y037717D01*
X028872Y037644D01*
X02892Y037581D01*
X028983Y037533D01*
X029056Y037503D01*
X029084Y037499D01*
Y037745D01*
D02*
G37*
G36*
X045719Y036516D02*
Y03627D01*
X045965D01*
X045962Y036299D01*
X045931Y036372D01*
X045883Y036434D01*
X045821Y036483D01*
X045748Y036513D01*
X045719Y036516D01*
D02*
G37*
G36*
X045619D02*
X045591Y036513D01*
X045518Y036483D01*
X045455Y036434D01*
X045407Y036372D01*
X045377Y036299D01*
X045373Y03627D01*
X045619D01*
Y036516D01*
D02*
G37*
G36*
X04257D02*
Y03627D01*
X042816D01*
X042812Y036299D01*
X042782Y036372D01*
X042734Y036434D01*
X042671Y036483D01*
X042598Y036513D01*
X04257Y036516D01*
D02*
G37*
G36*
X04247D02*
X042441Y036513D01*
X042368Y036483D01*
X042306Y036434D01*
X042258Y036372D01*
X042227Y036299D01*
X042224Y03627D01*
X04247D01*
Y036516D01*
D02*
G37*
G36*
X03942D02*
Y03627D01*
X039666D01*
X039662Y036299D01*
X039632Y036372D01*
X039584Y036434D01*
X039521Y036483D01*
X039448Y036513D01*
X03942Y036516D01*
D02*
G37*
G36*
X03932D02*
X039292Y036513D01*
X039219Y036483D01*
X039156Y036434D01*
X039108Y036372D01*
X039078Y036299D01*
X039074Y03627D01*
X03932D01*
Y036516D01*
D02*
G37*
G36*
X029971D02*
Y03627D01*
X030217D01*
X030214Y036299D01*
X030183Y036372D01*
X030135Y036434D01*
X030073Y036483D01*
X03Y036513D01*
X029971Y036516D01*
D02*
G37*
G36*
X029871D02*
X029843Y036513D01*
X02977Y036483D01*
X029707Y036434D01*
X029659Y036372D01*
X029629Y036299D01*
X029625Y03627D01*
X029871D01*
Y036516D01*
D02*
G37*
G36*
X028396D02*
Y03627D01*
X028642D01*
X028639Y036299D01*
X028609Y036372D01*
X02856Y036434D01*
X028498Y036483D01*
X028425Y036513D01*
X028396Y036516D01*
D02*
G37*
G36*
X045965Y03617D02*
X045719D01*
Y035924D01*
X045748Y035928D01*
X045821Y035958D01*
X045883Y036007D01*
X045931Y036069D01*
X045962Y036142D01*
X045965Y03617D01*
D02*
G37*
G36*
X045619D02*
X045373D01*
X045377Y036142D01*
X045407Y036069D01*
X045455Y036007D01*
X045518Y035958D01*
X045591Y035928D01*
X045619Y035924D01*
Y03617D01*
D02*
G37*
G36*
X042816D02*
X04257D01*
Y035924D01*
X042598Y035928D01*
X042671Y035958D01*
X042734Y036007D01*
X042782Y036069D01*
X042812Y036142D01*
X042816Y03617D01*
D02*
G37*
G36*
X04247D02*
X042224D01*
X042227Y036142D01*
X042258Y036069D01*
X042306Y036007D01*
X042368Y035958D01*
X042441Y035928D01*
X04247Y035924D01*
Y03617D01*
D02*
G37*
G36*
X039666D02*
X03942D01*
Y035924D01*
X039448Y035928D01*
X039521Y035958D01*
X039584Y036007D01*
X039632Y036069D01*
X039662Y036142D01*
X039666Y03617D01*
D02*
G37*
G36*
X03932D02*
X039074D01*
X039078Y036142D01*
X039108Y036069D01*
X039156Y036007D01*
X039219Y035958D01*
X039292Y035928D01*
X03932Y035924D01*
Y03617D01*
D02*
G37*
G36*
X030217D02*
X029971D01*
Y035924D01*
X03Y035928D01*
X030073Y035958D01*
X030135Y036007D01*
X030183Y036069D01*
X030214Y036142D01*
X030217Y03617D01*
D02*
G37*
G36*
X029871D02*
X029625D01*
X029629Y036142D01*
X029659Y036069D01*
X029707Y036007D01*
X02977Y035958D01*
X029843Y035928D01*
X029871Y035924D01*
Y03617D01*
D02*
G37*
G36*
X028642D02*
X028396D01*
Y035924D01*
X028425Y035928D01*
X028498Y035958D01*
X02856Y036007D01*
X028609Y036069D01*
X028639Y036142D01*
X028642Y03617D01*
D02*
G37*
G36*
X047854Y03625D02*
X047756Y036237D01*
X047655Y036195D01*
X047569Y036129D01*
X047502Y036042D01*
X04746Y035941D01*
X047453Y035883D01*
X047854D01*
Y03625D01*
D02*
G37*
G36*
X042181Y035853D02*
X039387D01*
X039324Y03584D01*
X039271Y035805D01*
X039056Y035589D01*
X03905Y035584D01*
X038966Y035618D01*
X038853Y035633D01*
X038739Y035618D01*
X038634Y035575D01*
X038543Y035505D01*
X038473Y035414D01*
X038429Y035308D01*
X038414Y035195D01*
Y035116D01*
X038429Y035003D01*
X038473Y034897D01*
X038543Y034806D01*
X038634Y034736D01*
X038739Y034693D01*
X038853Y034678D01*
X038966Y034693D01*
X039072Y034736D01*
X039163Y034806D01*
X039232Y034897D01*
X039276Y035003D01*
X039291Y035116D01*
Y035195D01*
X039276Y035308D01*
X039266Y035334D01*
X039273Y035344D01*
X039279Y035351D01*
X03945Y035522D01*
X0395Y035518D01*
X03952Y035475D01*
X039473Y035414D01*
X039429Y035308D01*
X039414Y035195D01*
Y035116D01*
X039429Y035003D01*
X039473Y034897D01*
X039543Y034806D01*
X039634Y034736D01*
X039739Y034693D01*
X039853Y034678D01*
X039966Y034693D01*
X040072Y034736D01*
X040163Y034806D01*
X040232Y034897D01*
X040276Y035003D01*
X040291Y035116D01*
Y035195D01*
X040276Y035308D01*
X040232Y035414D01*
X040185Y035476D01*
X040209Y035526D01*
X040496D01*
X040521Y035476D01*
X040473Y035414D01*
X040429Y035308D01*
X040414Y035195D01*
Y035116D01*
X040429Y035003D01*
X04044Y034977D01*
X040432Y034967D01*
X040427Y03496D01*
X039734Y034267D01*
X032041D01*
X031928Y034276D01*
X031881Y034283D01*
X031839Y034292D01*
X031802Y034303D01*
X031772Y034314D01*
X031747Y034326D01*
X031728Y034339D01*
X031716Y03435D01*
X031713Y034354D01*
X031639Y03441D01*
X031554Y034445D01*
X031463Y034457D01*
X031372Y034445D01*
X031286Y03441D01*
X031213Y034354D01*
X031157Y034281D01*
X031122Y034196D01*
X03111Y034104D01*
X031122Y034013D01*
X031157Y033928D01*
X031213Y033855D01*
X031286Y033799D01*
X031372Y033763D01*
X031463Y033751D01*
X031554Y033763D01*
X031639Y033799D01*
X031713Y033855D01*
X031716Y033859D01*
X031728Y03387D01*
X031747Y033882D01*
X031772Y033895D01*
X031802Y033906D01*
X031839Y033917D01*
X031881Y033926D01*
X031928Y033933D01*
X032041Y033941D01*
X039802D01*
X039864Y033954D01*
X039917Y033989D01*
X04065Y034722D01*
X040656Y034727D01*
X040739Y034693D01*
X040853Y034678D01*
X040966Y034693D01*
X04105Y034727D01*
X041056Y034722D01*
X043209Y032568D01*
Y026102D01*
X043149Y026048D01*
X043121Y026026D01*
X043095Y026008D01*
X043074Y025995D01*
X043058Y025988D01*
X043049Y025985D01*
X043048Y025985D01*
X043041Y025985D01*
X043038Y025985D01*
X043035Y025985D01*
X043033Y025986D01*
X043033Y025986D01*
X042979Y025993D01*
X042887Y025981D01*
X042802Y025945D01*
X042729Y025889D01*
X042673Y025816D01*
X042638Y025731D01*
X042626Y02564D01*
X042638Y025548D01*
X042673Y025463D01*
X042729Y02539D01*
X042802Y025334D01*
X042887Y025299D01*
X042979Y025287D01*
X04307Y025299D01*
X043155Y025334D01*
X043228Y02539D01*
X043284Y025463D01*
X04332Y025548D01*
X043332Y02564D01*
X043325Y025694D01*
X043325Y025694D01*
X043324Y025696D01*
X043324Y025699D01*
X043324Y025702D01*
X043324Y025709D01*
X043324Y02571D01*
X043327Y025719D01*
X043334Y025735D01*
X043347Y025756D01*
X043364Y02578D01*
X043446Y025877D01*
X043488Y025918D01*
X043523Y025971D01*
X043536Y026033D01*
Y032636D01*
X043523Y032698D01*
X043488Y032751D01*
X041279Y03496D01*
X041273Y034967D01*
X041266Y034977D01*
X041276Y035003D01*
X041291Y035116D01*
Y035195D01*
X041276Y035308D01*
X041232Y035414D01*
X041185Y035476D01*
X041209Y035526D01*
X042113D01*
X043922Y033717D01*
X043975Y033682D01*
X044038Y03367D01*
X044045D01*
X044051Y033656D01*
X044107Y033583D01*
X04418Y033527D01*
X044265Y033492D01*
X044357Y03348D01*
X044448Y033492D01*
X044533Y033527D01*
X044606Y033583D01*
X044662Y033656D01*
X044698Y033741D01*
X04471Y033833D01*
X044698Y033924D01*
X044662Y034009D01*
X044606Y034082D01*
X044533Y034138D01*
X044448Y034174D01*
X044357Y034186D01*
X044265Y034174D01*
X04418Y034138D01*
X044107Y034082D01*
X044092Y034062D01*
X044042Y034059D01*
X042296Y035805D01*
X042243Y03584D01*
X042181Y035853D01*
D02*
G37*
G36*
X047854Y035783D02*
X047453D01*
X04746Y035724D01*
X047502Y035623D01*
X047569Y035537D01*
X047655Y03547D01*
X047756Y035428D01*
X047854Y035416D01*
Y035783D01*
D02*
G37*
G36*
X029358Y035649D02*
X02845D01*
Y034819D01*
X029358D01*
Y035649D01*
D02*
G37*
G36*
X033908Y034942D02*
Y034696D01*
X034154D01*
X034151Y034724D01*
X03412Y034797D01*
X034072Y03486D01*
X03401Y034908D01*
X033937Y034938D01*
X033908Y034942D01*
D02*
G37*
G36*
X033808D02*
X03378Y034938D01*
X033707Y034908D01*
X033644Y03486D01*
X033596Y034797D01*
X033566Y034724D01*
X033562Y034696D01*
X033808D01*
Y034942D01*
D02*
G37*
G36*
X032333D02*
Y034696D01*
X032579D01*
X032576Y034724D01*
X032546Y034797D01*
X032497Y03486D01*
X032435Y034908D01*
X032362Y034938D01*
X032333Y034942D01*
D02*
G37*
G36*
X032233D02*
X032205Y034938D01*
X032132Y034908D01*
X032069Y03486D01*
X032021Y034797D01*
X031991Y034724D01*
X031987Y034696D01*
X032233D01*
Y034942D01*
D02*
G37*
G36*
X03602Y035632D02*
X035685D01*
X035616Y035623D01*
X035551Y035596D01*
X035495Y035553D01*
X035452Y035497D01*
X035425Y035432D01*
X035416Y035362D01*
Y034949D01*
X035425Y034879D01*
X035452Y034814D01*
X035495Y034758D01*
X035551Y034715D01*
X035616Y034688D01*
X035685Y034679D01*
X03602D01*
X03609Y034688D01*
X036155Y034715D01*
X036211Y034758D01*
X036254Y034814D01*
X036281Y034879D01*
X03629Y034949D01*
Y035362D01*
X036281Y035432D01*
X036254Y035497D01*
X036211Y035553D01*
X036155Y035596D01*
X03609Y035623D01*
X03602Y035632D01*
D02*
G37*
G36*
X037853Y035633D02*
X037739Y035618D01*
X037634Y035575D01*
X037543Y035505D01*
X037473Y035414D01*
X037429Y035308D01*
X037414Y035195D01*
Y035116D01*
X037429Y035003D01*
X037473Y034897D01*
X037543Y034806D01*
X037634Y034736D01*
X037739Y034693D01*
X037853Y034678D01*
X037966Y034693D01*
X038072Y034736D01*
X038163Y034806D01*
X038232Y034897D01*
X038276Y035003D01*
X038291Y035116D01*
Y035195D01*
X038276Y035308D01*
X038232Y035414D01*
X038163Y035505D01*
X038072Y035575D01*
X037966Y035618D01*
X037853Y035633D01*
D02*
G37*
G36*
X036853D02*
X036739Y035618D01*
X036634Y035575D01*
X036543Y035505D01*
X036473Y035414D01*
X036429Y035308D01*
X036414Y035195D01*
Y035116D01*
X036429Y035003D01*
X036473Y034897D01*
X036543Y034806D01*
X036634Y034736D01*
X036739Y034693D01*
X036853Y034678D01*
X036966Y034693D01*
X037072Y034736D01*
X037163Y034806D01*
X037232Y034897D01*
X037276Y035003D01*
X037291Y035116D01*
Y035195D01*
X037276Y035308D01*
X037232Y035414D01*
X037163Y035505D01*
X037072Y035575D01*
X036966Y035618D01*
X036853Y035633D01*
D02*
G37*
G36*
X034154Y034596D02*
X033908D01*
Y03435D01*
X033937Y034353D01*
X03401Y034384D01*
X034072Y034432D01*
X03412Y034494D01*
X034151Y034567D01*
X034154Y034596D01*
D02*
G37*
G36*
X033808D02*
X033562D01*
X033566Y034567D01*
X033596Y034494D01*
X033644Y034432D01*
X033707Y034384D01*
X03378Y034353D01*
X033808Y03435D01*
Y034596D01*
D02*
G37*
G36*
X032579D02*
X032333D01*
Y03435D01*
X032362Y034353D01*
X032435Y034384D01*
X032497Y034432D01*
X032546Y034494D01*
X032576Y034567D01*
X032579Y034596D01*
D02*
G37*
G36*
X032233D02*
X031987D01*
X031991Y034567D01*
X032021Y034494D01*
X032069Y034432D01*
X032132Y034384D01*
X032205Y034353D01*
X032233Y03435D01*
Y034596D01*
D02*
G37*
G36*
X028943Y034653D02*
X028865D01*
X028756Y034639D01*
X028655Y034597D01*
X028569Y03453D01*
X028502Y034444D01*
X02846Y034343D01*
X028446Y034234D01*
X02846Y034126D01*
X028502Y034025D01*
X028569Y033938D01*
X028655Y033872D01*
X028756Y03383D01*
X028865Y033816D01*
X028943D01*
X029052Y03383D01*
X029153Y033872D01*
X029239Y033938D01*
X029306Y034025D01*
X029348Y034126D01*
X029362Y034234D01*
X029348Y034343D01*
X029306Y034444D01*
X029239Y03453D01*
X029153Y034597D01*
X029052Y034639D01*
X028943Y034653D01*
D02*
G37*
G36*
X036853Y039633D02*
X036739Y039618D01*
X036634Y039575D01*
X036543Y039505D01*
X036473Y039414D01*
X036429Y039308D01*
X036414Y039195D01*
Y039116D01*
X036429Y039003D01*
X036473Y038897D01*
X036543Y038806D01*
X036634Y038736D01*
X036739Y038693D01*
X036853Y038678D01*
X036966Y038693D01*
X03705Y038727D01*
X037056Y038722D01*
X03795Y037828D01*
X038003Y037792D01*
X038065Y03778D01*
X038065Y03778D01*
X04173D01*
X045178Y034332D01*
Y034034D01*
X04465Y033507D01*
X044564Y033432D01*
X044526Y033404D01*
X04449Y033381D01*
X044456Y033362D01*
X044427Y033349D01*
X044401Y03334D01*
X044379Y033336D01*
X044362Y033335D01*
X044357Y033335D01*
X044265Y033323D01*
X04418Y033288D01*
X044107Y033232D01*
X044051Y033159D01*
X044016Y033074D01*
X044004Y032982D01*
X044016Y032891D01*
X044051Y032806D01*
X044107Y032733D01*
X04418Y032677D01*
X044265Y032641D01*
X044357Y032629D01*
X044448Y032641D01*
X044533Y032677D01*
X044606Y032733D01*
X044662Y032806D01*
X044698Y032891D01*
X04471Y032982D01*
X044709Y032987D01*
X04471Y033004D01*
X044715Y033026D01*
X044723Y033052D01*
X044737Y033082D01*
X044755Y033115D01*
X044779Y033151D01*
X044807Y033189D01*
X044881Y033276D01*
X045456Y033851D01*
X045492Y033904D01*
X045504Y033967D01*
X045504Y033967D01*
Y0344D01*
X045492Y034462D01*
X045456Y034515D01*
X044103Y035869D01*
X044121Y035921D01*
X044173Y035928D01*
X044246Y035958D01*
X044308Y036007D01*
X044357Y036069D01*
X044387Y036142D01*
X04439Y03617D01*
X044094D01*
Y03622D01*
X044044D01*
Y036516D01*
X044016Y036513D01*
X043943Y036483D01*
X043881Y036434D01*
X043832Y036372D01*
X043802Y036299D01*
X043795Y036247D01*
X043743Y036229D01*
X041913Y038058D01*
X04186Y038094D01*
X041798Y038106D01*
X038133D01*
X037279Y03896D01*
X037273Y038967D01*
X037266Y038977D01*
X037276Y039003D01*
X037291Y039116D01*
Y039195D01*
X037276Y039308D01*
X037232Y039414D01*
X037163Y039505D01*
X037072Y039575D01*
X036966Y039618D01*
X036853Y039633D01*
D02*
G37*
G36*
X034696Y033367D02*
Y033121D01*
X034942D01*
X034938Y033149D01*
X034908Y033222D01*
X03486Y033285D01*
X034797Y033333D01*
X034724Y033363D01*
X034696Y033367D01*
D02*
G37*
G36*
X034596D02*
X034567Y033363D01*
X034494Y033333D01*
X034432Y033285D01*
X034384Y033222D01*
X034353Y033149D01*
X03435Y033121D01*
X034596D01*
Y033367D01*
D02*
G37*
G36*
X028943Y033653D02*
X028865D01*
X028756Y033639D01*
X028655Y033597D01*
X028569Y03353D01*
X028502Y033444D01*
X02846Y033343D01*
X028446Y033234D01*
X02846Y033126D01*
X028502Y033025D01*
X028569Y032938D01*
X028655Y032872D01*
X028756Y03283D01*
X028865Y032816D01*
X028943D01*
X029052Y03283D01*
X029153Y032872D01*
X029239Y032938D01*
X029306Y033025D01*
X029348Y033126D01*
X029362Y033234D01*
X029348Y033343D01*
X029306Y033444D01*
X029239Y03353D01*
X029153Y033597D01*
X029052Y033639D01*
X028943Y033653D01*
D02*
G37*
G36*
X034942Y033021D02*
X034696D01*
Y032775D01*
X034724Y032779D01*
X034797Y032809D01*
X03486Y032857D01*
X034908Y03292D01*
X034938Y032993D01*
X034942Y033021D01*
D02*
G37*
G36*
X034596D02*
X03435D01*
X034353Y032993D01*
X034384Y03292D01*
X034432Y032857D01*
X034494Y032809D01*
X034567Y032779D01*
X034596Y032775D01*
Y033021D01*
D02*
G37*
G36*
X040482Y03325D02*
X039632D01*
Y0324D01*
X040482D01*
Y03325D01*
D02*
G37*
G36*
X038317D02*
X037467D01*
Y0324D01*
X038317D01*
Y03325D01*
D02*
G37*
G36*
X036152D02*
X035302D01*
Y0324D01*
X036152D01*
Y03325D01*
D02*
G37*
G36*
X028943Y032653D02*
X028865D01*
X028756Y032639D01*
X028655Y032597D01*
X028569Y03253D01*
X028502Y032444D01*
X02846Y032343D01*
X028446Y032234D01*
X02846Y032126D01*
X028502Y032025D01*
X028569Y031938D01*
X028655Y031872D01*
X028756Y03183D01*
X028865Y031816D01*
X028943D01*
X029052Y03183D01*
X029153Y031872D01*
X029239Y031938D01*
X029306Y032025D01*
X029348Y032126D01*
X029362Y032234D01*
X029348Y032343D01*
X029306Y032444D01*
X029239Y03253D01*
X029153Y032597D01*
X029052Y032639D01*
X028943Y032653D01*
D02*
G37*
G36*
X035113Y031974D02*
X035002Y031959D01*
X034898Y031917D01*
X034809Y031848D01*
X034741Y03176D01*
X034699Y031656D01*
X034684Y031545D01*
X034685Y031536D01*
X034683Y031506D01*
X034677Y031469D01*
X034664Y031428D01*
X034646Y031385D01*
X034622Y031338D01*
X034592Y031289D01*
X034588Y031283D01*
X034538Y031299D01*
Y03197D01*
X033688D01*
Y03112D01*
X034386D01*
X034407Y03107D01*
X029734Y026397D01*
X029358D01*
Y026649D01*
X02845D01*
Y025819D01*
X029358D01*
Y026071D01*
X029802D01*
X029864Y026084D01*
X029917Y026119D01*
X034654Y030856D01*
X03475Y030945D01*
X034804Y030987D01*
X034856Y031024D01*
X034905Y031055D01*
X034952Y031079D01*
X034996Y031097D01*
X035036Y031109D01*
X035074Y031116D01*
X035103Y031118D01*
X035113Y031117D01*
X035224Y031131D01*
X035327Y031174D01*
X035416Y031242D01*
X035484Y031331D01*
X035527Y031434D01*
X035541Y031545D01*
X035527Y031656D01*
X035484Y03176D01*
X035416Y031848D01*
X035327Y031917D01*
X035224Y031959D01*
X035113Y031974D01*
D02*
G37*
G36*
X043116Y03197D02*
X042266D01*
Y03112D01*
X043116D01*
Y03197D01*
D02*
G37*
G36*
X041691Y031974D02*
X04158Y031959D01*
X041477Y031917D01*
X041388Y031848D01*
X04132Y03176D01*
X041277Y031656D01*
X041263Y031545D01*
X041277Y031434D01*
X04132Y031331D01*
X041388Y031242D01*
X041477Y031174D01*
X04158Y031131D01*
X041691Y031117D01*
X041802Y031131D01*
X041906Y031174D01*
X041994Y031242D01*
X042063Y031331D01*
X042105Y031434D01*
X04212Y031545D01*
X042105Y031656D01*
X042063Y03176D01*
X041994Y031848D01*
X041906Y031917D01*
X041802Y031959D01*
X041691Y031974D01*
D02*
G37*
G36*
X028943Y031653D02*
X028865D01*
X028756Y031639D01*
X028655Y031597D01*
X028569Y03153D01*
X028502Y031444D01*
X02846Y031343D01*
X028446Y031234D01*
X02846Y031126D01*
X028502Y031025D01*
X028569Y030938D01*
X028655Y030872D01*
X028756Y03083D01*
X028865Y030816D01*
X028943D01*
X029052Y03083D01*
X029153Y030872D01*
X029239Y030938D01*
X029306Y031025D01*
X029348Y031126D01*
X029362Y031234D01*
X029348Y031343D01*
X029306Y031444D01*
X029239Y03153D01*
X029153Y031597D01*
X029052Y031639D01*
X028943Y031653D01*
D02*
G37*
G36*
X028954Y030651D02*
Y030284D01*
X029355D01*
X029348Y030343D01*
X029306Y030444D01*
X029239Y03053D01*
X029153Y030597D01*
X029052Y030639D01*
X028954Y030651D01*
D02*
G37*
G36*
X028854D02*
X028756Y030639D01*
X028655Y030597D01*
X028569Y03053D01*
X028502Y030444D01*
X02846Y030343D01*
X028453Y030284D01*
X028854D01*
Y030651D01*
D02*
G37*
G36*
X04257Y030217D02*
Y029971D01*
X042816D01*
X042812Y03D01*
X042782Y030073D01*
X042734Y030135D01*
X042671Y030183D01*
X042598Y030214D01*
X04257Y030217D01*
D02*
G37*
G36*
X04247D02*
X042441Y030214D01*
X042368Y030183D01*
X042306Y030135D01*
X042258Y030073D01*
X042227Y03D01*
X042224Y029971D01*
X04247D01*
Y030217D01*
D02*
G37*
G36*
X03942D02*
Y029971D01*
X039666D01*
X039662Y03D01*
X039632Y030073D01*
X039584Y030135D01*
X039521Y030183D01*
X039448Y030214D01*
X03942Y030217D01*
D02*
G37*
G36*
X037845D02*
Y029971D01*
X038091D01*
X038088Y03D01*
X038057Y030073D01*
X038009Y030135D01*
X037947Y030183D01*
X037874Y030214D01*
X037845Y030217D01*
D02*
G37*
G36*
X037745D02*
X037717Y030214D01*
X037644Y030183D01*
X037581Y030135D01*
X037533Y030073D01*
X037503Y03D01*
X037499Y029971D01*
X037745D01*
Y030217D01*
D02*
G37*
G36*
X03617D02*
X036142Y030214D01*
X036069Y030183D01*
X036007Y030135D01*
X035958Y030073D01*
X035928Y03D01*
X035924Y029971D01*
X03617D01*
Y030217D01*
D02*
G37*
G36*
X034696D02*
Y029971D01*
X034942D01*
X034938Y03D01*
X034908Y030073D01*
X03486Y030135D01*
X034797Y030183D01*
X034724Y030214D01*
X034696Y030217D01*
D02*
G37*
G36*
X034596D02*
X034567Y030214D01*
X034494Y030183D01*
X034432Y030135D01*
X034384Y030073D01*
X034353Y03D01*
X03435Y029971D01*
X034596D01*
Y030217D01*
D02*
G37*
G36*
X029355Y030184D02*
X028954D01*
Y029817D01*
X029052Y02983D01*
X029153Y029872D01*
X029239Y029938D01*
X029306Y030025D01*
X029348Y030126D01*
X029355Y030184D01*
D02*
G37*
G36*
X028854D02*
X028453D01*
X02846Y030126D01*
X028502Y030025D01*
X028569Y029938D01*
X028655Y029872D01*
X028756Y02983D01*
X028854Y029817D01*
Y030184D01*
D02*
G37*
G36*
X032063Y03275D02*
X030863D01*
Y03175D01*
X031133D01*
X031143Y0317D01*
X031111Y031687D01*
X031006Y031607D01*
X030926Y031502D01*
X030876Y031381D01*
X030859Y03125D01*
X030876Y031119D01*
X030926Y030998D01*
X031006Y030893D01*
X031111Y030813D01*
X031198Y030777D01*
Y030723D01*
X031111Y030687D01*
X031006Y030607D01*
X030926Y030502D01*
X030876Y030381D01*
X030859Y03025D01*
X030876Y030119D01*
X030926Y029998D01*
X031006Y029893D01*
X031111Y029813D01*
X031232Y029763D01*
X031363Y029746D01*
X031563D01*
X031694Y029763D01*
X031815Y029813D01*
X03192Y029893D01*
X032Y029998D01*
X03205Y030119D01*
X032067Y03025D01*
X03205Y030381D01*
X032Y030502D01*
X03192Y030607D01*
X031815Y030687D01*
X031728Y030723D01*
Y030777D01*
X031815Y030813D01*
X03192Y030893D01*
X032Y030998D01*
X03205Y031119D01*
X032067Y03125D01*
X03205Y031381D01*
X032Y031502D01*
X03192Y031607D01*
X031815Y031687D01*
X031783Y0317D01*
X031793Y03175D01*
X032063D01*
Y03275D01*
D02*
G37*
G36*
X039666Y029871D02*
X03942D01*
Y029625D01*
X039448Y029629D01*
X039521Y029659D01*
X039584Y029707D01*
X039632Y02977D01*
X039662Y029843D01*
X039666Y029871D01*
D02*
G37*
G36*
X041057Y033253D02*
X040947Y033239D01*
X040843Y033196D01*
X040754Y033128D01*
X040686Y033039D01*
X040643Y032936D01*
X040629Y032825D01*
X040643Y032714D01*
X040686Y03261D01*
X040717Y03257D01*
X040721Y032563D01*
X040747Y032526D01*
X040768Y032488D01*
X040788Y032446D01*
X040805Y032398D01*
X04082Y032344D01*
X040833Y032285D01*
X040843Y032222D01*
X040855Y032075D01*
X040855Y032058D01*
Y025787D01*
X04085Y025655D01*
X040842Y025587D01*
X040831Y025524D01*
X040818Y025468D01*
X040802Y025418D01*
X040784Y025374D01*
X040764Y025337D01*
X040742Y025305D01*
X040722Y025283D01*
X040715Y025278D01*
X040647Y025189D01*
X040604Y025085D01*
X040589Y024974D01*
X040591Y024965D01*
X040589Y024936D01*
X040582Y024898D01*
X04057Y024858D01*
X040552Y024814D01*
X040528Y024767D01*
X040497Y024718D01*
X040493Y024712D01*
X040443Y024728D01*
Y025399D01*
X039593D01*
Y024549D01*
X040292D01*
X040312Y024499D01*
X039451Y023638D01*
X031046D01*
X030983Y023625D01*
X03093Y02359D01*
X029356Y022015D01*
X029314Y022044D01*
X029348Y022126D01*
X029362Y022234D01*
X029348Y022343D01*
X029317Y022416D01*
X029318Y022416D01*
X029323Y022423D01*
X030605Y023705D01*
X037746D01*
X037809Y023717D01*
X037862Y023753D01*
X038394Y024285D01*
X03849Y024374D01*
X038544Y024417D01*
X038596Y024454D01*
X038646Y024484D01*
X038692Y024508D01*
X038736Y024526D01*
X038776Y024538D01*
X038814Y024545D01*
X038843Y024547D01*
X038853Y024546D01*
X038964Y02456D01*
X039067Y024603D01*
X039156Y024671D01*
X039224Y02476D01*
X039267Y024863D01*
X039281Y024974D01*
X039267Y025085D01*
X039224Y025189D01*
X039193Y025229D01*
X03919Y025237D01*
X039163Y025273D01*
X039142Y025311D01*
X039122Y025354D01*
X039105Y025402D01*
X03909Y025455D01*
X039077Y025514D01*
X039067Y025577D01*
X039056Y025725D01*
X039055Y025741D01*
Y029767D01*
X039105Y029777D01*
X039108Y02977D01*
X039156Y029707D01*
X039219Y029659D01*
X039292Y029629D01*
X03932Y029625D01*
Y029921D01*
Y030217D01*
X039292Y030214D01*
X039219Y030183D01*
X039156Y030135D01*
X039108Y030073D01*
X039105Y030066D01*
X039055Y030076D01*
Y032012D01*
X039061Y032144D01*
X039068Y032212D01*
X039079Y032275D01*
X039092Y032332D01*
X039108Y032382D01*
X039126Y032425D01*
X039146Y032463D01*
X039168Y032494D01*
X039188Y032516D01*
X039195Y032522D01*
X039263Y03261D01*
X039306Y032714D01*
X039321Y032825D01*
X039306Y032936D01*
X039263Y033039D01*
X039195Y033128D01*
X039106Y033196D01*
X039003Y033239D01*
X038892Y033253D01*
X038781Y033239D01*
X038678Y033196D01*
X038589Y033128D01*
X038521Y033039D01*
X038478Y032936D01*
X038463Y032825D01*
X038478Y032714D01*
X038521Y03261D01*
X038589Y032522D01*
X038596Y032516D01*
X038616Y032494D01*
X038638Y032463D01*
X038658Y032425D01*
X038676Y032382D01*
X038692Y032332D01*
X038705Y032275D01*
X038716Y032213D01*
X038729Y032066D01*
X038729Y032045D01*
Y025762D01*
X038728Y025736D01*
X038723Y02566D01*
X038715Y025592D01*
X038704Y025531D01*
X03869Y025476D01*
X038674Y02543D01*
X038656Y025391D01*
X038636Y025359D01*
X038615Y025333D01*
X038587Y025308D01*
X038583Y025303D01*
X03855Y025278D01*
X038482Y025189D01*
X038439Y025085D01*
X038424Y024974D01*
X038425Y024965D01*
X038424Y024936D01*
X038417Y024898D01*
X038405Y024858D01*
X038387Y024814D01*
X038362Y024767D01*
X038332Y024718D01*
X038328Y024712D01*
X038278Y024728D01*
Y025399D01*
X037428D01*
Y024549D01*
X038126D01*
X038147Y024499D01*
X037679Y024031D01*
X036003D01*
X035998Y024081D01*
X03601Y024084D01*
X036063Y024119D01*
X036228Y024285D01*
X036325Y024374D01*
X036379Y024417D01*
X036431Y024454D01*
X03648Y024484D01*
X036527Y024508D01*
X036571Y024526D01*
X036611Y024538D01*
X036649Y024545D01*
X036678Y024547D01*
X036687Y024546D01*
X036798Y02456D01*
X036902Y024603D01*
X036991Y024671D01*
X037059Y02476D01*
X037101Y024863D01*
X037116Y024974D01*
X037101Y025085D01*
X037059Y025189D01*
X036991Y025278D01*
X036983Y025283D01*
X036963Y025305D01*
X036942Y025337D01*
X036922Y025374D01*
X036904Y025418D01*
X036888Y025468D01*
X036874Y025524D01*
X036864Y025586D01*
X036851Y025733D01*
X036851Y025755D01*
Y032037D01*
X036851Y032063D01*
X036856Y032139D01*
X036864Y032207D01*
X036875Y032269D01*
X036889Y032323D01*
X036906Y032369D01*
X036924Y032408D01*
X036944Y03244D01*
X036965Y032466D01*
X036993Y032491D01*
X036996Y032496D01*
X03703Y032522D01*
X037098Y03261D01*
X037141Y032714D01*
X037155Y032825D01*
X037141Y032936D01*
X037098Y033039D01*
X03703Y033128D01*
X036941Y033196D01*
X036838Y033239D01*
X036727Y033253D01*
X036616Y033239D01*
X036512Y033196D01*
X036424Y033128D01*
X036356Y033039D01*
X036313Y032936D01*
X036298Y032825D01*
X036313Y032714D01*
X036356Y03261D01*
X036387Y03257D01*
X03639Y032563D01*
X036416Y032526D01*
X036438Y032488D01*
X036457Y032446D01*
X036475Y032398D01*
X03649Y032344D01*
X036502Y032285D01*
X036512Y032222D01*
X036524Y032075D01*
X036524Y032058D01*
Y030096D01*
X036521Y030095D01*
X036474Y030083D01*
X036434Y030135D01*
X036372Y030183D01*
X036299Y030214D01*
X03627Y030217D01*
Y029921D01*
Y029625D01*
X036299Y029629D01*
X036372Y029659D01*
X036434Y029707D01*
X036474Y029759D01*
X036521Y029748D01*
X036524Y029746D01*
Y025787D01*
X036519Y025655D01*
X036511Y025587D01*
X036501Y025524D01*
X036487Y025468D01*
X036471Y025418D01*
X036453Y025374D01*
X036433Y025337D01*
X036411Y025305D01*
X036392Y025283D01*
X036384Y025278D01*
X036316Y025189D01*
X036273Y025085D01*
X036259Y024974D01*
X03626Y024965D01*
X036258Y024936D01*
X036251Y024898D01*
X036239Y024858D01*
X036221Y024814D01*
X036197Y024767D01*
X036167Y024718D01*
X036162Y024712D01*
X036112Y024728D01*
Y025399D01*
X035262D01*
Y024549D01*
X035961D01*
X035982Y024499D01*
X03588Y024397D01*
X029904D01*
X029904Y024397D01*
X029842Y024385D01*
X029789Y02435D01*
X029084Y023645D01*
X029078Y02364D01*
X029068Y023632D01*
X029052Y023639D01*
X028943Y023653D01*
X028865D01*
X028756Y023639D01*
X028655Y023597D01*
X028569Y02353D01*
X028502Y023444D01*
X02846Y023343D01*
X028446Y023234D01*
X02846Y023126D01*
X028502Y023025D01*
X028569Y022938D01*
X028655Y022872D01*
X028756Y02283D01*
X028865Y022816D01*
X028943D01*
X029052Y02283D01*
X029153Y022872D01*
X029239Y022938D01*
X029306Y023025D01*
X029348Y023126D01*
X029362Y023234D01*
X029348Y023343D01*
X029317Y023416D01*
X029318Y023416D01*
X029323Y023423D01*
X029972Y024071D01*
X030482D01*
X030487Y024021D01*
X030475Y024019D01*
X030422Y023983D01*
X029084Y022645D01*
X029078Y02264D01*
X029068Y022632D01*
X029052Y022639D01*
X028943Y022653D01*
X028865D01*
X028756Y022639D01*
X028655Y022597D01*
X028569Y02253D01*
X028502Y022444D01*
X02846Y022343D01*
X028446Y022234D01*
X02846Y022126D01*
X028502Y022025D01*
X028569Y021938D01*
X028655Y021872D01*
X028756Y02183D01*
X028865Y021816D01*
X028943D01*
X029052Y02183D01*
X029134Y021864D01*
X029162Y021822D01*
X029013Y021673D01*
X029005Y021666D01*
X028993Y021656D01*
X028982Y021649D01*
X02898Y021648D01*
X028943Y021653D01*
X028865D01*
X028756Y021639D01*
X028655Y021597D01*
X028569Y02153D01*
X028502Y021444D01*
X02846Y021343D01*
X028446Y021234D01*
X02846Y021126D01*
X028502Y021025D01*
X028569Y020938D01*
X028655Y020872D01*
X028756Y02083D01*
X028865Y020816D01*
X028943D01*
X029052Y02083D01*
X029153Y020872D01*
X029239Y020938D01*
X029306Y021025D01*
X029348Y021126D01*
X029362Y021234D01*
X029348Y021343D01*
X029306Y021444D01*
X02928Y021478D01*
X031113Y023311D01*
X03167D01*
X031687Y023261D01*
X031663Y023243D01*
X031597Y023156D01*
X031555Y023055D01*
X031541Y022947D01*
Y022868D01*
X031555Y02276D01*
X031597Y022659D01*
X031663Y022572D01*
X03175Y022506D01*
X031851Y022464D01*
X031959Y02245D01*
X032067Y022464D01*
X032141Y022494D01*
X032141Y022494D01*
X032148Y022488D01*
X033517Y021119D01*
X03357Y021084D01*
X033632Y021071D01*
X04745D01*
Y020819D01*
X048358D01*
Y021649D01*
X047499D01*
X047482Y021649D01*
X047443Y021693D01*
X047444Y021705D01*
X04763Y021891D01*
X047655Y021872D01*
X047756Y02183D01*
X047865Y021816D01*
X047943D01*
X048052Y02183D01*
X048153Y021872D01*
X048239Y021938D01*
X048306Y022025D01*
X048348Y022126D01*
X048362Y022234D01*
X048348Y022343D01*
X048306Y022444D01*
X048239Y02253D01*
X048153Y022597D01*
X048052Y022639D01*
X047943Y022653D01*
X047865D01*
X047756Y022639D01*
X047655Y022597D01*
X047569Y02253D01*
X047502Y022444D01*
X04746Y022343D01*
X047446Y022234D01*
X047453Y022183D01*
X047452Y022182D01*
X047447Y022174D01*
X047427Y022149D01*
X047045Y021767D01*
X046593D01*
X046572Y021817D01*
X047639Y022884D01*
X047655Y022872D01*
X047756Y02283D01*
X047865Y022816D01*
X047943D01*
X048052Y02283D01*
X048153Y022872D01*
X048239Y022938D01*
X048306Y023025D01*
X048348Y023126D01*
X048362Y023234D01*
X048348Y023343D01*
X048306Y023444D01*
X048239Y02353D01*
X048153Y023597D01*
X048052Y023639D01*
X047943Y023653D01*
X047865D01*
X047756Y023639D01*
X047655Y023597D01*
X047569Y02353D01*
X047502Y023444D01*
X04746Y023343D01*
X047446Y023234D01*
X047455Y023168D01*
X04745Y023161D01*
X04743Y023137D01*
X046356Y022063D01*
X040384D01*
X039719Y022727D01*
X039713Y022734D01*
X039706Y022744D01*
X039712Y02276D01*
X039727Y022868D01*
Y022947D01*
X039712Y023055D01*
X039671Y023156D01*
X039604Y023243D01*
X039568Y02327D01*
X039581Y023324D01*
X039633Y023359D01*
X040559Y024285D01*
X040656Y024374D01*
X040709Y024417D01*
X040761Y024454D01*
X040811Y024484D01*
X040858Y024508D01*
X040901Y024526D01*
X040942Y024538D01*
X040979Y024545D01*
X041009Y024547D01*
X041018Y024546D01*
X041129Y02456D01*
X041232Y024603D01*
X041321Y024671D01*
X041389Y02476D01*
X041432Y024863D01*
X041447Y024974D01*
X041432Y025085D01*
X041389Y025189D01*
X041321Y025278D01*
X041314Y025283D01*
X041294Y025305D01*
X041272Y025337D01*
X041252Y025374D01*
X041234Y025418D01*
X041218Y025468D01*
X041205Y025524D01*
X041194Y025586D01*
X041182Y025733D01*
X041181Y025755D01*
Y026724D01*
X041231Y026734D01*
X041233Y026729D01*
X041302Y02664D01*
X04139Y026572D01*
X041494Y026529D01*
X041605Y026514D01*
X041716Y026529D01*
X041819Y026572D01*
X041908Y02664D01*
X041976Y026729D01*
X042019Y026832D01*
X042033Y026943D01*
X042019Y027054D01*
X041976Y027157D01*
X041908Y027246D01*
X041819Y027314D01*
X041716Y027357D01*
X041605Y027372D01*
X041494Y027357D01*
X04139Y027314D01*
X041302Y027246D01*
X041233Y027157D01*
X041231Y027152D01*
X041181Y027162D01*
Y032037D01*
X041182Y032063D01*
X041187Y032139D01*
X041195Y032207D01*
X041206Y032269D01*
X04122Y032323D01*
X041236Y032369D01*
X041255Y032408D01*
X041275Y03244D01*
X041295Y032466D01*
X041323Y032491D01*
X041327Y032496D01*
X041361Y032522D01*
X041429Y03261D01*
X041472Y032714D01*
X041486Y032825D01*
X041472Y032936D01*
X041429Y033039D01*
X041361Y033128D01*
X041272Y033196D01*
X041168Y033239D01*
X041057Y033253D01*
D02*
G37*
G36*
X038091Y029871D02*
X037845D01*
Y029625D01*
X037874Y029629D01*
X037947Y029659D01*
X038009Y029707D01*
X038057Y02977D01*
X038088Y029843D01*
X038091Y029871D01*
D02*
G37*
G36*
X037745D02*
X037499D01*
X037503Y029843D01*
X037533Y02977D01*
X037581Y029707D01*
X037644Y029659D01*
X037717Y029629D01*
X037745Y029625D01*
Y029871D01*
D02*
G37*
G36*
X03617D02*
X035924D01*
X035928Y029843D01*
X035958Y02977D01*
X036007Y029707D01*
X036069Y029659D01*
X036142Y029629D01*
X03617Y029625D01*
Y029871D01*
D02*
G37*
G36*
X034942D02*
X034696D01*
Y029625D01*
X034724Y029629D01*
X034797Y029659D01*
X03486Y029707D01*
X034908Y02977D01*
X034938Y029843D01*
X034942Y029871D01*
D02*
G37*
G36*
X028954Y029651D02*
Y029284D01*
X029355D01*
X029348Y029343D01*
X029306Y029444D01*
X029239Y02953D01*
X029153Y029597D01*
X029052Y029639D01*
X028954Y029651D01*
D02*
G37*
G36*
X028854D02*
X028756Y029639D01*
X028655Y029597D01*
X028569Y02953D01*
X028502Y029444D01*
X02846Y029343D01*
X028453Y029284D01*
X028854D01*
Y029651D01*
D02*
G37*
G36*
X042816Y029871D02*
X042224D01*
X042227Y029843D01*
X042258Y02977D01*
X042268Y029757D01*
X042266Y029706D01*
X042266Y029706D01*
X042266Y029706D01*
Y028856D01*
X043116D01*
Y029706D01*
X042796D01*
X042771Y029757D01*
X042782Y02977D01*
X042812Y029843D01*
X042816Y029871D01*
D02*
G37*
G36*
X034596D02*
X03435D01*
X034353Y029843D01*
X034384Y02977D01*
X034394Y029757D01*
X034369Y029706D01*
X033688D01*
Y028856D01*
X034386D01*
X034407Y028807D01*
X031108Y025508D01*
X029295D01*
X029284Y025508D01*
X029267Y02551D01*
X029254Y025513D01*
X029252Y025514D01*
X029239Y02553D01*
X029153Y025597D01*
X029052Y025639D01*
X028943Y025653D01*
X028865D01*
X028756Y025639D01*
X028655Y025597D01*
X028569Y02553D01*
X028502Y025444D01*
X02846Y025343D01*
X028446Y025234D01*
X02846Y025126D01*
X028502Y025025D01*
X028569Y024938D01*
X028655Y024872D01*
X028756Y02483D01*
X028865Y024816D01*
X028943D01*
X029052Y02483D01*
X029153Y024872D01*
X029239Y024938D01*
X029306Y025025D01*
X029348Y025126D01*
X029355Y025181D01*
X031176D01*
X031238Y025194D01*
X031291Y025229D01*
X034654Y028592D01*
X03475Y028681D01*
X034804Y028724D01*
X034856Y028761D01*
X034905Y028791D01*
X034952Y028815D01*
X034996Y028833D01*
X035036Y028846D01*
X035074Y028852D01*
X035103Y028854D01*
X035113Y028853D01*
X035224Y028867D01*
X035327Y02891D01*
X035416Y028978D01*
X035484Y029067D01*
X035527Y029171D01*
X035541Y029281D01*
X035527Y029392D01*
X035484Y029496D01*
X035416Y029585D01*
X035327Y029653D01*
X035224Y029696D01*
X035113Y02971D01*
X035002Y029696D01*
X034898Y029653D01*
X034809Y029585D01*
X034741Y029496D01*
X034699Y029392D01*
X034684Y029281D01*
X034685Y029272D01*
X034683Y029243D01*
X034677Y029205D01*
X034664Y029165D01*
X034646Y029121D01*
X034622Y029074D01*
X034592Y029025D01*
X034588Y029019D01*
X034538Y029035D01*
Y029593D01*
X034588Y029626D01*
X034596Y029625D01*
Y029871D01*
D02*
G37*
G36*
X041691Y02971D02*
X04158Y029696D01*
X041477Y029653D01*
X041388Y029585D01*
X04132Y029496D01*
X041277Y029392D01*
X041263Y029281D01*
X041277Y029171D01*
X04132Y029067D01*
X041388Y028978D01*
X041477Y02891D01*
X04158Y028867D01*
X041691Y028853D01*
X041802Y028867D01*
X041906Y02891D01*
X041994Y028978D01*
X042063Y029067D01*
X042105Y029171D01*
X04212Y029281D01*
X042105Y029392D01*
X042063Y029496D01*
X041994Y029585D01*
X041906Y029653D01*
X041802Y029696D01*
X041691Y02971D01*
D02*
G37*
G36*
X029355Y029184D02*
X028954D01*
Y028817D01*
X029052Y02883D01*
X029153Y028872D01*
X029239Y028938D01*
X029306Y029025D01*
X029348Y029126D01*
X029355Y029184D01*
D02*
G37*
G36*
X028854D02*
X028453D01*
X02846Y029126D01*
X028502Y029025D01*
X028569Y028938D01*
X028655Y028872D01*
X028756Y02883D01*
X028854Y028817D01*
Y029184D01*
D02*
G37*
G36*
X041782Y028642D02*
Y028396D01*
X042028D01*
X042025Y028425D01*
X041994Y028498D01*
X041946Y02856D01*
X041884Y028609D01*
X041811Y028639D01*
X041782Y028642D01*
D02*
G37*
G36*
X041682D02*
X041654Y028639D01*
X041581Y028609D01*
X041518Y02856D01*
X04147Y028498D01*
X04144Y028425D01*
X041436Y028396D01*
X041682D01*
Y028642D01*
D02*
G37*
G36*
X040207D02*
Y028396D01*
X040453D01*
X04045Y028425D01*
X04042Y028498D01*
X040371Y02856D01*
X040309Y028609D01*
X040236Y028639D01*
X040207Y028642D01*
D02*
G37*
G36*
X040107D02*
X040079Y028639D01*
X040006Y028609D01*
X039944Y02856D01*
X039895Y028498D01*
X039865Y028425D01*
X039861Y028396D01*
X040107D01*
Y028642D01*
D02*
G37*
G36*
X035483D02*
Y028396D01*
X035729D01*
X035725Y028425D01*
X035695Y028498D01*
X035647Y02856D01*
X035584Y028609D01*
X035511Y028639D01*
X035483Y028642D01*
D02*
G37*
G36*
X035383D02*
X035355Y028639D01*
X035282Y028609D01*
X035219Y02856D01*
X035171Y028498D01*
X035141Y028425D01*
X035137Y028396D01*
X035383D01*
Y028642D01*
D02*
G37*
G36*
X042028Y028296D02*
X041782D01*
Y02805D01*
X041811Y028054D01*
X041884Y028084D01*
X041946Y028132D01*
X041994Y028195D01*
X042025Y028268D01*
X042028Y028296D01*
D02*
G37*
G36*
X041682D02*
X041436D01*
X04144Y028268D01*
X04147Y028195D01*
X041518Y028132D01*
X041581Y028084D01*
X041654Y028054D01*
X041682Y02805D01*
Y028296D01*
D02*
G37*
G36*
X040453D02*
X040207D01*
Y02805D01*
X040236Y028054D01*
X040309Y028084D01*
X040371Y028132D01*
X04042Y028195D01*
X04045Y028268D01*
X040453Y028296D01*
D02*
G37*
G36*
X040107D02*
X039861D01*
X039865Y028268D01*
X039895Y028195D01*
X039944Y028132D01*
X040006Y028084D01*
X040079Y028054D01*
X040107Y02805D01*
Y028296D01*
D02*
G37*
G36*
X035729D02*
X035483D01*
Y02805D01*
X035511Y028054D01*
X035584Y028084D01*
X035647Y028132D01*
X035695Y028195D01*
X035725Y028268D01*
X035729Y028296D01*
D02*
G37*
G36*
X035383D02*
X035137D01*
X035141Y028268D01*
X035171Y028195D01*
X035219Y028132D01*
X035282Y028084D01*
X035355Y028054D01*
X035383Y02805D01*
Y028296D01*
D02*
G37*
G36*
X028943Y028653D02*
X028865D01*
X028756Y028639D01*
X028655Y028597D01*
X028569Y02853D01*
X028502Y028444D01*
X02846Y028343D01*
X028446Y028234D01*
X02846Y028126D01*
X028502Y028025D01*
X028569Y027938D01*
X028655Y027872D01*
X028756Y02783D01*
X028865Y027816D01*
X028943D01*
X029052Y02783D01*
X029153Y027872D01*
X029239Y027938D01*
X029306Y028025D01*
X029348Y028126D01*
X029362Y028234D01*
X029348Y028343D01*
X029306Y028444D01*
X029239Y02853D01*
X029153Y028597D01*
X029052Y028639D01*
X028943Y028653D01*
D02*
G37*
G36*
X031546Y027068D02*
Y026822D01*
X031792D01*
X031788Y02685D01*
X031758Y026923D01*
X03171Y026986D01*
X031647Y027034D01*
X031574Y027064D01*
X031546Y027068D01*
D02*
G37*
G36*
X031446D02*
X031418Y027064D01*
X031345Y027034D01*
X031282Y026986D01*
X031234Y026923D01*
X031204Y02685D01*
X0312Y026822D01*
X031446D01*
Y027068D01*
D02*
G37*
G36*
X035113Y027372D02*
X035002Y027357D01*
X034898Y027314D01*
X034809Y027246D01*
X034741Y027157D01*
X034699Y027054D01*
X034684Y026943D01*
X034685Y026934D01*
X034683Y026904D01*
X034677Y026867D01*
X034664Y026826D01*
X034646Y026782D01*
X034622Y026736D01*
X034592Y026686D01*
X034588Y02668D01*
X034538Y026696D01*
Y027368D01*
X033688D01*
Y026518D01*
X034386D01*
X034407Y026468D01*
X032856Y024917D01*
X032494D01*
X032477Y024967D01*
X032497Y024983D01*
X032546Y025046D01*
X032576Y025119D01*
X032579Y025147D01*
X031987D01*
X031991Y025119D01*
X032021Y025046D01*
X032069Y024983D01*
X03209Y024967D01*
X032073Y024917D01*
X029424D01*
X029361Y024905D01*
X029308Y024869D01*
X029084Y024645D01*
X029078Y02464D01*
X029068Y024632D01*
X029052Y024639D01*
X028943Y024653D01*
X028865D01*
X028756Y024639D01*
X028655Y024597D01*
X028569Y02453D01*
X028502Y024444D01*
X02846Y024343D01*
X028446Y024234D01*
X02846Y024126D01*
X028502Y024025D01*
X028569Y023938D01*
X028655Y023872D01*
X028756Y02383D01*
X028865Y023816D01*
X028943D01*
X029052Y02383D01*
X029153Y023872D01*
X029239Y023938D01*
X029306Y024025D01*
X029348Y024126D01*
X029362Y024234D01*
X029348Y024343D01*
X029317Y024416D01*
X029318Y024416D01*
X029323Y024423D01*
X029491Y024591D01*
X032924D01*
X032986Y024603D01*
X033039Y024639D01*
X034654Y026253D01*
X03475Y026342D01*
X034804Y026385D01*
X034856Y026422D01*
X034905Y026453D01*
X034952Y026477D01*
X034996Y026495D01*
X035036Y026507D01*
X035074Y026514D01*
X035103Y026515D01*
X035113Y026514D01*
X035224Y026529D01*
X035327Y026572D01*
X035416Y02664D01*
X035484Y026729D01*
X035527Y026832D01*
X035541Y026943D01*
X035527Y027054D01*
X035484Y027157D01*
X035416Y027246D01*
X035327Y027314D01*
X035224Y027357D01*
X035113Y027372D01*
D02*
G37*
G36*
X04303Y027368D02*
X04218D01*
Y026518D01*
X04303D01*
Y027368D01*
D02*
G37*
G36*
X031792Y026722D02*
X031546D01*
Y026476D01*
X031574Y026479D01*
X031647Y02651D01*
X03171Y026558D01*
X031758Y02662D01*
X031788Y026693D01*
X031792Y026722D01*
D02*
G37*
G36*
X031446D02*
X0312D01*
X031204Y026693D01*
X031234Y02662D01*
X031282Y026558D01*
X031345Y02651D01*
X031418Y026479D01*
X031446Y026476D01*
Y026722D01*
D02*
G37*
G36*
X032333Y025493D02*
Y025247D01*
X032579D01*
X032576Y025275D01*
X032546Y025348D01*
X032497Y025411D01*
X032435Y025459D01*
X032362Y025489D01*
X032333Y025493D01*
D02*
G37*
G36*
X032233D02*
X032205Y025489D01*
X032132Y025459D01*
X032069Y025411D01*
X032021Y025348D01*
X031991Y025275D01*
X031987Y025247D01*
X032233D01*
Y025493D01*
D02*
G37*
G36*
X047943Y024653D02*
X047865D01*
X047756Y024639D01*
X047655Y024597D01*
X047569Y02453D01*
X047502Y024444D01*
X04746Y024343D01*
X047446Y024234D01*
X04746Y024126D01*
X047491Y024053D01*
X04749Y024052D01*
X047485Y024046D01*
X045895Y022456D01*
X044975D01*
X044964Y022503D01*
X044965Y022506D01*
X04505Y022572D01*
X045117Y022659D01*
X045159Y02276D01*
X045171Y022857D01*
X044337D01*
X04435Y02276D01*
X044392Y022659D01*
X044458Y022572D01*
X044544Y022506D01*
X044544Y022503D01*
X044533Y022456D01*
X043637D01*
X043384Y022709D01*
X043379Y022716D01*
X043372Y022724D01*
X043387Y02276D01*
X043401Y022868D01*
Y022947D01*
X043387Y023055D01*
X043345Y023156D01*
X043279Y023243D01*
X043192Y023309D01*
X043091Y023351D01*
X042983Y023365D01*
X042874Y023351D01*
X042773Y023309D01*
X042687Y023243D01*
X04262Y023156D01*
X042578Y023055D01*
X042564Y022947D01*
Y022868D01*
X042578Y02276D01*
X04262Y022659D01*
X042687Y022572D01*
X042773Y022506D01*
X042874Y022464D01*
X042983Y02245D01*
X043091Y022464D01*
X043144Y022486D01*
X043149Y022481D01*
X043156Y022476D01*
X043454Y022178D01*
X043507Y022143D01*
X043569Y02213D01*
X045963D01*
X046025Y022143D01*
X046078Y022178D01*
X047723Y023823D01*
X04773Y023829D01*
X04774Y023837D01*
X047756Y02383D01*
X047865Y023816D01*
X047943D01*
X048052Y02383D01*
X048153Y023872D01*
X048239Y023938D01*
X048306Y024025D01*
X048348Y024126D01*
X048362Y024234D01*
X048348Y024343D01*
X048306Y024444D01*
X048239Y02453D01*
X048153Y024597D01*
X048052Y024639D01*
X047943Y024653D01*
D02*
G37*
G36*
X04257Y023918D02*
Y023672D01*
X042816D01*
X042812Y0237D01*
X042782Y023773D01*
X042734Y023836D01*
X042671Y023884D01*
X042598Y023914D01*
X04257Y023918D01*
D02*
G37*
G36*
X04247D02*
X042441Y023914D01*
X042368Y023884D01*
X042306Y023836D01*
X042258Y023773D01*
X042227Y0237D01*
X042224Y023672D01*
X04247D01*
Y023918D01*
D02*
G37*
G36*
X042816Y023572D02*
X04257D01*
Y023326D01*
X042598Y02333D01*
X042671Y02336D01*
X042734Y023408D01*
X042782Y023471D01*
X042812Y023544D01*
X042816Y023572D01*
D02*
G37*
G36*
X04247D02*
X042224D01*
X042227Y023544D01*
X042258Y023471D01*
X042306Y023408D01*
X042368Y02336D01*
X042441Y02333D01*
X04247Y023326D01*
Y023572D01*
D02*
G37*
G36*
X044804Y023359D02*
Y022957D01*
X045171D01*
X045159Y023055D01*
X045117Y023156D01*
X04505Y023243D01*
X044964Y023309D01*
X044863Y023351D01*
X044804Y023359D01*
D02*
G37*
G36*
X044704D02*
X044646Y023351D01*
X044545Y023309D01*
X044458Y023243D01*
X044392Y023156D01*
X04435Y023055D01*
X044337Y022957D01*
X044704D01*
Y023359D01*
D02*
G37*
G36*
X04113Y023359D02*
Y022957D01*
X041497D01*
X041484Y023055D01*
X041442Y023156D01*
X041376Y023243D01*
X041289Y023309D01*
X041188Y023351D01*
X04113Y023359D01*
D02*
G37*
G36*
X04103D02*
X040971Y023351D01*
X040871Y023309D01*
X040784Y023243D01*
X040717Y023156D01*
X040676Y023055D01*
X040663Y022957D01*
X04103D01*
Y023359D01*
D02*
G37*
G36*
X041497Y022857D02*
X04113D01*
Y022456D01*
X041188Y022464D01*
X041289Y022506D01*
X041376Y022572D01*
X041442Y022659D01*
X041484Y02276D01*
X041497Y022857D01*
D02*
G37*
G36*
X04103D02*
X040663D01*
X040676Y02276D01*
X040717Y022659D01*
X040784Y022572D01*
X040871Y022506D01*
X040971Y022464D01*
X04103Y022456D01*
Y022857D01*
D02*
G37*
G36*
X044704Y0208D02*
X044646Y020792D01*
X044545Y02075D01*
X044458Y020684D01*
X044411Y020622D01*
X044367Y020623D01*
X044353Y020628D01*
X044308Y020686D01*
X044246Y020734D01*
X044173Y020765D01*
X044144Y020768D01*
Y020472D01*
Y020176D01*
X044173Y02018D01*
X044246Y02021D01*
X044294Y020247D01*
X044346Y020231D01*
X04435Y020201D01*
X044392Y0201D01*
X044458Y020013D01*
X044545Y019947D01*
X044646Y019905D01*
X044704Y019897D01*
Y020348D01*
Y0208D01*
D02*
G37*
G36*
X033681D02*
X033622Y020792D01*
X033521Y02075D01*
X033435Y020684D01*
X033388Y020622D01*
X033343Y020623D01*
X033329Y020628D01*
X033285Y020686D01*
X033222Y020734D01*
X033149Y020765D01*
X033121Y020768D01*
Y020472D01*
Y020176D01*
X033149Y02018D01*
X033222Y02021D01*
X03327Y020247D01*
X033322Y020231D01*
X033326Y020201D01*
X033368Y0201D01*
X033435Y020013D01*
X033521Y019947D01*
X033622Y019905D01*
X033681Y019897D01*
Y020348D01*
Y0208D01*
D02*
G37*
G36*
X044044Y020768D02*
X044016Y020765D01*
X043943Y020734D01*
X043881Y020686D01*
X043832Y020624D01*
X043802Y020551D01*
X043798Y020522D01*
X044044D01*
Y020768D01*
D02*
G37*
G36*
X033021D02*
X032993Y020765D01*
X03292Y020734D01*
X032857Y020686D01*
X032809Y020624D01*
X032779Y020551D01*
X032775Y020522D01*
X033021D01*
Y020768D01*
D02*
G37*
G36*
X029971D02*
Y020522D01*
X030217D01*
X030214Y020551D01*
X030183Y020624D01*
X030135Y020686D01*
X030073Y020734D01*
X03Y020765D01*
X029971Y020768D01*
D02*
G37*
G36*
X029871D02*
X029843Y020765D01*
X02977Y020734D01*
X029707Y020686D01*
X029659Y020624D01*
X029629Y020551D01*
X029625Y020522D01*
X029871D01*
Y020768D01*
D02*
G37*
G36*
X044804Y0208D02*
Y020398D01*
X045171D01*
X045159Y020496D01*
X045117Y020597D01*
X04505Y020684D01*
X044964Y02075D01*
X044863Y020792D01*
X044804Y0208D01*
D02*
G37*
G36*
X033781D02*
Y020398D01*
X034148D01*
X034135Y020496D01*
X034093Y020597D01*
X034027Y020684D01*
X03394Y02075D01*
X033839Y020792D01*
X033781Y0208D01*
D02*
G37*
G36*
X04113Y0208D02*
Y020398D01*
X041497D01*
X041484Y020496D01*
X041442Y020597D01*
X041376Y020684D01*
X041289Y02075D01*
X041188Y020792D01*
X04113Y0208D01*
D02*
G37*
G36*
X04103D02*
X040971Y020792D01*
X040871Y02075D01*
X040784Y020684D01*
X040717Y020597D01*
X040676Y020496D01*
X040663Y020398D01*
X04103D01*
Y0208D01*
D02*
G37*
G36*
X037455D02*
Y020398D01*
X037822D01*
X03781Y020496D01*
X037768Y020597D01*
X037701Y020684D01*
X037615Y02075D01*
X037514Y020792D01*
X037455Y0208D01*
D02*
G37*
G36*
X037355D02*
X037297Y020792D01*
X037196Y02075D01*
X037109Y020684D01*
X037043Y020597D01*
X037001Y020496D01*
X036988Y020398D01*
X037355D01*
Y0208D01*
D02*
G37*
G36*
X044044Y020422D02*
X043798D01*
X043802Y020394D01*
X043832Y020321D01*
X043881Y020258D01*
X043943Y02021D01*
X044016Y02018D01*
X044044Y020176D01*
Y020422D01*
D02*
G37*
G36*
X033021D02*
X032775D01*
X032779Y020394D01*
X032809Y020321D01*
X032857Y020258D01*
X03292Y02021D01*
X032993Y02018D01*
X033021Y020176D01*
Y020422D01*
D02*
G37*
G36*
X030217D02*
X029971D01*
Y020176D01*
X03Y02018D01*
X030073Y02021D01*
X030135Y020258D01*
X030183Y020321D01*
X030214Y020394D01*
X030217Y020422D01*
D02*
G37*
G36*
X029871D02*
X029625D01*
X029629Y020394D01*
X029659Y020321D01*
X029707Y020258D01*
X02977Y02021D01*
X029843Y02018D01*
X029871Y020176D01*
Y020422D01*
D02*
G37*
G36*
X045171Y020298D02*
X044804D01*
Y019897D01*
X044863Y019905D01*
X044964Y019947D01*
X04505Y020013D01*
X045117Y0201D01*
X045159Y020201D01*
X045171Y020298D01*
D02*
G37*
G36*
X034148D02*
X033781D01*
Y019897D01*
X033839Y019905D01*
X03394Y019947D01*
X034027Y020013D01*
X034093Y0201D01*
X034135Y020201D01*
X034148Y020298D01*
D02*
G37*
G36*
X041497Y020298D02*
X04113D01*
Y019897D01*
X041188Y019905D01*
X041289Y019947D01*
X041376Y020013D01*
X041442Y0201D01*
X041484Y020201D01*
X041497Y020298D01*
D02*
G37*
G36*
X04103D02*
X040663D01*
X040676Y020201D01*
X040717Y0201D01*
X040784Y020013D01*
X040871Y019947D01*
X040971Y019905D01*
X04103Y019897D01*
Y020298D01*
D02*
G37*
G36*
X037822D02*
X037455D01*
Y019897D01*
X037514Y019905D01*
X037615Y019947D01*
X037701Y020013D01*
X037768Y0201D01*
X03781Y020201D01*
X037822Y020298D01*
D02*
G37*
G36*
X037355D02*
X036988D01*
X037001Y020201D01*
X037043Y0201D01*
X037109Y020013D01*
X037196Y019947D01*
X037297Y019905D01*
X037355Y019897D01*
Y020298D01*
D02*
G37*
G36*
X042983Y020806D02*
X042874Y020792D01*
X042773Y02075D01*
X042687Y020684D01*
X04262Y020597D01*
X042578Y020496D01*
X042564Y020388D01*
Y020309D01*
X042578Y020201D01*
X04262Y0201D01*
X042687Y020013D01*
X042773Y019947D01*
X042874Y019905D01*
X042983Y019891D01*
X043091Y019905D01*
X043192Y019947D01*
X043279Y020013D01*
X043345Y0201D01*
X043387Y020201D01*
X043401Y020309D01*
Y020388D01*
X043387Y020496D01*
X043345Y020597D01*
X043279Y020684D01*
X043192Y02075D01*
X043091Y020792D01*
X042983Y020806D01*
D02*
G37*
G36*
X031959D02*
X031851Y020792D01*
X03175Y02075D01*
X031663Y020684D01*
X031597Y020597D01*
X031555Y020496D01*
X031541Y020388D01*
Y020309D01*
X031555Y020201D01*
X031597Y0201D01*
X031663Y020013D01*
X03175Y019947D01*
X031851Y019905D01*
X031959Y019891D01*
X032067Y019905D01*
X032168Y019947D01*
X032255Y020013D01*
X032322Y0201D01*
X032363Y020201D01*
X032378Y020309D01*
Y020388D01*
X032363Y020496D01*
X032322Y020597D01*
X032255Y020684D01*
X032168Y02075D01*
X032067Y020792D01*
X031959Y020806D01*
D02*
G37*
G36*
X039308Y020806D02*
X0392Y020792D01*
X039099Y02075D01*
X039012Y020684D01*
X038946Y020597D01*
X038904Y020496D01*
X03889Y020388D01*
Y020309D01*
X038904Y020201D01*
X038946Y0201D01*
X039012Y020013D01*
X039099Y019947D01*
X0392Y019905D01*
X039308Y019891D01*
X039416Y019905D01*
X039517Y019947D01*
X039604Y020013D01*
X039671Y0201D01*
X039712Y020201D01*
X039727Y020309D01*
Y020388D01*
X039712Y020496D01*
X039671Y020597D01*
X039604Y020684D01*
X039517Y02075D01*
X039416Y020792D01*
X039308Y020806D01*
D02*
G37*
G36*
X035634D02*
X035525Y020792D01*
X035424Y02075D01*
X035338Y020684D01*
X035271Y020597D01*
X035229Y020496D01*
X035215Y020388D01*
Y020309D01*
X035229Y020201D01*
X035271Y0201D01*
X035338Y020013D01*
X035424Y019947D01*
X035525Y019905D01*
X035634Y019891D01*
X035742Y019905D01*
X035843Y019947D01*
X03593Y020013D01*
X035996Y0201D01*
X036038Y020201D01*
X036052Y020309D01*
Y020388D01*
X036038Y020496D01*
X035996Y020597D01*
X03593Y020684D01*
X035843Y02075D01*
X035742Y020792D01*
X035634Y020806D01*
D02*
G37*
%LPD*%
G36*
X039227Y035445D02*
X039209Y035426D01*
X039194Y035408D01*
X039181Y035391D01*
X039171Y035375D01*
X039163Y03536D01*
X039159Y035346D01*
X039157Y035334D01*
X039158Y035322D01*
X039161Y035311D01*
X039168Y035301D01*
X039014Y035486D01*
X039022Y035478D01*
X039031Y035473D01*
X039042Y035471D01*
X039054Y035472D01*
X039067Y035476D01*
X039081Y035482D01*
X039096Y035492D01*
X039113Y035504D01*
X039131Y035519D01*
X03915Y035537D01*
X039227Y035445D01*
D02*
G37*
G36*
X040692Y034825D02*
X040684Y034833D01*
X040674Y034838D01*
X040663Y03484D01*
X040652Y034839D01*
X040639Y034836D01*
X040624Y034829D01*
X040609Y034819D01*
X040593Y034807D01*
X040575Y034792D01*
X040556Y034774D01*
X040478Y034866D01*
X040496Y034885D01*
X040512Y034903D01*
X040525Y03492D01*
X040535Y034936D01*
X040542Y034951D01*
X040547Y034965D01*
X040549Y034977D01*
X040548Y034989D01*
X040544Y035D01*
X040538Y03501D01*
X040692Y034825D01*
D02*
G37*
G36*
X041161Y035D02*
X041158Y034989D01*
X041157Y034977D01*
X041159Y034965D01*
X041163Y034951D01*
X041171Y034936D01*
X041181Y03492D01*
X041194Y034903D01*
X041209Y034885D01*
X041227Y034866D01*
X04115Y034774D01*
X041131Y034792D01*
X041113Y034807D01*
X041096Y034819D01*
X041081Y034829D01*
X041067Y034836D01*
X041054Y034839D01*
X041042Y03484D01*
X041031Y034838D01*
X041022Y034833D01*
X041014Y034825D01*
X041168Y03501D01*
X041161Y035D01*
D02*
G37*
G36*
X031666Y034257D02*
X031696Y034238D01*
X031731Y034221D01*
X03177Y034206D01*
X031814Y034193D01*
X031863Y034183D01*
X031916Y034175D01*
X032038Y034165D01*
X032106Y034164D01*
Y034044D01*
X032038Y034043D01*
X031916Y034034D01*
X031863Y034026D01*
X031814Y034016D01*
X03177Y034003D01*
X031731Y033988D01*
X031696Y033971D01*
X031666Y033951D01*
X031642Y033929D01*
Y034279D01*
X031666Y034257D01*
D02*
G37*
G36*
X043415Y025991D02*
X043375Y02595D01*
X043283Y025842D01*
X043261Y025811D01*
X043244Y025783D01*
X043232Y025757D01*
X043224Y025733D01*
X043221Y025712D01*
X043223Y025694D01*
X043033Y025884D01*
X043051Y025882D01*
X043072Y025885D01*
X043096Y025893D01*
X043122Y025905D01*
X04315Y025922D01*
X043181Y025944D01*
X043215Y02597D01*
X043289Y026036D01*
X04333Y026076D01*
X043415Y025991D01*
D02*
G37*
G36*
X037161Y039D02*
X037158Y038989D01*
X037157Y038977D01*
X037159Y038965D01*
X037163Y038951D01*
X037171Y038936D01*
X037181Y03892D01*
X037194Y038903D01*
X037209Y038885D01*
X037227Y038866D01*
X03715Y038774D01*
X037131Y038792D01*
X037113Y038807D01*
X037096Y038819D01*
X037081Y038829D01*
X037067Y038835D01*
X037054Y038839D01*
X037042Y03884D01*
X037031Y038838D01*
X037022Y038833D01*
X037014Y038825D01*
X037168Y03901D01*
X037161Y039D01*
D02*
G37*
G36*
X044854Y033394D02*
X044806Y033345D01*
X044727Y033253D01*
X044695Y03321D01*
X044668Y033168D01*
X044645Y033128D01*
X044628Y033089D01*
X044616Y033053D01*
X044609Y033018D01*
X044607Y032985D01*
X044359Y033232D01*
X044392Y033234D01*
X044427Y033242D01*
X044464Y033254D01*
X044502Y033271D01*
X044542Y033293D01*
X044584Y03332D01*
X044627Y033353D01*
X04472Y033432D01*
X044769Y033479D01*
X044854Y033394D01*
D02*
G37*
G36*
X035109Y03122D02*
X035062Y031218D01*
X035012Y031209D01*
X034962Y031193D01*
X034909Y031172D01*
X034855Y031144D01*
X0348Y031109D01*
X034742Y031069D01*
X034684Y031022D01*
X034561Y030909D01*
X034477Y030994D01*
X034536Y031056D01*
X034636Y031175D01*
X034677Y031232D01*
X034711Y031288D01*
X034739Y031342D01*
X034761Y031394D01*
X034776Y031445D01*
X034785Y031494D01*
X034788Y031542D01*
X035109Y03122D01*
D02*
G37*
G36*
X029257Y026343D02*
X029261Y026333D01*
X029267Y026324D01*
X029275Y026316D01*
X029286Y026309D01*
X029299Y026304D01*
X029315Y0263D01*
X029333Y026297D01*
X029354Y026295D01*
X029377Y026294D01*
Y026174D01*
X029354Y026174D01*
X029333Y026172D01*
X029315Y026169D01*
X029299Y026165D01*
X029286Y026159D01*
X029275Y026153D01*
X029267Y026145D01*
X029261Y026136D01*
X029257Y026126D01*
X029256Y026114D01*
Y026354D01*
X029257Y026343D01*
D02*
G37*
G36*
X039088Y032557D02*
X039059Y032516D01*
X039034Y032469D01*
X039012Y032417D01*
X038994Y032359D01*
X038979Y032295D01*
X038967Y032226D01*
X038959Y032151D01*
X038952Y031985D01*
X038832D01*
X03883Y032071D01*
X038817Y032226D01*
X038805Y032295D01*
X03879Y032359D01*
X038772Y032417D01*
X03875Y032469D01*
X038725Y032516D01*
X038696Y032557D01*
X038665Y032593D01*
X03912D01*
X039088Y032557D01*
D02*
G37*
G36*
X041255Y032567D02*
X041222Y032537D01*
X041191Y0325D01*
X041165Y032457D01*
X041142Y032408D01*
X041122Y032352D01*
X041106Y032291D01*
X041094Y032223D01*
X041085Y032148D01*
X04108Y032067D01*
X041078Y03198D01*
X040958Y031995D01*
X040957Y03208D01*
X040944Y032234D01*
X040933Y032304D01*
X040919Y032369D01*
X040902Y032429D01*
X040882Y032484D01*
X040859Y032535D01*
X040833Y032581D01*
X040804Y032622D01*
X041255Y032567D01*
D02*
G37*
G36*
X036924D02*
X036891Y032537D01*
X036861Y0325D01*
X036834Y032457D01*
X036811Y032408D01*
X036792Y032352D01*
X036776Y032291D01*
X036763Y032223D01*
X036754Y032148D01*
X036749Y032067D01*
X036747Y03198D01*
X036627Y031995D01*
X036626Y03208D01*
X036613Y032234D01*
X036603Y032304D01*
X036589Y032369D01*
X036572Y032429D01*
X036552Y032484D01*
X036528Y032535D01*
X036502Y032581D01*
X036473Y032622D01*
X036924Y032567D01*
D02*
G37*
G36*
X04108Y025728D02*
X041093Y025573D01*
X041105Y025504D01*
X04112Y02544D01*
X041138Y025382D01*
X04116Y02533D01*
X041185Y025283D01*
X041214Y025242D01*
X041246Y025206D01*
X040791D01*
X040822Y025242D01*
X040851Y025283D01*
X040876Y02533D01*
X040898Y025382D01*
X040916Y02544D01*
X040931Y025504D01*
X040943Y025573D01*
X040951Y025648D01*
X040958Y025814D01*
X041078D01*
X04108Y025728D01*
D02*
G37*
G36*
X036749D02*
X036762Y025573D01*
X036774Y025504D01*
X036789Y02544D01*
X036808Y025382D01*
X036829Y02533D01*
X036855Y025283D01*
X036883Y025242D01*
X036915Y025206D01*
X03646D01*
X036492Y025242D01*
X03652Y025283D01*
X036545Y02533D01*
X036567Y025382D01*
X036586Y02544D01*
X036601Y025504D01*
X036612Y025573D01*
X036621Y025648D01*
X036627Y025814D01*
X036747D01*
X036749Y025728D01*
D02*
G37*
G36*
X038952Y025804D02*
X038954Y02572D01*
X038966Y025566D01*
X038977Y025496D01*
X038991Y025431D01*
X039008Y02537D01*
X039028Y025315D01*
X039051Y025264D01*
X039077Y025218D01*
X039107Y025177D01*
X038655Y025232D01*
X038689Y025263D01*
X038719Y025299D01*
X038745Y025342D01*
X038768Y025391D01*
X038788Y025447D01*
X038804Y025509D01*
X038816Y025577D01*
X038825Y025651D01*
X03883Y025732D01*
X038832Y025819D01*
X038952Y025804D01*
D02*
G37*
G36*
X041015Y024649D02*
X040967Y024647D01*
X040918Y024638D01*
X040867Y024622D01*
X040815Y024601D01*
X040761Y024573D01*
X040705Y024539D01*
X040648Y024498D01*
X040589Y024451D01*
X040467Y024338D01*
X040382Y024423D01*
X040442Y024485D01*
X040542Y024604D01*
X040582Y024661D01*
X040617Y024717D01*
X040644Y024771D01*
X040666Y024823D01*
X040681Y024874D01*
X04069Y024923D01*
X040693Y024971D01*
X041015Y024649D01*
D02*
G37*
G36*
X03885D02*
X038802Y024647D01*
X038753Y024638D01*
X038702Y024622D01*
X038649Y024601D01*
X038595Y024573D01*
X03854Y024539D01*
X038483Y024498D01*
X038424Y024451D01*
X038302Y024338D01*
X038217Y024423D01*
X038276Y024485D01*
X038376Y024604D01*
X038417Y024661D01*
X038451Y024717D01*
X038479Y024771D01*
X038501Y024823D01*
X038516Y024874D01*
X038525Y024923D01*
X038528Y024971D01*
X03885Y024649D01*
D02*
G37*
G36*
X036684D02*
X036636Y024647D01*
X036587Y024638D01*
X036536Y024622D01*
X036484Y024601D01*
X03643Y024573D01*
X036374Y024539D01*
X036317Y024498D01*
X036258Y024451D01*
X036136Y024338D01*
X036051Y024423D01*
X036111Y024485D01*
X036211Y024604D01*
X036252Y024661D01*
X036286Y024717D01*
X036314Y024771D01*
X036335Y024823D01*
X036351Y024874D01*
X03636Y024923D01*
X036362Y024971D01*
X036684Y024649D01*
D02*
G37*
G36*
X029272Y023517D02*
X029253Y023498D01*
X029238Y02348D01*
X029226Y023463D01*
X029216Y023448D01*
X029209Y023434D01*
X029206Y023421D01*
X029205Y023409D01*
X029207Y023398D01*
X029212Y023389D01*
X029219Y023381D01*
X029034Y023533D01*
X029044Y023527D01*
X029055Y023524D01*
X029067Y023523D01*
X029079Y023525D01*
X029093Y02353D01*
X029108Y023537D01*
X029124Y023547D01*
X029142Y02356D01*
X02916Y023576D01*
X029179Y023594D01*
X029272Y023517D01*
D02*
G37*
G36*
X047677Y022984D02*
X04767Y022993D01*
X047662Y022999D01*
X047653Y023002D01*
X047642Y023002D01*
X047629Y022999D01*
X047616Y022993D01*
X047601Y022984D01*
X047584Y022972D01*
X047566Y022957D01*
X047547Y022938D01*
X047484Y023045D01*
X047503Y023064D01*
X047532Y023101D01*
X047543Y023118D01*
X047552Y023133D01*
X047557Y023148D01*
X04756Y023162D01*
X047561Y023175D01*
X047559Y023187D01*
X047554Y023199D01*
X047677Y022984D01*
D02*
G37*
G36*
X035362Y023261D02*
X035338Y023243D01*
X035271Y023156D01*
X035229Y023055D01*
X035215Y022947D01*
Y022868D01*
X035229Y02276D01*
X035271Y022659D01*
X035338Y022572D01*
X035424Y022506D01*
X035525Y022464D01*
X035634Y02245D01*
X035742Y022464D01*
X035815Y022494D01*
X035816Y022494D01*
X035822Y022488D01*
X036821Y021489D01*
X036874Y021454D01*
X036906Y021447D01*
X036901Y021397D01*
X0337D01*
X03237Y022727D01*
X032364Y022734D01*
X032357Y022744D01*
X032363Y02276D01*
X032378Y022868D01*
Y022947D01*
X032363Y023055D01*
X032322Y023156D01*
X032255Y023243D01*
X032231Y023261D01*
X032248Y023311D01*
X033442D01*
X033459Y023261D01*
X033435Y023243D01*
X033368Y023156D01*
X033326Y023055D01*
X033314Y022957D01*
X034148D01*
X034135Y023055D01*
X034093Y023156D01*
X034027Y023243D01*
X034003Y023261D01*
X03402Y023311D01*
X035345D01*
X035362Y023261D01*
D02*
G37*
G36*
X039036D02*
X039012Y023243D01*
X038946Y023156D01*
X038904Y023055D01*
X03889Y022947D01*
Y022868D01*
X038904Y02276D01*
X038946Y022659D01*
X039012Y022572D01*
X039099Y022506D01*
X0392Y022464D01*
X039308Y02245D01*
X039416Y022464D01*
X03949Y022494D01*
X03949Y022494D01*
X039497Y022488D01*
X040167Y021817D01*
X040147Y021767D01*
X037004D01*
X036045Y022727D01*
X036039Y022734D01*
X036031Y022744D01*
X036038Y02276D01*
X036052Y022868D01*
Y022947D01*
X036038Y023055D01*
X035996Y023156D01*
X03593Y023243D01*
X035905Y023261D01*
X035922Y023311D01*
X037116D01*
X037133Y023261D01*
X037109Y023243D01*
X037043Y023156D01*
X037001Y023055D01*
X036988Y022957D01*
X037822D01*
X03781Y023055D01*
X037768Y023156D01*
X037701Y023243D01*
X037677Y023261D01*
X037694Y023311D01*
X039019D01*
X039036Y023261D01*
D02*
G37*
G36*
X032252Y022768D02*
X032248Y022757D01*
X032248Y022745D01*
X03225Y022732D01*
X032254Y022718D01*
X032262Y022703D01*
X032272Y022687D01*
X032285Y02267D01*
X032301Y022652D01*
X032319Y022632D01*
X032242Y02254D01*
X032223Y022558D01*
X032205Y022573D01*
X032188Y022586D01*
X032173Y022595D01*
X032159Y022602D01*
X032146Y022606D01*
X032134Y022607D01*
X032123Y022605D01*
X032114Y0226D01*
X032105Y022592D01*
X032258Y022777D01*
X032252Y022768D01*
D02*
G37*
G36*
X039601Y022768D02*
X039597Y022757D01*
X039597Y022745D01*
X039599Y022732D01*
X039603Y022718D01*
X039611Y022703D01*
X039621Y022687D01*
X039634Y02267D01*
X03965Y022652D01*
X039668Y022632D01*
X039591Y02254D01*
X039572Y022558D01*
X039554Y022573D01*
X039537Y022586D01*
X039522Y022595D01*
X039508Y022602D01*
X039495Y022606D01*
X039483Y022607D01*
X039472Y022605D01*
X039463Y0226D01*
X039454Y022592D01*
X039607Y022777D01*
X039601Y022768D01*
D02*
G37*
G36*
X035926D02*
X035923Y022757D01*
X035922Y022745D01*
X035924Y022732D01*
X035929Y022718D01*
X035936Y022703D01*
X035947Y022687D01*
X035959Y02267D01*
X035975Y022652D01*
X035994Y022632D01*
X035916Y02254D01*
X035897Y022558D01*
X035879Y022573D01*
X035863Y022586D01*
X035847Y022595D01*
X035833Y022602D01*
X03582Y022606D01*
X035808Y022607D01*
X035798Y022605D01*
X035788Y0226D01*
X03578Y022592D01*
X035933Y022777D01*
X035926Y022768D01*
D02*
G37*
G36*
X029272Y022517D02*
X029253Y022498D01*
X029238Y02248D01*
X029226Y022463D01*
X029216Y022448D01*
X029209Y022434D01*
X029206Y022421D01*
X029205Y022409D01*
X029207Y022398D01*
X029212Y022389D01*
X029219Y022381D01*
X029034Y022533D01*
X029044Y022527D01*
X029055Y022524D01*
X029067Y022523D01*
X029079Y022525D01*
X029093Y02253D01*
X029108Y022537D01*
X029124Y022547D01*
X029142Y02256D01*
X02916Y022576D01*
X029179Y022594D01*
X029272Y022517D01*
D02*
G37*
G36*
X047669Y021991D02*
X047662Y022D01*
X047654Y022007D01*
X047645Y02201D01*
X047634Y02201D01*
X047622Y022008D01*
X047608Y022002D01*
X047593Y021993D01*
X047577Y02198D01*
X047559Y021965D01*
X04754Y021947D01*
X04748Y022057D01*
X047499Y022076D01*
X047529Y022113D01*
X04754Y02213D01*
X047549Y022146D01*
X047555Y022162D01*
X047558Y022176D01*
X047559Y022189D01*
X047557Y022201D01*
X047553Y022213D01*
X047669Y021991D01*
D02*
G37*
G36*
X029222Y021566D02*
X029204Y021547D01*
X029188Y021529D01*
X029176Y021513D01*
X029167Y021498D01*
X029162Y021484D01*
X029159Y021472D01*
X029159Y021462D01*
X029163Y021453D01*
X02917Y021445D01*
X02918Y021439D01*
X02895Y021548D01*
X028962Y021544D01*
X028975Y021542D01*
X028988Y021543D01*
X029003Y021547D01*
X029018Y021553D01*
X029035Y021562D01*
X029052Y021573D01*
X02907Y021587D01*
X029089Y021603D01*
X029109Y021622D01*
X029222Y021566D01*
D02*
G37*
G36*
X047552Y021114D02*
X047551Y021126D01*
X047547Y021136D01*
X047541Y021145D01*
X047533Y021153D01*
X047522Y021159D01*
X047508Y021165D01*
X047493Y021169D01*
X047474Y021172D01*
X047454Y021174D01*
X047431Y021174D01*
Y021294D01*
X047454Y021295D01*
X047474Y021297D01*
X047493Y0213D01*
X047508Y021304D01*
X047522Y021309D01*
X047533Y021316D01*
X047541Y021324D01*
X047547Y021333D01*
X047551Y021343D01*
X047552Y021354D01*
Y021114D01*
D02*
G37*
%LPC*%
G36*
X034148Y022857D02*
X033781D01*
Y022456D01*
X033839Y022464D01*
X03394Y022506D01*
X034027Y022572D01*
X034093Y022659D01*
X034135Y02276D01*
X034148Y022857D01*
D02*
G37*
G36*
X033681D02*
X033314D01*
X033326Y02276D01*
X033368Y022659D01*
X033435Y022572D01*
X033521Y022506D01*
X033622Y022464D01*
X033681Y022456D01*
Y022857D01*
D02*
G37*
G36*
X033908Y022343D02*
Y022097D01*
X034154D01*
X034151Y022126D01*
X03412Y022199D01*
X034072Y022261D01*
X03401Y022309D01*
X033937Y02234D01*
X033908Y022343D01*
D02*
G37*
G36*
X033808D02*
X03378Y02234D01*
X033707Y022309D01*
X033644Y022261D01*
X033596Y022199D01*
X033566Y022126D01*
X033562Y022097D01*
X033808D01*
Y022343D01*
D02*
G37*
G36*
X034154Y021997D02*
X033908D01*
Y021751D01*
X033937Y021755D01*
X03401Y021785D01*
X034072Y021833D01*
X03412Y021896D01*
X034151Y021969D01*
X034154Y021997D01*
D02*
G37*
G36*
X033808D02*
X033562D01*
X033566Y021969D01*
X033596Y021896D01*
X033644Y021833D01*
X033707Y021785D01*
X03378Y021755D01*
X033808Y021751D01*
Y021997D01*
D02*
G37*
G36*
X037822Y022857D02*
X037455D01*
Y022456D01*
X037514Y022464D01*
X037615Y022506D01*
X037701Y022572D01*
X037768Y022659D01*
X03781Y02276D01*
X037822Y022857D01*
D02*
G37*
G36*
X037355D02*
X036988D01*
X037001Y02276D01*
X037043Y022659D01*
X037109Y022572D01*
X037196Y022506D01*
X037297Y022464D01*
X037355Y022456D01*
Y022857D01*
D02*
G37*
%LPD*%
G36*
X035109Y028957D02*
X035062Y028954D01*
X035012Y028945D01*
X034962Y02893D01*
X034909Y028908D01*
X034855Y02888D01*
X0348Y028846D01*
X034742Y028805D01*
X034684Y028758D01*
X034561Y028646D01*
X034477Y02873D01*
X034536Y028792D01*
X034636Y028911D01*
X034677Y028968D01*
X034711Y029024D01*
X034739Y029078D01*
X034761Y02913D01*
X034776Y029181D01*
X034785Y029231D01*
X034788Y029278D01*
X035109Y028957D01*
D02*
G37*
G36*
X029163Y025452D02*
X029171Y025442D01*
X029182Y025433D01*
X029196Y025426D01*
X029212Y025419D01*
X02923Y025414D01*
X029251Y02541D01*
X029274Y025407D01*
X0293Y025405D01*
X029328Y025404D01*
X029374Y025284D01*
X029347Y025284D01*
X029323Y025282D01*
X029303Y025279D01*
X029287Y025275D01*
X029273Y02527D01*
X029263Y025263D01*
X029256Y025255D01*
X029253Y025246D01*
X029253Y025236D01*
X029256Y025225D01*
X029157Y025464D01*
X029163Y025452D01*
D02*
G37*
G36*
X035109Y026618D02*
X035062Y026615D01*
X035012Y026606D01*
X034962Y026591D01*
X034909Y026569D01*
X034855Y026541D01*
X0348Y026507D01*
X034742Y026467D01*
X034684Y02642D01*
X034561Y026307D01*
X034477Y026392D01*
X034536Y026454D01*
X034636Y026573D01*
X034677Y02663D01*
X034711Y026685D01*
X034739Y026739D01*
X034761Y026792D01*
X034776Y026843D01*
X034785Y026892D01*
X034788Y02694D01*
X035109Y026618D01*
D02*
G37*
G36*
X029272Y024517D02*
X029253Y024498D01*
X029238Y02448D01*
X029226Y024463D01*
X029216Y024448D01*
X029209Y024434D01*
X029206Y024421D01*
X029205Y024409D01*
X029207Y024398D01*
X029212Y024389D01*
X029219Y024381D01*
X029034Y024533D01*
X029044Y024527D01*
X029055Y024524D01*
X029067Y024523D01*
X029079Y024525D01*
X029093Y02453D01*
X029108Y024537D01*
X029124Y024547D01*
X029142Y02456D01*
X02916Y024576D01*
X029179Y024594D01*
X029272Y024517D01*
D02*
G37*
G36*
X047774Y023935D02*
X047764Y023941D01*
X047753Y023945D01*
X047741Y023946D01*
X047728Y023944D01*
X047714Y023939D01*
X047699Y023931D01*
X047683Y023921D01*
X047666Y023908D01*
X047648Y023893D01*
X047629Y023874D01*
X047536Y023951D01*
X047554Y023971D01*
X04757Y023988D01*
X047582Y024005D01*
X047592Y02402D01*
X047598Y024035D01*
X047602Y024048D01*
X047603Y02406D01*
X047601Y02407D01*
X047596Y02408D01*
X047588Y024088D01*
X047774Y023935D01*
D02*
G37*
G36*
X043269Y022747D02*
X043265Y022737D01*
X043263Y022725D01*
X043265Y022713D01*
X043269Y022699D01*
X043277Y022684D01*
X043286Y022669D01*
X043299Y022652D01*
X043315Y022634D01*
X043333Y022614D01*
X04325Y022527D01*
X043231Y022546D01*
X043213Y022561D01*
X043197Y022574D01*
X043181Y022583D01*
X043166Y02259D01*
X043153Y022594D01*
X043141Y022596D01*
X04313Y022594D01*
X04312Y02259D01*
X043111Y022582D01*
X043275Y022756D01*
X043269Y022747D01*
D02*
G37*
D36*
X031463Y034104D02*
X039802D01*
X040853Y035156D01*
X036853Y039156D02*
X038065Y037943D01*
X041798D01*
X045341Y0344D01*
Y033967D02*
Y0344D01*
X039853Y039156D02*
X040387Y038621D01*
X040423Y039775D02*
X041283D01*
X036693Y039995D02*
X048D01*
X040337Y03969D02*
X040423Y039775D01*
X039387Y03969D02*
X040337D01*
X040387Y038621D02*
X041581D01*
X044357Y032982D02*
X045341Y033967D01*
X041581Y038621D02*
X041592Y038632D01*
X042388D02*
X046916Y034104D01*
X041592Y038632D02*
X042388D01*
X048Y039995D02*
X048795Y0392D01*
X035853Y039156D02*
X036693Y039995D01*
X041283Y039775D02*
X041369Y03969D01*
X04778D01*
X046916Y028199D02*
Y034104D01*
X039387Y03569D02*
X042181D01*
X038853Y035156D02*
X039387Y03569D01*
X042181D02*
X044038Y033833D01*
X044357D01*
Y02564D02*
X046916Y028199D01*
X045735Y02564D02*
X046424D01*
X038853Y039156D02*
X039387Y03969D01*
X04778D02*
X048418Y039052D01*
Y029603D02*
Y039052D01*
X04739Y028574D02*
X048418Y029603D01*
X04739Y027038D02*
Y028574D01*
Y027038D02*
X047408Y027019D01*
Y026624D02*
Y027019D01*
X046424Y02564D02*
X047408Y026624D01*
X048795Y026367D02*
Y0392D01*
X048137Y025709D02*
X048795Y026367D01*
X047221Y025709D02*
X048137D01*
X047152Y02564D02*
X047221Y025709D01*
X040853Y035156D02*
X043372Y032636D01*
Y026033D02*
Y032636D01*
X042979Y02564D02*
X043372Y026033D01*
X04288Y025541D02*
X042979Y02564D01*
X041018Y032785D02*
X041057Y032825D01*
X041018Y024974D02*
Y032785D01*
X038853Y024974D02*
X038892Y025014D01*
Y032825D01*
X036687Y032785D02*
X036727Y032825D01*
X036687Y024974D02*
Y032785D01*
X032924Y024754D02*
X035113Y026943D01*
X029424Y024754D02*
X032924D01*
X028904Y024234D02*
X029424Y024754D01*
X031176Y025344D02*
X035113Y029281D01*
X029101Y025344D02*
X031176D01*
X028991Y025234D02*
X029101Y025344D01*
X029802Y026234D02*
X035113Y031545D01*
X028904Y026234D02*
X029802D01*
X028904Y025234D02*
X028991D01*
X031046Y023474D02*
X039518D01*
X028904Y021333D02*
X031046Y023474D01*
X028904Y021234D02*
Y021333D01*
X030538Y023868D02*
X037746D01*
X028904Y022234D02*
X030538Y023868D01*
X029904Y024234D02*
X035947D01*
X028904Y023234D02*
X029904Y024234D01*
X035947D02*
X036687Y024974D01*
X037746Y023868D02*
X038853Y024974D01*
X039518Y023474D02*
X041018Y024974D01*
X040316Y0219D02*
X046424D01*
X039308Y022907D02*
X040316Y0219D01*
X046424D02*
X047758Y023234D01*
X047113Y021604D02*
X047743Y022234D01*
X036937Y021604D02*
X047113D01*
X035634Y022907D02*
X036937Y021604D01*
X033632Y021234D02*
X047904D01*
X031959Y022907D02*
X033632Y021234D01*
X047743Y022234D02*
X047904D01*
X047758Y023234D02*
X047904D01*
X045963Y022293D02*
X047904Y024234D01*
X043569Y022293D02*
X045963D01*
X042983Y02288D02*
X043569Y022293D01*
X042983Y02288D02*
Y022907D01*
D39*
X031463Y03025D02*
D03*
Y03125D02*
D03*
D40*
Y03225D02*
D03*
D41*
X047904Y021234D02*
D03*
X028904Y035234D02*
D03*
Y026234D02*
D03*
D42*
X047904Y022234D02*
D03*
Y023234D02*
D03*
Y024234D02*
D03*
Y025234D02*
D03*
Y026234D02*
D03*
Y027234D02*
D03*
Y028234D02*
D03*
X028904Y034234D02*
D03*
Y033234D02*
D03*
Y032234D02*
D03*
Y031234D02*
D03*
Y030234D02*
D03*
Y029234D02*
D03*
Y028234D02*
D03*
Y021234D02*
D03*
Y022234D02*
D03*
Y023234D02*
D03*
Y024234D02*
D03*
Y025234D02*
D03*
X047904Y029833D02*
D03*
Y030833D02*
D03*
Y031833D02*
D03*
Y032833D02*
D03*
Y033833D02*
D03*
Y034833D02*
D03*
Y035833D02*
D03*
Y036833D02*
D03*
Y037833D02*
D03*
Y038833D02*
D03*
D43*
X038853Y024974D02*
D03*
X041691Y029281D02*
D03*
X035113Y029281D02*
D03*
X038892Y032825D02*
D03*
X036687Y024974D02*
D03*
X041691Y031545D02*
D03*
X035113Y031545D02*
D03*
X036727Y032825D02*
D03*
X041018Y024974D02*
D03*
X041605Y026943D02*
D03*
X035113D02*
D03*
X041057Y032825D02*
D03*
D44*
X037853Y024974D02*
D03*
X042691Y029281D02*
D03*
X034113Y029281D02*
D03*
X037892Y032825D02*
D03*
X035687Y024974D02*
D03*
X042691Y031545D02*
D03*
X034113Y031545D02*
D03*
X035727Y032825D02*
D03*
X040018Y024974D02*
D03*
X042605Y026943D02*
D03*
X034113D02*
D03*
X040057Y032825D02*
D03*
D45*
X042983Y022907D02*
D03*
X044754D02*
D03*
Y020348D02*
D03*
X042983D02*
D03*
X039308Y022907D02*
D03*
X04108D02*
D03*
Y020348D02*
D03*
X039308D02*
D03*
X035634Y022907D02*
D03*
X037405D02*
D03*
Y020348D02*
D03*
X035634D02*
D03*
X031959Y022907D02*
D03*
X033731D02*
D03*
Y020348D02*
D03*
X031959D02*
D03*
D46*
X035853Y035156D02*
D03*
D47*
X036853D02*
D03*
X037853D02*
D03*
X038853D02*
D03*
X039853D02*
D03*
X040853D02*
D03*
Y039156D02*
D03*
X039853D02*
D03*
X038853D02*
D03*
X037853D02*
D03*
X036853D02*
D03*
X035853D02*
D03*
D48*
X029002Y039715D02*
D03*
X047852Y019881D02*
D03*
X031463Y034104D02*
D03*
X044357Y032982D02*
D03*
Y033833D02*
D03*
X047152Y02564D02*
D03*
X045735D02*
D03*
X044357D02*
D03*
X042979D02*
D03*
D49*
X045669Y03622D02*
D03*
X044094D02*
D03*
Y020472D02*
D03*
X04252Y03622D02*
D03*
Y029921D02*
D03*
Y023622D02*
D03*
X041732Y028346D02*
D03*
X03937Y03622D02*
D03*
Y029921D02*
D03*
X040157Y028346D02*
D03*
X037795Y029921D02*
D03*
X03622D02*
D03*
X034646Y033071D02*
D03*
Y029921D02*
D03*
X035433Y028346D02*
D03*
X033858Y034646D02*
D03*
Y022047D02*
D03*
X033071Y020472D02*
D03*
X032283Y034646D02*
D03*
X031496Y026772D02*
D03*
X032283Y025197D02*
D03*
X029921Y03622D02*
D03*
Y020472D02*
D03*
X029134Y037795D02*
D03*
X028346Y03622D02*
D03*
M02*
