G04*
G04 #@! TF.GenerationSoftware,Altium Limited,Altium Designer,18.1.6 (161)*
G04*
G04 Layer_Physical_Order=1*
G04 Layer_Color=255*
%FSTAX24Y24*%
%MOIN*%
G70*
G01*
G75*
%ADD17R,0.0335X0.0315*%
%ADD18R,0.0236X0.0394*%
%ADD19R,0.0315X0.0335*%
%ADD20R,0.0315X0.0315*%
%ADD35C,0.0120*%
%ADD36C,0.0120*%
%ADD37C,0.0300*%
%ADD38C,0.0200*%
%ADD39O,0.1000X0.0800*%
%ADD40R,0.1000X0.0800*%
%ADD41R,0.0709X0.0630*%
%ADD42O,0.0709X0.0630*%
%ADD43C,0.0650*%
%ADD44R,0.0650X0.0650*%
%ADD45O,0.0630X0.0709*%
G04:AMPARAMS|DCode=46|XSize=66.9mil|YSize=74.8mil|CornerRadius=16.7mil|HoleSize=0mil|Usage=FLASHONLY|Rotation=0.000|XOffset=0mil|YOffset=0mil|HoleType=Round|Shape=RoundedRectangle|*
%AMROUNDEDRECTD46*
21,1,0.0669,0.0413,0,0,0.0*
21,1,0.0335,0.0748,0,0,0.0*
1,1,0.0335,0.0167,-0.0207*
1,1,0.0335,-0.0167,-0.0207*
1,1,0.0335,-0.0167,0.0207*
1,1,0.0335,0.0167,0.0207*
%
%ADD46ROUNDEDRECTD46*%
%ADD47O,0.0669X0.0748*%
%ADD48C,0.0500*%
%ADD49C,0.0400*%
G36*
X038241Y03942D02*
X038223Y0394D01*
X038194Y039365D01*
X038183Y039349D01*
X038176Y039333D01*
X038171Y039319D01*
X038168Y039306D01*
X038168Y039293D01*
X038171Y039282D01*
X038177Y039271D01*
X038039Y039472D01*
X038046Y039463D01*
X038055Y039458D01*
X038065Y039455D01*
X038077Y039455D01*
X038089Y039459D01*
X038103Y039465D01*
X038118Y039474D01*
X038135Y039486D01*
X038152Y039501D01*
X038171Y039519D01*
X038241Y03942D01*
D02*
G37*
G36*
X038512Y040006D02*
X038077Y039571D01*
X038077Y039571D01*
X038072Y039575D01*
X037966Y039618D01*
X037853Y039633D01*
X037739Y039618D01*
X037634Y039575D01*
X037543Y039505D01*
X037473Y039414D01*
X037429Y039308D01*
X037414Y039195D01*
Y039116D01*
X037429Y039003D01*
X037473Y038897D01*
X037543Y038806D01*
X037634Y038736D01*
X037739Y038693D01*
X037853Y038678D01*
X037966Y038693D01*
X038072Y038736D01*
X038163Y038806D01*
X038232Y038897D01*
X038276Y039003D01*
X038291Y039116D01*
Y039195D01*
X038277Y039305D01*
X038277Y039305D01*
X038295Y039328D01*
X0388Y039832D01*
X040489D01*
X04051Y039782D01*
X040243Y039515D01*
X040231Y039498D01*
X04017Y039496D01*
X040163Y039505D01*
X040072Y039575D01*
X039966Y039618D01*
X039853Y039633D01*
X039739Y039618D01*
X039634Y039575D01*
X039543Y039505D01*
X039473Y039414D01*
X039429Y039308D01*
X039414Y039195D01*
Y039116D01*
X039429Y039003D01*
X03944Y038977D01*
X039432Y038967D01*
X039427Y03896D01*
X037096Y03663D01*
X03172D01*
Y036724D01*
X031206D01*
Y036209D01*
X03172D01*
Y036303D01*
X037164D01*
X037226Y036316D01*
X037279Y036351D01*
X03965Y038722D01*
X039656Y038727D01*
X039739Y038693D01*
X039853Y038678D01*
X039966Y038693D01*
X040072Y038736D01*
X040145Y038793D01*
X040195Y03877D01*
Y035728D01*
X040056Y035589D01*
X04005Y035584D01*
X039966Y035618D01*
X039853Y035633D01*
X039739Y035618D01*
X039634Y035575D01*
X039543Y035505D01*
X039473Y035414D01*
X039429Y035308D01*
X039414Y035195D01*
Y035116D01*
X039429Y035003D01*
X039473Y034897D01*
X039521Y034835D01*
X039496Y034785D01*
X039209D01*
X039185Y034835D01*
X039232Y034897D01*
X039276Y035003D01*
X039291Y035116D01*
Y035195D01*
X039276Y035308D01*
X039232Y035414D01*
X039163Y035505D01*
X039072Y035575D01*
X038966Y035618D01*
X038853Y035633D01*
X038739Y035618D01*
X038634Y035575D01*
X038543Y035505D01*
X038473Y035414D01*
X038429Y035308D01*
X038414Y035195D01*
Y035116D01*
X038429Y035003D01*
X038473Y034897D01*
X038521Y034835D01*
X038496Y034785D01*
X038209D01*
X038185Y034835D01*
X038232Y034897D01*
X038276Y035003D01*
X038291Y035116D01*
Y035195D01*
X038276Y035308D01*
X038232Y035414D01*
X038163Y035505D01*
X038072Y035575D01*
X037966Y035618D01*
X037853Y035633D01*
X037739Y035618D01*
X037634Y035575D01*
X037543Y035505D01*
X037473Y035414D01*
X037429Y035308D01*
X037414Y035195D01*
Y035116D01*
X037429Y035003D01*
X037473Y034897D01*
X037521Y034835D01*
X037496Y034785D01*
X037209D01*
X037185Y034835D01*
X037232Y034897D01*
X037276Y035003D01*
X037291Y035116D01*
Y035195D01*
X037276Y035308D01*
X037232Y035414D01*
X037163Y035505D01*
X037072Y035575D01*
X036966Y035618D01*
X036853Y035633D01*
X036739Y035618D01*
X036656Y035584D01*
X03665Y035589D01*
X036321Y035918D01*
X036268Y035954D01*
X036205Y035966D01*
X035425D01*
X035363Y035954D01*
X03531Y035918D01*
X035088Y035696D01*
X035052Y035643D01*
X03504Y035581D01*
Y034695D01*
X035052Y034632D01*
X035088Y03458D01*
X035383Y034284D01*
X035436Y034249D01*
X035498Y034236D01*
X035635D01*
Y033739D01*
X035729D01*
Y03325D01*
X035302D01*
Y0324D01*
X036152D01*
Y03325D01*
X036055D01*
Y033739D01*
X03615D01*
Y034236D01*
X036304D01*
Y033739D01*
X036524D01*
X036524Y033738D01*
X036549Y033721D01*
X036608Y033671D01*
X037066Y033213D01*
Y033157D01*
X037016Y033138D01*
X036941Y033196D01*
X036838Y033239D01*
X036727Y033253D01*
X036616Y033239D01*
X036512Y033196D01*
X036424Y033128D01*
X036356Y033039D01*
X036313Y032936D01*
X036298Y032825D01*
X036313Y032714D01*
X036356Y03261D01*
X036424Y032522D01*
X036512Y032454D01*
X036616Y032411D01*
X036727Y032396D01*
X036838Y032411D01*
X036901Y032437D01*
X03693Y032395D01*
X036875Y03234D01*
X034142D01*
X034115Y03234D01*
X034111Y03234D01*
X033643Y032808D01*
X03356Y032863D01*
X033463Y032883D01*
X032841D01*
X032743Y032863D01*
X032661Y032808D01*
X032318Y032466D01*
X032263Y032383D01*
X032244Y032285D01*
Y031234D01*
Y031125D01*
X032194Y031113D01*
X03219Y031118D01*
X032165Y03115D01*
X032143Y031183D01*
X032099Y03126D01*
X032081Y031298D01*
X032051Y031374D01*
X03205Y031381D01*
X03204Y031406D01*
X03203Y031435D01*
Y031435D01*
X03203Y031435D01*
X03203Y031435D01*
X03202Y031452D01*
X032Y031502D01*
X03192Y031607D01*
X031815Y031687D01*
X031783Y0317D01*
X031793Y03175D01*
X032063D01*
Y03275D01*
X030863D01*
Y032535D01*
X030862Y032528D01*
X030862Y032526D01*
X03086Y032524D01*
X030855Y03252D01*
X030844Y032513D01*
X030824Y032505D01*
X030796Y032498D01*
X03076Y032491D01*
X030733Y032489D01*
X029455D01*
X029427Y03249D01*
X029387Y032495D01*
X029349Y032502D01*
X029314Y03251D01*
X029283Y032521D01*
X029254Y032532D01*
X029228Y032545D01*
X029204Y03256D01*
X029179Y032578D01*
X029172Y032581D01*
X029153Y032597D01*
X029052Y032639D01*
X028943Y032653D01*
X028865D01*
X028756Y032639D01*
X028655Y032597D01*
X028569Y03253D01*
X028502Y032444D01*
X02846Y032343D01*
X028446Y032234D01*
X02846Y032126D01*
X028502Y032025D01*
X028569Y031938D01*
X028655Y031872D01*
X028756Y03183D01*
X028865Y031816D01*
X028943D01*
X029052Y03183D01*
X029153Y031872D01*
X029172Y031887D01*
X029179Y03189D01*
X029204Y031909D01*
X029228Y031923D01*
X029254Y031936D01*
X029283Y031948D01*
X029314Y031958D01*
X029349Y031967D01*
X029386Y031973D01*
X029453Y031979D01*
X030733D01*
X03076Y031977D01*
X030796Y031971D01*
X030824Y031963D01*
X030844Y031955D01*
X030855Y031948D01*
X03086Y031944D01*
X030862Y031942D01*
X030862Y03194D01*
X030863Y031933D01*
Y03175D01*
X031133D01*
X031143Y0317D01*
X031111Y031687D01*
X031006Y031607D01*
X030926Y031502D01*
X030876Y031381D01*
X030859Y03125D01*
X030876Y031119D01*
X030926Y030998D01*
X031006Y030893D01*
X031111Y030813D01*
X031198Y030777D01*
Y030723D01*
X031111Y030687D01*
X031006Y030607D01*
X030926Y030502D01*
X030901Y030442D01*
X030894Y03044D01*
X030856Y030432D01*
X030756Y030422D01*
X030076D01*
X029478Y03102D01*
X029464Y031037D01*
X029441Y031069D01*
X029421Y031101D01*
X029403Y031133D01*
X029388Y031166D01*
X029376Y0312D01*
X029366Y031234D01*
X029359Y03127D01*
X029354Y031309D01*
X029351Y031317D01*
X029351Y031319D01*
X02935Y031326D01*
X02935Y031326D01*
X029348Y031343D01*
X029306Y031444D01*
X029239Y03153D01*
X029153Y031597D01*
X029052Y031639D01*
X028943Y031653D01*
X028865D01*
X028756Y031639D01*
X028655Y031597D01*
X028569Y03153D01*
X028502Y031444D01*
X02846Y031343D01*
X028446Y031234D01*
X02846Y031126D01*
X028502Y031025D01*
X028569Y030938D01*
X028655Y030872D01*
X028756Y03083D01*
X028782Y030827D01*
X028789Y030824D01*
X028829Y030819D01*
X028864Y030811D01*
X028899Y0308D01*
X028934Y030787D01*
X028969Y03077D01*
X029003Y030751D01*
X029038Y030728D01*
X029072Y030702D01*
X029092Y030686D01*
X029109Y030669D01*
X02908Y030627D01*
X029052Y030639D01*
X028954Y030651D01*
Y030284D01*
X029355D01*
X029348Y030343D01*
X029336Y030371D01*
X029378Y0304D01*
X029791Y029987D01*
X029873Y029932D01*
X029971Y029912D01*
X030793D01*
X030813Y029911D01*
X030852Y029905D01*
X030892Y029896D01*
X030979Y029871D01*
X031021Y029855D01*
X031104Y029819D01*
X031111Y029813D01*
X031137Y029802D01*
X031163Y029789D01*
X031182Y029784D01*
X031183Y029783D01*
X031232Y029763D01*
X031363Y029746D01*
X031563D01*
X031694Y029763D01*
X031722Y029775D01*
X03175Y029732D01*
X029684Y027666D01*
X02879D01*
X028692Y027647D01*
X02861Y027592D01*
X028099Y027081D01*
X028053Y0271D01*
Y036028D01*
X028103Y036045D01*
X028132Y036007D01*
X028195Y035958D01*
X028268Y035928D01*
X028296Y035924D01*
Y03622D01*
Y036516D01*
X028268Y036513D01*
X028195Y036483D01*
X028132Y036434D01*
X028103Y036396D01*
X028053Y036413D01*
Y039225D01*
X028608Y03978D01*
X028655Y039757D01*
X028649Y039715D01*
X028661Y039623D01*
X028697Y039538D01*
X028753Y039465D01*
X028826Y039409D01*
X028911Y039374D01*
X029002Y039362D01*
X029094Y039374D01*
X029179Y039409D01*
X029252Y039465D01*
X029308Y039538D01*
X029343Y039623D01*
X029355Y039715D01*
X029343Y039806D01*
X029308Y039891D01*
X029252Y039964D01*
X029203Y040002D01*
X02922Y040052D01*
X038492D01*
X038512Y040006D01*
D02*
G37*
G36*
X041177Y039264D02*
X041181Y039254D01*
X041187Y039245D01*
X041196Y039237D01*
X041208Y03923D01*
X041222Y039225D01*
X041239Y039221D01*
X041259Y039218D01*
X041281Y039216D01*
X041306Y039216D01*
Y039096D01*
X041281Y039095D01*
X041259Y039093D01*
X041239Y03909D01*
X041222Y039086D01*
X041208Y039081D01*
X041196Y039074D01*
X041187Y039066D01*
X041181Y039057D01*
X041177Y039047D01*
X041176Y039036D01*
Y039275D01*
X041177Y039264D01*
D02*
G37*
G36*
X048903Y039172D02*
X048903Y020422D01*
X04823Y01975D01*
X048188Y019778D01*
X048193Y01979D01*
X048205Y019881D01*
X048193Y019972D01*
X048157Y020058D01*
X048101Y020131D01*
X048028Y020187D01*
X047943Y020222D01*
X047852Y020234D01*
X04776Y020222D01*
X047675Y020187D01*
X047602Y020131D01*
X047546Y020058D01*
X047511Y019972D01*
X047499Y019881D01*
X047511Y01979D01*
X047546Y019705D01*
X047602Y019631D01*
X047675Y019575D01*
X047684Y019571D01*
X047675Y019521D01*
X046543Y019521D01*
X046523Y019571D01*
X046998Y020046D01*
X047053Y020129D01*
X047072Y020226D01*
Y023376D01*
X047053Y023474D01*
X046998Y023556D01*
X046873Y023681D01*
X046949Y023757D01*
X047013Y023811D01*
X04704Y02383D01*
X047064Y023846D01*
X047085Y023856D01*
X0471Y023863D01*
X047109Y023865D01*
X047122Y023866D01*
X047122Y023867D01*
X047213D01*
Y023975D01*
X047213Y023978D01*
X047213Y023979D01*
Y02404D01*
X04723Y024066D01*
X047249Y024163D01*
X04723Y024261D01*
X047213Y024287D01*
Y02446D01*
X046889D01*
X046888Y02446D01*
X046885Y02446D01*
X046776D01*
Y02437D01*
X046776Y024369D01*
X046775Y024356D01*
X046772Y024347D01*
X046766Y024332D01*
X046755Y024312D01*
X04674Y024288D01*
X046721Y024262D01*
X046651Y02418D01*
X046511Y02404D01*
X046465Y024059D01*
Y02446D01*
X04639D01*
Y024609D01*
X046402Y024654D01*
X04644Y024654D01*
X046839D01*
Y025096D01*
X046839Y025096D01*
X046845Y025102D01*
X046845Y025103D01*
X046847Y025104D01*
X046892Y025149D01*
X046967Y025214D01*
X046999Y025239D01*
X047029Y02526D01*
X047055Y025275D01*
X047076Y025284D01*
X047092Y025289D01*
X0471Y025291D01*
X047114Y02529D01*
X047116Y025291D01*
X047117Y02529D01*
X047121Y025291D01*
X047152Y025287D01*
X047243Y025299D01*
X047328Y025334D01*
X047402Y02539D01*
X04743Y025427D01*
X047458Y025463D01*
X047501Y025441D01*
X04746Y025343D01*
X047446Y025234D01*
X04746Y025126D01*
X047502Y025025D01*
X047569Y024938D01*
X047655Y024872D01*
X047756Y02483D01*
X047865Y024816D01*
X047943D01*
X048052Y02483D01*
X048153Y024872D01*
X048239Y024938D01*
X048306Y025025D01*
X048348Y025126D01*
X048362Y025234D01*
X048348Y025343D01*
X048306Y025444D01*
X048239Y02553D01*
X048153Y025597D01*
X048052Y025639D01*
X047943Y025653D01*
X047865D01*
X047756Y025639D01*
X047655Y025597D01*
X047569Y02553D01*
X04753Y025479D01*
X047502Y025444D01*
X047459Y025465D01*
X047493Y025548D01*
X047505Y02564D01*
X047493Y025731D01*
X047458Y025816D01*
X047402Y025889D01*
X047328Y025945D01*
X047243Y025981D01*
X047152Y025993D01*
X047061Y025981D01*
X046975Y025945D01*
X046902Y025889D01*
X046846Y025816D01*
X046811Y025731D01*
X046799Y02564D01*
X046803Y025608D01*
X046802Y025605D01*
X046803Y025604D01*
X046802Y025602D01*
X046803Y025588D01*
X046801Y025579D01*
X046796Y025564D01*
X046787Y025543D01*
X046772Y025517D01*
X046753Y025489D01*
X04666Y025378D01*
X046616Y025335D01*
X046615Y025336D01*
X046594Y025309D01*
X04658Y025292D01*
X046556Y025265D01*
X046547Y025256D01*
X04654Y025249D01*
X046538Y025248D01*
X046402Y025248D01*
X04639Y025292D01*
Y025907D01*
X046507Y026024D01*
X046513Y026029D01*
X046525Y026038D01*
X046536Y026045D01*
X046546Y026051D01*
X046556Y026055D01*
X046564Y026058D01*
X046572Y02606D01*
X046579Y026061D01*
X04658Y026061D01*
X04674D01*
Y026596D01*
X046225D01*
Y026204D01*
X046209Y026187D01*
X046111Y02609D01*
X046076Y026037D01*
X046064Y025974D01*
Y025868D01*
X046014Y025851D01*
X045984Y025889D01*
X045911Y025945D01*
X045826Y025981D01*
X045735Y025993D01*
X045643Y025981D01*
X045558Y025945D01*
X045485Y025889D01*
X045429Y025816D01*
X045394Y025731D01*
X045382Y02564D01*
X045394Y025548D01*
X045429Y025463D01*
X04547Y025409D01*
X04534Y025279D01*
X045317Y025257D01*
X045305Y025248D01*
X045032D01*
Y025533D01*
X046411Y026913D01*
X046432Y026932D01*
X046448Y026945D01*
X046452Y026947D01*
X04674D01*
Y027482D01*
X046225D01*
Y027194D01*
X046221Y027189D01*
X046194Y027157D01*
X044753Y025716D01*
X044751Y025712D01*
X044699Y025724D01*
X044698Y025731D01*
X044662Y025816D01*
X044606Y025889D01*
X044533Y025945D01*
X044448Y025981D01*
X044357Y025993D01*
X044265Y025981D01*
X04418Y025945D01*
X044164Y025933D01*
X044131Y025971D01*
X046175Y028015D01*
X046225Y027994D01*
Y027931D01*
X04674D01*
Y028466D01*
X046225D01*
Y028362D01*
X046128D01*
X046066Y02835D01*
X046013Y028314D01*
X043377Y025678D01*
X043368Y025679D01*
X043325Y025691D01*
X04332Y025731D01*
X043284Y025816D01*
X043228Y025889D01*
X043155Y025945D01*
X04307Y025981D01*
X042979Y025993D01*
X042887Y025981D01*
X042802Y025945D01*
X042729Y025889D01*
X042673Y025816D01*
X042638Y025731D01*
X042626Y02564D01*
X042626Y025635D01*
X042625Y025618D01*
X042621Y025596D01*
X042612Y02557D01*
X042599Y02554D01*
X04258Y025507D01*
X042557Y025471D01*
X042529Y025433D01*
X042454Y025346D01*
X042371Y025263D01*
X042361Y025248D01*
X042276D01*
Y02569D01*
X042751Y026166D01*
X043668D01*
X04373Y026178D01*
X043783Y026213D01*
X046598Y029028D01*
X046633Y029081D01*
X046646Y029144D01*
Y029605D01*
X04674D01*
Y030139D01*
X046225D01*
Y029605D01*
X04632D01*
Y029211D01*
X043784Y026676D01*
X043738Y026695D01*
Y026941D01*
X043204D01*
Y026846D01*
X04303D01*
Y027368D01*
X04218D01*
Y026518D01*
X042589D01*
X042604Y026468D01*
X042568Y026444D01*
X041997Y025873D01*
X041962Y02582D01*
X041949Y025758D01*
Y024496D01*
X041936Y024482D01*
X041873Y024482D01*
X04186Y024496D01*
Y025341D01*
X04184Y025438D01*
X041785Y025521D01*
X041486Y02582D01*
X041403Y025875D01*
X041306Y025895D01*
X033537D01*
X033151Y026281D01*
X03317Y026327D01*
X0336D01*
Y026422D01*
X033754D01*
X033817Y026434D01*
X03387Y026469D01*
X033918Y026518D01*
X034538D01*
Y027368D01*
X033688D01*
Y026749D01*
X033687Y026748D01*
X0336D01*
Y026842D01*
X033066D01*
Y026431D01*
X03302Y026412D01*
X032753Y026678D01*
Y027408D01*
X0328Y027427D01*
X032954Y027272D01*
X033009Y027205D01*
X033029Y027177D01*
X033044Y027152D01*
X033055Y027131D01*
X033061Y027115D01*
X033064Y027103D01*
X033065Y027088D01*
X033066Y027087D01*
Y026996D01*
X033161D01*
X033164Y026996D01*
X033168Y026996D01*
X033173D01*
X033176Y026996D01*
X033177Y026996D01*
X0336D01*
Y0274D01*
X033601Y027401D01*
X0336Y027404D01*
X033601Y027407D01*
X0336Y027411D01*
Y027511D01*
X03351D01*
X033509Y027512D01*
X033493Y027513D01*
X033482Y027516D01*
X033466Y027522D01*
X033444Y027533D01*
X033419Y027549D01*
X033393Y027567D01*
X033308Y027639D01*
X032892Y028056D01*
X032866Y028088D01*
X032839Y028128D01*
X032816Y028169D01*
X032796Y028212D01*
X03278Y028256D01*
X032767Y028302D01*
X032758Y028349D01*
X032753Y02839D01*
Y02977D01*
X0328Y029789D01*
X032954Y029634D01*
X033009Y029567D01*
X033029Y02954D01*
X033044Y029515D01*
X033055Y029493D01*
X033061Y029477D01*
X033064Y029466D01*
X033065Y029451D01*
X033066Y029449D01*
Y029359D01*
X033161D01*
X033164Y029358D01*
X033168Y029359D01*
X033173D01*
X033176Y029358D01*
X033177Y029359D01*
X0336D01*
Y029762D01*
X033601Y029763D01*
X0336Y029766D01*
X033601Y029769D01*
X0336Y029774D01*
Y029874D01*
X03351D01*
X033509Y029874D01*
X033493Y029875D01*
X033482Y029878D01*
X033466Y029885D01*
X033444Y029895D01*
X033419Y029911D01*
X033393Y029929D01*
X033308Y030002D01*
X032892Y030418D01*
X032866Y03045D01*
X032839Y03049D01*
X032816Y030531D01*
X032796Y030574D01*
X03278Y030618D01*
X032767Y030664D01*
X032758Y030712D01*
X032753Y030752D01*
Y030933D01*
X032758Y030973D01*
X032767Y031021D01*
X03278Y031067D01*
X032796Y031111D01*
X032816Y031154D01*
X032839Y031195D01*
X032866Y031235D01*
X032892Y031267D01*
X032921Y031296D01*
X032967Y031277D01*
Y031044D01*
X033502D01*
Y031138D01*
X033688D01*
Y03112D01*
X033779D01*
X03378Y03112D01*
X033784Y03112D01*
X033784D01*
X033788Y03112D01*
X033792Y03112D01*
X034538D01*
Y031932D01*
X034836D01*
X034853Y031882D01*
X034809Y031848D01*
X034741Y03176D01*
X034699Y031656D01*
X034684Y031545D01*
X034699Y031434D01*
X034741Y031331D01*
X034809Y031242D01*
X034898Y031174D01*
X035002Y031131D01*
X035113Y031117D01*
X035224Y031131D01*
X035327Y031174D01*
X035416Y031242D01*
X035421Y03125D01*
X035444Y031269D01*
X035475Y031291D01*
X035512Y031311D01*
X035556Y031329D01*
X035606Y031345D01*
X035662Y031359D01*
X035724Y031369D01*
X035872Y031382D01*
X035893Y031382D01*
X040879D01*
X04101Y031377D01*
X041078Y031369D01*
X041141Y031359D01*
X041198Y031345D01*
X041248Y031329D01*
X041292Y031311D01*
X041329Y031291D01*
X04136Y031269D01*
X041383Y03125D01*
X041388Y031242D01*
X041477Y031174D01*
X04158Y031131D01*
X041691Y031117D01*
X041802Y031131D01*
X041906Y031174D01*
X041994Y031242D01*
X042063Y031331D01*
X042105Y031434D01*
X04212Y031545D01*
X042105Y031656D01*
X042063Y03176D01*
X042007Y031832D01*
X042019Y03188D01*
X042025Y031887D01*
X042092Y0319D01*
X042175Y031956D01*
X042887Y032668D01*
X043562D01*
X043807Y032424D01*
Y03217D01*
X043783Y03215D01*
X043738Y032137D01*
X043738Y032137D01*
X043738Y032137D01*
X043204D01*
Y031622D01*
X043624D01*
X043668Y031578D01*
X043694Y031546D01*
X043713Y031518D01*
X043701Y031485D01*
X043685Y031468D01*
X043204D01*
Y031374D01*
X043116D01*
Y03197D01*
X042266D01*
Y03112D01*
X042886D01*
X042911Y031095D01*
X042964Y03106D01*
X043026Y031047D01*
X043204D01*
Y030953D01*
X043738D01*
Y031343D01*
X043788Y031349D01*
X043793Y031332D01*
X043802Y031284D01*
X043807Y031244D01*
Y030508D01*
X043802Y030468D01*
X043793Y03042D01*
X04378Y030374D01*
X043764Y03033D01*
X043744Y030287D01*
X043721Y030246D01*
X043694Y030206D01*
X043668Y030174D01*
X043479Y029985D01*
X043412Y02993D01*
X043385Y029911D01*
X043359Y029895D01*
X043338Y029885D01*
X043322Y029878D01*
X043311Y029875D01*
X043295Y029874D01*
X043294Y029874D01*
X043204D01*
Y029774D01*
X043203Y029769D01*
X043204Y029766D01*
X043203Y029763D01*
X043204Y029762D01*
Y029359D01*
X043627D01*
X043628Y029358D01*
X043631Y029359D01*
X043636D01*
X04364Y029358D01*
X043643Y029359D01*
X043738D01*
Y029449D01*
X043739Y029451D01*
X04374Y029466D01*
X043742Y029473D01*
X043751Y02948D01*
X043759Y029484D01*
X043807Y029452D01*
Y028049D01*
X043479Y027721D01*
X043412Y027666D01*
X043385Y027647D01*
X043359Y027632D01*
X043338Y027621D01*
X043322Y027614D01*
X043311Y027612D01*
X043295Y02761D01*
X043294Y02761D01*
X043204D01*
Y02751D01*
X043203Y027506D01*
X043204Y027502D01*
X043203Y027499D01*
X043204Y027498D01*
Y027095D01*
X043627D01*
X043628Y027095D01*
X043631Y027095D01*
X043636D01*
X04364Y027094D01*
X043643Y027095D01*
X043738D01*
Y027186D01*
X043739Y027187D01*
X04374Y027202D01*
X043743Y027213D01*
X043749Y02723D01*
X04376Y027251D01*
X043775Y027276D01*
X043794Y027303D01*
X043866Y027387D01*
X044242Y027763D01*
X044297Y027845D01*
X044316Y027943D01*
Y030207D01*
Y031545D01*
Y03253D01*
X044305Y032586D01*
X044347Y032631D01*
X044357Y032629D01*
X044362Y03263D01*
X044379Y032629D01*
X044401Y032624D01*
X044427Y032616D01*
X044456Y032602D01*
X04449Y032584D01*
X044526Y03256D01*
X044564Y032532D01*
X04465Y032458D01*
X04619Y030918D01*
X046208Y030899D01*
X04622Y030884D01*
X046225Y030876D01*
Y030589D01*
X04674D01*
Y031124D01*
X046452D01*
X046449Y031126D01*
X046416Y031153D01*
X044881Y032689D01*
X044807Y032775D01*
X044779Y032813D01*
X044755Y032849D01*
X044737Y032883D01*
X044723Y032912D01*
X044715Y032938D01*
X04471Y03296D01*
X044709Y032977D01*
X04471Y032982D01*
X044698Y033074D01*
X044662Y033159D01*
X044606Y033232D01*
X044533Y033288D01*
X044448Y033323D01*
X044357Y033335D01*
X044265Y033323D01*
X04418Y033288D01*
X044107Y033232D01*
X044051Y033159D01*
X044016Y033074D01*
X044008Y033014D01*
X043955Y032996D01*
X043848Y033103D01*
X043765Y033159D01*
X043668Y033178D01*
X042866D01*
X041781Y034186D01*
X041785Y034212D01*
X041798Y034236D01*
X045825D01*
X04619Y033871D01*
X046208Y033852D01*
X04622Y033836D01*
X046225Y033829D01*
Y033542D01*
X04674D01*
Y034076D01*
X046452D01*
X046449Y034078D01*
X046416Y034106D01*
X04611Y034412D01*
X046129Y034458D01*
X046311D01*
X046373Y034471D01*
X046426Y034506D01*
X046446Y034526D01*
X04674D01*
Y035061D01*
X046225D01*
Y034785D01*
X041209D01*
X041185Y034835D01*
X041232Y034897D01*
X041276Y035003D01*
X041291Y035116D01*
Y035195D01*
X041276Y035308D01*
X041232Y035414D01*
X041163Y035505D01*
X041072Y035575D01*
X040966Y035618D01*
X040853Y035633D01*
X040739Y035618D01*
X040634Y035575D01*
X040543Y035505D01*
X040473Y035414D01*
X040429Y035308D01*
X040414Y035195D01*
Y035116D01*
X040429Y035003D01*
X040473Y034897D01*
X040521Y034835D01*
X040496Y034785D01*
X040209D01*
X040185Y034835D01*
X040232Y034897D01*
X040276Y035003D01*
X040291Y035116D01*
Y035195D01*
X040276Y035308D01*
X040266Y035334D01*
X040273Y035344D01*
X040279Y035351D01*
X040473Y035546D01*
X040509Y035598D01*
X040521Y035661D01*
Y03876D01*
X040571Y038784D01*
X040634Y038736D01*
X040739Y038693D01*
X040853Y038678D01*
X040966Y038693D01*
X041072Y038736D01*
X041163Y038806D01*
X041232Y038897D01*
X041272Y038992D01*
X041278Y038992D01*
X044947D01*
X045572Y038367D01*
Y036959D01*
X045584Y036896D01*
X045619Y036843D01*
X04627Y036192D01*
X046323Y036157D01*
X046386Y036144D01*
X047518D01*
X047542Y036095D01*
X047502Y036042D01*
X04746Y035941D01*
X047453Y035883D01*
X047904D01*
Y035833D01*
X047954D01*
Y035416D01*
X048052Y035428D01*
X048153Y03547D01*
X048239Y035537D01*
X048277Y035586D01*
X048327Y035569D01*
Y035096D01*
X048277Y035079D01*
X048239Y035129D01*
X048153Y035195D01*
X048052Y035237D01*
X047943Y035251D01*
X047865D01*
X047756Y035237D01*
X047655Y035195D01*
X047569Y035129D01*
X047502Y035042D01*
X047467Y034957D01*
X047461Y034956D01*
X047409D01*
Y035061D01*
X046894D01*
Y034526D01*
X047409D01*
Y03463D01*
X047478D01*
X047487Y034629D01*
X0475Y034628D01*
X047502Y034623D01*
X047569Y034537D01*
X047655Y03447D01*
X047756Y034428D01*
X047865Y034414D01*
X047943D01*
X048052Y034428D01*
X048153Y03447D01*
X048239Y034537D01*
X048277Y034586D01*
X048327Y034569D01*
Y034096D01*
X048277Y034079D01*
X048239Y034129D01*
X048153Y034195D01*
X048052Y034237D01*
X047943Y034251D01*
X047865D01*
X047756Y034237D01*
X047655Y034195D01*
X047569Y034129D01*
X047502Y034042D01*
X047474Y033973D01*
X047472Y033973D01*
X047463Y033972D01*
X047409D01*
Y034076D01*
X046894D01*
Y033542D01*
X047409D01*
Y033646D01*
X047473D01*
X047482Y033645D01*
X047494Y033644D01*
X047502Y033623D01*
X047569Y033537D01*
X047655Y03347D01*
X047756Y033428D01*
X047865Y033414D01*
X047943D01*
X048052Y033428D01*
X048153Y03347D01*
X048239Y033537D01*
X048277Y033586D01*
X048327Y033569D01*
Y033096D01*
X048277Y033079D01*
X048239Y033129D01*
X048153Y033195D01*
X048052Y033237D01*
X047943Y033251D01*
X047865D01*
X047756Y033237D01*
X047655Y033195D01*
X047569Y033129D01*
X047502Y033042D01*
X04748Y03299D01*
X047473Y032989D01*
X047465Y032988D01*
X047409D01*
Y033092D01*
X046894D01*
Y032557D01*
X047409D01*
Y032662D01*
X047468D01*
X047477Y032661D01*
X047487Y032659D01*
X047502Y032623D01*
X047562Y032546D01*
X047547Y032496D01*
X046975D01*
X046912Y032483D01*
X046859Y032448D01*
X046554Y032142D01*
X046533Y032123D01*
X046517Y032111D01*
X046514Y032108D01*
X046225D01*
Y031573D01*
X04674D01*
Y031861D01*
X046744Y031867D01*
X046771Y031898D01*
X046848Y031975D01*
X046894Y031956D01*
Y031573D01*
X047409D01*
Y031677D01*
X047465D01*
X047473Y031677D01*
X04748Y031676D01*
X047502Y031623D01*
X047569Y031537D01*
X047655Y03147D01*
X047756Y031428D01*
X047865Y031414D01*
X047943D01*
X048052Y031428D01*
X048153Y03147D01*
X048239Y031537D01*
X048306Y031623D01*
X048348Y031724D01*
X048362Y031833D01*
X048348Y031941D01*
X048306Y032042D01*
X048239Y032129D01*
X048215Y032147D01*
X048217Y032209D01*
X04823Y032217D01*
X048606Y032593D01*
X048641Y032646D01*
X048654Y032708D01*
Y035957D01*
X048641Y03602D01*
X048606Y036072D01*
X048255Y036423D01*
X048211Y036452D01*
X048203Y03649D01*
X048203Y036509D01*
X048239Y036537D01*
X048306Y036623D01*
X048348Y036724D01*
X048362Y036833D01*
X048348Y036941D01*
X048306Y037042D01*
X048239Y037129D01*
X048153Y037195D01*
X048052Y037237D01*
X047943Y037251D01*
X047865D01*
X047756Y037237D01*
X047655Y037195D01*
X047569Y037129D01*
X047502Y037042D01*
X04746Y036941D01*
X047446Y036833D01*
X04746Y036724D01*
X047502Y036623D01*
X047569Y036537D01*
X047593Y036518D01*
X047577Y036471D01*
X046453D01*
X045898Y037026D01*
Y038435D01*
X045885Y038497D01*
X04585Y03855D01*
X04513Y039271D01*
X045077Y039306D01*
X045014Y039319D01*
X041278D01*
X041272Y039319D01*
X041232Y039414D01*
X041165Y039501D01*
X04117Y039526D01*
X041179Y039551D01*
X045529D01*
X04619Y038891D01*
X046208Y038871D01*
X04622Y038856D01*
X046225Y038849D01*
Y038561D01*
X04674D01*
Y039096D01*
X046452D01*
X046449Y039098D01*
X046416Y039126D01*
X04576Y039782D01*
X045781Y039832D01*
X047411D01*
X047942Y039301D01*
X047921Y039251D01*
X047865D01*
X047756Y039237D01*
X047655Y039195D01*
X047569Y039129D01*
X047502Y039042D01*
X047484Y038997D01*
X047484Y038997D01*
X047484Y038997D01*
X047482Y038994D01*
X047474Y038993D01*
X047465Y038992D01*
X047409D01*
Y039096D01*
X046894D01*
Y038561D01*
X047409D01*
Y038666D01*
X047466D01*
X047475Y038665D01*
X047485Y038663D01*
X047502Y038623D01*
X047559Y03855D01*
X04754Y0385D01*
X046916D01*
X046853Y038487D01*
X0468Y038452D01*
X046491Y038142D01*
X046481Y038134D01*
X046466Y038122D01*
X046453Y038113D01*
X046451Y038112D01*
X046432D01*
X046431Y038112D01*
X04643Y038112D01*
X046423D01*
X046418Y038113D01*
X046415Y038112D01*
X046225D01*
Y037577D01*
X04674D01*
Y037878D01*
X04674Y037879D01*
X04674Y03788D01*
Y037901D01*
X04674Y037902D01*
X04674Y037902D01*
Y037926D01*
X046768Y037958D01*
X046848Y038038D01*
X046894Y038019D01*
Y037577D01*
X047409D01*
Y037681D01*
X047464D01*
X047473Y037681D01*
X047479Y03768D01*
X047502Y037623D01*
X047569Y037537D01*
X047655Y03747D01*
X047756Y037428D01*
X047865Y037414D01*
X047943D01*
X048052Y037428D01*
X048153Y03747D01*
X048239Y037537D01*
X048306Y037623D01*
X048348Y037724D01*
X048362Y037833D01*
X048348Y037941D01*
X048306Y038042D01*
X048239Y038129D01*
X048237Y038131D01*
X048249Y038184D01*
X048258Y038186D01*
X048311Y038221D01*
X048534Y038444D01*
X048569Y038497D01*
X048581Y03856D01*
Y039056D01*
X048569Y039118D01*
X048534Y039171D01*
X047699Y040006D01*
X047718Y040052D01*
X048023D01*
X048903Y039172D01*
D02*
G37*
G36*
X039692Y038825D02*
X039684Y038833D01*
X039674Y038838D01*
X039664Y03884D01*
X039652Y038839D01*
X039639Y038835D01*
X039625Y038829D01*
X039609Y038819D01*
X039593Y038807D01*
X039575Y038792D01*
X039556Y038774D01*
X039478Y038866D01*
X039496Y038885D01*
X039512Y038903D01*
X039525Y03892D01*
X039535Y038936D01*
X039542Y038951D01*
X039547Y038965D01*
X039549Y038977D01*
X039548Y038989D01*
X039544Y039D01*
X039538Y03901D01*
X039692Y038825D01*
D02*
G37*
G36*
X046342Y039055D02*
X046387Y039017D01*
X046406Y039003D01*
X046424Y038993D01*
X04644Y038986D01*
X046454Y038983D01*
X046467Y038983D01*
X046477Y038987D01*
X046486Y038994D01*
X046328Y038815D01*
X046334Y038825D01*
X046337Y038836D01*
X046336Y038849D01*
X046333Y038864D01*
X046326Y03888D01*
X046316Y038898D01*
X046302Y038917D01*
X046285Y038938D01*
X046242Y038985D01*
X046317Y03908D01*
X046342Y039055D01*
D02*
G37*
G36*
X047576Y038709D02*
X047575Y038721D01*
X04757Y038731D01*
X047563Y03874D01*
X047553Y038747D01*
X047541Y038754D01*
X047525Y038759D01*
X047507Y038763D01*
X047486Y038766D01*
X047463Y038768D01*
X047436Y038769D01*
X047435Y038889D01*
X047461Y038889D01*
X047485Y038891D01*
X047506Y038894D01*
X047524Y038898D01*
X047539Y038904D01*
X047551Y03891D01*
X047561Y038918D01*
X047568Y038927D01*
X047572Y038937D01*
X047573Y038948D01*
X047576Y038709D01*
D02*
G37*
G36*
X047308Y038937D02*
X047312Y038927D01*
X047318Y038918D01*
X047326Y03891D01*
X047337Y038904D01*
X047351Y038898D01*
X047366Y038894D01*
X047385Y038891D01*
X047405Y038889D01*
X047428Y038889D01*
Y038769D01*
X047405Y038768D01*
X047385Y038766D01*
X047366Y038763D01*
X047351Y038759D01*
X047337Y038754D01*
X047326Y038747D01*
X047318Y038739D01*
X047312Y03873D01*
X047308Y03872D01*
X047307Y038709D01*
Y038949D01*
X047308Y038937D01*
D02*
G37*
G36*
X046724Y03806D02*
X046698Y038033D01*
X046658Y037986D01*
X046643Y037966D01*
X046633Y037948D01*
X046626Y037932D01*
X046624Y037918D01*
X046625Y037907D01*
X04663Y037897D01*
X046639Y03789D01*
X04642Y038011D01*
X046432Y038006D01*
X046444Y038004D01*
X046458Y038006D01*
X046473Y03801D01*
X04649Y038017D01*
X046507Y038027D01*
X046526Y03804D01*
X046546Y038055D01*
X046567Y038074D01*
X04659Y038095D01*
X046724Y03806D01*
D02*
G37*
G36*
X047571Y037725D02*
X04757Y037736D01*
X047566Y037746D01*
X047559Y037755D01*
X04755Y037763D01*
X047538Y03777D01*
X047523Y037775D01*
X047505Y037779D01*
X047484Y037782D01*
X04746Y037784D01*
X047434Y037784D01*
X047438Y037904D01*
X047465Y037905D01*
X047489Y037907D01*
X04751Y03791D01*
X047528Y037914D01*
X047544Y037919D01*
X047556Y037926D01*
X047567Y037934D01*
X047574Y037943D01*
X047578Y037953D01*
X04758Y037964D01*
X047571Y037725D01*
D02*
G37*
G36*
X047308Y037953D02*
X047312Y037943D01*
X047318Y037934D01*
X047326Y037926D01*
X047337Y037919D01*
X047351Y037914D01*
X047366Y03791D01*
X047385Y037907D01*
X047405Y037905D01*
X047428Y037904D01*
Y037784D01*
X047405Y037784D01*
X047385Y037782D01*
X047366Y037779D01*
X047351Y037775D01*
X047337Y037769D01*
X047326Y037763D01*
X047318Y037755D01*
X047312Y037746D01*
X047308Y037736D01*
X047307Y037724D01*
Y037964D01*
X047308Y037953D01*
D02*
G37*
G36*
X031619Y036575D02*
X031623Y036565D01*
X031629Y036556D01*
X031637Y036548D01*
X031648Y036542D01*
X031662Y036536D01*
X031677Y036532D01*
X031696Y036529D01*
X031716Y036527D01*
X031739Y036527D01*
Y036407D01*
X031716Y036406D01*
X031696Y036404D01*
X031677Y036401D01*
X031662Y036397D01*
X031648Y036392D01*
X031637Y036385D01*
X031629Y036377D01*
X031623Y036368D01*
X031619Y036358D01*
X031618Y036347D01*
Y036587D01*
X031619Y036575D01*
D02*
G37*
G36*
X040227Y035445D02*
X040209Y035426D01*
X040194Y035408D01*
X040181Y035391D01*
X040171Y035375D01*
X040163Y03536D01*
X040159Y035346D01*
X040157Y035334D01*
X040158Y035322D01*
X040161Y035311D01*
X040168Y035301D01*
X040014Y035486D01*
X040022Y035478D01*
X040031Y035473D01*
X040042Y035471D01*
X040054Y035472D01*
X040067Y035476D01*
X040081Y035482D01*
X040096Y035492D01*
X040113Y035504D01*
X040131Y035519D01*
X04015Y035537D01*
X040227Y035445D01*
D02*
G37*
G36*
X036575Y035519D02*
X036593Y035504D01*
X036609Y035492D01*
X036625Y035482D01*
X036639Y035476D01*
X036652Y035472D01*
X036663Y035471D01*
X036674Y035473D01*
X036684Y035478D01*
X036692Y035486D01*
X036538Y035301D01*
X036544Y035311D01*
X036548Y035322D01*
X036549Y035334D01*
X036547Y035346D01*
X036542Y03536D01*
X036535Y035375D01*
X036525Y035391D01*
X036512Y035408D01*
X036496Y035426D01*
X036478Y035445D01*
X036556Y035537D01*
X036575Y035519D01*
D02*
G37*
G36*
X036181Y03498D02*
X036179Y034968D01*
X03618Y034954D01*
X036183Y03494D01*
X03619Y034924D01*
X0362Y034907D01*
X036212Y034888D01*
X036228Y034869D01*
X036246Y034848D01*
X036267Y034826D01*
X036198Y034726D01*
X036176Y034746D01*
X036138Y034778D01*
X036121Y034789D01*
X036106Y034797D01*
X036092Y034801D01*
X03608Y034803D01*
X036069Y034801D01*
X03606Y034795D01*
X036053Y034787D01*
X036186Y03499D01*
X036181Y03498D01*
D02*
G37*
G36*
X047595Y034674D02*
X047592Y034685D01*
X047587Y034695D01*
X047578Y034704D01*
X047567Y034712D01*
X047554Y034718D01*
X047538Y034724D01*
X047519Y034728D01*
X047498Y034731D01*
X047474Y034733D01*
X047447Y034733D01*
X047431Y034853D01*
X047458Y034854D01*
X047481Y034856D01*
X047502Y034859D01*
X047519Y034863D01*
X047534Y034868D01*
X047545Y034875D01*
X047554Y034883D01*
X04756Y034891D01*
X047562Y034902D01*
X047562Y034913D01*
X047595Y034674D01*
D02*
G37*
G36*
X047308Y034902D02*
X047312Y034892D01*
X047318Y034883D01*
X047326Y034875D01*
X047337Y034868D01*
X047351Y034863D01*
X047366Y034859D01*
X047385Y034856D01*
X047405Y034854D01*
X047428Y034853D01*
Y034733D01*
X047405Y034733D01*
X047385Y034731D01*
X047366Y034728D01*
X047351Y034724D01*
X047337Y034718D01*
X047326Y034712D01*
X047318Y034704D01*
X047312Y034695D01*
X047308Y034685D01*
X047307Y034673D01*
Y034913D01*
X047308Y034902D01*
D02*
G37*
G36*
X041051Y034169D02*
X04106Y034166D01*
X041075Y034164D01*
X041096Y034162D01*
X041195Y034157D01*
X041348Y034156D01*
Y033856D01*
X041048Y03384D01*
Y034172D01*
X041051Y034169D01*
D02*
G37*
G36*
X046342Y034036D02*
X046387Y033998D01*
X046406Y033984D01*
X046424Y033973D01*
X04644Y033967D01*
X046454Y033963D01*
X046467Y033963D01*
X046477Y033967D01*
X046486Y033974D01*
X046328Y033796D01*
X046334Y033805D01*
X046337Y033817D01*
X046336Y03383D01*
X046333Y033844D01*
X046326Y03386D01*
X046316Y033878D01*
X046302Y033897D01*
X046285Y033918D01*
X046242Y033965D01*
X046317Y03406D01*
X046342Y034036D01*
D02*
G37*
G36*
X040272Y033839D02*
X040262Y033835D01*
X040253Y033829D01*
X040245Y033821D01*
X040239Y03381D01*
X040233Y033797D01*
X040229Y033781D01*
X040226Y033763D01*
X040224Y033743D01*
X040224Y03372D01*
X040104D01*
X040103Y033743D01*
X0401Y033781D01*
X040098Y033797D01*
X040094Y03381D01*
X04009Y033821D01*
X040086Y033829D01*
X04008Y033835D01*
X040074Y033839D01*
X040067Y03384D01*
X040284D01*
X040272Y033839D01*
D02*
G37*
G36*
X038107D02*
X038097Y033835D01*
X038088Y033829D01*
X03808Y033821D01*
X038073Y03381D01*
X038068Y033797D01*
X038064Y033781D01*
X038061Y033763D01*
X038059Y033743D01*
X038058Y03372D01*
X037938D01*
X037938Y033743D01*
X037935Y033781D01*
X037932Y033797D01*
X037929Y03381D01*
X037925Y033821D01*
X03792Y033829D01*
X037915Y033835D01*
X037908Y033839D01*
X037901Y03384D01*
X038118D01*
X038107Y033839D01*
D02*
G37*
G36*
X036001D02*
X035991Y033835D01*
X035982Y033829D01*
X035974Y033821D01*
X035967Y03381D01*
X035962Y033797D01*
X035958Y033781D01*
X035955Y033763D01*
X035953Y033743D01*
X035952Y03372D01*
X035832D01*
X035832Y033743D01*
X03583Y033763D01*
X035827Y033781D01*
X035823Y033797D01*
X035817Y03381D01*
X035811Y033821D01*
X035803Y033829D01*
X035794Y033835D01*
X035784Y033839D01*
X035772Y03384D01*
X036012D01*
X036001Y033839D01*
D02*
G37*
G36*
X038871Y034117D02*
X038866Y034098D01*
X038866Y034077D01*
X038872Y034052D01*
X038884Y034025D01*
X038901Y033996D01*
X038923Y033963D01*
X038951Y033928D01*
X039024Y03385D01*
X038893Y033698D01*
X038851Y033739D01*
X038777Y033802D01*
X038744Y033824D01*
X038715Y033842D01*
X038688Y033853D01*
X038664Y033859D01*
X038643Y033858D01*
X038625Y033853D01*
X03861Y033841D01*
X038882Y034132D01*
X038871Y034117D01*
D02*
G37*
G36*
X036706D02*
X036701Y034098D01*
X036701Y034077D01*
X036707Y034052D01*
X036718Y034025D01*
X036735Y033996D01*
X036758Y033963D01*
X036786Y033928D01*
X036859Y03385D01*
X036728Y033698D01*
X036686Y033739D01*
X036612Y033802D01*
X036579Y033824D01*
X036549Y033842D01*
X036522Y033853D01*
X036499Y033859D01*
X036478Y033858D01*
X03646Y033853D01*
X036445Y033841D01*
X036716Y034132D01*
X036706Y034117D01*
D02*
G37*
G36*
X047587Y03369D02*
X047584Y033701D01*
X047579Y033711D01*
X047572Y03372D01*
X047561Y033728D01*
X047548Y033734D01*
X047532Y03374D01*
X047514Y033744D01*
X047493Y033747D01*
X047469Y033748D01*
X047442Y033749D01*
X047433Y033869D01*
X047459Y03387D01*
X047483Y033871D01*
X047503Y033874D01*
X047521Y033879D01*
X047536Y033884D01*
X047548Y033891D01*
X047557Y033898D01*
X047563Y033907D01*
X047567Y033917D01*
X047567Y033929D01*
X047587Y03369D01*
D02*
G37*
G36*
X047308Y033918D02*
X047312Y033907D01*
X047318Y033898D01*
X047326Y033891D01*
X047337Y033884D01*
X047351Y033879D01*
X047366Y033874D01*
X047385Y033871D01*
X047405Y03387D01*
X047428Y033869D01*
Y033749D01*
X047405Y033748D01*
X047385Y033747D01*
X047366Y033744D01*
X047351Y033739D01*
X047337Y033734D01*
X047326Y033727D01*
X047318Y03372D01*
X047312Y033711D01*
X047308Y0337D01*
X047307Y033689D01*
Y033929D01*
X047308Y033918D01*
D02*
G37*
G36*
X040224Y033246D02*
X040226Y033225D01*
X040229Y033207D01*
X040233Y033191D01*
X040239Y033178D01*
X040245Y033167D01*
X040253Y033158D01*
X040262Y033152D01*
X040272Y033149D01*
X040284Y033147D01*
X040044D01*
X040055Y033149D01*
X040065Y033152D01*
X040074Y033158D01*
X040082Y033167D01*
X040089Y033178D01*
X040094Y033191D01*
X040098Y033207D01*
X040101Y033225D01*
X040103Y033246D01*
X040104Y033269D01*
X040224D01*
X040224Y033246D01*
D02*
G37*
G36*
X038059D02*
X038061Y033225D01*
X038064Y033207D01*
X038068Y033191D01*
X038073Y033178D01*
X03808Y033167D01*
X038088Y033158D01*
X038097Y033152D01*
X038107Y033149D01*
X038118Y033147D01*
X037878D01*
X03789Y033149D01*
X0379Y033152D01*
X037909Y033158D01*
X037917Y033167D01*
X037923Y033178D01*
X037929Y033191D01*
X037933Y033207D01*
X037936Y033225D01*
X037938Y033246D01*
X037938Y033269D01*
X038058D01*
X038059Y033246D01*
D02*
G37*
G36*
X035953D02*
X035955Y033225D01*
X035958Y033207D01*
X035962Y033191D01*
X035967Y033178D01*
X035974Y033167D01*
X035982Y033158D01*
X035991Y033152D01*
X036001Y033149D01*
X036012Y033147D01*
X035772D01*
X035784Y033149D01*
X035794Y033152D01*
X035803Y033158D01*
X035811Y033167D01*
X035817Y033178D01*
X035823Y033191D01*
X035827Y033207D01*
X03583Y033225D01*
X035832Y033246D01*
X035832Y033269D01*
X035952D01*
X035953Y033246D01*
D02*
G37*
G36*
X047578Y032705D02*
X047577Y032717D01*
X047572Y032727D01*
X047565Y032736D01*
X047555Y032743D01*
X047542Y03275D01*
X047527Y032755D01*
X047508Y032759D01*
X047488Y032762D01*
X047464Y032764D01*
X047437Y032765D01*
X047434Y032885D01*
X047461Y032885D01*
X047484Y032887D01*
X047505Y03289D01*
X047523Y032894D01*
X047538Y0329D01*
X047551Y032906D01*
X04756Y032914D01*
X047567Y032923D01*
X047571Y032933D01*
X047572Y032944D01*
X047578Y032705D01*
D02*
G37*
G36*
X047308Y032933D02*
X047312Y032923D01*
X047318Y032914D01*
X047326Y032906D01*
X047337Y0329D01*
X047351Y032894D01*
X047366Y03289D01*
X047385Y032887D01*
X047405Y032885D01*
X047428Y032885D01*
Y032765D01*
X047405Y032764D01*
X047385Y032762D01*
X047366Y032759D01*
X047351Y032755D01*
X047337Y03275D01*
X047326Y032743D01*
X047318Y032735D01*
X047312Y032726D01*
X047308Y032716D01*
X047307Y032705D01*
Y032945D01*
X047308Y032933D01*
D02*
G37*
G36*
X044609Y032947D02*
X044616Y032912D01*
X044628Y032875D01*
X044645Y032837D01*
X044668Y032797D01*
X044695Y032755D01*
X044727Y032711D01*
X044806Y032619D01*
X044854Y03257D01*
X044769Y032485D01*
X04472Y032533D01*
X044627Y032612D01*
X044584Y032644D01*
X044542Y032671D01*
X044502Y032694D01*
X044464Y032711D01*
X044427Y032723D01*
X044392Y03273D01*
X044359Y032732D01*
X044607Y03298D01*
X044609Y032947D01*
D02*
G37*
G36*
X039506Y032376D02*
X039482Y032349D01*
X039464Y032325D01*
X039453Y032304D01*
X039448Y032286D01*
X039451Y032271D01*
X03946Y032258D01*
X039477Y032248D01*
X0395Y032241D01*
X039529Y032237D01*
X039566Y032236D01*
X039125Y032036D01*
X038883Y032236D01*
X038923Y032237D01*
X038961Y032241D01*
X038998Y032249D01*
X039034Y032258D01*
X039069Y032271D01*
X039102Y032287D01*
X039134Y032305D01*
X039166Y032326D01*
X039196Y03235D01*
X039225Y032377D01*
X039506Y032376D01*
D02*
G37*
G36*
X041888Y03203D02*
X041884Y032031D01*
X041874Y032032D01*
X041837Y032034D01*
X041583Y032036D01*
Y032236D01*
X041888Y032242D01*
Y03203D01*
D02*
G37*
G36*
X034065Y032241D02*
X034075Y03224D01*
X034113Y032238D01*
X034367Y032236D01*
Y032036D01*
X034061Y03203D01*
Y032242D01*
X034065Y032241D01*
D02*
G37*
G36*
X046724Y031997D02*
X0467Y031973D01*
X046663Y031929D01*
X04665Y031909D01*
X04664Y031892D01*
X046633Y031876D01*
X046629Y031861D01*
X046629Y031848D01*
X046632Y031837D01*
X046638Y031827D01*
X046479Y032005D01*
X046488Y031998D01*
X046498Y031995D01*
X046511Y031995D01*
X046525Y031998D01*
X046541Y032005D01*
X046559Y032015D01*
X046579Y032029D01*
X0466Y032046D01*
X046649Y032092D01*
X046724Y031997D01*
D02*
G37*
G36*
X029147Y032475D02*
X029178Y032456D01*
X029212Y032439D01*
X029248Y032425D01*
X029287Y032412D01*
X029328Y032402D01*
X029372Y032394D01*
X029418Y032389D01*
X029519Y032384D01*
Y032084D01*
X029467Y032083D01*
X029372Y032074D01*
X029328Y032066D01*
X029287Y032056D01*
X029248Y032044D01*
X029212Y032029D01*
X029178Y032012D01*
X029147Y031993D01*
X029118Y031972D01*
Y032496D01*
X029147Y032475D01*
D02*
G37*
G36*
X044211Y031545D02*
X043911Y031183D01*
X043909Y031242D01*
X043903Y0313D01*
X043892Y031355D01*
X043877Y031409D01*
X043858Y031461D01*
X043835Y031512D01*
X043807Y03156D01*
X043776Y031607D01*
X04374Y031652D01*
X043699Y031695D01*
X043833Y031986D01*
X043848Y031974D01*
X043861Y03197D01*
X043873Y031973D01*
X043883Y031984D01*
X043892Y032002D01*
X043899Y032028D01*
X043904Y032061D01*
X043911Y032151D01*
X043911Y032207D01*
X044211Y031545D01*
D02*
G37*
G36*
X030965Y031934D02*
X030962Y031963D01*
X030953Y031988D01*
X030938Y032011D01*
X030917Y03203D01*
X03089Y032047D01*
X030857Y03206D01*
X030818Y032071D01*
X030773Y032078D01*
X030721Y032083D01*
X030664Y032084D01*
Y032384D01*
X030721Y032386D01*
X030773Y03239D01*
X030818Y032398D01*
X030857Y032408D01*
X03089Y032422D01*
X030917Y032438D01*
X030938Y032458D01*
X030953Y03248D01*
X030962Y032506D01*
X030965Y032534D01*
Y031934D01*
D02*
G37*
G36*
X047572Y031721D02*
X047571Y031732D01*
X047567Y031742D01*
X04756Y031751D01*
X047551Y031759D01*
X047538Y031766D01*
X047523Y031771D01*
X047505Y031775D01*
X047484Y031778D01*
X047461Y03178D01*
X047434Y031781D01*
X047437Y031901D01*
X047464Y031901D01*
X047488Y031903D01*
X047508Y031906D01*
X047527Y03191D01*
X047542Y031915D01*
X047555Y031922D01*
X047565Y03193D01*
X047572Y031939D01*
X047577Y031949D01*
X047578Y03196D01*
X047572Y031721D01*
D02*
G37*
G36*
X047308Y031949D02*
X047312Y031939D01*
X047318Y03193D01*
X047326Y031922D01*
X047337Y031916D01*
X047351Y03191D01*
X047366Y031906D01*
X047385Y031903D01*
X047405Y031901D01*
X047428Y031901D01*
Y031781D01*
X047405Y03178D01*
X047385Y031778D01*
X047366Y031775D01*
X047351Y031771D01*
X047337Y031766D01*
X047326Y031759D01*
X047318Y031751D01*
X047312Y031742D01*
X047308Y031732D01*
X047307Y031721D01*
Y031961D01*
X047308Y031949D01*
D02*
G37*
G36*
X041459Y031318D02*
X041424Y03135D01*
X041382Y031378D01*
X041336Y031403D01*
X041283Y031425D01*
X041225Y031443D01*
X041162Y031458D01*
X041093Y03147D01*
X041018Y031479D01*
X040852Y031485D01*
X040852Y031605D01*
X040938Y031607D01*
X041093Y03162D01*
X041162Y031632D01*
X041225Y031647D01*
X041283Y031666D01*
X041336Y031687D01*
X041382Y031712D01*
X041424Y031741D01*
X041459Y031773D01*
X041459Y031318D01*
D02*
G37*
G36*
X03538Y031741D02*
X035422Y031712D01*
X035468Y031687D01*
X035521Y031666D01*
X035579Y031647D01*
X035642Y031632D01*
X035711Y03162D01*
X035786Y031612D01*
X035952Y031605D01*
Y031485D01*
X035866Y031484D01*
X035711Y03147D01*
X035642Y031458D01*
X035579Y031443D01*
X035521Y031425D01*
X035468Y031403D01*
X035422Y031378D01*
X03538Y03135D01*
X035345Y031318D01*
Y031773D01*
X03538Y031741D01*
D02*
G37*
G36*
X033789Y031221D02*
X033788Y031225D01*
X033784Y031229D01*
X033778Y031232D01*
X03377Y031234D01*
X033759Y031236D01*
X033746Y031238D01*
X033712Y03124D01*
X033669Y031241D01*
Y031361D01*
X033692Y031362D01*
X033712Y031364D01*
X03373Y031367D01*
X033746Y031371D01*
X03376Y031376D01*
X03377Y031383D01*
X033779Y031391D01*
X033785Y0314D01*
X033789Y03141D01*
X03379Y031421D01*
X033789Y031221D01*
D02*
G37*
G36*
X033401Y03141D02*
X033404Y0314D01*
X03341Y031391D01*
X033419Y031383D01*
X03343Y031376D01*
X033443Y031371D01*
X033459Y031367D01*
X033477Y031364D01*
X033498Y031362D01*
X033521Y031361D01*
Y031241D01*
X033498Y031241D01*
X033477Y031239D01*
X033459Y031236D01*
X033443Y031232D01*
X03343Y031226D01*
X033419Y03122D01*
X03341Y031212D01*
X033404Y031203D01*
X033401Y031193D01*
X0334Y031181D01*
Y031421D01*
X033401Y03141D01*
D02*
G37*
G36*
X043305Y031091D02*
X043304Y031102D01*
X0433Y031112D01*
X043294Y031121D01*
X043286Y031129D01*
X043275Y031136D01*
X043262Y031141D01*
X043246Y031145D01*
X043228Y031148D01*
X043208Y03115D01*
X043185Y031151D01*
Y031271D01*
X043208Y031271D01*
X043228Y031273D01*
X043246Y031276D01*
X043262Y03128D01*
X043275Y031286D01*
X043286Y031292D01*
X043294Y0313D01*
X0433Y031309D01*
X043304Y031319D01*
X043305Y031331D01*
Y031091D01*
D02*
G37*
G36*
X032649Y03184D02*
X032654Y031749D01*
X032658Y031714D01*
X032664Y031687D01*
X032671Y031667D01*
X032679Y031654D01*
X032689Y031649D01*
X032699Y03165D01*
X032711Y031659D01*
X032861Y031384D01*
X03282Y031341D01*
X032784Y031296D01*
X032752Y031249D01*
X032725Y0312D01*
X032701Y03115D01*
X032682Y031098D01*
X032668Y031044D01*
X032657Y030989D01*
X032651Y030931D01*
X032648Y030872D01*
X032348Y031234D01*
X032648Y031896D01*
X032649Y03184D01*
D02*
G37*
G36*
X046342Y031083D02*
X046387Y031045D01*
X046406Y031031D01*
X046424Y031021D01*
X04644Y031014D01*
X046454Y03101D01*
X046467Y03101D01*
X046477Y031014D01*
X046486Y031021D01*
X046328Y030843D01*
X046334Y030853D01*
X046337Y030864D01*
X046336Y030877D01*
X046333Y030891D01*
X046326Y030907D01*
X046316Y030925D01*
X046302Y030945D01*
X046285Y030966D01*
X046242Y031013D01*
X046317Y031107D01*
X046342Y031083D01*
D02*
G37*
G36*
X03195Y031353D02*
X031987Y031258D01*
X032009Y031213D01*
X032056Y031129D01*
X032082Y031091D01*
X03211Y031054D01*
X03214Y031019D01*
X032171Y030986D01*
X032014Y030718D01*
X03196Y030771D01*
X031863Y030851D01*
X031821Y030878D01*
X031783Y030897D01*
X031749Y030907D01*
X03172Y030909D01*
X031695Y030902D01*
X031674Y030887D01*
X031658Y030863D01*
X031933Y031403D01*
X03195Y031353D01*
D02*
G37*
G36*
X029258Y031252D02*
X029267Y03121D01*
X029279Y031168D01*
X029294Y031128D01*
X029312Y031088D01*
X029333Y031049D01*
X029357Y031011D01*
X029384Y030974D01*
X029414Y030938D01*
X029447Y030903D01*
X029214Y030713D01*
X029175Y030749D01*
X029136Y030782D01*
X029096Y030812D01*
X029056Y030838D01*
X029015Y030861D01*
X028974Y030881D01*
X028932Y030897D01*
X02889Y03091D01*
X028847Y030919D01*
X028803Y030925D01*
X029253Y031296D01*
X029258Y031252D01*
D02*
G37*
G36*
X032651Y030754D02*
X032657Y030696D01*
X032668Y030641D01*
X032682Y030587D01*
X032701Y030535D01*
X032725Y030485D01*
X032752Y030436D01*
X032784Y030389D01*
X03282Y030344D01*
X032861Y030301D01*
X032498Y030451D01*
X032348D01*
X032648Y030813D01*
X032651Y030754D01*
D02*
G37*
G36*
X044211Y030207D02*
X043911Y029545D01*
X043909Y029599D01*
X043903Y029644D01*
X043892Y029678D01*
X043877Y029703D01*
X043858Y029717D01*
X043835Y02972D01*
X043807Y029714D01*
X043776Y029697D01*
X043763Y029688D01*
X043713Y029629D01*
X04369Y029596D01*
X043671Y029564D01*
X043656Y029535D01*
X043645Y029508D01*
X043639Y029483D01*
X043637Y02946D01*
X043305Y029772D01*
X043328Y029775D01*
X043353Y029781D01*
X04338Y029792D01*
X043409Y029806D01*
X04344Y029825D01*
X043474Y029849D01*
X043546Y029908D01*
X043586Y029944D01*
X043627Y029985D01*
X043699Y029919D01*
Y030057D01*
X04374Y0301D01*
X043776Y030145D01*
X043807Y030192D01*
X043835Y03024D01*
X043858Y030291D01*
X043877Y030343D01*
X043892Y030397D01*
X043903Y030452D01*
X043909Y03051D01*
X043911Y030569D01*
X044211Y030207D01*
D02*
G37*
G36*
X03121Y02988D02*
X031159Y029906D01*
X031059Y02995D01*
X031011Y029968D01*
X030916Y029995D01*
X03087Y030005D01*
X030825Y030012D01*
X030781Y030016D01*
X030738Y030017D01*
X030669Y030317D01*
X030745Y030319D01*
X030871Y030331D01*
X030921Y030341D01*
X030961Y030355D01*
X030993Y030371D01*
X031015Y030391D01*
X031028Y030413D01*
X031033Y030438D01*
X031028Y030467D01*
X03121Y02988D01*
D02*
G37*
G36*
X046591Y029706D02*
X046581Y029702D01*
X046572Y029696D01*
X046564Y029688D01*
X046558Y029677D01*
X046552Y029663D01*
X046548Y029648D01*
X046545Y02963D01*
X046543Y029609D01*
X046543Y029586D01*
X046423D01*
X046422Y029609D01*
X04642Y02963D01*
X046417Y029648D01*
X046413Y029663D01*
X046408Y029677D01*
X046401Y029688D01*
X046393Y029696D01*
X046384Y029702D01*
X046374Y029706D01*
X046363Y029707D01*
X046603D01*
X046591Y029706D01*
D02*
G37*
G36*
X033218Y029944D02*
X03333Y029849D01*
X033363Y029825D01*
X033395Y029806D01*
X033424Y029792D01*
X033451Y029781D01*
X033476Y029775D01*
X033499Y029772D01*
X033167Y02946D01*
X033165Y029483D01*
X033158Y029508D01*
X033148Y029535D01*
X033133Y029564D01*
X033114Y029596D01*
X033091Y029629D01*
X033031Y029701D01*
X032995Y029741D01*
X032955Y029782D01*
X033177Y029985D01*
X033218Y029944D01*
D02*
G37*
G36*
X032648Y03012D02*
X032348Y029458D01*
X032346Y029513D01*
X03234Y029557D01*
X032329Y029592D01*
X032314Y029616D01*
X032295Y02963D01*
X032272Y029634D01*
X032244Y029627D01*
X032213Y02961D01*
X032177Y029583D01*
X032136Y029546D01*
Y02997D01*
X032177Y030013D01*
X032213Y030057D01*
X032244Y030102D01*
X032272Y030149D01*
X032295Y030196D01*
X032314Y030245D01*
X032329Y030295D01*
X03234Y030346D01*
X032346Y030398D01*
X032348Y030451D01*
X032648Y03012D01*
D02*
G37*
G36*
X046328Y028079D02*
X046326Y02809D01*
X046323Y0281D01*
X046317Y028109D01*
X046308Y028117D01*
X046297Y028124D01*
X046284Y028129D01*
X046268Y028133D01*
X04625Y028136D01*
X046229Y028138D01*
X046206Y028139D01*
Y028259D01*
X046229Y028259D01*
X04625Y028261D01*
X046268Y028264D01*
X046284Y028268D01*
X046297Y028274D01*
X046308Y02828D01*
X046317Y028288D01*
X046323Y028297D01*
X046326Y028307D01*
X046328Y028319D01*
Y028079D01*
D02*
G37*
G36*
X032651Y028392D02*
X032657Y028334D01*
X032668Y028279D01*
X032682Y028225D01*
X032701Y028173D01*
X032725Y028122D01*
X032752Y028074D01*
X032784Y028027D01*
X03282Y027982D01*
X032861Y027939D01*
Y027514D01*
X03282Y027552D01*
X032784Y027579D01*
X032752Y027596D01*
X032725Y027602D01*
X032701Y027598D01*
X032682Y027585D01*
X032668Y02756D01*
X032657Y027526D01*
X032651Y027481D01*
X032648Y027426D01*
X032348Y028089D01*
X032648Y028451D01*
X032651Y028392D01*
D02*
G37*
G36*
X043849Y027518D02*
X043809Y027477D01*
X043713Y027365D01*
X04369Y027332D01*
X043671Y027301D01*
X043656Y027271D01*
X043645Y027244D01*
X043639Y027219D01*
X043637Y027196D01*
X043305Y027509D01*
X043328Y027511D01*
X043353Y027517D01*
X04338Y027528D01*
X043409Y027543D01*
X04344Y027562D01*
X043474Y027585D01*
X043546Y027644D01*
X043586Y02768D01*
X043627Y027721D01*
X043849Y027518D01*
D02*
G37*
G36*
X033218Y027582D02*
X03333Y027487D01*
X033363Y027463D01*
X033395Y027444D01*
X033424Y027429D01*
X033451Y027419D01*
X033476Y027412D01*
X033499Y02741D01*
X033167Y027098D01*
X033165Y027121D01*
X033158Y027146D01*
X033148Y027173D01*
X033133Y027202D01*
X033114Y027233D01*
X033091Y027267D01*
X033031Y027339D01*
X032995Y027379D01*
X032955Y02742D01*
X033177Y027622D01*
X033218Y027582D01*
D02*
G37*
G36*
X046486Y02705D02*
X046477Y027057D01*
X046467Y02706D01*
X046454Y02706D01*
X04644Y027057D01*
X046424Y02705D01*
X046406Y02704D01*
X046387Y027026D01*
X046365Y027009D01*
X046317Y026964D01*
X046242Y027058D01*
X046265Y027083D01*
X046302Y027126D01*
X046316Y027146D01*
X046326Y027163D01*
X046333Y02718D01*
X046336Y027194D01*
X046337Y027207D01*
X046334Y027218D01*
X046328Y027228D01*
X046486Y02705D01*
D02*
G37*
G36*
X042929Y026792D02*
X042932Y026781D01*
X042938Y026772D01*
X042947Y026765D01*
X042958Y026758D01*
X042971Y026753D01*
X042987Y026748D01*
X043005Y026745D01*
X043026Y026744D01*
X043049Y026743D01*
Y026623D01*
X042929Y026619D01*
X042927Y026803D01*
X042929Y026792D01*
D02*
G37*
G36*
X043305Y026563D02*
X043304Y026574D01*
X0433Y026585D01*
X043294Y026594D01*
X043286Y026601D01*
X043275Y026608D01*
X043262Y026613D01*
X043246Y026618D01*
X043228Y026621D01*
X043208Y026622D01*
X043185Y026623D01*
Y026743D01*
X043208Y026744D01*
X043228Y026745D01*
X043246Y026748D01*
X043262Y026753D01*
X043275Y026758D01*
X043286Y026765D01*
X043294Y026772D01*
X0433Y026781D01*
X043304Y026792D01*
X043305Y026803D01*
Y026563D01*
D02*
G37*
G36*
X033499Y026693D02*
X033503Y026683D01*
X033509Y026674D01*
X033517Y026666D01*
X033528Y02666D01*
X033542Y026654D01*
X033557Y02665D01*
X033576Y026647D01*
X033596Y026645D01*
X033619Y026645D01*
Y026525D01*
X033596Y026524D01*
X033576Y026522D01*
X033557Y026519D01*
X033542Y026515D01*
X033528Y02651D01*
X033517Y026503D01*
X033509Y026495D01*
X033503Y026486D01*
X033499Y026476D01*
X033498Y026465D01*
Y026705D01*
X033499Y026693D01*
D02*
G37*
G36*
X046568Y026163D02*
X046551Y02616D01*
X046534Y026156D01*
X046517Y02615D01*
X0465Y026142D01*
X046483Y026133D01*
X046466Y026121D01*
X046449Y026109D01*
X046432Y026094D01*
X046415Y026078D01*
X046245D01*
X046326Y026163D01*
X046585Y026164D01*
X046568Y026163D01*
D02*
G37*
G36*
X047117Y025392D02*
X047094Y025393D01*
X047068Y025389D01*
X047039Y025379D01*
X047009Y025365D01*
X046975Y025346D01*
X04694Y025322D01*
X046902Y025293D01*
X046819Y025221D01*
X046774Y025177D01*
X046689Y025262D01*
X046733Y025307D01*
X046835Y025428D01*
X046859Y025463D01*
X046878Y025496D01*
X046892Y025527D01*
X046901Y025555D01*
X046905Y025581D01*
X046904Y025605D01*
X047117Y025392D01*
D02*
G37*
G36*
X043315Y025447D02*
X043327Y025441D01*
Y02446D01*
X043272D01*
Y024363D01*
X043272Y024359D01*
X043272Y024355D01*
Y024349D01*
X043272Y024348D01*
X043272Y024347D01*
Y024099D01*
X043226Y02408D01*
X043208Y024098D01*
X043192Y024116D01*
X043164Y024152D01*
X04314Y024187D01*
X04312Y02422D01*
X043105Y024252D01*
X043093Y024281D01*
X043086Y024309D01*
X043081Y024335D01*
X043079Y024365D01*
X043079Y024367D01*
Y02446D01*
X042976D01*
X042972Y024461D01*
X042969Y02446D01*
X042643D01*
Y024287D01*
X042625Y024261D01*
X042606Y024163D01*
Y024085D01*
X042625Y023987D01*
X042627Y023985D01*
X042616Y023923D01*
X04261Y023919D01*
X042593Y023915D01*
X04257Y023918D01*
Y023672D01*
X042816D01*
X042812Y0237D01*
X042812Y023701D01*
X042854Y02373D01*
X042862Y023722D01*
X043094Y023491D01*
X043176Y023436D01*
X043274Y023416D01*
X046416D01*
X046562Y02327D01*
Y020332D01*
X046198Y019967D01*
X046098D01*
X046079Y020014D01*
X046112Y020046D01*
X046167Y020129D01*
X046186Y020226D01*
Y020363D01*
X046199D01*
Y02046D01*
X0462Y020464D01*
X046199Y020468D01*
Y020878D01*
X045664D01*
Y020468D01*
X045663Y020464D01*
X045664Y02046D01*
Y020363D01*
X045664D01*
X045659Y020315D01*
X04545Y020106D01*
X045419Y02008D01*
X045379Y020053D01*
X045337Y02003D01*
X045295Y02001D01*
X04525Y019994D01*
X045205Y019981D01*
X045157Y019972D01*
X045116Y019967D01*
X045066D01*
X045061Y019983D01*
X045054Y020017D01*
X045117Y0201D01*
X045159Y020201D01*
X045171Y020298D01*
X044754D01*
Y020348D01*
X044704D01*
Y0208D01*
X044646Y020792D01*
X044545Y02075D01*
X044458Y020684D01*
X044411Y020622D01*
X044367Y020623D01*
X044353Y020628D01*
X044308Y020686D01*
X044246Y020734D01*
X044173Y020765D01*
X044144Y020768D01*
Y020472D01*
Y020176D01*
X044173Y02018D01*
X044246Y02021D01*
X044294Y020247D01*
X044346Y020231D01*
X04435Y020201D01*
X044392Y0201D01*
X044455Y020017D01*
X044448Y019983D01*
X044443Y019967D01*
X043294D01*
X043289Y019983D01*
X043282Y020017D01*
X043345Y0201D01*
X043387Y020201D01*
X043401Y020309D01*
Y020388D01*
X043387Y020496D01*
X043345Y020597D01*
X043279Y020684D01*
X043192Y02075D01*
X043153Y020766D01*
X043153Y020767D01*
X043149Y020768D01*
X043148Y020769D01*
X043146Y020778D01*
X043146Y020787D01*
Y022443D01*
X043196Y022464D01*
X044485Y021174D01*
X044538Y021139D01*
X044601Y021126D01*
X044601Y021126D01*
X045664D01*
Y021032D01*
X046199D01*
Y021547D01*
X046095D01*
Y021741D01*
X046199D01*
Y022256D01*
X045664D01*
Y021741D01*
X045768D01*
Y021547D01*
X045664D01*
Y021453D01*
X044668D01*
X043394Y022727D01*
X043388Y022734D01*
X04338Y022744D01*
X043387Y02276D01*
X043401Y022868D01*
Y022947D01*
X043387Y023055D01*
X043345Y023156D01*
X043279Y023243D01*
X043192Y023309D01*
X043091Y023351D01*
X042983Y023365D01*
X042874Y023351D01*
X042773Y023309D01*
X042687Y023243D01*
X04262Y023156D01*
X042578Y023055D01*
X042564Y022947D01*
Y022868D01*
X042578Y02276D01*
X04262Y022659D01*
X042687Y022572D01*
X042773Y022506D01*
X042812Y02249D01*
X042813Y022489D01*
X042816Y022488D01*
X042818Y022487D01*
X042819Y022478D01*
X04282Y022469D01*
Y020787D01*
X042819Y020778D01*
X042818Y020769D01*
X042816Y020768D01*
X042813Y020767D01*
X042812Y020766D01*
X042773Y02075D01*
X042687Y020684D01*
X04262Y020597D01*
X042578Y020496D01*
X042564Y020388D01*
Y020309D01*
X042578Y020201D01*
X04262Y0201D01*
X042683Y020017D01*
X042676Y019983D01*
X042671Y019967D01*
X04245D01*
X042438Y019989D01*
X042428Y020017D01*
X042446Y020108D01*
Y020348D01*
X042447Y020363D01*
X042459D01*
Y020459D01*
X042459Y020463D01*
X042459Y020463D01*
X042459Y020464D01*
X042459Y020468D01*
Y020878D01*
X041924D01*
Y020468D01*
X041923Y020464D01*
X041924Y020461D01*
X041923Y020458D01*
X041924Y020447D01*
Y020363D01*
X041929D01*
X041936Y020216D01*
Y020214D01*
X041828Y020106D01*
X041797Y02008D01*
X041757Y020053D01*
X041715Y02003D01*
X041672Y02001D01*
X041628Y019994D01*
X041582Y019981D01*
X041535Y019972D01*
X041494Y019967D01*
X041391D01*
X041386Y019983D01*
X041379Y020017D01*
X041442Y0201D01*
X041484Y020201D01*
X041497Y020298D01*
X040663D01*
X040676Y020201D01*
X040717Y0201D01*
X04078Y020017D01*
X040774Y019983D01*
X040768Y019967D01*
X03962D01*
X039614Y019983D01*
X039607Y020017D01*
X039671Y0201D01*
X039712Y020201D01*
X039727Y020309D01*
Y020388D01*
X039712Y020496D01*
X039671Y020597D01*
X039604Y020684D01*
X039517Y02075D01*
X039479Y020766D01*
X039478Y020767D01*
X039475Y020768D01*
X039473Y020769D01*
X039472Y020778D01*
X039471Y020787D01*
Y022443D01*
X039521Y022464D01*
X040811Y021174D01*
X040864Y021139D01*
X040926Y021126D01*
X041924D01*
Y021032D01*
X042459D01*
Y021547D01*
X042354D01*
Y021741D01*
X042459D01*
Y022256D01*
X041924D01*
Y021741D01*
X042028D01*
Y021547D01*
X041924D01*
Y021453D01*
X040994D01*
X039719Y022727D01*
X039713Y022734D01*
X039706Y022744D01*
X039712Y02276D01*
X039727Y022868D01*
Y022947D01*
X039712Y023055D01*
X039671Y023156D01*
X039604Y023243D01*
X039517Y023309D01*
X039416Y023351D01*
X039308Y023365D01*
X0392Y023351D01*
X039099Y023309D01*
X039012Y023243D01*
X038946Y023156D01*
X038904Y023055D01*
X03889Y022947D01*
Y022868D01*
X038904Y02276D01*
X038946Y022659D01*
X039012Y022572D01*
X039099Y022506D01*
X039138Y02249D01*
X039138Y022489D01*
X039142Y022488D01*
X039143Y022487D01*
X039144Y022478D01*
X039145Y022469D01*
Y020787D01*
X039144Y020778D01*
X039143Y020769D01*
X039142Y020768D01*
X039138Y020767D01*
X039138Y020766D01*
X039099Y02075D01*
X039012Y020684D01*
X038946Y020597D01*
X038904Y020496D01*
X03889Y020388D01*
Y020309D01*
X038904Y020201D01*
X038946Y0201D01*
X039009Y020017D01*
X039002Y019983D01*
X038997Y019967D01*
X038716D01*
X038697Y020014D01*
X03873Y020046D01*
X038785Y020129D01*
X038805Y020226D01*
Y020363D01*
X038817D01*
Y02046D01*
X038818Y020464D01*
X038817Y020468D01*
Y020878D01*
X038282D01*
Y020468D01*
X038282Y020464D01*
X038282Y02046D01*
Y020363D01*
X038282D01*
X038277Y020315D01*
X038069Y020106D01*
X038037Y02008D01*
X037997Y020053D01*
X037955Y02003D01*
X037913Y02001D01*
X037868Y019994D01*
X037823Y019981D01*
X037775Y019972D01*
X037735Y019967D01*
X037717D01*
X037711Y019983D01*
X037705Y020017D01*
X037768Y0201D01*
X03781Y020201D01*
X037822Y020298D01*
X036988D01*
X037001Y020201D01*
X037043Y0201D01*
X037106Y020017D01*
X037099Y019983D01*
X037094Y019967D01*
X035945D01*
X03594Y019983D01*
X035933Y020017D01*
X035996Y0201D01*
X036038Y020201D01*
X036052Y020309D01*
Y020388D01*
X036038Y020496D01*
X035996Y020597D01*
X03593Y020684D01*
X035843Y02075D01*
X035804Y020766D01*
X035803Y020767D01*
X0358Y020768D01*
X035799Y020769D01*
X035797Y020778D01*
X035797Y020787D01*
Y022443D01*
X035847Y022464D01*
X037136Y021174D01*
X037189Y021139D01*
X037252Y021126D01*
X038282D01*
Y021032D01*
X038817D01*
Y021547D01*
X038713D01*
Y021741D01*
X038817D01*
Y022256D01*
X038282D01*
Y021741D01*
X038386D01*
Y021547D01*
X038282D01*
Y021453D01*
X037319D01*
X036045Y022727D01*
X036039Y022734D01*
X036031Y022744D01*
X036038Y02276D01*
X036052Y022868D01*
Y022947D01*
X036038Y023055D01*
X035996Y023156D01*
X03593Y023243D01*
X035843Y023309D01*
X035742Y023351D01*
X035721Y023354D01*
X035724Y023404D01*
X036012D01*
Y023749D01*
X036016Y02377D01*
X036012Y02379D01*
Y023826D01*
X036012Y023826D01*
X036012Y023828D01*
Y023834D01*
X036013Y023838D01*
X036012Y023842D01*
Y023939D01*
X035957D01*
Y024549D01*
X036112D01*
Y025385D01*
X036442D01*
X036459Y025335D01*
X036384Y025278D01*
X036316Y025189D01*
X036273Y025085D01*
X036259Y024974D01*
X036273Y024863D01*
X036316Y02476D01*
X036384Y024671D01*
X036473Y024603D01*
X036576Y02456D01*
X036687Y024546D01*
X036798Y02456D01*
X036902Y024603D01*
X036932Y024626D01*
X036986Y024605D01*
X036988Y024596D01*
X036442Y02405D01*
X036375Y023995D01*
X036347Y023976D01*
X036322Y02396D01*
X036301Y02395D01*
X036284Y023943D01*
X036273Y02394D01*
X036258Y023939D01*
X036257Y023939D01*
X036166D01*
Y023844D01*
X036165Y02384D01*
X036166Y023836D01*
Y023831D01*
X036166Y023828D01*
X036166Y023827D01*
Y023404D01*
X036569D01*
X036571Y023404D01*
X036574Y023404D01*
X036577Y023403D01*
X036581Y023404D01*
X036681D01*
Y023495D01*
X036681Y023496D01*
X036683Y023511D01*
X036686Y023522D01*
X036692Y023539D01*
X036703Y02356D01*
X036718Y023585D01*
X036737Y023612D01*
X036809Y023696D01*
X037458Y024345D01*
X037513Y024428D01*
X037533Y024525D01*
Y024549D01*
X037953D01*
Y023939D01*
X037761D01*
Y023404D01*
X038276D01*
Y023749D01*
X03828Y02377D01*
Y024711D01*
X038278Y02472D01*
Y025385D01*
X038607D01*
X038624Y025335D01*
X03855Y025278D01*
X038482Y025189D01*
X038439Y025085D01*
X038424Y024974D01*
X038439Y024863D01*
X038482Y02476D01*
X03855Y024671D01*
X038638Y024603D01*
X038742Y02456D01*
X038853Y024546D01*
X038964Y02456D01*
X039067Y024603D01*
X039131Y024652D01*
X039181Y024627D01*
Y024525D01*
X038706Y02405D01*
X038638Y023995D01*
X038611Y023976D01*
X038586Y02396D01*
X038565Y02395D01*
X038548Y023943D01*
X038537Y02394D01*
X038522Y023939D01*
X038521Y023939D01*
X03843D01*
Y023844D01*
X038429Y02384D01*
X03843Y023836D01*
Y023831D01*
X03843Y023828D01*
X03843Y023827D01*
Y023404D01*
X038833D01*
X038834Y023404D01*
X038837Y023404D01*
X038841Y023403D01*
X038845Y023404D01*
X038945D01*
Y023495D01*
X038945Y023496D01*
X038947Y023511D01*
X038949Y023522D01*
X038956Y023539D01*
X038967Y02356D01*
X038982Y023585D01*
X039001Y023612D01*
X039073Y023696D01*
X039616Y024239D01*
X039671Y024322D01*
X03969Y024419D01*
Y024549D01*
X04002D01*
Y023939D01*
X039926D01*
Y023404D01*
X040441D01*
Y023939D01*
X040347D01*
Y024549D01*
X040443D01*
Y025385D01*
X040773D01*
X04079Y025335D01*
X040715Y025278D01*
X040647Y025189D01*
X040604Y025085D01*
X040589Y024974D01*
X040604Y024863D01*
X040647Y02476D01*
X040715Y024671D01*
X040804Y024603D01*
X040907Y02456D01*
X041018Y024546D01*
X041129Y02456D01*
X041232Y024603D01*
X0413Y024655D01*
X04135Y02463D01*
Y024174D01*
X041145Y02397D01*
X04111Y023939D01*
Y023939D01*
X04111Y023939D01*
X041013D01*
X041009Y023939D01*
X041005Y023939D01*
X040595D01*
Y023404D01*
X04099D01*
X040993Y023354D01*
X040971Y023351D01*
X040871Y023309D01*
X040784Y023243D01*
X040717Y023156D01*
X040676Y023055D01*
X040663Y022957D01*
X041497D01*
X041484Y023055D01*
X041442Y023156D01*
X041376Y023243D01*
X041289Y023309D01*
X041188Y023351D01*
X041171Y023353D01*
X04115Y023407D01*
X041158Y023416D01*
X04116Y023416D01*
X041207D01*
X041305Y023436D01*
X041387Y023491D01*
X041785Y023889D01*
X04184Y023971D01*
X041844Y023993D01*
X041894Y023988D01*
Y023867D01*
X042266D01*
X042291Y023817D01*
X042258Y023773D01*
X042227Y0237D01*
X042224Y023672D01*
X04247D01*
Y023918D01*
X042441Y023914D01*
X042381Y023889D01*
X042345Y023905D01*
X042331Y023918D01*
Y024347D01*
X042331Y024348D01*
X042331Y024349D01*
Y024355D01*
X042331Y024359D01*
X042331Y024363D01*
Y02446D01*
X042276D01*
Y024654D01*
X042705D01*
Y025132D01*
X042772Y02519D01*
X04281Y025218D01*
X042846Y025241D01*
X042879Y02526D01*
X042909Y025273D01*
X042935Y025282D01*
X042957Y025286D01*
X042974Y025287D01*
X042979Y025287D01*
X04307Y025299D01*
X043155Y025334D01*
X043228Y02539D01*
X043277Y025454D01*
X043315Y025447D01*
D02*
G37*
G36*
X039753Y02549D02*
X039697Y025489D01*
X039649Y025486D01*
X039608Y025482D01*
X039575Y025476D01*
X03955Y025468D01*
X039533Y025458D01*
X039523Y025446D01*
X039522Y025433D01*
X039528Y025418D01*
X039541Y025401D01*
X039241Y025278D01*
X039198Y025318D01*
X039153Y025354D01*
X039106Y025386D01*
X039057Y025413D01*
X039007Y025437D01*
X038955Y025456D01*
X038901Y025471D01*
X038845Y025481D01*
X038788Y025488D01*
X038729Y02549D01*
X039091Y02579D01*
X039753Y02549D01*
D02*
G37*
G36*
X037539D02*
X037483Y025488D01*
X037436Y025484D01*
X037399Y025477D01*
X03737Y025467D01*
X03735Y025453D01*
X037339Y025437D01*
X037337Y025419D01*
X037344Y025397D01*
X037359Y025372D01*
X037384Y025344D01*
X037026Y025278D01*
X036983Y025318D01*
X036938Y025354D01*
X036891Y025386D01*
X036843Y025413D01*
X036792Y025437D01*
X03674Y025456D01*
X036686Y025471D01*
X036631Y025481D01*
X036573Y025488D01*
X036514Y02549D01*
X036876Y02579D01*
X037539Y02549D01*
D02*
G37*
G36*
X046774Y025177D02*
X046769Y025171D01*
X046757Y025157D01*
X046753Y025154D01*
X046749Y025151D01*
X046746Y025149D01*
X046743Y025148D01*
X04674Y025147D01*
X046737Y025146D01*
X046557D01*
X046565Y025147D01*
X046574Y02515D01*
X046584Y025155D01*
X046595Y025162D01*
X046606Y025171D01*
X046618Y025182D01*
X046631Y025195D01*
X046659Y025227D01*
X046674Y025245D01*
X046774Y025177D01*
D02*
G37*
G36*
X042976Y02539D02*
X042943Y025388D01*
X042908Y02538D01*
X042872Y025368D01*
X042833Y025351D01*
X042793Y025329D01*
X042752Y025302D01*
X042708Y025269D01*
X042616Y02519D01*
X042567Y025143D01*
X042482Y025228D01*
X042529Y025277D01*
X042608Y025369D01*
X042641Y025413D01*
X042668Y025454D01*
X04269Y025494D01*
X042707Y025533D01*
X042719Y025569D01*
X042727Y025604D01*
X042729Y025637D01*
X042976Y02539D01*
D02*
G37*
G36*
X045444Y025068D02*
X045424Y025047D01*
X045391Y025007D01*
X045379Y024989D01*
X045369Y024971D01*
X045361Y024955D01*
X045357Y024939D01*
X045355Y024924D01*
X045355Y024911D01*
X045358Y024898D01*
X045268Y025145D01*
X045274Y025135D01*
X045282Y025129D01*
X045293Y025127D01*
X045306Y02513D01*
X045322Y025136D01*
X04534Y025147D01*
X045361Y025162D01*
X045384Y025181D01*
X045438Y025231D01*
X045444Y025068D01*
D02*
G37*
G36*
X044066D02*
X044046Y025047D01*
X044013Y025007D01*
X044001Y024989D01*
X043991Y024971D01*
X043983Y024955D01*
X043979Y024939D01*
X043977Y024924D01*
X043977Y024911D01*
X04398Y024898D01*
X043891Y025145D01*
X043896Y025135D01*
X043904Y025129D01*
X043915Y025127D01*
X043928Y02513D01*
X043944Y025136D01*
X043962Y025147D01*
X043983Y025162D01*
X044006Y025181D01*
X04406Y025231D01*
X044066Y025068D01*
D02*
G37*
G36*
X032244Y029439D02*
Y028089D01*
Y026573D01*
X032263Y026475D01*
X032318Y026393D01*
X033251Y02546D01*
X033334Y025404D01*
X033431Y025385D01*
X035262D01*
Y024549D01*
X035631D01*
Y023939D01*
X035497D01*
Y023404D01*
X035543D01*
X035547Y023354D01*
X035525Y023351D01*
X035424Y023309D01*
X035338Y023243D01*
X035271Y023156D01*
X035229Y023055D01*
X035215Y022949D01*
X035191Y022934D01*
X035173Y022925D01*
X035165Y022925D01*
X034958D01*
Y022717D01*
X035175D01*
Y022788D01*
X035225Y022791D01*
X035229Y02276D01*
X035271Y022659D01*
X035338Y022572D01*
X035424Y022506D01*
X035463Y02249D01*
X035464Y022489D01*
X035467Y022488D01*
X035468Y022487D01*
X03547Y022478D01*
X03547Y022469D01*
Y020787D01*
X03547Y020778D01*
X035468Y020769D01*
X035467Y020768D01*
X035464Y020767D01*
X035463Y020766D01*
X035424Y02075D01*
X035338Y020684D01*
X035271Y020597D01*
X035237Y020514D01*
X035192Y020496D01*
X035179Y020496D01*
X035175Y020499D01*
Y020878D01*
X034752D01*
X034751Y020878D01*
X034748Y020878D01*
X034743D01*
X034739Y020878D01*
X034736Y020878D01*
X034641D01*
Y020787D01*
X03464Y020786D01*
X034639Y020771D01*
X034636Y020759D01*
X03463Y020743D01*
X034619Y020722D01*
X034603Y020697D01*
X034585Y02067D01*
X034513Y020585D01*
X034191Y020264D01*
X034146Y020286D01*
X034148Y020298D01*
X033731D01*
Y020348D01*
X033681D01*
Y0208D01*
X033622Y020792D01*
X033521Y02075D01*
X033435Y020684D01*
X033388Y020622D01*
X033343Y020623D01*
X033329Y020628D01*
X033285Y020686D01*
X033222Y020734D01*
X033149Y020765D01*
X033121Y020768D01*
Y020472D01*
Y020176D01*
X033149Y02018D01*
X033222Y02021D01*
X03327Y020247D01*
X033322Y020231D01*
X033326Y020201D01*
X033368Y0201D01*
X033431Y020017D01*
X033425Y019983D01*
X033419Y019967D01*
X032271D01*
X032265Y019983D01*
X032258Y020017D01*
X032322Y0201D01*
X032363Y020201D01*
X032378Y020309D01*
Y020388D01*
X032363Y020496D01*
X032322Y020597D01*
X032255Y020684D01*
X032168Y02075D01*
X03213Y020766D01*
X032129Y020767D01*
X032126Y020768D01*
X032124Y020769D01*
X032123Y020778D01*
X032122Y020787D01*
Y022443D01*
X032172Y022464D01*
X033462Y021174D01*
X033515Y021139D01*
X033577Y021126D01*
X033577Y021126D01*
X034641D01*
Y021032D01*
X035175D01*
Y021547D01*
X035071D01*
Y021741D01*
X035175D01*
Y022256D01*
X034641D01*
Y021741D01*
X034745D01*
Y021547D01*
X034641D01*
Y021453D01*
X033645D01*
X03237Y022727D01*
X032364Y022734D01*
X032357Y022744D01*
X032363Y02276D01*
X032378Y022868D01*
Y022947D01*
X032363Y023055D01*
X032322Y023156D01*
X032255Y023243D01*
X032168Y023309D01*
X032067Y023351D01*
X031959Y023365D01*
X031851Y023351D01*
X03175Y023309D01*
X031663Y023243D01*
X031597Y023156D01*
X031555Y023055D01*
X031541Y022947D01*
Y022868D01*
X031555Y02276D01*
X031597Y022659D01*
X031663Y022572D01*
X03175Y022506D01*
X031789Y02249D01*
X031789Y022489D01*
X031792Y022488D01*
X031794Y022487D01*
X031795Y022478D01*
X031796Y022469D01*
Y020787D01*
X031795Y020778D01*
X031794Y020769D01*
X031792Y020768D01*
X031789Y020767D01*
X031789Y020766D01*
X03175Y02075D01*
X031663Y020684D01*
X031597Y020597D01*
X031555Y020496D01*
X031541Y020388D01*
Y020309D01*
X031555Y020201D01*
X031597Y0201D01*
X03166Y020017D01*
X031653Y019983D01*
X031648Y019967D01*
X029184D01*
X028454Y020697D01*
Y020998D01*
X028499Y021022D01*
X028504Y021022D01*
X028569Y020938D01*
X028655Y020872D01*
X028756Y02083D01*
X028865Y020816D01*
X028943D01*
X029052Y02083D01*
X029153Y020872D01*
X029239Y020938D01*
X029306Y021025D01*
X029348Y021126D01*
X029362Y021234D01*
X029348Y021343D01*
X029306Y021444D01*
X029239Y02153D01*
X029153Y021597D01*
X029052Y021639D01*
X028943Y021653D01*
X028865D01*
X028756Y021639D01*
X028655Y021597D01*
X028569Y02153D01*
X028504Y021446D01*
X028499Y021446D01*
X028454Y02147D01*
Y021998D01*
X028499Y022022D01*
X028504Y022022D01*
X028569Y021938D01*
X028655Y021872D01*
X028756Y02183D01*
X028865Y021816D01*
X028943D01*
X029052Y02183D01*
X029153Y021872D01*
X029239Y021938D01*
X029306Y022025D01*
X029348Y022126D01*
X029362Y022234D01*
X029348Y022343D01*
X029306Y022444D01*
X029239Y02253D01*
X029153Y022597D01*
X029052Y022639D01*
X028943Y022653D01*
X028865D01*
X028756Y022639D01*
X028655Y022597D01*
X028569Y02253D01*
X028504Y022446D01*
X028499Y022446D01*
X028454Y02247D01*
Y022998D01*
X028499Y023022D01*
X028504Y023022D01*
X028569Y022938D01*
X028655Y022872D01*
X028756Y02283D01*
X028865Y022816D01*
X028943D01*
X029052Y02283D01*
X029153Y022872D01*
X029239Y022938D01*
X029306Y023025D01*
X029348Y023126D01*
X029362Y023234D01*
X029348Y023343D01*
X029306Y023444D01*
X029239Y02353D01*
X029153Y023597D01*
X029052Y023639D01*
X028943Y023653D01*
X028865D01*
X028756Y023639D01*
X028655Y023597D01*
X028569Y02353D01*
X028504Y023446D01*
X028499Y023446D01*
X028454Y02347D01*
Y023998D01*
X028499Y024022D01*
X028504Y024022D01*
X028569Y023938D01*
X028655Y023872D01*
X028756Y02383D01*
X028865Y023816D01*
X028943D01*
X029052Y02383D01*
X029153Y023872D01*
X029239Y023938D01*
X029306Y024025D01*
X029348Y024126D01*
X029362Y024234D01*
X029348Y024343D01*
X029306Y024444D01*
X029239Y02453D01*
X029153Y024597D01*
X029052Y024639D01*
X028943Y024653D01*
X028865D01*
X028756Y024639D01*
X028655Y024597D01*
X028569Y02453D01*
X028504Y024446D01*
X028499Y024446D01*
X028454Y02447D01*
Y024998D01*
X028499Y025022D01*
X028504Y025022D01*
X028569Y024938D01*
X028655Y024872D01*
X028756Y02483D01*
X028865Y024816D01*
X028943D01*
X029052Y02483D01*
X029153Y024872D01*
X029239Y024938D01*
X029306Y025025D01*
X029348Y025126D01*
X029362Y025234D01*
X029348Y025343D01*
X029306Y025444D01*
X029239Y02553D01*
X029153Y025597D01*
X029052Y025639D01*
X028943Y025653D01*
X028865D01*
X028756Y025639D01*
X028655Y025597D01*
X028569Y02553D01*
X028504Y025446D01*
X028499Y025446D01*
X028454Y02547D01*
Y025819D01*
X029358D01*
Y026649D01*
X028454D01*
Y026715D01*
X028896Y027157D01*
X02979D01*
X029887Y027176D01*
X02997Y027231D01*
X032197Y029459D01*
X032244Y029439D01*
D02*
G37*
G36*
X040292Y024649D02*
X040282Y024646D01*
X040273Y02464D01*
X040265Y024631D01*
X040258Y024621D01*
X040253Y024607D01*
X040249Y024592D01*
X040246Y024574D01*
X040244Y024553D01*
X040243Y024531D01*
X040123D01*
X040123Y024553D01*
X040121Y024574D01*
X040118Y024592D01*
X040114Y024607D01*
X040108Y024621D01*
X040102Y024631D01*
X040094Y02464D01*
X040085Y024646D01*
X040075Y024649D01*
X040063Y024651D01*
X040303D01*
X040292Y024649D01*
D02*
G37*
G36*
X038177Y024531D02*
X038057D01*
X038056Y024553D01*
X038054Y024574D01*
X038051Y024592D01*
X038047Y024607D01*
X038042Y024621D01*
X038035Y024631D01*
X038027Y02464D01*
X038018Y024646D01*
X038008Y024649D01*
X037997Y024651D01*
X038177D01*
Y024531D01*
D02*
G37*
G36*
X035902Y024649D02*
X035892Y024646D01*
X035883Y02464D01*
X035875Y024631D01*
X035869Y024621D01*
X035863Y024607D01*
X035859Y024592D01*
X035856Y024574D01*
X035854Y024553D01*
X035854Y024531D01*
X035734D01*
X035733Y024553D01*
X035731Y024574D01*
X035728Y024592D01*
X035724Y024607D01*
X035719Y024621D01*
X035712Y024631D01*
X035704Y02464D01*
X035695Y024646D01*
X035685Y024649D01*
X035674Y024651D01*
X035914D01*
X035902Y024649D01*
D02*
G37*
G36*
X046287Y024456D02*
X046289Y024436D01*
X046292Y024418D01*
X046296Y024402D01*
X046302Y024389D01*
X046308Y024378D01*
X046316Y02437D01*
X046325Y024364D01*
X046335Y02436D01*
X046347Y024359D01*
X04613D01*
X046137Y02436D01*
X046143Y024364D01*
X046149Y02437D01*
X046153Y024378D01*
X046157Y024389D01*
X046161Y024402D01*
X046163Y024418D01*
X046165Y024436D01*
X046167Y024479D01*
X046287D01*
X046287Y024456D01*
D02*
G37*
G36*
X044929D02*
X044931Y024436D01*
X044934Y024418D01*
X044938Y024402D01*
X044943Y024389D01*
X044949Y024378D01*
X044956Y02437D01*
X044965Y024364D01*
X044975Y02436D01*
X044985Y024359D01*
X044752D01*
X044762Y02436D01*
X044772Y024364D01*
X044781Y02437D01*
X044788Y024378D01*
X044794Y024389D01*
X044799Y024402D01*
X044803Y024418D01*
X044806Y024436D01*
X044808Y024456D01*
X044809Y024479D01*
X044928D01*
X044929Y024456D01*
D02*
G37*
G36*
X042173D02*
X042175Y024436D01*
X042178Y024418D01*
X042182Y024402D01*
X042187Y024389D01*
X042193Y024378D01*
X0422Y02437D01*
X042209Y024364D01*
X042219Y02436D01*
X04223Y024359D01*
X041996D01*
X042007Y02436D01*
X042016Y024364D01*
X042025Y02437D01*
X042032Y024378D01*
X042038Y024389D01*
X042043Y024402D01*
X042047Y024418D01*
X04205Y024436D01*
X042052Y024456D01*
X042053Y024479D01*
X042173D01*
X042173Y024456D01*
D02*
G37*
G36*
X043551Y024456D02*
X043553Y024436D01*
X043556Y024418D01*
X04356Y024402D01*
X043565Y024389D01*
X043571Y024378D01*
X043578Y02437D01*
X043587Y024364D01*
X043597Y02436D01*
X043607Y024359D01*
X043374D01*
X043384Y02436D01*
X043394Y024364D01*
X043403Y02437D01*
X04341Y024378D01*
X043416Y024389D01*
X043421Y024402D01*
X043425Y024418D01*
X043428Y024436D01*
X04343Y024456D01*
X043431Y024479D01*
X043551D01*
X043551Y024456D01*
D02*
G37*
G36*
X040244Y023934D02*
X040246Y023914D01*
X040249Y023896D01*
X040253Y02388D01*
X040258Y023866D01*
X040265Y023856D01*
X040273Y023847D01*
X040282Y023841D01*
X040292Y023837D01*
X040303Y023836D01*
X040063D01*
X040075Y023837D01*
X040085Y023841D01*
X040094Y023847D01*
X040102Y023856D01*
X040108Y023866D01*
X040114Y02388D01*
X040118Y023896D01*
X040121Y023914D01*
X040123Y023934D01*
X040123Y023957D01*
X040243D01*
X040244Y023934D01*
D02*
G37*
G36*
X038174Y023837D02*
X037997Y023836D01*
X038008Y023837D01*
X038018Y023841D01*
X038027Y023847D01*
X038035Y023856D01*
X038042Y023867D01*
X038047Y02388D01*
X038051Y023896D01*
X038054Y023914D01*
X038056Y023934D01*
X038057Y023957D01*
X038177D01*
X038174Y023837D01*
D02*
G37*
G36*
X035854Y023935D02*
X035856Y023914D01*
X035859Y023896D01*
X035863Y023881D01*
X035868Y023867D01*
X035874Y023857D01*
X035882Y023848D01*
X03589Y023842D01*
X0359Y023839D01*
X035911Y023837D01*
X035674Y023836D01*
X035685Y023837D01*
X035695Y023841D01*
X035704Y023847D01*
X035712Y023856D01*
X035719Y023867D01*
X035724Y02388D01*
X035728Y023896D01*
X035731Y023914D01*
X035733Y023934D01*
X035734Y023957D01*
X035854D01*
X035854Y023935D01*
D02*
G37*
G36*
X047111Y023968D02*
X04709Y023966D01*
X047067Y023959D01*
X047041Y023949D01*
X047013Y023934D01*
X046983Y023915D01*
X046951Y023891D01*
X046879Y023832D01*
X046799Y023756D01*
X046665Y024046D01*
X046706Y024088D01*
X046801Y024198D01*
X046825Y024231D01*
X046844Y024261D01*
X046858Y024289D01*
X046869Y024314D01*
X046875Y024338D01*
X046878Y024359D01*
X047111Y023968D01*
D02*
G37*
G36*
X04298Y024323D02*
X042986Y024286D01*
X042997Y024249D01*
X043011Y02421D01*
X043031Y024172D01*
X043054Y024132D01*
X043081Y024092D01*
X043113Y024051D01*
X043149Y02401D01*
X04319Y023968D01*
X042978Y023756D01*
X042744Y023968D01*
X042978Y024359D01*
X04298Y024323D01*
D02*
G37*
G36*
X045694Y024033D02*
X045718D01*
X045704Y024018D01*
X045733Y023968D01*
X045716Y023966D01*
X045696Y023959D01*
X045673Y023949D01*
X045648Y023934D01*
X045638Y023927D01*
X045637Y023925D01*
X045631Y023898D01*
X045634Y023874D01*
X045648Y023855D01*
X045672Y02384D01*
X045707Y02383D01*
X045751Y023823D01*
X045806Y023821D01*
X045144Y023521D01*
X044782Y023821D01*
X044841Y023823D01*
X044898Y02383D01*
X044954Y02384D01*
X045008Y023855D01*
X04506Y023874D01*
X04511Y023898D01*
X045159Y023925D01*
X045206Y023957D01*
X045251Y023993D01*
X045292Y024032D01*
X045328Y024068D01*
X045423Y024182D01*
X045447Y024216D01*
X045466Y024248D01*
X045481Y024279D01*
X045491Y024307D01*
X045497Y024334D01*
X0455Y024359D01*
X045694Y024033D01*
D02*
G37*
G36*
X044316D02*
X04434D01*
X044326Y024018D01*
X044355Y023968D01*
X044338Y023966D01*
X044318Y023959D01*
X044295Y023949D01*
X04427Y023934D01*
X04426Y023927D01*
X044259Y023925D01*
X044253Y023898D01*
X044256Y023874D01*
X04427Y023855D01*
X044294Y02384D01*
X044329Y02383D01*
X044373Y023823D01*
X044428Y023821D01*
X043766Y023521D01*
X043404Y023821D01*
X043463Y023823D01*
X04352Y02383D01*
X043576Y02384D01*
X04363Y023855D01*
X043682Y023874D01*
X043732Y023898D01*
X043781Y023925D01*
X043828Y023957D01*
X043873Y023993D01*
X043914Y024032D01*
X04395Y024068D01*
X044045Y024182D01*
X044069Y024216D01*
X044088Y024248D01*
X044103Y024279D01*
X044113Y024307D01*
X04412Y024334D01*
X044122Y024359D01*
X044316Y024033D01*
D02*
G37*
G36*
X041011Y023834D02*
X041017Y023832D01*
X041027Y023829D01*
X041041Y023827D01*
X04108Y023824D01*
X041169Y023821D01*
X041207Y023821D01*
Y023521D01*
X041169Y023521D01*
X041017Y023511D01*
X041011Y023508D01*
X041009Y023505D01*
Y023837D01*
X041011Y023834D01*
D02*
G37*
G36*
X039056Y023828D02*
X039016Y023786D01*
X03892Y023674D01*
X038897Y023641D01*
X038878Y02361D01*
X038863Y02358D01*
X038852Y023553D01*
X038846Y023528D01*
X038844Y023505D01*
X038531Y023837D01*
X038554Y023839D01*
X038579Y023846D01*
X038606Y023856D01*
X038636Y023871D01*
X038667Y02389D01*
X0387Y023914D01*
X038773Y023973D01*
X038812Y024009D01*
X038854Y02405D01*
X039056Y023828D01*
D02*
G37*
G36*
X036792D02*
X036752Y023786D01*
X036656Y023674D01*
X036633Y023641D01*
X036614Y02361D01*
X036599Y02358D01*
X036588Y023553D01*
X036582Y023528D01*
X03658Y023505D01*
X036267Y023837D01*
X03629Y023839D01*
X036316Y023846D01*
X036343Y023856D01*
X036372Y023871D01*
X036403Y02389D01*
X036436Y023914D01*
X036509Y023973D01*
X036548Y024009D01*
X03659Y02405D01*
X036792Y023828D01*
D02*
G37*
G36*
X043276Y022768D02*
X043272Y022757D01*
X043271Y022745D01*
X043273Y022732D01*
X043278Y022718D01*
X043285Y022703D01*
X043296Y022687D01*
X043309Y02267D01*
X043324Y022652D01*
X043343Y022632D01*
X043265Y02254D01*
X043246Y022558D01*
X043229Y022573D01*
X043212Y022586D01*
X043196Y022595D01*
X043182Y022602D01*
X043169Y022606D01*
X043157Y022607D01*
X043147Y022605D01*
X043137Y0226D01*
X043129Y022592D01*
X043282Y022777D01*
X043276Y022768D01*
D02*
G37*
G36*
X032252D02*
X032248Y022757D01*
X032248Y022745D01*
X03225Y022732D01*
X032254Y022718D01*
X032262Y022703D01*
X032272Y022687D01*
X032285Y02267D01*
X032301Y022652D01*
X032319Y022632D01*
X032242Y02254D01*
X032223Y022558D01*
X032205Y022573D01*
X032188Y022586D01*
X032173Y022595D01*
X032159Y022602D01*
X032146Y022606D01*
X032134Y022607D01*
X032123Y022605D01*
X032114Y0226D01*
X032105Y022592D01*
X032258Y022777D01*
X032252Y022768D01*
D02*
G37*
G36*
X039601Y022768D02*
X039597Y022757D01*
X039597Y022745D01*
X039599Y022732D01*
X039603Y022718D01*
X039611Y022703D01*
X039621Y022687D01*
X039634Y02267D01*
X03965Y022652D01*
X039668Y022632D01*
X039591Y02254D01*
X039572Y022558D01*
X039554Y022573D01*
X039537Y022586D01*
X039522Y022595D01*
X039508Y022602D01*
X039495Y022606D01*
X039483Y022607D01*
X039472Y022605D01*
X039463Y0226D01*
X039454Y022592D01*
X039607Y022777D01*
X039601Y022768D01*
D02*
G37*
G36*
X035926D02*
X035923Y022757D01*
X035922Y022745D01*
X035924Y022732D01*
X035929Y022718D01*
X035936Y022703D01*
X035947Y022687D01*
X035959Y02267D01*
X035975Y022652D01*
X035994Y022632D01*
X035916Y02254D01*
X035897Y022558D01*
X035879Y022573D01*
X035863Y022586D01*
X035847Y022595D01*
X035833Y022602D01*
X03582Y022606D01*
X035808Y022607D01*
X035798Y022605D01*
X035788Y0226D01*
X03578Y022592D01*
X035933Y022777D01*
X035926Y022768D01*
D02*
G37*
G36*
X043091Y022576D02*
X043081Y022572D01*
X043072Y022565D01*
X043064Y022556D01*
X043058Y022543D01*
X043052Y022528D01*
X043048Y02251D01*
X043045Y022489D01*
X043043Y022465D01*
X043043Y022439D01*
X042923D01*
X042922Y022465D01*
X04292Y022489D01*
X042917Y02251D01*
X042913Y022528D01*
X042908Y022543D01*
X042901Y022556D01*
X042893Y022565D01*
X042884Y022572D01*
X042874Y022576D01*
X042863Y022578D01*
X043102D01*
X043091Y022576D01*
D02*
G37*
G36*
X032067D02*
X032057Y022572D01*
X032048Y022565D01*
X032041Y022556D01*
X032034Y022543D01*
X032029Y022528D01*
X032024Y02251D01*
X032021Y022489D01*
X03202Y022465D01*
X032019Y022439D01*
X031899D01*
X031898Y022465D01*
X031897Y022489D01*
X031894Y02251D01*
X03189Y022528D01*
X031884Y022543D01*
X031878Y022556D01*
X03187Y022565D01*
X031861Y022572D01*
X031851Y022576D01*
X031839Y022578D01*
X032079D01*
X032067Y022576D01*
D02*
G37*
G36*
X039416Y022576D02*
X039406Y022572D01*
X039397Y022565D01*
X03939Y022556D01*
X039383Y022543D01*
X039378Y022528D01*
X039374Y02251D01*
X039371Y022489D01*
X039369Y022465D01*
X039368Y022439D01*
X039248D01*
X039248Y022465D01*
X039246Y022489D01*
X039243Y02251D01*
X039239Y022528D01*
X039233Y022543D01*
X039227Y022556D01*
X039219Y022565D01*
X03921Y022572D01*
X0392Y022576D01*
X039188Y022578D01*
X039428D01*
X039416Y022576D01*
D02*
G37*
G36*
X035742D02*
X035732Y022572D01*
X035723Y022565D01*
X035715Y022556D01*
X035709Y022543D01*
X035703Y022528D01*
X035699Y02251D01*
X035696Y022489D01*
X035694Y022465D01*
X035694Y022439D01*
X035574D01*
X035573Y022465D01*
X035571Y022489D01*
X035568Y02251D01*
X035564Y022528D01*
X035559Y022543D01*
X035552Y022556D01*
X035544Y022565D01*
X035535Y022572D01*
X035525Y022576D01*
X035514Y022578D01*
X035753D01*
X035742Y022576D01*
D02*
G37*
G36*
X04604Y021842D02*
X04603Y021838D01*
X046021Y021832D01*
X046013Y021824D01*
X046006Y021813D01*
X046001Y021799D01*
X045997Y021784D01*
X045994Y021765D01*
X045992Y021745D01*
X045992Y021722D01*
X045872D01*
X045871Y021745D01*
X045869Y021765D01*
X045866Y021784D01*
X045862Y021799D01*
X045856Y021813D01*
X04585Y021824D01*
X045842Y021832D01*
X045833Y021838D01*
X045823Y021842D01*
X045812Y021843D01*
X046052D01*
X04604Y021842D01*
D02*
G37*
G36*
X0423D02*
X04229Y021838D01*
X042281Y021832D01*
X042273Y021824D01*
X042266Y021813D01*
X042261Y021799D01*
X042257Y021784D01*
X042254Y021765D01*
X042252Y021745D01*
X042251Y021722D01*
X042131D01*
X042131Y021745D01*
X042129Y021765D01*
X042126Y021784D01*
X042122Y021799D01*
X042116Y021813D01*
X04211Y021824D01*
X042102Y021832D01*
X042093Y021838D01*
X042083Y021842D01*
X042071Y021843D01*
X042311D01*
X0423Y021842D01*
D02*
G37*
G36*
X038658D02*
X038648Y021838D01*
X038639Y021832D01*
X038631Y021824D01*
X038625Y021813D01*
X038619Y021799D01*
X038615Y021784D01*
X038612Y021765D01*
X03861Y021745D01*
X03861Y021722D01*
X03849D01*
X038489Y021745D01*
X038487Y021765D01*
X038484Y021784D01*
X03848Y021799D01*
X038475Y021813D01*
X038468Y021824D01*
X03846Y021832D01*
X038451Y021838D01*
X038441Y021842D01*
X03843Y021843D01*
X03867D01*
X038658Y021842D01*
D02*
G37*
G36*
X035016D02*
X035006Y021838D01*
X034997Y021832D01*
X034989Y021824D01*
X034983Y021813D01*
X034977Y021799D01*
X034973Y021784D01*
X03497Y021765D01*
X034968Y021745D01*
X034968Y021722D01*
X034848D01*
X034847Y021745D01*
X034845Y021765D01*
X034842Y021784D01*
X034838Y021799D01*
X034833Y021813D01*
X034826Y021824D01*
X034818Y021832D01*
X034809Y021838D01*
X034799Y021842D01*
X034788Y021843D01*
X035028D01*
X035016Y021842D01*
D02*
G37*
G36*
X045992Y021543D02*
X045994Y021522D01*
X045997Y021504D01*
X046001Y021488D01*
X046006Y021475D01*
X046013Y021464D01*
X046021Y021455D01*
X04603Y021449D01*
X04604Y021446D01*
X046052Y021444D01*
X045812D01*
X045823Y021446D01*
X045833Y021449D01*
X045842Y021455D01*
X04585Y021464D01*
X045856Y021475D01*
X045862Y021488D01*
X045866Y021504D01*
X045869Y021522D01*
X045871Y021543D01*
X045872Y021566D01*
X045992D01*
X045992Y021543D01*
D02*
G37*
G36*
X042252D02*
X042254Y021522D01*
X042257Y021504D01*
X042261Y021488D01*
X042266Y021475D01*
X042273Y021464D01*
X042281Y021455D01*
X04229Y021449D01*
X0423Y021446D01*
X042311Y021444D01*
X042071D01*
X042083Y021446D01*
X042093Y021449D01*
X042102Y021455D01*
X04211Y021464D01*
X042116Y021475D01*
X042122Y021488D01*
X042126Y021504D01*
X042129Y021522D01*
X042131Y021543D01*
X042131Y021566D01*
X042251D01*
X042252Y021543D01*
D02*
G37*
G36*
X03861D02*
X038612Y021522D01*
X038615Y021504D01*
X038619Y021488D01*
X038625Y021475D01*
X038631Y021464D01*
X038639Y021455D01*
X038648Y021449D01*
X038658Y021446D01*
X03867Y021444D01*
X03843D01*
X038441Y021446D01*
X038451Y021449D01*
X03846Y021455D01*
X038468Y021464D01*
X038475Y021475D01*
X03848Y021488D01*
X038484Y021504D01*
X038487Y021522D01*
X038489Y021543D01*
X03849Y021566D01*
X03861D01*
X03861Y021543D01*
D02*
G37*
G36*
X034968D02*
X03497Y021522D01*
X034973Y021504D01*
X034977Y021488D01*
X034983Y021475D01*
X034989Y021464D01*
X034997Y021455D01*
X035006Y021449D01*
X035016Y021446D01*
X035028Y021444D01*
X034788D01*
X034799Y021446D01*
X034809Y021449D01*
X034818Y021455D01*
X034826Y021464D01*
X034833Y021475D01*
X034838Y021488D01*
X034842Y021504D01*
X034845Y021522D01*
X034847Y021543D01*
X034848Y021566D01*
X034968D01*
X034968Y021543D01*
D02*
G37*
G36*
X045765Y021169D02*
X045764Y021181D01*
X045761Y021191D01*
X045755Y0212D01*
X045746Y021208D01*
X045735Y021214D01*
X045722Y02122D01*
X045707Y021224D01*
X045689Y021227D01*
X045668Y021229D01*
X045645Y021229D01*
Y021349D01*
X045668Y02135D01*
X045689Y021352D01*
X045707Y021355D01*
X045722Y021359D01*
X045735Y021364D01*
X045746Y021371D01*
X045755Y021379D01*
X045761Y021388D01*
X045764Y021398D01*
X045765Y021409D01*
Y021169D01*
D02*
G37*
G36*
X042025D02*
X042024Y021181D01*
X04202Y021191D01*
X042014Y0212D01*
X042006Y021208D01*
X041995Y021214D01*
X041982Y02122D01*
X041966Y021224D01*
X041948Y021227D01*
X041928Y021229D01*
X041905Y021229D01*
Y021349D01*
X041928Y02135D01*
X041948Y021352D01*
X041966Y021355D01*
X041982Y021359D01*
X041995Y021364D01*
X042006Y021371D01*
X042014Y021379D01*
X04202Y021388D01*
X042024Y021398D01*
X042025Y021409D01*
Y021169D01*
D02*
G37*
G36*
X038383D02*
X038382Y021181D01*
X038379Y021191D01*
X038373Y0212D01*
X038364Y021208D01*
X038353Y021214D01*
X03834Y02122D01*
X038325Y021224D01*
X038307Y021227D01*
X038286Y021229D01*
X038263Y021229D01*
Y021349D01*
X038286Y02135D01*
X038307Y021352D01*
X038325Y021355D01*
X03834Y021359D01*
X038353Y021364D01*
X038364Y021371D01*
X038373Y021379D01*
X038379Y021388D01*
X038382Y021398D01*
X038383Y021409D01*
Y021169D01*
D02*
G37*
G36*
X034742D02*
X034741Y021181D01*
X034737Y021191D01*
X034731Y0212D01*
X034723Y021208D01*
X034712Y021214D01*
X034699Y02122D01*
X034683Y021224D01*
X034665Y021227D01*
X034645Y021229D01*
X034622Y021229D01*
Y021349D01*
X034645Y02135D01*
X034665Y021352D01*
X034683Y021355D01*
X034699Y021359D01*
X034712Y021364D01*
X034723Y021371D01*
X034731Y021379D01*
X034737Y021388D01*
X034741Y021398D01*
X034742Y021409D01*
Y021169D01*
D02*
G37*
G36*
X043043Y020791D02*
X043045Y020767D01*
X043048Y020746D01*
X043052Y020728D01*
X043058Y020713D01*
X043064Y0207D01*
X043072Y020691D01*
X043081Y020684D01*
X043091Y02068D01*
X043102Y020678D01*
X042863D01*
X042874Y02068D01*
X042884Y020684D01*
X042893Y020691D01*
X042901Y0207D01*
X042908Y020713D01*
X042913Y020728D01*
X042917Y020746D01*
X04292Y020767D01*
X042922Y020791D01*
X042923Y020817D01*
X043043D01*
X043043Y020791D01*
D02*
G37*
G36*
X03202D02*
X032021Y020767D01*
X032024Y020746D01*
X032029Y020728D01*
X032034Y020713D01*
X032041Y0207D01*
X032048Y020691D01*
X032057Y020684D01*
X032067Y02068D01*
X032079Y020678D01*
X031839D01*
X031851Y02068D01*
X031861Y020684D01*
X03187Y020691D01*
X031878Y0207D01*
X031884Y020713D01*
X03189Y020728D01*
X031894Y020746D01*
X031897Y020767D01*
X031898Y020791D01*
X031899Y020817D01*
X032019D01*
X03202Y020791D01*
D02*
G37*
G36*
X039369Y020791D02*
X039371Y020767D01*
X039374Y020746D01*
X039378Y020728D01*
X039383Y020713D01*
X03939Y0207D01*
X039397Y020691D01*
X039406Y020684D01*
X039416Y02068D01*
X039428Y020678D01*
X039188D01*
X0392Y02068D01*
X03921Y020684D01*
X039219Y020691D01*
X039227Y0207D01*
X039233Y020713D01*
X039239Y020728D01*
X039243Y020746D01*
X039246Y020767D01*
X039248Y020791D01*
X039248Y020817D01*
X039368D01*
X039369Y020791D01*
D02*
G37*
G36*
X035694D02*
X035696Y020767D01*
X035699Y020746D01*
X035703Y020728D01*
X035709Y020713D01*
X035715Y0207D01*
X035723Y020691D01*
X035732Y020684D01*
X035742Y02068D01*
X035753Y020678D01*
X035514D01*
X035525Y02068D01*
X035535Y020684D01*
X035544Y020691D01*
X035552Y0207D01*
X035559Y020713D01*
X035564Y020728D01*
X035568Y020746D01*
X035571Y020767D01*
X035573Y020791D01*
X035574Y020817D01*
X035694D01*
X035694Y020791D01*
D02*
G37*
G36*
X035074Y020464D02*
X035051Y020462D01*
X035026Y020455D01*
X034999Y020445D01*
X034969Y02043D01*
X034938Y020411D01*
X034905Y020387D01*
X034832Y020328D01*
X034793Y020292D01*
X034752Y020252D01*
X03453Y020454D01*
X03457Y020495D01*
X034665Y020607D01*
X034689Y020641D01*
X034708Y020672D01*
X034723Y020701D01*
X034733Y020728D01*
X03474Y020753D01*
X034742Y020776D01*
X035074Y020464D01*
D02*
G37*
G36*
X046095Y020461D02*
X046092Y020454D01*
X046089Y020442D01*
X046087Y020426D01*
X046084Y020378D01*
X046082Y020226D01*
X045781D01*
X045781Y020271D01*
X045768Y020461D01*
X045765Y020464D01*
X046098D01*
X046095Y020461D01*
D02*
G37*
G36*
X038713D02*
X03871Y020454D01*
X038708Y020442D01*
X038705Y020426D01*
X038702Y020378D01*
X0387Y020226D01*
X0384D01*
X038399Y020271D01*
X038387Y020461D01*
X038383Y020464D01*
X038716D01*
X038713Y020461D01*
D02*
G37*
G36*
X042354Y020461D02*
X042352Y020452D01*
X042349Y020437D01*
X042347Y020416D01*
X042343Y020317D01*
X042341Y020164D01*
X042041D01*
X042025Y020464D01*
X042357D01*
X042354Y020461D01*
D02*
G37*
G36*
X045955Y020034D02*
X045928Y019998D01*
X045911Y019967D01*
X045904Y019939D01*
X045908Y019916D01*
X045922Y019897D01*
X045946Y019882D01*
X04598Y019871D01*
X046025Y019865D01*
X04608Y019863D01*
X045418Y019563D01*
X045056Y019863D01*
X045115Y019865D01*
X045172Y019871D01*
X045228Y019882D01*
X045281Y019897D01*
X045334Y019916D01*
X045384Y019939D01*
X045432Y019967D01*
X045479Y019998D01*
X045524Y020034D01*
X045568Y020075D01*
X045992D01*
X045955Y020034D01*
D02*
G37*
G36*
X042297Y020002D02*
X042274Y019976D01*
X042259Y019952D01*
X042253Y019931D01*
X042256Y019913D01*
X042268Y019897D01*
X042288Y019885D01*
X042317Y019875D01*
X042355Y019868D01*
X042402Y019864D01*
X042458Y019863D01*
X041796Y019563D01*
X041434Y019863D01*
X041493Y019865D01*
X04155Y019871D01*
X041606Y019882D01*
X041659Y019897D01*
X041712Y019916D01*
X041762Y019939D01*
X04181Y019967D01*
X041857Y019998D01*
X041902Y020034D01*
X041946Y020075D01*
X042297Y020002D01*
D02*
G37*
G36*
X038573Y020034D02*
X038546Y019998D01*
X038529Y019967D01*
X038522Y019939D01*
X038526Y019916D01*
X03854Y019897D01*
X038564Y019882D01*
X038598Y019871D01*
X038643Y019865D01*
X038698Y019863D01*
X038036Y019563D01*
X037674Y019863D01*
X037733Y019865D01*
X03779Y019871D01*
X037846Y019882D01*
X0379Y019897D01*
X037952Y019916D01*
X038002Y019939D01*
X038051Y019967D01*
X038097Y019998D01*
X038142Y020034D01*
X038186Y020075D01*
X03861D01*
X038573Y020034D01*
D02*
G37*
G36*
X034537D02*
X03451Y019998D01*
X034493Y019967D01*
X034487Y019939D01*
X034491Y019916D01*
X034504Y019897D01*
X034529Y019882D01*
X034563Y019871D01*
X034608Y019865D01*
X034662Y019863D01*
X034Y019563D01*
X033638Y019863D01*
X033697Y019865D01*
X033755Y019871D01*
X03381Y019882D01*
X033864Y019897D01*
X033916Y019916D01*
X033967Y019939D01*
X034015Y019967D01*
X034062Y019998D01*
X034107Y020034D01*
X03415Y020075D01*
X034575D01*
X034537Y020034D01*
D02*
G37*
%LPC*%
G36*
X03113Y039677D02*
X030922D01*
Y039469D01*
X03113D01*
Y039677D01*
D02*
G37*
G36*
X030822D02*
X030615D01*
Y039469D01*
X030822D01*
Y039677D01*
D02*
G37*
G36*
X03113Y039369D02*
X030922D01*
Y039162D01*
X03113D01*
Y039369D01*
D02*
G37*
G36*
X030822D02*
X030615D01*
Y039162D01*
X030822D01*
Y039369D01*
D02*
G37*
G36*
X038853Y039633D02*
X038739Y039618D01*
X038634Y039575D01*
X038543Y039505D01*
X038473Y039414D01*
X038429Y039308D01*
X038414Y039195D01*
Y039116D01*
X038429Y039003D01*
X03844Y038977D01*
X038432Y038967D01*
X038427Y03896D01*
X037573Y038106D01*
X03172D01*
Y0382D01*
X031206D01*
Y037685D01*
X03172D01*
Y03778D01*
X03764D01*
X037703Y037792D01*
X037756Y037828D01*
X03865Y038722D01*
X038656Y038727D01*
X038739Y038693D01*
X038853Y038678D01*
X038966Y038693D01*
X039072Y038736D01*
X039163Y038806D01*
X039232Y038897D01*
X039276Y039003D01*
X039291Y039116D01*
Y039195D01*
X039276Y039308D01*
X039232Y039414D01*
X039163Y039505D01*
X039072Y039575D01*
X038966Y039618D01*
X038853Y039633D01*
D02*
G37*
G36*
X036853D02*
X036739Y039618D01*
X036634Y039575D01*
X036543Y039505D01*
X036473Y039414D01*
X036429Y039308D01*
X036414Y039195D01*
Y039116D01*
X036429Y039003D01*
X036473Y038897D01*
X036543Y038806D01*
X036634Y038736D01*
X036739Y038693D01*
X036853Y038678D01*
X036966Y038693D01*
X037072Y038736D01*
X037163Y038806D01*
X037232Y038897D01*
X037276Y039003D01*
X037291Y039116D01*
Y039195D01*
X037276Y039308D01*
X037232Y039414D01*
X037163Y039505D01*
X037072Y039575D01*
X036966Y039618D01*
X036853Y039633D01*
D02*
G37*
G36*
X03172Y039677D02*
X031206D01*
Y039162D01*
X031541D01*
X031561Y039158D01*
X035414D01*
Y039116D01*
X035429Y039003D01*
X035473Y038897D01*
X035543Y038806D01*
X035634Y038736D01*
X035739Y038693D01*
X035853Y038678D01*
X035966Y038693D01*
X036072Y038736D01*
X036163Y038806D01*
X036232Y038897D01*
X036276Y039003D01*
X036291Y039116D01*
Y039195D01*
X036276Y039308D01*
X036232Y039414D01*
X036163Y039505D01*
X036072Y039575D01*
X035966Y039618D01*
X035853Y039633D01*
X035739Y039618D01*
X035634Y039575D01*
X035543Y039505D01*
X035532Y03949D01*
X035528Y03949D01*
X035517Y039487D01*
X035483Y039484D01*
X03172D01*
Y039677D01*
D02*
G37*
G36*
X03113Y0382D02*
X030922D01*
Y037993D01*
X03113D01*
Y0382D01*
D02*
G37*
G36*
X030822D02*
X030615D01*
Y037993D01*
X030822D01*
Y0382D01*
D02*
G37*
G36*
X029184Y038091D02*
Y037845D01*
X02943D01*
X029426Y037874D01*
X029396Y037947D01*
X029348Y038009D01*
X029285Y038057D01*
X029212Y038088D01*
X029184Y038091D01*
D02*
G37*
G36*
X029084D02*
X029056Y038088D01*
X028983Y038057D01*
X02892Y038009D01*
X028872Y037947D01*
X028842Y037874D01*
X028838Y037845D01*
X029084D01*
Y038091D01*
D02*
G37*
G36*
X03113Y037893D02*
X030922D01*
Y037685D01*
X03113D01*
Y037893D01*
D02*
G37*
G36*
X030822D02*
X030615D01*
Y037685D01*
X030822D01*
Y037893D01*
D02*
G37*
G36*
X02943Y037745D02*
X029184D01*
Y037499D01*
X029212Y037503D01*
X029285Y037533D01*
X029348Y037581D01*
X029396Y037644D01*
X029426Y037717D01*
X02943Y037745D01*
D02*
G37*
G36*
X029084D02*
X028838D01*
X028842Y037717D01*
X028872Y037644D01*
X02892Y037581D01*
X028983Y037533D01*
X029056Y037503D01*
X029084Y037499D01*
Y037745D01*
D02*
G37*
G36*
X03113Y036724D02*
X030922D01*
Y036517D01*
X03113D01*
Y036724D01*
D02*
G37*
G36*
X030822D02*
X030615D01*
Y036517D01*
X030822D01*
Y036724D01*
D02*
G37*
G36*
X03942Y036516D02*
Y03627D01*
X039666D01*
X039662Y036299D01*
X039632Y036372D01*
X039584Y036434D01*
X039521Y036483D01*
X039448Y036513D01*
X03942Y036516D01*
D02*
G37*
G36*
X03932D02*
X039292Y036513D01*
X039219Y036483D01*
X039156Y036434D01*
X039108Y036372D01*
X039078Y036299D01*
X039074Y03627D01*
X03932D01*
Y036516D01*
D02*
G37*
G36*
X029971D02*
Y03627D01*
X030217D01*
X030214Y036299D01*
X030183Y036372D01*
X030135Y036434D01*
X030073Y036483D01*
X03Y036513D01*
X029971Y036516D01*
D02*
G37*
G36*
X029871D02*
X029843Y036513D01*
X02977Y036483D01*
X029707Y036434D01*
X029659Y036372D01*
X029629Y036299D01*
X029625Y03627D01*
X029871D01*
Y036516D01*
D02*
G37*
G36*
X028396D02*
Y03627D01*
X028642D01*
X028639Y036299D01*
X028609Y036372D01*
X02856Y036434D01*
X028498Y036483D01*
X028425Y036513D01*
X028396Y036516D01*
D02*
G37*
G36*
X03113Y036417D02*
X030922D01*
Y036209D01*
X03113D01*
Y036417D01*
D02*
G37*
G36*
X030822D02*
X030615D01*
Y036209D01*
X030822D01*
Y036417D01*
D02*
G37*
G36*
X039666Y03617D02*
X03942D01*
Y035924D01*
X039448Y035928D01*
X039521Y035958D01*
X039584Y036007D01*
X039632Y036069D01*
X039662Y036142D01*
X039666Y03617D01*
D02*
G37*
G36*
X03932D02*
X039074D01*
X039078Y036142D01*
X039108Y036069D01*
X039156Y036007D01*
X039219Y035958D01*
X039292Y035928D01*
X03932Y035924D01*
Y03617D01*
D02*
G37*
G36*
X030217D02*
X029971D01*
Y035924D01*
X03Y035928D01*
X030073Y035958D01*
X030135Y036007D01*
X030183Y036069D01*
X030214Y036142D01*
X030217Y03617D01*
D02*
G37*
G36*
X029871D02*
X029625D01*
X029629Y036142D01*
X029659Y036069D01*
X029707Y036007D01*
X02977Y035958D01*
X029843Y035928D01*
X029871Y035924D01*
Y03617D01*
D02*
G37*
G36*
X028642D02*
X028396D01*
Y035924D01*
X028425Y035928D01*
X028498Y035958D01*
X02856Y036007D01*
X028609Y036069D01*
X028639Y036142D01*
X028642Y03617D01*
D02*
G37*
G36*
X03113Y035248D02*
X030922D01*
Y03504D01*
X03113D01*
Y035248D01*
D02*
G37*
G36*
X030822D02*
X030615D01*
Y03504D01*
X030822D01*
Y035248D01*
D02*
G37*
G36*
X029358Y035649D02*
X02845D01*
Y034819D01*
X029358D01*
Y035649D01*
D02*
G37*
G36*
X03113Y03494D02*
X030922D01*
Y034733D01*
X03113D01*
Y03494D01*
D02*
G37*
G36*
X030822D02*
X030615D01*
Y034733D01*
X030822D01*
Y03494D01*
D02*
G37*
G36*
X033908Y034942D02*
Y034696D01*
X034154D01*
X034151Y034724D01*
X03412Y034797D01*
X034072Y03486D01*
X03401Y034908D01*
X033937Y034938D01*
X033908Y034942D01*
D02*
G37*
G36*
X033808D02*
X03378Y034938D01*
X033707Y034908D01*
X033644Y03486D01*
X033596Y034797D01*
X033566Y034724D01*
X033562Y034696D01*
X033808D01*
Y034942D01*
D02*
G37*
G36*
X032333D02*
Y034696D01*
X032579D01*
X032576Y034724D01*
X032546Y034797D01*
X032497Y03486D01*
X032435Y034908D01*
X032362Y034938D01*
X032333Y034942D01*
D02*
G37*
G36*
X032233D02*
X032205Y034938D01*
X032132Y034908D01*
X032069Y03486D01*
X032021Y034797D01*
X031991Y034724D01*
X031987Y034696D01*
X032233D01*
Y034942D01*
D02*
G37*
G36*
X034154Y034596D02*
X033908D01*
Y03435D01*
X033937Y034353D01*
X03401Y034384D01*
X034072Y034432D01*
X03412Y034494D01*
X034151Y034567D01*
X034154Y034596D01*
D02*
G37*
G36*
X033808D02*
X033562D01*
X033566Y034567D01*
X033596Y034494D01*
X033644Y034432D01*
X033707Y034384D01*
X03378Y034353D01*
X033808Y03435D01*
Y034596D01*
D02*
G37*
G36*
X032579D02*
X032333D01*
Y03435D01*
X032362Y034353D01*
X032435Y034384D01*
X032497Y034432D01*
X032546Y034494D01*
X032576Y034567D01*
X032579Y034596D01*
D02*
G37*
G36*
X032233D02*
X031987D01*
X031991Y034567D01*
X032021Y034494D01*
X032069Y034432D01*
X032132Y034384D01*
X032205Y034353D01*
X032233Y03435D01*
Y034596D01*
D02*
G37*
G36*
X028943Y034653D02*
X028865D01*
X028756Y034639D01*
X028655Y034597D01*
X028569Y03453D01*
X028502Y034444D01*
X02846Y034343D01*
X028446Y034234D01*
X02846Y034126D01*
X028502Y034025D01*
X028569Y033938D01*
X028655Y033872D01*
X028756Y03383D01*
X028865Y033816D01*
X028943D01*
X029052Y03383D01*
X029153Y033872D01*
X029239Y033938D01*
X029306Y034025D01*
X029348Y034126D01*
X029362Y034234D01*
X029348Y034343D01*
X029306Y034444D01*
X029239Y03453D01*
X029153Y034597D01*
X029052Y034639D01*
X028943Y034653D01*
D02*
G37*
G36*
X03172Y035248D02*
X031206D01*
Y034733D01*
X0313D01*
Y034683D01*
X031291Y034569D01*
X031284Y034522D01*
X031275Y03448D01*
X031265Y034444D01*
X031253Y034413D01*
X031241Y034389D01*
X031229Y03437D01*
X031217Y034357D01*
X031213Y034354D01*
X031157Y034281D01*
X031122Y034196D01*
X03111Y034104D01*
X031122Y034013D01*
X031157Y033928D01*
X031213Y033855D01*
X031286Y033799D01*
X031372Y033763D01*
X031463Y033751D01*
X031554Y033763D01*
X031639Y033799D01*
X031713Y033855D01*
X031769Y033928D01*
X031804Y034013D01*
X031816Y034104D01*
X031804Y034196D01*
X031769Y034281D01*
X031713Y034354D01*
X031708Y034357D01*
X031697Y03437D01*
X031685Y034389D01*
X031673Y034413D01*
X031661Y034444D01*
X031651Y03448D01*
X031642Y034522D01*
X031635Y034569D01*
X031626Y034683D01*
Y034733D01*
X03172D01*
Y035248D01*
D02*
G37*
G36*
X034696Y033367D02*
Y033121D01*
X034942D01*
X034938Y033149D01*
X034908Y033222D01*
X03486Y033285D01*
X034797Y033333D01*
X034724Y033363D01*
X034696Y033367D01*
D02*
G37*
G36*
X034596D02*
X034567Y033363D01*
X034494Y033333D01*
X034432Y033285D01*
X034384Y033222D01*
X034353Y033149D01*
X03435Y033121D01*
X034596D01*
Y033367D01*
D02*
G37*
G36*
X028943Y033653D02*
X028865D01*
X028756Y033639D01*
X028655Y033597D01*
X028569Y03353D01*
X028502Y033444D01*
X02846Y033343D01*
X028446Y033234D01*
X02846Y033126D01*
X028502Y033025D01*
X028569Y032938D01*
X028655Y032872D01*
X028756Y03283D01*
X028865Y032816D01*
X028943D01*
X029052Y03283D01*
X029153Y032872D01*
X029239Y032938D01*
X029306Y033025D01*
X029348Y033126D01*
X029362Y033234D01*
X029348Y033343D01*
X029306Y033444D01*
X029239Y03353D01*
X029153Y033597D01*
X029052Y033639D01*
X028943Y033653D01*
D02*
G37*
G36*
X034942Y033021D02*
X034696D01*
Y032775D01*
X034724Y032779D01*
X034797Y032809D01*
X03486Y032857D01*
X034908Y03292D01*
X034938Y032993D01*
X034942Y033021D01*
D02*
G37*
G36*
X034596D02*
X03435D01*
X034353Y032993D01*
X034384Y03292D01*
X034432Y032857D01*
X034494Y032809D01*
X034567Y032779D01*
X034596Y032775D01*
Y033021D01*
D02*
G37*
G36*
X028854Y030651D02*
X028756Y030639D01*
X028655Y030597D01*
X028569Y03053D01*
X028502Y030444D01*
X02846Y030343D01*
X028453Y030284D01*
X028854D01*
Y030651D01*
D02*
G37*
G36*
X029355Y030184D02*
X028954D01*
Y029817D01*
X029052Y02983D01*
X029153Y029872D01*
X029239Y029938D01*
X029306Y030025D01*
X029348Y030126D01*
X029355Y030184D01*
D02*
G37*
G36*
X028854D02*
X028453D01*
X02846Y030126D01*
X028502Y030025D01*
X028569Y029938D01*
X028655Y029872D01*
X028756Y02983D01*
X028854Y029817D01*
Y030184D01*
D02*
G37*
G36*
X028954Y029651D02*
Y029284D01*
X029355D01*
X029348Y029343D01*
X029306Y029444D01*
X029239Y02953D01*
X029153Y029597D01*
X029052Y029639D01*
X028954Y029651D01*
D02*
G37*
G36*
X028854D02*
X028756Y029639D01*
X028655Y029597D01*
X028569Y02953D01*
X028502Y029444D01*
X02846Y029343D01*
X028453Y029284D01*
X028854D01*
Y029651D01*
D02*
G37*
G36*
X029355Y029184D02*
X028954D01*
Y028817D01*
X029052Y02883D01*
X029153Y028872D01*
X029239Y028938D01*
X029306Y029025D01*
X029348Y029126D01*
X029355Y029184D01*
D02*
G37*
G36*
X028854D02*
X028453D01*
X02846Y029126D01*
X028502Y029025D01*
X028569Y028938D01*
X028655Y028872D01*
X028756Y02883D01*
X028854Y028817D01*
Y029184D01*
D02*
G37*
G36*
X028943Y028653D02*
X028865D01*
X028756Y028639D01*
X028655Y028597D01*
X028569Y02853D01*
X028502Y028444D01*
X02846Y028343D01*
X028446Y028234D01*
X02846Y028126D01*
X028502Y028025D01*
X028569Y027938D01*
X028655Y027872D01*
X028756Y02783D01*
X028865Y027816D01*
X028943D01*
X029052Y02783D01*
X029153Y027872D01*
X029239Y027938D01*
X029306Y028025D01*
X029348Y028126D01*
X029362Y028234D01*
X029348Y028343D01*
X029306Y028444D01*
X029239Y02853D01*
X029153Y028597D01*
X029052Y028639D01*
X028943Y028653D01*
D02*
G37*
%LPD*%
G36*
X038692Y038825D02*
X038684Y038833D01*
X038674Y038838D01*
X038663Y03884D01*
X038652Y038839D01*
X038639Y038835D01*
X038624Y038829D01*
X038609Y038819D01*
X038593Y038807D01*
X038575Y038792D01*
X038556Y038774D01*
X038478Y038866D01*
X038496Y038885D01*
X038512Y038903D01*
X038525Y03892D01*
X038535Y038936D01*
X038542Y038951D01*
X038547Y038965D01*
X038549Y038977D01*
X038548Y038989D01*
X038544Y039D01*
X038538Y03901D01*
X038692Y038825D01*
D02*
G37*
G36*
X031619Y038052D02*
X031623Y038041D01*
X031629Y038032D01*
X031637Y038025D01*
X031648Y038018D01*
X031662Y038013D01*
X031677Y038008D01*
X031696Y038005D01*
X031716Y038004D01*
X031739Y038003D01*
Y037883D01*
X031716Y037882D01*
X031696Y037881D01*
X031677Y037878D01*
X031662Y037873D01*
X031648Y037868D01*
X031637Y037861D01*
X031629Y037854D01*
X031623Y037845D01*
X031619Y037834D01*
X031618Y037823D01*
Y038063D01*
X031619Y038052D01*
D02*
G37*
G36*
X031619Y039429D02*
X031623Y039419D01*
X031629Y03941D01*
X031638Y039402D01*
X031649Y039396D01*
X031662Y03939D01*
X031678Y039386D01*
X031696Y039383D01*
X031716Y039381D01*
X031739Y039381D01*
Y039261D01*
X031619Y039263D01*
X031618Y039441D01*
X031619Y039429D01*
D02*
G37*
G36*
X035519Y039201D02*
X035523Y039212D01*
X035524Y039222D01*
X035521Y039231D01*
X035514Y039239D01*
X035504Y039246D01*
X035491Y039251D01*
X035474Y039255D01*
X035454Y039258D01*
X035431Y03926D01*
X035404Y039261D01*
X035454Y039381D01*
X035482Y039381D01*
X035531Y039386D01*
X035552Y03939D01*
X035571Y039396D01*
X035587Y039402D01*
X035601Y03941D01*
X035612Y039419D01*
X035621Y039429D01*
X035628Y03944D01*
X035519Y039201D01*
D02*
G37*
G36*
X031572Y034834D02*
X031561Y03483D01*
X031552Y034824D01*
X031545Y034816D01*
X031538Y034805D01*
X031533Y034791D01*
X031528Y034776D01*
X031525Y034758D01*
X031524Y034737D01*
X031523Y034727D01*
X031524Y034679D01*
X031533Y034558D01*
X031541Y034504D01*
X031552Y034455D01*
X031564Y034411D01*
X031579Y034372D01*
X031597Y034338D01*
X031616Y034308D01*
X031638Y034283D01*
X031288Y034283D01*
X03131Y034308D01*
X031329Y034337D01*
X031347Y034372D01*
X031362Y034411D01*
X031374Y034455D01*
X031385Y034504D01*
X031393Y034558D01*
X031402Y034679D01*
X031403Y034727D01*
X031402Y034737D01*
X031401Y034758D01*
X031398Y034776D01*
X031393Y034791D01*
X031388Y034805D01*
X031381Y034816D01*
X031374Y034824D01*
X031365Y03483D01*
X031354Y034834D01*
X031343Y034835D01*
X031583D01*
X031572Y034834D01*
D02*
G37*
%LPC*%
G36*
X045719Y036516D02*
Y03627D01*
X045965D01*
X045962Y036299D01*
X045931Y036372D01*
X045883Y036434D01*
X045821Y036483D01*
X045748Y036513D01*
X045719Y036516D01*
D02*
G37*
G36*
X045619D02*
X045591Y036513D01*
X045518Y036483D01*
X045455Y036434D01*
X045407Y036372D01*
X045377Y036299D01*
X045373Y03627D01*
X045619D01*
Y036516D01*
D02*
G37*
G36*
X044144D02*
Y03627D01*
X04439D01*
X044387Y036299D01*
X044357Y036372D01*
X044308Y036434D01*
X044246Y036483D01*
X044173Y036513D01*
X044144Y036516D01*
D02*
G37*
G36*
X044044D02*
X044016Y036513D01*
X043943Y036483D01*
X043881Y036434D01*
X043832Y036372D01*
X043802Y036299D01*
X043798Y03627D01*
X044044D01*
Y036516D01*
D02*
G37*
G36*
X04257D02*
Y03627D01*
X042816D01*
X042812Y036299D01*
X042782Y036372D01*
X042734Y036434D01*
X042671Y036483D01*
X042598Y036513D01*
X04257Y036516D01*
D02*
G37*
G36*
X04247D02*
X042441Y036513D01*
X042368Y036483D01*
X042306Y036434D01*
X042258Y036372D01*
X042227Y036299D01*
X042224Y03627D01*
X04247D01*
Y036516D01*
D02*
G37*
G36*
X045965Y03617D02*
X045719D01*
Y035924D01*
X045748Y035928D01*
X045821Y035958D01*
X045883Y036007D01*
X045931Y036069D01*
X045962Y036142D01*
X045965Y03617D01*
D02*
G37*
G36*
X045619D02*
X045373D01*
X045377Y036142D01*
X045407Y036069D01*
X045455Y036007D01*
X045518Y035958D01*
X045591Y035928D01*
X045619Y035924D01*
Y03617D01*
D02*
G37*
G36*
X04439D02*
X044144D01*
Y035924D01*
X044173Y035928D01*
X044246Y035958D01*
X044308Y036007D01*
X044357Y036069D01*
X044387Y036142D01*
X04439Y03617D01*
D02*
G37*
G36*
X044044D02*
X043798D01*
X043802Y036142D01*
X043832Y036069D01*
X043881Y036007D01*
X043943Y035958D01*
X044016Y035928D01*
X044044Y035924D01*
Y03617D01*
D02*
G37*
G36*
X042816D02*
X04257D01*
Y035924D01*
X042598Y035928D01*
X042671Y035958D01*
X042734Y036007D01*
X042782Y036069D01*
X042812Y036142D01*
X042816Y03617D01*
D02*
G37*
G36*
X04247D02*
X042224D01*
X042227Y036142D01*
X042258Y036069D01*
X042306Y036007D01*
X042368Y035958D01*
X042441Y035928D01*
X04247Y035924D01*
Y03617D01*
D02*
G37*
G36*
X047854Y035783D02*
X047453D01*
X04746Y035724D01*
X047502Y035623D01*
X047569Y035537D01*
X047655Y03547D01*
X047756Y035428D01*
X047854Y035416D01*
Y035783D01*
D02*
G37*
G36*
X044357Y034186D02*
X044265Y034174D01*
X04418Y034138D01*
X044107Y034082D01*
X044051Y034009D01*
X044016Y033924D01*
X044004Y033833D01*
X044016Y033741D01*
X044051Y033656D01*
X044107Y033583D01*
X04418Y033527D01*
X044265Y033492D01*
X044357Y03348D01*
X044448Y033492D01*
X044533Y033527D01*
X044606Y033583D01*
X044609Y033587D01*
X044622Y033598D01*
X044641Y033611D01*
X044665Y033623D01*
X044696Y033634D01*
X044732Y033645D01*
X044775Y033654D01*
X044821Y033661D01*
X044935Y03367D01*
X045258D01*
X046154Y032773D01*
X046185Y032737D01*
X046197Y03272D01*
X046208Y032704D01*
X046216Y03269D01*
X046221Y032679D01*
X046224Y03267D01*
X046225Y032664D01*
X046225Y032663D01*
Y032557D01*
X04674D01*
Y033092D01*
X046332D01*
X046329Y033093D01*
X046295Y033094D01*
X045441Y033948D01*
X045388Y033983D01*
X045325Y033996D01*
X044935D01*
X044821Y034004D01*
X044775Y034011D01*
X044732Y03402D01*
X044696Y034031D01*
X044665Y034042D01*
X044641Y034055D01*
X044622Y034067D01*
X044609Y034078D01*
X044606Y034082D01*
X044533Y034138D01*
X044448Y034174D01*
X044357Y034186D01*
D02*
G37*
G36*
X047943Y031251D02*
X047865D01*
X047756Y031237D01*
X047655Y031195D01*
X047569Y031129D01*
X047502Y031042D01*
X047494Y031022D01*
X047469Y031019D01*
X047409D01*
Y031124D01*
X046894D01*
Y030589D01*
X047409D01*
Y030693D01*
X047463D01*
X047472Y030693D01*
X047474Y030692D01*
X047502Y030623D01*
X047569Y030537D01*
X047655Y03047D01*
X047756Y030428D01*
X047865Y030414D01*
X047943D01*
X048052Y030428D01*
X048153Y03047D01*
X048239Y030537D01*
X048306Y030623D01*
X048348Y030724D01*
X048362Y030833D01*
X048348Y030941D01*
X048306Y031042D01*
X048239Y031129D01*
X048153Y031195D01*
X048052Y031237D01*
X047943Y031251D01*
D02*
G37*
G36*
Y030251D02*
X047865D01*
X047756Y030237D01*
X047655Y030195D01*
X047569Y030129D01*
X047502Y030042D01*
X0475Y030038D01*
X047474Y030035D01*
X047409D01*
Y030139D01*
X046894D01*
Y029605D01*
X047409D01*
Y029709D01*
X047461D01*
X047467Y029708D01*
X047502Y029623D01*
X047569Y029537D01*
X047655Y02947D01*
X047756Y029428D01*
X047865Y029414D01*
X047943D01*
X048052Y029428D01*
X048153Y02947D01*
X048239Y029537D01*
X048306Y029623D01*
X048348Y029724D01*
X048362Y029833D01*
X048348Y029941D01*
X048306Y030042D01*
X048239Y030129D01*
X048153Y030195D01*
X048052Y030237D01*
X047943Y030251D01*
D02*
G37*
G36*
X04257Y030217D02*
Y029971D01*
X042816D01*
X042812Y03D01*
X042782Y030073D01*
X042734Y030135D01*
X042671Y030183D01*
X042598Y030214D01*
X04257Y030217D01*
D02*
G37*
G36*
X04247D02*
X042441Y030214D01*
X042368Y030183D01*
X042306Y030135D01*
X042258Y030073D01*
X042227Y03D01*
X042224Y029971D01*
X04247D01*
Y030217D01*
D02*
G37*
G36*
X03942D02*
Y029971D01*
X039666D01*
X039662Y03D01*
X039632Y030073D01*
X039584Y030135D01*
X039521Y030183D01*
X039448Y030214D01*
X03942Y030217D01*
D02*
G37*
G36*
X03932D02*
X039292Y030214D01*
X039219Y030183D01*
X039156Y030135D01*
X039108Y030073D01*
X039078Y03D01*
X039074Y029971D01*
X03932D01*
Y030217D01*
D02*
G37*
G36*
X037845D02*
Y029971D01*
X038091D01*
X038088Y03D01*
X038057Y030073D01*
X038009Y030135D01*
X037947Y030183D01*
X037874Y030214D01*
X037845Y030217D01*
D02*
G37*
G36*
X037745D02*
X037717Y030214D01*
X037644Y030183D01*
X037581Y030135D01*
X037533Y030073D01*
X037503Y03D01*
X037499Y029971D01*
X037745D01*
Y030217D01*
D02*
G37*
G36*
X03627D02*
Y029971D01*
X036516D01*
X036513Y03D01*
X036483Y030073D01*
X036434Y030135D01*
X036372Y030183D01*
X036299Y030214D01*
X03627Y030217D01*
D02*
G37*
G36*
X03617D02*
X036142Y030214D01*
X036069Y030183D01*
X036007Y030135D01*
X035958Y030073D01*
X035928Y03D01*
X035924Y029971D01*
X03617D01*
Y030217D01*
D02*
G37*
G36*
X034696D02*
Y029971D01*
X034942D01*
X034938Y03D01*
X034908Y030073D01*
X03486Y030135D01*
X034797Y030183D01*
X034724Y030214D01*
X034696Y030217D01*
D02*
G37*
G36*
X034596D02*
X034567Y030214D01*
X034494Y030183D01*
X034432Y030135D01*
X034384Y030073D01*
X034353Y03D01*
X03435Y029971D01*
X034596D01*
Y030217D01*
D02*
G37*
G36*
X039666Y029871D02*
X03942D01*
Y029625D01*
X039448Y029629D01*
X039521Y029659D01*
X039584Y029707D01*
X039632Y02977D01*
X039662Y029843D01*
X039666Y029871D01*
D02*
G37*
G36*
X03932D02*
X039074D01*
X039078Y029843D01*
X039108Y02977D01*
X039156Y029707D01*
X039219Y029659D01*
X039292Y029629D01*
X03932Y029625D01*
Y029871D01*
D02*
G37*
G36*
X038091D02*
X037845D01*
Y029625D01*
X037874Y029629D01*
X037947Y029659D01*
X038009Y029707D01*
X038057Y02977D01*
X038088Y029843D01*
X038091Y029871D01*
D02*
G37*
G36*
X037745D02*
X037499D01*
X037503Y029843D01*
X037533Y02977D01*
X037581Y029707D01*
X037644Y029659D01*
X037717Y029629D01*
X037745Y029625D01*
Y029871D01*
D02*
G37*
G36*
X036516D02*
X03627D01*
Y029625D01*
X036299Y029629D01*
X036372Y029659D01*
X036434Y029707D01*
X036483Y02977D01*
X036513Y029843D01*
X036516Y029871D01*
D02*
G37*
G36*
X03617D02*
X035924D01*
X035928Y029843D01*
X035958Y02977D01*
X036007Y029707D01*
X036069Y029659D01*
X036142Y029629D01*
X03617Y029625D01*
Y029871D01*
D02*
G37*
G36*
X034942D02*
X034696D01*
Y029625D01*
X034724Y029629D01*
X034797Y029659D01*
X03486Y029707D01*
X034908Y02977D01*
X034938Y029843D01*
X034942Y029871D01*
D02*
G37*
G36*
X034596D02*
X03435D01*
X034353Y029843D01*
X034384Y02977D01*
X034394Y029757D01*
X034369Y029706D01*
X033688D01*
Y02911D01*
X0336D01*
Y029204D01*
X033066D01*
Y028689D01*
X0336D01*
Y028784D01*
X033778D01*
X03384Y028796D01*
X033893Y028832D01*
X033918Y028856D01*
X034538D01*
Y029593D01*
X034588Y029626D01*
X034596Y029625D01*
Y029871D01*
D02*
G37*
G36*
X035113Y02971D02*
X035002Y029696D01*
X034898Y029653D01*
X034809Y029585D01*
X034741Y029496D01*
X034699Y029392D01*
X034684Y029281D01*
X034699Y029171D01*
X034741Y029067D01*
X034809Y028978D01*
X034898Y02891D01*
X035002Y028867D01*
X035113Y028853D01*
X035224Y028867D01*
X035327Y02891D01*
X035416Y028978D01*
X035421Y028986D01*
X035444Y029006D01*
X035475Y029027D01*
X035512Y029047D01*
X035556Y029065D01*
X035606Y029081D01*
X035662Y029095D01*
X035724Y029105D01*
X035872Y029118D01*
X035893Y029118D01*
X040879D01*
X04101Y029113D01*
X041078Y029105D01*
X041141Y029095D01*
X041198Y029081D01*
X041248Y029065D01*
X041292Y029047D01*
X041329Y029027D01*
X04136Y029006D01*
X041383Y028986D01*
X041388Y028978D01*
X041477Y02891D01*
X04158Y028867D01*
X041691Y028853D01*
X041802Y028867D01*
X041906Y02891D01*
X041994Y028978D01*
X042063Y029067D01*
X042105Y029171D01*
X04212Y029281D01*
X042105Y029392D01*
X042063Y029496D01*
X041994Y029585D01*
X041906Y029653D01*
X041802Y029696D01*
X041691Y02971D01*
X04158Y029696D01*
X041477Y029653D01*
X041388Y029585D01*
X041383Y029577D01*
X04136Y029557D01*
X041329Y029536D01*
X041292Y029516D01*
X041248Y029498D01*
X041198Y029482D01*
X041141Y029468D01*
X04108Y029458D01*
X040932Y029445D01*
X040911Y029445D01*
X035925D01*
X035794Y02945D01*
X035725Y029458D01*
X035662Y029468D01*
X035606Y029482D01*
X035556Y029498D01*
X035512Y029516D01*
X035475Y029536D01*
X035444Y029557D01*
X035421Y029577D01*
X035416Y029585D01*
X035327Y029653D01*
X035224Y029696D01*
X035113Y02971D01*
D02*
G37*
G36*
X042816Y029871D02*
X042224D01*
X042227Y029843D01*
X042258Y02977D01*
X042268Y029757D01*
X042266Y029706D01*
X042266Y029706D01*
X042266Y029706D01*
Y028856D01*
X042886D01*
X042911Y028832D01*
X042964Y028796D01*
X043026Y028784D01*
X043204D01*
Y028689D01*
X043738D01*
Y029204D01*
X043204D01*
Y02911D01*
X043116D01*
Y029706D01*
X042796D01*
X042771Y029757D01*
X042782Y02977D01*
X042812Y029843D01*
X042816Y029871D01*
D02*
G37*
G36*
X041782Y028642D02*
Y028396D01*
X042028D01*
X042025Y028425D01*
X041994Y028498D01*
X041946Y02856D01*
X041884Y028609D01*
X041811Y028639D01*
X041782Y028642D01*
D02*
G37*
G36*
X041682D02*
X041654Y028639D01*
X041581Y028609D01*
X041518Y02856D01*
X04147Y028498D01*
X04144Y028425D01*
X041436Y028396D01*
X041682D01*
Y028642D01*
D02*
G37*
G36*
X040207D02*
Y028396D01*
X040453D01*
X04045Y028425D01*
X04042Y028498D01*
X040371Y02856D01*
X040309Y028609D01*
X040236Y028639D01*
X040207Y028642D01*
D02*
G37*
G36*
X040107D02*
X040079Y028639D01*
X040006Y028609D01*
X039944Y02856D01*
X039895Y028498D01*
X039865Y028425D01*
X039861Y028396D01*
X040107D01*
Y028642D01*
D02*
G37*
G36*
X035483D02*
Y028396D01*
X035729D01*
X035725Y028425D01*
X035695Y028498D01*
X035647Y02856D01*
X035584Y028609D01*
X035511Y028639D01*
X035483Y028642D01*
D02*
G37*
G36*
X035383D02*
X035355Y028639D01*
X035282Y028609D01*
X035219Y02856D01*
X035171Y028498D01*
X035141Y028425D01*
X035137Y028396D01*
X035383D01*
Y028642D01*
D02*
G37*
G36*
X047943Y028653D02*
X047865D01*
X047756Y028639D01*
X047655Y028597D01*
X047569Y02853D01*
X047502Y028444D01*
X047469Y028362D01*
X047462Y028362D01*
X047409D01*
Y028466D01*
X046894D01*
Y027931D01*
X047409D01*
Y028036D01*
X047476D01*
X047486Y028035D01*
X047499Y028033D01*
X047502Y028025D01*
X047569Y027938D01*
X047655Y027872D01*
X047756Y02783D01*
X047865Y027816D01*
X047943D01*
X048052Y02783D01*
X048153Y027872D01*
X048239Y027938D01*
X048306Y028025D01*
X048348Y028126D01*
X048362Y028234D01*
X048348Y028343D01*
X048306Y028444D01*
X048239Y02853D01*
X048153Y028597D01*
X048052Y028639D01*
X047943Y028653D01*
D02*
G37*
G36*
X042028Y028296D02*
X041782D01*
Y02805D01*
X041811Y028054D01*
X041884Y028084D01*
X041946Y028132D01*
X041994Y028195D01*
X042025Y028268D01*
X042028Y028296D01*
D02*
G37*
G36*
X041682D02*
X041436D01*
X04144Y028268D01*
X04147Y028195D01*
X041518Y028132D01*
X041581Y028084D01*
X041654Y028054D01*
X041682Y02805D01*
Y028296D01*
D02*
G37*
G36*
X040453D02*
X040207D01*
Y02805D01*
X040236Y028054D01*
X040309Y028084D01*
X040371Y028132D01*
X04042Y028195D01*
X04045Y028268D01*
X040453Y028296D01*
D02*
G37*
G36*
X040107D02*
X039861D01*
X039865Y028268D01*
X039895Y028195D01*
X039944Y028132D01*
X040006Y028084D01*
X040079Y028054D01*
X040107Y02805D01*
Y028296D01*
D02*
G37*
G36*
X035729D02*
X035483D01*
Y02805D01*
X035511Y028054D01*
X035584Y028084D01*
X035647Y028132D01*
X035695Y028195D01*
X035725Y028268D01*
X035729Y028296D01*
D02*
G37*
G36*
X035383D02*
X035137D01*
X035141Y028268D01*
X035171Y028195D01*
X035219Y028132D01*
X035282Y028084D01*
X035355Y028054D01*
X035383Y02805D01*
Y028296D01*
D02*
G37*
G36*
X047943Y027653D02*
X047865D01*
X047756Y027639D01*
X047655Y027597D01*
X047569Y02753D01*
X047502Y027444D01*
X047475Y027379D01*
X047472Y027378D01*
X047463Y027378D01*
X047409D01*
Y027482D01*
X046894D01*
Y026947D01*
X047409D01*
Y027051D01*
X047471D01*
X04748Y027051D01*
X047492Y027049D01*
X047502Y027025D01*
X047569Y026938D01*
X047655Y026872D01*
X047756Y02683D01*
X047865Y026816D01*
X047943D01*
X048052Y02683D01*
X048153Y026872D01*
X048239Y026938D01*
X048306Y027025D01*
X048348Y027126D01*
X048362Y027234D01*
X048348Y027343D01*
X048306Y027444D01*
X048239Y02753D01*
X048153Y027597D01*
X048052Y027639D01*
X047943Y027653D01*
D02*
G37*
G36*
X041605Y027372D02*
X041494Y027357D01*
X04139Y027314D01*
X041302Y027246D01*
X041296Y027239D01*
X041274Y027219D01*
X041243Y027197D01*
X041205Y027177D01*
X041162Y027159D01*
X041111Y027143D01*
X041055Y02713D01*
X040993Y027119D01*
X040846Y027106D01*
X040825Y027106D01*
X035925D01*
X035794Y027111D01*
X035725Y027119D01*
X035662Y02713D01*
X035606Y027143D01*
X035556Y027159D01*
X035512Y027177D01*
X035475Y027197D01*
X035444Y027219D01*
X035421Y027239D01*
X035416Y027246D01*
X035327Y027314D01*
X035224Y027357D01*
X035113Y027372D01*
X035002Y027357D01*
X034898Y027314D01*
X034809Y027246D01*
X034741Y027157D01*
X034699Y027054D01*
X034684Y026943D01*
X034699Y026832D01*
X034741Y026729D01*
X034809Y02664D01*
X034898Y026572D01*
X035002Y026529D01*
X035113Y026514D01*
X035224Y026529D01*
X035327Y026572D01*
X035416Y02664D01*
X035421Y026647D01*
X035444Y026667D01*
X035475Y026689D01*
X035512Y026709D01*
X035556Y026727D01*
X035606Y026743D01*
X035662Y026756D01*
X035724Y026767D01*
X035872Y026779D01*
X035893Y02678D01*
X040792D01*
X040924Y026774D01*
X040992Y026767D01*
X041055Y026756D01*
X041111Y026743D01*
X041162Y026727D01*
X041205Y026709D01*
X041243Y026689D01*
X041274Y026667D01*
X041296Y026647D01*
X041302Y02664D01*
X04139Y026572D01*
X041494Y026529D01*
X041605Y026514D01*
X041716Y026529D01*
X041819Y026572D01*
X041908Y02664D01*
X041976Y026729D01*
X042019Y026832D01*
X042033Y026943D01*
X042019Y027054D01*
X041976Y027157D01*
X041908Y027246D01*
X041819Y027314D01*
X041716Y027357D01*
X041605Y027372D01*
D02*
G37*
G36*
X047943Y026653D02*
X047865D01*
X047756Y026639D01*
X047655Y026597D01*
X047569Y02653D01*
X047502Y026444D01*
X047484Y026399D01*
X047484Y026399D01*
X047484Y026399D01*
X047482Y026395D01*
X047474Y026394D01*
X047465Y026393D01*
X047409D01*
Y026596D01*
X046894D01*
Y026061D01*
X047305D01*
X047309Y026061D01*
X047313Y026061D01*
X047316D01*
X047318Y026061D01*
X047319Y026061D01*
X047409D01*
Y026067D01*
X047466D01*
X047475Y026067D01*
X047485Y026065D01*
X047502Y026025D01*
X047569Y025938D01*
X047655Y025872D01*
X047756Y02583D01*
X047865Y025816D01*
X047943D01*
X048052Y02583D01*
X048153Y025872D01*
X048239Y025938D01*
X048306Y026025D01*
X048348Y026126D01*
X048362Y026234D01*
X048348Y026343D01*
X048306Y026444D01*
X048239Y02653D01*
X048153Y026597D01*
X048052Y026639D01*
X047943Y026653D01*
D02*
G37*
G36*
Y024653D02*
X047865D01*
X047756Y024639D01*
X047655Y024597D01*
X047569Y02453D01*
X047502Y024444D01*
X04746Y024343D01*
X047446Y024234D01*
X04746Y024126D01*
X047502Y024025D01*
X047569Y023938D01*
X047655Y023872D01*
X047756Y02383D01*
X047865Y023816D01*
X047943D01*
X048052Y02383D01*
X048153Y023872D01*
X048239Y023938D01*
X048306Y024025D01*
X048348Y024126D01*
X048362Y024234D01*
X048348Y024343D01*
X048306Y024444D01*
X048239Y02453D01*
X048153Y024597D01*
X048052Y024639D01*
X047943Y024653D01*
D02*
G37*
G36*
Y023653D02*
X047865D01*
X047756Y023639D01*
X047655Y023597D01*
X047569Y02353D01*
X047502Y023444D01*
X04746Y023343D01*
X047446Y023234D01*
X04746Y023126D01*
X047502Y023025D01*
X047569Y022938D01*
X047655Y022872D01*
X047756Y02283D01*
X047865Y022816D01*
X047943D01*
X048052Y02283D01*
X048153Y022872D01*
X048239Y022938D01*
X048306Y023025D01*
X048348Y023126D01*
X048362Y023234D01*
X048348Y023343D01*
X048306Y023444D01*
X048239Y02353D01*
X048153Y023597D01*
X048052Y023639D01*
X047943Y023653D01*
D02*
G37*
G36*
Y022653D02*
X047865D01*
X047756Y022639D01*
X047655Y022597D01*
X047569Y02253D01*
X047502Y022444D01*
X04746Y022343D01*
X047446Y022234D01*
X04746Y022126D01*
X047502Y022025D01*
X047569Y021938D01*
X047655Y021872D01*
X047756Y02183D01*
X047865Y021816D01*
X047943D01*
X048052Y02183D01*
X048153Y021872D01*
X048239Y021938D01*
X048306Y022025D01*
X048348Y022126D01*
X048362Y022234D01*
X048348Y022343D01*
X048306Y022444D01*
X048239Y02253D01*
X048153Y022597D01*
X048052Y022639D01*
X047943Y022653D01*
D02*
G37*
G36*
X048358Y021649D02*
X04745D01*
Y020819D01*
X048358D01*
Y021649D01*
D02*
G37*
%LPD*%
G36*
X04456Y033986D02*
X04459Y033966D01*
X044624Y033949D01*
X044664Y033934D01*
X044708Y033921D01*
X044756Y033911D01*
X04481Y033903D01*
X044931Y033894D01*
X044999Y033893D01*
Y033773D01*
X044931Y033772D01*
X04481Y033762D01*
X044756Y033754D01*
X044708Y033744D01*
X044664Y033731D01*
X044624Y033716D01*
X04459Y033699D01*
X04456Y03368D01*
X044535Y033658D01*
Y034008D01*
X04456Y033986D01*
D02*
G37*
G36*
X046244Y032999D02*
X046248Y032997D01*
X046253Y032996D01*
X04626Y032995D01*
X046268Y032993D01*
X046287Y032992D01*
X046326Y032991D01*
X046328Y032662D01*
X046326Y032679D01*
X046322Y032697D01*
X046316Y032716D01*
X046307Y032736D01*
X046295Y032757D01*
X046281Y032778D01*
X046265Y032801D01*
X046223Y032849D01*
X046199Y032874D01*
X046242Y033001D01*
X046244Y032999D01*
D02*
G37*
G36*
X047567Y030737D02*
X047567Y030748D01*
X047563Y030758D01*
X047557Y030767D01*
X047548Y030775D01*
X047536Y030781D01*
X047521Y030787D01*
X047503Y030791D01*
X047483Y030794D01*
X047459Y030796D01*
X047433Y030796D01*
X047442Y030916D01*
X047469Y030917D01*
X047514Y030922D01*
X047532Y030926D01*
X047548Y030931D01*
X047561Y030938D01*
X047572Y030945D01*
X047579Y030954D01*
X047584Y030964D01*
X047587Y030976D01*
X047567Y030737D01*
D02*
G37*
G36*
X047308Y030965D02*
X047312Y030955D01*
X047318Y030946D01*
X047326Y030938D01*
X047337Y030931D01*
X047351Y030926D01*
X047366Y030922D01*
X047385Y030919D01*
X047405Y030917D01*
X047428Y030916D01*
Y030796D01*
X047405Y030796D01*
X047385Y030794D01*
X047366Y030791D01*
X047351Y030787D01*
X047337Y030781D01*
X047326Y030775D01*
X047318Y030767D01*
X047312Y030758D01*
X047308Y030748D01*
X047307Y030736D01*
Y030976D01*
X047308Y030965D01*
D02*
G37*
G36*
X047562Y029752D02*
X047562Y029764D01*
X04756Y029774D01*
X047554Y029783D01*
X047545Y029791D01*
X047534Y029797D01*
X047519Y029802D01*
X047502Y029807D01*
X047481Y02981D01*
X047458Y029811D01*
X047431Y029812D01*
X047447Y029932D01*
X047474Y029933D01*
X047519Y029937D01*
X047538Y029942D01*
X047554Y029947D01*
X047567Y029953D01*
X047578Y029961D01*
X047587Y02997D01*
X047592Y02998D01*
X047595Y029991D01*
X047562Y029752D01*
D02*
G37*
G36*
X047308Y029981D02*
X047312Y02997D01*
X047318Y029961D01*
X047326Y029954D01*
X047337Y029947D01*
X047351Y029942D01*
X047366Y029937D01*
X047385Y029934D01*
X047405Y029933D01*
X047428Y029932D01*
Y029812D01*
X047405Y029811D01*
X047385Y02981D01*
X047366Y029807D01*
X047351Y029802D01*
X047337Y029797D01*
X047326Y02979D01*
X047318Y029783D01*
X047312Y029774D01*
X047308Y029763D01*
X047307Y029752D01*
Y029992D01*
X047308Y029981D01*
D02*
G37*
G36*
X033499Y029055D02*
X033503Y029045D01*
X033509Y029036D01*
X033517Y029028D01*
X033528Y029022D01*
X033542Y029016D01*
X033557Y029012D01*
X033576Y029009D01*
X033596Y029007D01*
X033619Y029007D01*
Y028887D01*
X033596Y028886D01*
X033576Y028884D01*
X033557Y028881D01*
X033542Y028877D01*
X033528Y028872D01*
X033517Y028865D01*
X033509Y028857D01*
X033503Y028848D01*
X033499Y028838D01*
X033498Y028827D01*
Y029067D01*
X033499Y029055D01*
D02*
G37*
G36*
X041459Y029054D02*
X041424Y029086D01*
X041382Y029114D01*
X041336Y029139D01*
X041283Y029161D01*
X041225Y02918D01*
X041162Y029195D01*
X041093Y029206D01*
X041018Y029215D01*
X040852Y029221D01*
Y029341D01*
X040938Y029343D01*
X041093Y029357D01*
X041162Y029368D01*
X041225Y029383D01*
X041283Y029402D01*
X041336Y029424D01*
X041382Y029449D01*
X041424Y029477D01*
X041459Y029509D01*
Y029054D01*
D02*
G37*
G36*
X03538Y029477D02*
X035422Y029449D01*
X035468Y029424D01*
X035521Y029402D01*
X035579Y029383D01*
X035642Y029368D01*
X035711Y029357D01*
X035786Y029348D01*
X035952Y029341D01*
X035952Y029221D01*
X035866Y02922D01*
X035711Y029206D01*
X035642Y029195D01*
X035579Y02918D01*
X035521Y029161D01*
X035468Y029139D01*
X035422Y029114D01*
X03538Y029086D01*
X035345Y029054D01*
X035345Y029509D01*
X03538Y029477D01*
D02*
G37*
G36*
X043305Y028827D02*
X043304Y028838D01*
X0433Y028848D01*
X043294Y028857D01*
X043286Y028865D01*
X043275Y028872D01*
X043262Y028877D01*
X043246Y028881D01*
X043228Y028884D01*
X043208Y028886D01*
X043185Y028887D01*
Y029007D01*
X043208Y029007D01*
X043228Y029009D01*
X043246Y029012D01*
X043262Y029016D01*
X043275Y029022D01*
X043286Y029028D01*
X043294Y029036D01*
X0433Y029045D01*
X043304Y029055D01*
X043305Y029067D01*
Y028827D01*
D02*
G37*
G36*
X047593Y028079D02*
X04759Y028091D01*
X047585Y028101D01*
X047577Y02811D01*
X047566Y028117D01*
X047552Y028124D01*
X047536Y028129D01*
X047518Y028133D01*
X047496Y028136D01*
X047472Y028138D01*
X047446Y028139D01*
X047432Y028259D01*
X047458Y028259D01*
X047481Y028261D01*
X047502Y028264D01*
X04752Y028268D01*
X047534Y028274D01*
X047546Y02828D01*
X047555Y028288D01*
X047561Y028297D01*
X047564Y028307D01*
X047563Y028318D01*
X047593Y028079D01*
D02*
G37*
G36*
X047308Y028307D02*
X047312Y028297D01*
X047318Y028288D01*
X047326Y02828D01*
X047337Y028274D01*
X047351Y028268D01*
X047366Y028264D01*
X047385Y028261D01*
X047405Y028259D01*
X047428Y028259D01*
Y028139D01*
X047405Y028138D01*
X047385Y028136D01*
X047366Y028133D01*
X047351Y028129D01*
X047337Y028124D01*
X047326Y028117D01*
X047318Y028109D01*
X047312Y0281D01*
X047308Y02809D01*
X047307Y028079D01*
Y028319D01*
X047308Y028307D01*
D02*
G37*
G36*
X047585Y027095D02*
X047582Y027106D01*
X047577Y027117D01*
X04757Y027125D01*
X04756Y027133D01*
X047547Y02714D01*
X047531Y027145D01*
X047512Y027149D01*
X047491Y027152D01*
X047467Y027154D01*
X047441Y027155D01*
X047433Y027275D01*
X04746Y027275D01*
X047483Y027277D01*
X047504Y02728D01*
X047522Y027284D01*
X047537Y027289D01*
X047549Y027296D01*
X047558Y027304D01*
X047564Y027313D01*
X047568Y027323D01*
X047568Y027334D01*
X047585Y027095D01*
D02*
G37*
G36*
X047308Y027323D02*
X047312Y027313D01*
X047318Y027304D01*
X047326Y027296D01*
X047337Y02729D01*
X047351Y027284D01*
X047366Y02728D01*
X047385Y027277D01*
X047405Y027275D01*
X047428Y027275D01*
Y027155D01*
X047405Y027154D01*
X047385Y027152D01*
X047366Y027149D01*
X047351Y027145D01*
X047337Y02714D01*
X047326Y027133D01*
X047318Y027125D01*
X047312Y027116D01*
X047308Y027106D01*
X047307Y027095D01*
Y027335D01*
X047308Y027323D01*
D02*
G37*
G36*
X041373Y026715D02*
X041337Y026747D01*
X041296Y026776D01*
X041249Y026801D01*
X041197Y026823D01*
X041139Y026841D01*
X041075Y026856D01*
X041006Y026868D01*
X040931Y026876D01*
X040765Y026883D01*
Y027003D01*
X040851Y027005D01*
X041006Y027018D01*
X041075Y02703D01*
X041139Y027045D01*
X041197Y027063D01*
X041249Y027085D01*
X041296Y02711D01*
X041337Y027139D01*
X041373Y02717D01*
Y026715D01*
D02*
G37*
G36*
X03538Y027139D02*
X035422Y02711D01*
X035468Y027085D01*
X035521Y027063D01*
X035579Y027045D01*
X035642Y02703D01*
X035711Y027018D01*
X035786Y02701D01*
X035952Y027003D01*
Y026883D01*
X035866Y026881D01*
X035711Y026868D01*
X035642Y026856D01*
X035579Y026841D01*
X035521Y026823D01*
X035468Y026801D01*
X035422Y026776D01*
X03538Y026747D01*
X035345Y026715D01*
Y02717D01*
X03538Y027139D01*
D02*
G37*
G36*
X047308Y026339D02*
X047312Y026329D01*
X047318Y02632D01*
X047327Y026312D01*
X047338Y026305D01*
X047351Y0263D01*
X047367Y026296D01*
X047385Y026293D01*
X047405Y026291D01*
X047428Y02629D01*
Y02617D01*
X047405Y02617D01*
X047309Y026164D01*
X047308Y026163D01*
X047307Y02635D01*
X047308Y026339D01*
D02*
G37*
G36*
X047576Y026111D02*
X047575Y026122D01*
X04757Y026132D01*
X047563Y026141D01*
X047553Y026149D01*
X047541Y026155D01*
X047525Y026161D01*
X047507Y026165D01*
X047486Y026168D01*
X047463Y02617D01*
X047436Y02617D01*
X047435Y02629D01*
X047461Y026291D01*
X047485Y026293D01*
X047506Y026296D01*
X047524Y0263D01*
X047539Y026305D01*
X047551Y026312D01*
X047561Y02632D01*
X047568Y026328D01*
X047572Y026339D01*
X047573Y02635D01*
X047576Y026111D01*
D02*
G37*
%LPC*%
G36*
X042816Y023572D02*
X04257D01*
Y023326D01*
X042598Y02333D01*
X042671Y02336D01*
X042734Y023408D01*
X042782Y023471D01*
X042812Y023544D01*
X042816Y023572D01*
D02*
G37*
G36*
X04247D02*
X042224D01*
X042227Y023544D01*
X042258Y023471D01*
X042306Y023408D01*
X042368Y02336D01*
X042441Y02333D01*
X04247Y023326D01*
Y023572D01*
D02*
G37*
G36*
X044804Y023359D02*
Y022957D01*
X045171D01*
X045159Y023055D01*
X045117Y023156D01*
X04505Y023243D01*
X044964Y023309D01*
X044863Y023351D01*
X044804Y023359D01*
D02*
G37*
G36*
X044704D02*
X044646Y023351D01*
X044545Y023309D01*
X044458Y023243D01*
X044392Y023156D01*
X04435Y023055D01*
X044337Y022957D01*
X044704D01*
Y023359D01*
D02*
G37*
G36*
X037455Y023359D02*
Y022957D01*
X037822D01*
X03781Y023055D01*
X037768Y023156D01*
X037701Y023243D01*
X037615Y023309D01*
X037514Y023351D01*
X037455Y023359D01*
D02*
G37*
G36*
X037355D02*
X037297Y023351D01*
X037196Y023309D01*
X037109Y023243D01*
X037043Y023156D01*
X037001Y023055D01*
X036988Y022957D01*
X037355D01*
Y023359D01*
D02*
G37*
G36*
X042459Y022925D02*
X042241D01*
Y022717D01*
X042459D01*
Y022925D01*
D02*
G37*
G36*
X042141D02*
X041924D01*
Y022717D01*
X042141D01*
Y022925D01*
D02*
G37*
G36*
X046199D02*
X045981D01*
Y022717D01*
X046199D01*
Y022925D01*
D02*
G37*
G36*
X045882D02*
X045664D01*
Y022717D01*
X045882D01*
Y022925D01*
D02*
G37*
G36*
X038817D02*
X0386D01*
Y022717D01*
X038817D01*
Y022925D01*
D02*
G37*
G36*
X0385D02*
X038282D01*
Y022717D01*
X0385D01*
Y022925D01*
D02*
G37*
G36*
X045171Y022857D02*
X044804D01*
Y022456D01*
X044863Y022464D01*
X044964Y022506D01*
X04505Y022572D01*
X045117Y022659D01*
X045159Y02276D01*
X045171Y022857D01*
D02*
G37*
G36*
X044704D02*
X044337D01*
X04435Y02276D01*
X044392Y022659D01*
X044458Y022572D01*
X044545Y022506D01*
X044646Y022464D01*
X044704Y022456D01*
Y022857D01*
D02*
G37*
G36*
X041497Y022857D02*
X04113D01*
Y022456D01*
X041188Y022464D01*
X041289Y022506D01*
X041376Y022572D01*
X041442Y022659D01*
X041484Y02276D01*
X041497Y022857D01*
D02*
G37*
G36*
X04103D02*
X040663D01*
X040676Y02276D01*
X040717Y022659D01*
X040784Y022572D01*
X040871Y022506D01*
X040971Y022464D01*
X04103Y022456D01*
Y022857D01*
D02*
G37*
G36*
X037822D02*
X037455D01*
Y022456D01*
X037514Y022464D01*
X037615Y022506D01*
X037701Y022572D01*
X037768Y022659D01*
X03781Y02276D01*
X037822Y022857D01*
D02*
G37*
G36*
X037355D02*
X036988D01*
X037001Y02276D01*
X037043Y022659D01*
X037109Y022572D01*
X037196Y022506D01*
X037297Y022464D01*
X037355Y022456D01*
Y022857D01*
D02*
G37*
G36*
X046199Y022617D02*
X045981D01*
Y02241D01*
X046199D01*
Y022617D01*
D02*
G37*
G36*
X045882D02*
X045664D01*
Y02241D01*
X045882D01*
Y022617D01*
D02*
G37*
G36*
X042459Y022617D02*
X042241D01*
Y02241D01*
X042459D01*
Y022617D01*
D02*
G37*
G36*
X042141D02*
X041924D01*
Y02241D01*
X042141D01*
Y022617D01*
D02*
G37*
G36*
X038817Y022617D02*
X0386D01*
Y02241D01*
X038817D01*
Y022617D01*
D02*
G37*
G36*
X0385D02*
X038282D01*
Y02241D01*
X0385D01*
Y022617D01*
D02*
G37*
G36*
X044044Y020768D02*
X044016Y020765D01*
X043943Y020734D01*
X043881Y020686D01*
X043832Y020624D01*
X043802Y020551D01*
X043798Y020522D01*
X044044D01*
Y020768D01*
D02*
G37*
G36*
X044804Y0208D02*
Y020398D01*
X045171D01*
X045159Y020496D01*
X045117Y020597D01*
X04505Y020684D01*
X044964Y02075D01*
X044863Y020792D01*
X044804Y0208D01*
D02*
G37*
G36*
X04113Y0208D02*
Y020398D01*
X041497D01*
X041484Y020496D01*
X041442Y020597D01*
X041376Y020684D01*
X041289Y02075D01*
X041188Y020792D01*
X04113Y0208D01*
D02*
G37*
G36*
X04103D02*
X040971Y020792D01*
X040871Y02075D01*
X040784Y020684D01*
X040717Y020597D01*
X040676Y020496D01*
X040663Y020398D01*
X04103D01*
Y0208D01*
D02*
G37*
G36*
X037455D02*
Y020398D01*
X037822D01*
X03781Y020496D01*
X037768Y020597D01*
X037701Y020684D01*
X037615Y02075D01*
X037514Y020792D01*
X037455Y0208D01*
D02*
G37*
G36*
X037355D02*
X037297Y020792D01*
X037196Y02075D01*
X037109Y020684D01*
X037043Y020597D01*
X037001Y020496D01*
X036988Y020398D01*
X037355D01*
Y0208D01*
D02*
G37*
G36*
X044044Y020422D02*
X043798D01*
X043802Y020394D01*
X043832Y020321D01*
X043881Y020258D01*
X043943Y02021D01*
X044016Y02018D01*
X044044Y020176D01*
Y020422D01*
D02*
G37*
G36*
X031546Y027068D02*
Y026822D01*
X031792D01*
X031788Y02685D01*
X031758Y026923D01*
X03171Y026986D01*
X031647Y027034D01*
X031574Y027064D01*
X031546Y027068D01*
D02*
G37*
G36*
X031446D02*
X031418Y027064D01*
X031345Y027034D01*
X031282Y026986D01*
X031234Y026923D01*
X031204Y02685D01*
X0312Y026822D01*
X031446D01*
Y027068D01*
D02*
G37*
G36*
X031792Y026722D02*
X031546D01*
Y026476D01*
X031574Y026479D01*
X031647Y02651D01*
X03171Y026558D01*
X031758Y02662D01*
X031788Y026693D01*
X031792Y026722D01*
D02*
G37*
G36*
X031446D02*
X0312D01*
X031204Y026693D01*
X031234Y02662D01*
X031282Y026558D01*
X031345Y02651D01*
X031418Y026479D01*
X031446Y026476D01*
Y026722D01*
D02*
G37*
G36*
X032333Y025493D02*
Y025247D01*
X032579D01*
X032576Y025275D01*
X032546Y025348D01*
X032497Y025411D01*
X032435Y025459D01*
X032362Y025489D01*
X032333Y025493D01*
D02*
G37*
G36*
X032233D02*
X032205Y025489D01*
X032132Y025459D01*
X032069Y025411D01*
X032021Y025348D01*
X031991Y025275D01*
X031987Y025247D01*
X032233D01*
Y025493D01*
D02*
G37*
G36*
X032579Y025147D02*
X032333D01*
Y024901D01*
X032362Y024905D01*
X032435Y024935D01*
X032497Y024983D01*
X032546Y025046D01*
X032576Y025119D01*
X032579Y025147D01*
D02*
G37*
G36*
X032233D02*
X031987D01*
X031991Y025119D01*
X032021Y025046D01*
X032069Y024983D01*
X032132Y024935D01*
X032205Y024905D01*
X032233Y024901D01*
Y025147D01*
D02*
G37*
G36*
X033781Y023359D02*
Y022957D01*
X034148D01*
X034135Y023055D01*
X034093Y023156D01*
X034027Y023243D01*
X03394Y023309D01*
X033839Y023351D01*
X033781Y023359D01*
D02*
G37*
G36*
X033681D02*
X033622Y023351D01*
X033521Y023309D01*
X033435Y023243D01*
X033368Y023156D01*
X033326Y023055D01*
X033314Y022957D01*
X033681D01*
Y023359D01*
D02*
G37*
G36*
X034858Y022925D02*
X034641D01*
Y022717D01*
X034858D01*
Y022925D01*
D02*
G37*
G36*
X034148Y022857D02*
X033781D01*
Y022456D01*
X033839Y022464D01*
X03394Y022506D01*
X034027Y022572D01*
X034093Y022659D01*
X034135Y02276D01*
X034148Y022857D01*
D02*
G37*
G36*
X033681D02*
X033314D01*
X033326Y02276D01*
X033368Y022659D01*
X033435Y022572D01*
X033521Y022506D01*
X033622Y022464D01*
X033681Y022456D01*
Y022857D01*
D02*
G37*
G36*
X035175Y022617D02*
X034958D01*
Y02241D01*
X035175D01*
Y022617D01*
D02*
G37*
G36*
X034858D02*
X034641D01*
Y02241D01*
X034858D01*
Y022617D01*
D02*
G37*
G36*
X033908Y022343D02*
Y022097D01*
X034154D01*
X034151Y022126D01*
X03412Y022199D01*
X034072Y022261D01*
X03401Y022309D01*
X033937Y02234D01*
X033908Y022343D01*
D02*
G37*
G36*
X033808D02*
X03378Y02234D01*
X033707Y022309D01*
X033644Y022261D01*
X033596Y022199D01*
X033566Y022126D01*
X033562Y022097D01*
X033808D01*
Y022343D01*
D02*
G37*
G36*
X034154Y021997D02*
X033908D01*
Y021751D01*
X033937Y021755D01*
X03401Y021785D01*
X034072Y021833D01*
X03412Y021896D01*
X034151Y021969D01*
X034154Y021997D01*
D02*
G37*
G36*
X033808D02*
X033562D01*
X033566Y021969D01*
X033596Y021896D01*
X033644Y021833D01*
X033707Y021785D01*
X03378Y021755D01*
X033808Y021751D01*
Y021997D01*
D02*
G37*
G36*
X033021Y020768D02*
X032993Y020765D01*
X03292Y020734D01*
X032857Y020686D01*
X032809Y020624D01*
X032779Y020551D01*
X032775Y020522D01*
X033021D01*
Y020768D01*
D02*
G37*
G36*
X029971D02*
Y020522D01*
X030217D01*
X030214Y020551D01*
X030183Y020624D01*
X030135Y020686D01*
X030073Y020734D01*
X03Y020765D01*
X029971Y020768D01*
D02*
G37*
G36*
X029871D02*
X029843Y020765D01*
X02977Y020734D01*
X029707Y020686D01*
X029659Y020624D01*
X029629Y020551D01*
X029625Y020522D01*
X029871D01*
Y020768D01*
D02*
G37*
G36*
X033781Y0208D02*
Y020398D01*
X034148D01*
X034135Y020496D01*
X034093Y020597D01*
X034027Y020684D01*
X03394Y02075D01*
X033839Y020792D01*
X033781Y0208D01*
D02*
G37*
G36*
X033021Y020422D02*
X032775D01*
X032779Y020394D01*
X032809Y020321D01*
X032857Y020258D01*
X03292Y02021D01*
X032993Y02018D01*
X033021Y020176D01*
Y020422D01*
D02*
G37*
G36*
X030217D02*
X029971D01*
Y020176D01*
X03Y02018D01*
X030073Y02021D01*
X030135Y020258D01*
X030183Y020321D01*
X030214Y020394D01*
X030217Y020422D01*
D02*
G37*
G36*
X029871D02*
X029625D01*
X029629Y020394D01*
X029659Y020321D01*
X029707Y020258D01*
X02977Y02021D01*
X029843Y02018D01*
X029871Y020176D01*
Y020422D01*
D02*
G37*
%LPD*%
D17*
X045932Y021998D02*
D03*
Y022667D02*
D03*
X034908Y021998D02*
D03*
Y022667D02*
D03*
X042191Y021998D02*
D03*
Y022667D02*
D03*
X03855Y021998D02*
D03*
Y022667D02*
D03*
X043471Y027352D02*
D03*
Y026683D02*
D03*
Y029616D02*
D03*
Y028947D02*
D03*
Y03188D02*
D03*
Y031211D02*
D03*
X033333Y027254D02*
D03*
Y026585D02*
D03*
Y029616D02*
D03*
Y028947D02*
D03*
X033235Y03197D02*
D03*
Y031301D02*
D03*
X045932Y021289D02*
D03*
Y02062D02*
D03*
X042191Y021289D02*
D03*
Y02062D02*
D03*
X03855Y021289D02*
D03*
Y02062D02*
D03*
X034908Y021289D02*
D03*
Y02062D02*
D03*
D18*
X04662Y024951D02*
D03*
X046994Y024163D02*
D03*
X046246D02*
D03*
X042487Y024951D02*
D03*
X042861Y024163D02*
D03*
X042113D02*
D03*
X043865Y024951D02*
D03*
X044239Y024163D02*
D03*
X043491D02*
D03*
X045243Y024951D02*
D03*
X045617Y024163D02*
D03*
X044868D02*
D03*
D19*
X047152Y029872D02*
D03*
X046483D02*
D03*
X047152Y028199D02*
D03*
X046483D02*
D03*
X047152Y027215D02*
D03*
X046483D02*
D03*
X047152Y026329D02*
D03*
X046483D02*
D03*
X047152Y038829D02*
D03*
X046483D02*
D03*
X047152Y034793D02*
D03*
X046483D02*
D03*
X047152Y037844D02*
D03*
X046483D02*
D03*
X047152Y032825D02*
D03*
X046483D02*
D03*
X047152Y031841D02*
D03*
X046483D02*
D03*
X047152Y030856D02*
D03*
X046483D02*
D03*
X047152Y033809D02*
D03*
X046483D02*
D03*
X035754Y023671D02*
D03*
X036424D02*
D03*
X038018D02*
D03*
X038687D02*
D03*
X040183D02*
D03*
X040853D02*
D03*
X035892Y034006D02*
D03*
X036561D02*
D03*
X038057D02*
D03*
X038727D02*
D03*
X040223D02*
D03*
X040892D02*
D03*
D20*
X031463Y03499D02*
D03*
X030872D02*
D03*
X031463Y036467D02*
D03*
X030872D02*
D03*
X031463Y037943D02*
D03*
X030872D02*
D03*
X031463Y039419D02*
D03*
X030872D02*
D03*
D35*
X046732Y02522D02*
D03*
D36*
X046732Y02522D02*
G03*
X04662Y024951I000269J-000269D01*
G01*
X045595Y025304D02*
G03*
X045735Y02564I-000336J000336D01*
G01*
X044218Y025304D02*
G03*
X044357Y02564I-000336J000336D01*
G01*
X031463Y034104D02*
Y03499D01*
Y034104D02*
X031463Y034104D01*
X036387Y034622D02*
X046311D01*
X035853Y035156D02*
X036387Y034622D01*
X046311D02*
X046483Y034793D01*
X045892Y0344D02*
X046483Y033809D01*
X035498Y0344D02*
X045892D01*
X035203Y034695D02*
X035498Y0344D01*
X044357Y032982D02*
X046483Y030856D01*
X044357Y033833D02*
X045325D01*
X046333Y032825D02*
X046483D01*
X045325Y033833D02*
X046333Y032825D01*
X035203Y034695D02*
Y035581D01*
X035425Y035803D01*
X036205D01*
X036853Y035156D01*
X040673Y039715D02*
X045597D01*
X040358Y0394D02*
X040673Y039715D01*
X045597D02*
X046483Y038829D01*
X042683Y026329D02*
X043668D01*
X046483Y029144D01*
X043491Y025561D02*
X046128Y028199D01*
X046483Y029144D02*
Y029872D01*
X040358Y035661D02*
Y0394D01*
X039853Y035156D02*
X040358Y035661D01*
X046732Y02522D02*
X047152Y02564D01*
X046732Y02522D02*
X046732Y02522D01*
X045243Y024951D02*
X045595Y025304D01*
X043865Y024951D02*
X044218Y025304D01*
X042487Y025148D02*
X042979Y02564D01*
X042487Y024951D02*
Y025148D01*
X044868Y0256D02*
X046483Y027215D01*
X044868Y024163D02*
Y0256D01*
X042113Y025758D02*
X042683Y026329D01*
X042113Y024163D02*
Y025758D01*
X035687Y039321D02*
X035853Y039156D01*
X031561Y039321D02*
X035687D01*
X031463Y039419D02*
X031561Y039321D01*
X037164Y036467D02*
X039853Y039156D01*
X031463Y036467D02*
X037164D01*
X03764Y037943D02*
X038853Y039156D01*
X031463Y037943D02*
X03764D01*
X035113Y026943D02*
X041605D01*
X035113Y029281D02*
X035113Y029281D01*
X041691D01*
X041691Y031545D02*
X041691Y031545D01*
X035113Y031545D02*
X041691D01*
X046128Y028199D02*
X046483D01*
X043491Y024163D02*
Y025561D01*
X046227Y024183D02*
X046246Y024163D01*
X046227Y024183D02*
Y025974D01*
X046483Y02623D01*
X037853Y024974D02*
X038117Y024711D01*
Y02377D02*
Y024711D01*
X038016Y039083D02*
Y03928D01*
X038732Y039995D02*
X047478D01*
X038016Y03928D02*
X038732Y039995D01*
X040853Y039156D02*
X045014D01*
X045735Y038435D01*
X046386Y036308D02*
X04814D01*
X045735Y036959D02*
X046386Y036308D01*
X045735Y036959D02*
Y038435D01*
X04814Y036308D02*
X048491Y035957D01*
Y032708D02*
Y035957D01*
X048115Y032333D02*
X048491Y032708D01*
X046975Y032333D02*
X048115D01*
X046483Y031841D02*
X046975Y032333D01*
X047152Y034793D02*
X047865D01*
X047904Y034833D01*
X040183Y02377D02*
Y024809D01*
X040018Y024974D02*
X040183Y024809D01*
X044601Y021289D02*
X045932D01*
X042983Y022907D02*
X044601Y021289D01*
X042983Y020348D02*
Y022907D01*
X040926Y021289D02*
X042191D01*
X039308Y022907D02*
X040926Y021289D01*
X039308Y020348D02*
Y022907D01*
X035634Y020348D02*
Y022907D01*
X037252Y021289D02*
X03855D01*
X035634Y022907D02*
X037252Y021289D01*
X033577D02*
X034908D01*
X031959Y022907D02*
X033577Y021289D01*
X031959Y020348D02*
Y022907D01*
X045932Y021289D02*
Y021998D01*
X042191Y021289D02*
Y021998D01*
X03855Y021289D02*
Y021998D01*
X034908Y021289D02*
Y021998D01*
X046483Y037904D02*
X046916Y038337D01*
X046483Y037844D02*
Y037904D01*
X047478Y039995D02*
X048418Y039056D01*
Y03856D02*
Y039056D01*
X048195Y038337D02*
X048418Y03856D01*
X046916Y038337D02*
X048195D01*
X042605Y026943D02*
X042865Y026683D01*
X043471D01*
X042691Y029281D02*
X043026Y028947D01*
X043471D01*
X042691Y031545D02*
X043026Y031211D01*
X043471D01*
X040164Y033947D02*
X040223Y034006D01*
X040164Y032931D02*
Y033947D01*
X040057Y032825D02*
X040164Y032931D01*
X037998Y033947D02*
X038057Y034006D01*
X037998Y032931D02*
Y033947D01*
X037892Y032825D02*
X037998Y032931D01*
X035687Y024974D02*
X035794Y024868D01*
Y023829D02*
Y024868D01*
Y023829D02*
X035853Y02377D01*
X035892Y03299D02*
Y034006D01*
X035727Y032825D02*
X035892Y03299D01*
X033235Y031301D02*
X033869D01*
X034113Y031545D01*
X033235Y028947D02*
X033778D01*
X034113Y029281D01*
X033235Y026585D02*
X033754D01*
X034113Y026943D01*
X047892Y037844D02*
X047904Y037833D01*
X047152Y037844D02*
X047892D01*
X0479Y038829D02*
X047904Y038833D01*
X047152Y038829D02*
X0479D01*
X047896Y031841D02*
X047904Y031833D01*
X047152Y031841D02*
X047896D01*
Y032825D02*
X047904Y032833D01*
X047152Y032825D02*
X047896D01*
X04788Y033809D02*
X047904Y033833D01*
X047152Y033809D02*
X04788D01*
Y030856D02*
X047904Y030833D01*
X047152Y030856D02*
X04788D01*
X047865Y029872D02*
X047904Y029833D01*
X047152Y029872D02*
X047865D01*
X047868Y028199D02*
X047904Y028234D01*
X047152Y028199D02*
X047868D01*
X047884Y027215D02*
X047904Y027234D01*
X047152Y027215D02*
X047884D01*
X0479Y02623D02*
X047904Y026234D01*
X047152Y02623D02*
X0479D01*
D37*
X028904Y032234D02*
X031235D01*
X031463Y032463D01*
X031168Y030167D02*
X031463Y030463D01*
X029971Y030167D02*
X031168D01*
X028904Y031234D02*
X029971Y030167D01*
X032498Y030451D02*
Y031234D01*
Y03012D02*
Y030451D01*
Y028089D02*
Y03012D01*
X02979Y027411D02*
X032498Y03012D01*
X02879Y027411D02*
X02979D01*
X028199Y026821D02*
X02879Y027411D01*
X028199Y020591D02*
Y026821D01*
X032494Y030451D02*
X032498D01*
X031482Y031463D02*
X032494Y030451D01*
X031463Y031463D02*
X031482D01*
X028199Y020591D02*
X029078Y019713D01*
X043668Y032923D02*
X044061Y03253D01*
X042782Y032923D02*
X043668D01*
X041994Y032136D02*
X042782Y032923D01*
X033463Y032628D02*
X033955Y032136D01*
X041601Y034006D02*
X042766Y032923D01*
X040892Y034006D02*
X041601D01*
X044061Y031545D02*
Y03253D01*
X032498Y031234D02*
Y032285D01*
X032841Y032628D01*
X033463D01*
X041796Y019713D02*
X045418D01*
X038036D02*
X041796D01*
X034D02*
X038036D01*
X03855Y020226D02*
Y02062D01*
X038036Y019713D02*
X03855Y020226D01*
X045932D02*
Y02062D01*
X045418Y019713D02*
X045932Y020226D01*
X045418Y019713D02*
X046304D01*
X042191Y020108D02*
Y02062D01*
X041796Y019713D02*
X042191Y020108D01*
X043274Y023671D02*
X043766D01*
X045144D01*
X046522D01*
X046817Y023376D01*
Y020226D02*
Y023376D01*
X046304Y019713D02*
X046817Y020226D01*
X041306Y02564D02*
X041605Y025341D01*
Y024069D02*
Y025341D01*
X039091Y02564D02*
X041306D01*
X041207Y023671D02*
X041605Y024069D01*
X036876Y02564D02*
X039091D01*
X039435Y024419D02*
Y025295D01*
X039091Y02564D02*
X039435Y025295D01*
X033431Y02564D02*
X036876D01*
X037278Y024525D02*
Y025238D01*
X036876Y02564D02*
X037278Y025238D01*
X042861Y024085D02*
Y024163D01*
Y024085D02*
X043274Y023671D01*
X043766D02*
X044239Y024144D01*
X040853Y023671D02*
X041207D01*
X032498Y026573D02*
X033431Y02564D01*
X032498Y026573D02*
Y028089D01*
X040892Y034006D02*
Y034015D01*
X036424Y023671D02*
X037278Y024525D01*
X038687Y023671D02*
X039435Y024419D01*
X043471Y027352D02*
X044061Y027943D01*
Y030207D01*
X043471Y029616D02*
X044061Y030207D01*
X043471Y03188D02*
X043727D01*
X044061Y031545D01*
Y030207D02*
Y031545D01*
X032498Y028089D02*
X033333Y027254D01*
X032498Y030451D02*
X033333Y029616D01*
X032973Y031709D02*
X033235Y03197D01*
X032964Y031709D02*
X032973D01*
X032817Y031562D02*
X032964Y031709D01*
X032817Y031553D02*
Y031562D01*
X032498Y031234D02*
X032817Y031553D01*
X046522Y023671D02*
Y023691D01*
X046994Y024163D01*
X045144Y023671D02*
X045617Y024144D01*
Y024163D01*
X044239Y024144D02*
Y024163D01*
X029078Y019713D02*
X034D01*
X034908Y02062D01*
D38*
X039125Y032136D02*
X041994D01*
X039125D02*
X039435Y032447D01*
X036975Y032136D02*
X039125D01*
X033955D02*
X036975D01*
Y032151D02*
X03727Y032447D01*
X036975Y032136D02*
Y032151D01*
X039435Y032447D02*
Y033297D01*
X038727Y034006D02*
X039435Y033297D01*
X036561Y034006D02*
X03727Y033297D01*
Y032447D02*
Y033297D01*
D39*
X031463Y03025D02*
D03*
Y03125D02*
D03*
D40*
Y03225D02*
D03*
D41*
X047904Y021234D02*
D03*
X028904Y035234D02*
D03*
Y026234D02*
D03*
D42*
X047904Y022234D02*
D03*
Y023234D02*
D03*
Y024234D02*
D03*
Y025234D02*
D03*
Y026234D02*
D03*
Y027234D02*
D03*
Y028234D02*
D03*
X028904Y034234D02*
D03*
Y033234D02*
D03*
Y032234D02*
D03*
Y031234D02*
D03*
Y030234D02*
D03*
Y029234D02*
D03*
Y028234D02*
D03*
Y021234D02*
D03*
Y022234D02*
D03*
Y023234D02*
D03*
Y024234D02*
D03*
Y025234D02*
D03*
X047904Y029833D02*
D03*
Y030833D02*
D03*
Y031833D02*
D03*
Y032833D02*
D03*
Y033833D02*
D03*
Y034833D02*
D03*
Y035833D02*
D03*
Y036833D02*
D03*
Y037833D02*
D03*
Y038833D02*
D03*
D43*
X038853Y024974D02*
D03*
X041691Y029281D02*
D03*
X035113Y029281D02*
D03*
X038892Y032825D02*
D03*
X036687Y024974D02*
D03*
X041691Y031545D02*
D03*
X035113Y031545D02*
D03*
X036727Y032825D02*
D03*
X041018Y024974D02*
D03*
X041605Y026943D02*
D03*
X035113D02*
D03*
X041057Y032825D02*
D03*
D44*
X037853Y024974D02*
D03*
X042691Y029281D02*
D03*
X034113Y029281D02*
D03*
X037892Y032825D02*
D03*
X035687Y024974D02*
D03*
X042691Y031545D02*
D03*
X034113Y031545D02*
D03*
X035727Y032825D02*
D03*
X040018Y024974D02*
D03*
X042605Y026943D02*
D03*
X034113D02*
D03*
X040057Y032825D02*
D03*
D45*
X042983Y022907D02*
D03*
X044754D02*
D03*
Y020348D02*
D03*
X042983D02*
D03*
X039308Y022907D02*
D03*
X04108D02*
D03*
Y020348D02*
D03*
X039308D02*
D03*
X035634Y022907D02*
D03*
X037405D02*
D03*
Y020348D02*
D03*
X035634D02*
D03*
X031959Y022907D02*
D03*
X033731D02*
D03*
Y020348D02*
D03*
X031959D02*
D03*
D46*
X035853Y035156D02*
D03*
D47*
X036853D02*
D03*
X037853D02*
D03*
X038853D02*
D03*
X039853D02*
D03*
X040853D02*
D03*
Y039156D02*
D03*
X039853D02*
D03*
X038853D02*
D03*
X037853D02*
D03*
X036853D02*
D03*
X035853D02*
D03*
D48*
X029002Y039715D02*
D03*
X047852Y019881D02*
D03*
X031463Y034104D02*
D03*
X044357Y032982D02*
D03*
Y033833D02*
D03*
X047152Y02564D02*
D03*
X045735D02*
D03*
X044357D02*
D03*
X042979D02*
D03*
D49*
X045669Y03622D02*
D03*
X044094D02*
D03*
Y020472D02*
D03*
X04252Y03622D02*
D03*
Y029921D02*
D03*
Y023622D02*
D03*
X041732Y028346D02*
D03*
X03937Y03622D02*
D03*
Y029921D02*
D03*
X040157Y028346D02*
D03*
X037795Y029921D02*
D03*
X03622D02*
D03*
X034646Y033071D02*
D03*
Y029921D02*
D03*
X035433Y028346D02*
D03*
X033858Y034646D02*
D03*
Y022047D02*
D03*
X033071Y020472D02*
D03*
X032283Y034646D02*
D03*
X031496Y026772D02*
D03*
X032283Y025197D02*
D03*
X029921Y03622D02*
D03*
Y020472D02*
D03*
X029134Y037795D02*
D03*
X028346Y03622D02*
D03*
M02*
