G04*
G04 #@! TF.GenerationSoftware,Altium Limited,Altium Designer,18.1.6 (161)*
G04*
G04 Layer_Color=65535*
%FSTAX24Y24*%
%MOIN*%
G70*
G01*
G75*
%ADD10C,0.0050*%
%ADD11C,0.0100*%
%ADD12C,0.0080*%
%ADD13C,0.0079*%
%ADD14C,0.0039*%
%ADD15C,0.0040*%
%ADD16C,0.0070*%
D10*
X046129Y022925D02*
G03*
X045734Y022925I-000197J-000493D01*
G01*
Y021741D02*
G03*
X046129Y021741I000197J000493D01*
G01*
X035105Y022925D02*
G03*
X03471Y022925I-000197J-000493D01*
G01*
Y021741D02*
G03*
X035105Y021741I000197J000493D01*
G01*
X042389Y022925D02*
G03*
X041994Y022925I-000197J-000493D01*
G01*
Y021741D02*
G03*
X042389Y021741I000197J000493D01*
G01*
X038747Y022925D02*
G03*
X038352Y022925I-000197J-000493D01*
G01*
Y021741D02*
G03*
X038747Y021741I000197J000493D01*
G01*
X045636Y021742D02*
X046227D01*
X045636Y022923D02*
X046227D01*
X045636Y021742D02*
Y022923D01*
X046227Y021742D02*
Y022923D01*
X045781Y022333D02*
X046082D01*
X034613Y021742D02*
X035203D01*
X034613Y022923D02*
X035203D01*
X034613Y021742D02*
Y022923D01*
X035203Y021742D02*
Y022923D01*
X034758Y022333D02*
X035058D01*
X041896Y021742D02*
X042487D01*
X041896Y022923D02*
X042487D01*
X041896Y021742D02*
Y022923D01*
X042487Y021742D02*
Y022923D01*
X042041Y022333D02*
X042341D01*
X038254Y021742D02*
X038845D01*
X038254Y022923D02*
X038845D01*
X038254Y021742D02*
Y022923D01*
X038845Y021742D02*
Y022923D01*
X0384Y022333D02*
X0387D01*
X047408Y029577D02*
Y030167D01*
X046227Y029577D02*
Y030167D01*
Y029577D02*
X047408D01*
X046227Y030167D02*
X047408D01*
Y027904D02*
Y028494D01*
X046227Y027904D02*
Y028494D01*
Y027904D02*
X047408D01*
X046227Y028494D02*
X047408D01*
Y026919D02*
Y02751D01*
X046227Y026919D02*
Y02751D01*
Y026919D02*
X047408D01*
X046227Y02751D02*
X047408D01*
Y026033D02*
Y026624D01*
X046227Y026033D02*
Y026624D01*
Y026033D02*
X047408D01*
X046227Y026624D02*
X047408D01*
Y038533D02*
Y039124D01*
X046227Y038533D02*
Y039124D01*
Y038533D02*
X047408D01*
X046227Y039124D02*
X047408D01*
Y034498D02*
Y035089D01*
X046227Y034498D02*
Y035089D01*
Y034498D02*
X047408D01*
X046227Y035089D02*
X047408D01*
Y037549D02*
Y03814D01*
X046227Y037549D02*
Y03814D01*
Y037549D02*
X047408D01*
X046227Y03814D02*
X047408D01*
Y03253D02*
Y03312D01*
X046227Y03253D02*
Y03312D01*
Y03253D02*
X047408D01*
X046227Y03312D02*
X047408D01*
Y031545D02*
Y032136D01*
X046227Y031545D02*
Y032136D01*
Y031545D02*
X047408D01*
X046227Y032136D02*
X047408D01*
Y030561D02*
Y031152D01*
X046227Y030561D02*
Y031152D01*
Y030561D02*
X047408D01*
X046227Y031152D02*
X047408D01*
Y033514D02*
Y034104D01*
X046227Y033514D02*
Y034104D01*
Y033514D02*
X047408D01*
X046227Y034104D02*
X047408D01*
X035498Y023376D02*
Y023967D01*
X03668Y023376D02*
Y023967D01*
X035498D02*
X03668D01*
X035498Y023376D02*
X03668D01*
X037762D02*
Y023967D01*
X038943Y023376D02*
Y023967D01*
X037762D02*
X038943D01*
X037762Y023376D02*
X038943D01*
X039928D02*
Y023967D01*
X041109Y023376D02*
Y023967D01*
X039928D02*
X041109D01*
X039928Y023376D02*
X041109D01*
X043176Y027608D02*
X043766D01*
X043176Y026427D02*
X043766D01*
Y027608D01*
X043176Y026427D02*
Y027608D01*
Y029872D02*
X043766D01*
X043176Y028691D02*
X043766D01*
Y029872D01*
X043176Y028691D02*
Y029872D01*
Y032136D02*
X043766D01*
X043176Y030955D02*
X043766D01*
Y032136D01*
X043176Y030955D02*
Y032136D01*
X033038Y02751D02*
X033628D01*
X033038Y026329D02*
X033628D01*
Y02751D01*
X033038Y026329D02*
Y02751D01*
Y029872D02*
X033628D01*
X033038Y028691D02*
X033628D01*
Y029872D01*
X033038Y028691D02*
Y029872D01*
X032939Y032226D02*
X03353D01*
X032939Y031045D02*
X03353D01*
Y032226D01*
X032939Y031045D02*
Y032226D01*
X035636Y033711D02*
Y034301D01*
X036817Y033711D02*
Y034301D01*
X035636D02*
X036817D01*
X035636Y033711D02*
X036817D01*
X037802D02*
Y034301D01*
X038983Y033711D02*
Y034301D01*
X037802D02*
X038983D01*
X037802Y033711D02*
X038983D01*
X039967D02*
Y034301D01*
X041148Y033711D02*
Y034301D01*
X039967D02*
X041148D01*
X039967Y033711D02*
X041148D01*
X045636Y021545D02*
X046227D01*
X045636Y020364D02*
X046227D01*
Y021545D01*
X045636Y020364D02*
Y021545D01*
X041896D02*
X042487D01*
X041896Y020364D02*
X042487D01*
Y021545D01*
X041896Y020364D02*
Y021545D01*
X038254D02*
X038845D01*
X038254Y020364D02*
X038845D01*
Y021545D01*
X038254Y020364D02*
Y021545D01*
X034613D02*
X035203D01*
X034613Y020364D02*
X035203D01*
Y021545D01*
X034613Y020364D02*
Y021545D01*
D11*
X037752Y024524D02*
G03*
X038905Y024523I000577J000446D01*
G01*
X038903Y02542D02*
G03*
X037757Y025421I-000574J-00045D01*
G01*
X041641Y028836D02*
G03*
X042787Y028835I000574J00045D01*
G01*
X042792Y029732D02*
G03*
X041639Y029733I-000577J-000446D01*
G01*
X035163Y029727D02*
G03*
X034017Y029728I-000574J-00045D01*
G01*
X034012Y028831D02*
G03*
X035165Y02883I000577J000446D01*
G01*
X038942Y03327D02*
G03*
X037796Y033272I-000574J-00045D01*
G01*
X037792Y032375D02*
G03*
X038944Y032373I000577J000446D01*
G01*
X036737Y02542D02*
G03*
X035591Y025421I-000574J-00045D01*
G01*
X035587Y024524D02*
G03*
X036739Y024523I000577J000446D01*
G01*
X041641Y0311D02*
G03*
X042787Y031098I000574J00045D01*
G01*
X042792Y031995D02*
G03*
X041639Y031997I-000577J-000446D01*
G01*
X035163Y031991D02*
G03*
X034017Y031992I-000574J-00045D01*
G01*
X034012Y031095D02*
G03*
X035165Y031094I000577J000446D01*
G01*
X036777Y03327D02*
G03*
X035631Y033272I-000574J-00045D01*
G01*
X035627Y032375D02*
G03*
X036779Y032373I000577J000446D01*
G01*
X041068Y02542D02*
G03*
X039922Y025421I-000574J-00045D01*
G01*
X039918Y024524D02*
G03*
X04107Y024523I000577J000446D01*
G01*
X041555Y026498D02*
G03*
X042701Y026496I000574J00045D01*
G01*
X042705Y027393D02*
G03*
X041553Y027394I-000577J-000446D01*
G01*
X035163Y027388D02*
G03*
X034017Y02739I-000574J-00045D01*
G01*
X034012Y026493D02*
G03*
X035165Y026491I000577J000446D01*
G01*
X041108Y03327D02*
G03*
X039961Y033272I-000574J-00045D01*
G01*
X039957Y032375D02*
G03*
X041109Y032373I000577J000446D01*
G01*
X044428Y021628D02*
G03*
X044428Y021628I-000559J0D01*
G01*
X040753Y021628D02*
G03*
X040753Y021628I-000559J0D01*
G01*
X037078D02*
G03*
X037078Y021628I-000559J0D01*
G01*
X033404Y021628D02*
G03*
X033404Y021628I-000559J0D01*
G01*
X043475Y020447D02*
X044262D01*
X042687Y020841D02*
Y022415D01*
X04505Y020841D02*
Y022415D01*
X043475Y022809D02*
X044262D01*
X0398Y020447D02*
X040588D01*
X039013Y020841D02*
Y022415D01*
X041375Y020841D02*
Y022415D01*
X0398Y022809D02*
X040588D01*
X036126Y020447D02*
X036913D01*
X035338Y020841D02*
Y022415D01*
X037701Y020841D02*
Y022415D01*
X036126Y022809D02*
X036913D01*
X032451Y020447D02*
X033239D01*
X031664Y020841D02*
Y022415D01*
X034026Y020841D02*
Y022415D01*
X032451Y022809D02*
X033239D01*
X032447Y039892D02*
X044258D01*
Y034459D02*
Y039892D01*
X032447Y034419D02*
X044258Y034419D01*
X032447Y034419D02*
Y039892D01*
D12*
X030713Y03025D02*
Y03225D01*
X032213Y03025D02*
Y03225D01*
X030713Y03285D02*
X032213D01*
X030713Y0325D02*
Y03285D01*
X030363Y0325D02*
X030713D01*
X030363Y03D02*
Y0325D01*
Y03D02*
X030713D01*
Y02965D02*
Y03D01*
Y02965D02*
X032213D01*
Y03D01*
X032563D01*
Y0325D01*
X032213D02*
X032563D01*
X032213D02*
Y03285D01*
D13*
X046896Y024833D02*
X047211D01*
Y024636D02*
Y024833D01*
X04603D02*
X046345D01*
X04603Y024636D02*
Y024833D01*
X042762D02*
X043077D01*
Y024636D02*
Y024833D01*
X041896D02*
X042211D01*
X041896Y024636D02*
Y024833D01*
X04414Y024833D02*
X044455D01*
Y024636D02*
Y024833D01*
X043274D02*
X043589D01*
X043274Y024636D02*
Y024833D01*
X045518Y024833D02*
X045833D01*
Y024636D02*
Y024833D01*
X044652D02*
X044967D01*
X044652Y024636D02*
Y024833D01*
D14*
X031718Y03484D02*
Y03514D01*
X030618Y03474D02*
X031618D01*
X030618Y03524D02*
X031618D01*
X030618Y03474D02*
Y03524D01*
X031718Y036317D02*
Y036617D01*
X030618Y036217D02*
X031618D01*
X030618Y036717D02*
X031618D01*
X030618Y036217D02*
Y036717D01*
X031718Y037793D02*
Y038093D01*
X030618Y037693D02*
X031618D01*
X030618Y038193D02*
X031618D01*
X030618Y037693D02*
Y038193D01*
X031718Y039269D02*
Y039569D01*
X030618Y039169D02*
X031618D01*
X030618Y039669D02*
X031618D01*
X030618Y039169D02*
Y039669D01*
D15*
X029396Y033219D02*
Y033518D01*
X029546D01*
X029596Y033468D01*
Y033368D01*
X029546Y033318D01*
X029396D01*
X029496D02*
X029596Y033219D01*
X029896Y033518D02*
X029696D01*
Y033219D01*
X029896D01*
X029696Y033368D02*
X029796D01*
X030196Y033468D02*
X030146Y033518D01*
X030046D01*
X029996Y033468D01*
Y033418D01*
X030046Y033368D01*
X030146D01*
X030196Y033318D01*
Y033268D01*
X030146Y033219D01*
X030046D01*
X029996Y033268D01*
X030496Y033518D02*
X030296D01*
Y033219D01*
X030496D01*
X030296Y033368D02*
X030396D01*
X030596Y033518D02*
X030796D01*
X030696D01*
Y033219D01*
X029596Y029335D02*
X029546Y029385D01*
X029446D01*
X029396Y029335D01*
Y029135D01*
X029446Y029085D01*
X029546D01*
X029596Y029135D01*
Y029235D01*
X029496D01*
X029696Y029085D02*
Y029385D01*
X029896Y029085D01*
Y029385D01*
X029996D02*
Y029085D01*
X030146D01*
X030196Y029135D01*
Y029335D01*
X030146Y029385D01*
X029996D01*
X029596Y030319D02*
X029546Y030369D01*
X029446D01*
X029396Y030319D01*
Y030119D01*
X029446Y030069D01*
X029546D01*
X029596Y030119D01*
Y030219D01*
X029496D01*
X029696Y030069D02*
Y030369D01*
X029896Y030069D01*
Y030369D01*
X029996D02*
Y030069D01*
X030146D01*
X030196Y030119D01*
Y030319D01*
X030146Y030369D01*
X029996D01*
X030774Y029431D02*
X030974D01*
X030874Y029531D02*
Y029331D01*
X031074Y029531D02*
X031124Y029581D01*
X031224D01*
X031274Y029531D01*
Y029481D01*
X031224Y029431D01*
X031174D01*
X031224D01*
X031274Y029381D01*
Y029331D01*
X031224Y029281D01*
X031124D01*
X031074Y029331D01*
X031374Y029281D02*
Y029331D01*
X031424D01*
Y029281D01*
X031374D01*
X031624Y029531D02*
X031674Y029581D01*
X031774D01*
X031824Y029531D01*
Y029481D01*
X031774Y029431D01*
X031724D01*
X031774D01*
X031824Y029381D01*
Y029331D01*
X031774Y029281D01*
X031674D01*
X031624Y029331D01*
X031924Y029581D02*
Y029381D01*
X032024Y029281D01*
X032124Y029381D01*
Y029581D01*
X029396Y034503D02*
X029496D01*
X029446D01*
Y034203D01*
X029396D01*
X029496D01*
X029796Y034503D02*
X029696D01*
X029646Y034453D01*
Y034253D01*
X029696Y034203D01*
X029796D01*
X029846Y034253D01*
Y034453D01*
X029796Y034503D01*
X029946Y034203D02*
Y034503D01*
X030096D01*
X030146Y034453D01*
Y034353D01*
X030096Y034303D01*
X029946D01*
X030046D02*
X030146Y034203D01*
X030446Y034503D02*
X030246D01*
Y034203D01*
X030446D01*
X030246Y034353D02*
X030346D01*
X030746Y034503D02*
X030546D01*
Y034353D01*
X030646D01*
X030546D01*
Y034203D01*
X029396Y035089D02*
Y035388D01*
X029596Y035089D01*
Y035388D01*
X029896Y035338D02*
X029846Y035388D01*
X029746D01*
X029696Y035338D01*
Y035139D01*
X029746Y035089D01*
X029846D01*
X029896Y035139D01*
X046325Y036663D02*
Y036863D01*
X046425Y036963D01*
X046525Y036863D01*
Y036663D01*
Y036813D01*
X046325D01*
X046625Y036963D02*
Y036763D01*
X046725Y036663D01*
X046825Y036763D01*
Y036963D01*
X046925D02*
Y036663D01*
X047075D01*
X047125Y036713D01*
Y036913D01*
X047075Y036963D01*
X046925D01*
X047225D02*
Y036663D01*
X047375D01*
X047425Y036713D01*
Y036913D01*
X047375Y036963D01*
X047225D01*
X048392Y025349D02*
Y025049D01*
X048542D01*
X048592Y025099D01*
Y025299D01*
X048542Y025349D01*
X048392D01*
X048842Y025049D02*
Y025349D01*
X048692Y025199D01*
X048892D01*
X04682Y035929D02*
X04677Y035979D01*
X04667D01*
X04662Y035929D01*
Y035729D01*
X04667Y035679D01*
X04677D01*
X04682Y035729D01*
Y035829D01*
X04672D01*
X04692Y035679D02*
Y035979D01*
X04712Y035679D01*
Y035979D01*
X04722D02*
Y035679D01*
X04737D01*
X04742Y035729D01*
Y035929D01*
X04737Y035979D01*
X04722D01*
X048392Y021412D02*
Y021112D01*
X048542D01*
X048592Y021162D01*
Y021212D01*
X048542Y021262D01*
X048392D01*
X048542D01*
X048592Y021312D01*
Y021362D01*
X048542Y021412D01*
X048392D01*
X048692Y021362D02*
X048742Y021412D01*
X048842D01*
X048892Y021362D01*
Y021162D01*
X048842Y021112D01*
X048742D01*
X048692Y021162D01*
Y021362D01*
X048392Y022396D02*
Y022096D01*
X048542D01*
X048592Y022146D01*
Y022196D01*
X048542Y022246D01*
X048392D01*
X048542D01*
X048592Y022296D01*
Y022346D01*
X048542Y022396D01*
X048392D01*
X048692Y022096D02*
X048792D01*
X048742D01*
Y022396D01*
X048692Y022346D01*
X048392Y023381D02*
Y023081D01*
X048542D01*
X048592Y023131D01*
Y023181D01*
X048542Y023231D01*
X048392D01*
X048542D01*
X048592Y023281D01*
Y023331D01*
X048542Y023381D01*
X048392D01*
X048892Y023081D02*
X048692D01*
X048892Y023281D01*
Y023331D01*
X048842Y023381D01*
X048742D01*
X048692Y023331D01*
X048392Y024365D02*
Y024065D01*
X048542D01*
X048592Y024115D01*
Y024165D01*
X048542Y024215D01*
X048392D01*
X048542D01*
X048592Y024265D01*
Y024315D01*
X048542Y024365D01*
X048392D01*
X048692Y024315D02*
X048742Y024365D01*
X048842D01*
X048892Y024315D01*
Y024265D01*
X048842Y024215D01*
X048792D01*
X048842D01*
X048892Y024165D01*
Y024115D01*
X048842Y024065D01*
X048742D01*
X048692Y024115D01*
X030971Y033073D02*
X031171D01*
X031071Y033173D02*
Y032973D01*
X031471Y033223D02*
X031271D01*
Y033073D01*
X031371Y033123D01*
X031421D01*
X031471Y033073D01*
Y032973D01*
X031421Y032923D01*
X031321D01*
X031271Y032973D01*
X031571Y033223D02*
Y033023D01*
X031671Y032923D01*
X031771Y033023D01*
Y033223D01*
X029396Y026333D02*
Y026033D01*
X029596D01*
X029696Y025983D02*
X029896D01*
X029996Y026033D02*
Y026333D01*
X030146D01*
X030196Y026283D01*
Y026183D01*
X030146Y026133D01*
X029996D01*
X030096D02*
X030196Y026033D01*
X030296D02*
X030396D01*
X030346D01*
Y026333D01*
X030296Y026283D01*
X029396Y025349D02*
Y025049D01*
X029596D01*
X029696Y024999D02*
X029896D01*
X029996Y025349D02*
Y025299D01*
X030096Y025199D01*
X030196Y025299D01*
Y025349D01*
X030096Y025199D02*
Y025049D01*
X030296D02*
X030396D01*
X030346D01*
Y025349D01*
X030296Y025299D01*
X029396Y024365D02*
Y024065D01*
X029596D01*
X029696Y024015D02*
X029896D01*
X030196Y024315D02*
X030146Y024365D01*
X030046D01*
X029996Y024315D01*
Y024115D01*
X030046Y024065D01*
X030146D01*
X030196Y024115D01*
Y024215D01*
X030096D01*
X030296Y024065D02*
X030396D01*
X030346D01*
Y024365D01*
X030296Y024315D01*
X029396Y023381D02*
Y023081D01*
X029596D01*
X029696Y023031D02*
X029896D01*
X029996Y023081D02*
Y023381D01*
X030146D01*
X030196Y023331D01*
Y023231D01*
X030146Y023181D01*
X029996D01*
X030096D02*
X030196Y023081D01*
X030496D02*
X030296D01*
X030496Y023281D01*
Y023331D01*
X030446Y023381D01*
X030346D01*
X030296Y023331D01*
X029396Y022298D02*
Y021998D01*
X029596D01*
X029696Y021948D02*
X029896D01*
X029996Y022298D02*
Y022248D01*
X030096Y022148D01*
X030196Y022248D01*
Y022298D01*
X030096Y022148D02*
Y021998D01*
X030496D02*
X030296D01*
X030496Y022198D01*
Y022248D01*
X030446Y022298D01*
X030346D01*
X030296Y022248D01*
X029396Y021314D02*
Y021014D01*
X029596D01*
X029696Y020964D02*
X029896D01*
X030196Y021264D02*
X030146Y021314D01*
X030046D01*
X029996Y021264D01*
Y021064D01*
X030046Y021014D01*
X030146D01*
X030196Y021064D01*
Y021164D01*
X030096D01*
X030496Y021014D02*
X030296D01*
X030496Y021214D01*
Y021264D01*
X030446Y021314D01*
X030346D01*
X030296Y021264D01*
X039776Y038241D02*
X039726Y038191D01*
Y038091D01*
X039776Y038041D01*
X039826D01*
X039876Y038091D01*
Y038191D01*
X039926Y038241D01*
X039976D01*
X040026Y038191D01*
Y038091D01*
X039976Y038041D01*
X040026Y038541D02*
Y038341D01*
X039826Y038541D01*
X039776D01*
X039726Y038491D01*
Y038391D01*
X039776Y038341D01*
X038792Y038241D02*
X038742Y038191D01*
Y038091D01*
X038792Y038041D01*
X038842D01*
X038892Y038091D01*
Y038191D01*
X038942Y038241D01*
X038992D01*
X039042Y038191D01*
Y038091D01*
X038992Y038041D01*
X039042Y038341D02*
Y038441D01*
Y038391D01*
X038742D01*
X038792Y038341D01*
X037709Y037749D02*
X037659Y037699D01*
Y037599D01*
X037709Y037549D01*
X037759D01*
X037809Y037599D01*
Y037699D01*
X037859Y037749D01*
X037909D01*
X037959Y037699D01*
Y037599D01*
X037909Y037549D01*
X037659Y038049D02*
Y037849D01*
X037959D01*
Y038049D01*
X037809Y037849D02*
Y037949D01*
X037709Y038349D02*
X037659Y038299D01*
Y038199D01*
X037709Y038149D01*
X037909D01*
X037959Y038199D01*
Y038299D01*
X037909Y038349D01*
X037809D01*
Y038249D01*
X037659Y038649D02*
Y038449D01*
X037809D01*
X037759Y038549D01*
Y038599D01*
X037809Y038649D01*
X037909D01*
X037959Y038599D01*
Y038499D01*
X037909Y038449D01*
X036725Y037749D02*
X036675Y037699D01*
Y037599D01*
X036725Y037549D01*
X036775D01*
X036825Y037599D01*
Y037699D01*
X036875Y037749D01*
X036925D01*
X036975Y037699D01*
Y037599D01*
X036925Y037549D01*
X036675Y038049D02*
Y037849D01*
X036975D01*
Y038049D01*
X036825Y037849D02*
Y037949D01*
X036725Y038349D02*
X036675Y038299D01*
Y038199D01*
X036725Y038149D01*
X036925D01*
X036975Y038199D01*
Y038299D01*
X036925Y038349D01*
X036825D01*
Y038249D01*
X036725Y038449D02*
X036675Y038499D01*
Y038599D01*
X036725Y038649D01*
X036925D01*
X036975Y038599D01*
Y038499D01*
X036925Y038449D01*
X036725D01*
X035741Y038143D02*
X035691Y038093D01*
Y037993D01*
X035741Y037943D01*
X035791D01*
X035841Y037993D01*
Y038093D01*
X035891Y038143D01*
X035941D01*
X035991Y038093D01*
Y037993D01*
X035941Y037943D01*
X035741Y038243D02*
X035691Y038293D01*
Y038393D01*
X035741Y038443D01*
X035941D01*
X035991Y038393D01*
Y038293D01*
X035941Y038243D01*
X035741D01*
X04076Y037749D02*
X04071Y037699D01*
Y037599D01*
X04076Y037549D01*
X04081D01*
X04086Y037599D01*
Y037699D01*
X04091Y037749D01*
X04096D01*
X04101Y037699D01*
Y037599D01*
X04096Y037549D01*
X04071Y038049D02*
Y037849D01*
X04101D01*
Y038049D01*
X04086Y037849D02*
Y037949D01*
X04076Y038349D02*
X04071Y038299D01*
Y038199D01*
X04076Y038149D01*
X04096D01*
X04101Y038199D01*
Y038299D01*
X04096Y038349D01*
X04086D01*
Y038249D01*
X04101Y038449D02*
Y038549D01*
Y038499D01*
X04071D01*
X04076Y038449D01*
Y035879D02*
X04071Y035829D01*
Y035729D01*
X04076Y035679D01*
X04081D01*
X04086Y035729D01*
Y035829D01*
X04091Y035879D01*
X04096D01*
X04101Y035829D01*
Y035729D01*
X04096Y035679D01*
X04076Y035979D02*
X04071Y036029D01*
Y036129D01*
X04076Y036179D01*
X04081D01*
X04086Y036129D01*
Y036079D01*
Y036129D01*
X04091Y036179D01*
X04096D01*
X04101Y036129D01*
Y036029D01*
X04096Y035979D01*
X039768Y035879D02*
X039718Y035829D01*
Y035729D01*
X039768Y035679D01*
X039818D01*
X039868Y035729D01*
Y035829D01*
X039918Y035879D01*
X039968D01*
X040018Y035829D01*
Y035729D01*
X039968Y035679D01*
X039718Y036179D02*
Y035979D01*
X040018D01*
Y036179D01*
X039868Y035979D02*
Y036079D01*
X039768Y036479D02*
X039718Y036429D01*
Y036329D01*
X039768Y036279D01*
X039968D01*
X040018Y036329D01*
Y036429D01*
X039968Y036479D01*
X039868D01*
Y036379D01*
X039718Y036779D02*
X039768Y036679D01*
X039868Y036579D01*
X039968D01*
X040018Y036629D01*
Y036729D01*
X039968Y036779D01*
X039918D01*
X039868Y036729D01*
Y036579D01*
X038792Y035879D02*
X038742Y035829D01*
Y035729D01*
X038792Y035679D01*
X038842D01*
X038892Y035729D01*
Y035829D01*
X038942Y035879D01*
X038992D01*
X039042Y035829D01*
Y035729D01*
X038992Y035679D01*
X038742Y036179D02*
Y035979D01*
X039042D01*
Y036179D01*
X038892Y035979D02*
Y036079D01*
X038792Y036479D02*
X038742Y036429D01*
Y036329D01*
X038792Y036279D01*
X038992D01*
X039042Y036329D01*
Y036429D01*
X038992Y036479D01*
X038892D01*
Y036379D01*
X039042Y036779D02*
Y036579D01*
X038842Y036779D01*
X038792D01*
X038742Y036729D01*
Y036629D01*
X038792Y036579D01*
X035741Y035879D02*
X035691Y035829D01*
Y035729D01*
X035741Y035679D01*
X035791D01*
X035841Y035729D01*
Y035829D01*
X035891Y035879D01*
X035941D01*
X035991Y035829D01*
Y035729D01*
X035941Y035679D01*
X035691Y036179D02*
Y035979D01*
X035991D01*
Y036179D01*
X035841Y035979D02*
Y036079D01*
X035741Y036479D02*
X035691Y036429D01*
Y036329D01*
X035741Y036279D01*
X035941D01*
X035991Y036329D01*
Y036429D01*
X035941Y036479D01*
X035841D01*
Y036379D01*
X035991Y036729D02*
X035691D01*
X035841Y036579D01*
Y036779D01*
X036762Y035879D02*
X036712Y035829D01*
Y035729D01*
X036762Y035679D01*
X036812D01*
X036862Y035729D01*
Y035829D01*
X036912Y035879D01*
X036962D01*
X037012Y035829D01*
Y035729D01*
X036962Y035679D01*
X036712Y036179D02*
Y035979D01*
X037012D01*
Y036179D01*
X036862Y035979D02*
Y036079D01*
X036762Y036479D02*
X036712Y036429D01*
Y036329D01*
X036762Y036279D01*
X036962D01*
X037012Y036329D01*
Y036429D01*
X036962Y036479D01*
X036862D01*
Y036379D01*
X036762Y036579D02*
X036712Y036629D01*
Y036729D01*
X036762Y036779D01*
X036812D01*
X036862Y036729D01*
Y036679D01*
Y036729D01*
X036912Y036779D01*
X036962D01*
X037012Y036729D01*
Y036629D01*
X036962Y036579D01*
X029396Y031845D02*
Y031645D01*
X029496Y031545D01*
X029596Y031645D01*
Y031845D01*
X029896Y031795D02*
X029846Y031845D01*
X029746D01*
X029696Y031795D01*
Y031595D01*
X029746Y031545D01*
X029846D01*
X029896Y031595D01*
X030196Y031795D02*
X030146Y031845D01*
X030046D01*
X029996Y031795D01*
Y031595D01*
X030046Y031545D01*
X030146D01*
X030196Y031595D01*
X045288Y021903D02*
X045238Y021853D01*
Y021753D01*
X045288Y021703D01*
X045488D01*
X045538Y021753D01*
Y021853D01*
X045488Y021903D01*
X045288Y022003D02*
X045238Y022053D01*
Y022153D01*
X045288Y022203D01*
X045338D01*
X045388Y022153D01*
Y022103D01*
Y022153D01*
X045438Y022203D01*
X045488D01*
X045538Y022153D01*
Y022053D01*
X045488Y022003D01*
X041548Y021942D02*
X041498Y021892D01*
Y021792D01*
X041548Y021742D01*
X041748D01*
X041798Y021792D01*
Y021892D01*
X041748Y021942D01*
X041798Y022242D02*
Y022042D01*
X041598Y022242D01*
X041548D01*
X041498Y022192D01*
Y022092D01*
X041548Y022042D01*
X037906Y021942D02*
X037856Y021892D01*
Y021792D01*
X037906Y021742D01*
X038106D01*
X038156Y021792D01*
Y021892D01*
X038106Y021942D01*
X038156Y022042D02*
Y022142D01*
Y022092D01*
X037856D01*
X037906Y022042D01*
X034256Y021903D02*
X034206Y021853D01*
Y021753D01*
X034256Y021703D01*
X034456D01*
X034506Y021753D01*
Y021853D01*
X034456Y021903D01*
X034256Y022003D02*
X034206Y022053D01*
Y022153D01*
X034256Y022203D01*
X034456D01*
X034506Y022153D01*
Y022053D01*
X034456Y022003D01*
X034256D01*
X044754Y038632D02*
Y038932D01*
X044904D01*
X044954Y038882D01*
Y038782D01*
X044904Y038732D01*
X044754D01*
X044854D02*
X044954Y038632D01*
X045254Y038882D02*
X045204Y038932D01*
X045104D01*
X045054Y038882D01*
Y038832D01*
X045104Y038782D01*
X045204D01*
X045254Y038732D01*
Y038682D01*
X045204Y038632D01*
X045104D01*
X045054Y038682D01*
X045554Y038932D02*
X045354D01*
Y038632D01*
X045554D01*
X045354Y038782D02*
X045454D01*
X045854Y038882D02*
X045804Y038932D01*
X045704D01*
X045654Y038882D01*
Y038682D01*
X045704Y038632D01*
X045804D01*
X045854Y038682D01*
Y038782D01*
X045754D01*
X046154Y038932D02*
X046054Y038882D01*
X045954Y038782D01*
Y038682D01*
X046004Y038632D01*
X046104D01*
X046154Y038682D01*
Y038732D01*
X046104Y038782D01*
X045954D01*
X044754Y037648D02*
Y037948D01*
X044904D01*
X044954Y037898D01*
Y037798D01*
X044904Y037748D01*
X044754D01*
X044854D02*
X044954Y037648D01*
X045254Y037898D02*
X045204Y037948D01*
X045104D01*
X045054Y037898D01*
Y037848D01*
X045104Y037798D01*
X045204D01*
X045254Y037748D01*
Y037698D01*
X045204Y037648D01*
X045104D01*
X045054Y037698D01*
X045554Y037948D02*
X045354D01*
Y037648D01*
X045554D01*
X045354Y037798D02*
X045454D01*
X045854Y037898D02*
X045804Y037948D01*
X045704D01*
X045654Y037898D01*
Y037698D01*
X045704Y037648D01*
X045804D01*
X045854Y037698D01*
Y037798D01*
X045754D01*
X046154Y037948D02*
X045954D01*
Y037798D01*
X046054Y037848D01*
X046104D01*
X046154Y037798D01*
Y037698D01*
X046104Y037648D01*
X046004D01*
X045954Y037698D01*
X044754Y034596D02*
Y034896D01*
X044904D01*
X044954Y034846D01*
Y034746D01*
X044904Y034696D01*
X044754D01*
X044854D02*
X044954Y034596D01*
X045254Y034846D02*
X045204Y034896D01*
X045104D01*
X045054Y034846D01*
Y034796D01*
X045104Y034746D01*
X045204D01*
X045254Y034696D01*
Y034646D01*
X045204Y034596D01*
X045104D01*
X045054Y034646D01*
X045554Y034896D02*
X045354D01*
Y034596D01*
X045554D01*
X045354Y034746D02*
X045454D01*
X045854Y034846D02*
X045804Y034896D01*
X045704D01*
X045654Y034846D01*
Y034646D01*
X045704Y034596D01*
X045804D01*
X045854Y034646D01*
Y034746D01*
X045754D01*
X046104Y034596D02*
Y034896D01*
X045954Y034746D01*
X046154D01*
X044754Y033711D02*
Y034011D01*
X044904D01*
X044954Y033961D01*
Y033861D01*
X044904Y033811D01*
X044754D01*
X044854D02*
X044954Y033711D01*
X045254Y033961D02*
X045204Y034011D01*
X045104D01*
X045054Y033961D01*
Y033911D01*
X045104Y033861D01*
X045204D01*
X045254Y033811D01*
Y033761D01*
X045204Y033711D01*
X045104D01*
X045054Y033761D01*
X045554Y034011D02*
X045354D01*
Y033711D01*
X045554D01*
X045354Y033861D02*
X045454D01*
X045854Y033961D02*
X045804Y034011D01*
X045704D01*
X045654Y033961D01*
Y033761D01*
X045704Y033711D01*
X045804D01*
X045854Y033761D01*
Y033861D01*
X045754D01*
X045954Y033961D02*
X046004Y034011D01*
X046104D01*
X046154Y033961D01*
Y033911D01*
X046104Y033861D01*
X046054D01*
X046104D01*
X046154Y033811D01*
Y033761D01*
X046104Y033711D01*
X046004D01*
X045954Y033761D01*
X044754Y032628D02*
Y032928D01*
X044904D01*
X044954Y032878D01*
Y032778D01*
X044904Y032728D01*
X044754D01*
X044854D02*
X044954Y032628D01*
X045254Y032878D02*
X045204Y032928D01*
X045104D01*
X045054Y032878D01*
Y032828D01*
X045104Y032778D01*
X045204D01*
X045254Y032728D01*
Y032678D01*
X045204Y032628D01*
X045104D01*
X045054Y032678D01*
X045554Y032928D02*
X045354D01*
Y032628D01*
X045554D01*
X045354Y032778D02*
X045454D01*
X045854Y032878D02*
X045804Y032928D01*
X045704D01*
X045654Y032878D01*
Y032678D01*
X045704Y032628D01*
X045804D01*
X045854Y032678D01*
Y032778D01*
X045754D01*
X046154Y032628D02*
X045954D01*
X046154Y032828D01*
Y032878D01*
X046104Y032928D01*
X046004D01*
X045954Y032878D01*
X044849Y031644D02*
Y031944D01*
X044999D01*
X045049Y031894D01*
Y031794D01*
X044999Y031744D01*
X044849D01*
X044949D02*
X045049Y031644D01*
X045349Y031894D02*
X045299Y031944D01*
X045199D01*
X045149Y031894D01*
Y031844D01*
X045199Y031794D01*
X045299D01*
X045349Y031744D01*
Y031694D01*
X045299Y031644D01*
X045199D01*
X045149Y031694D01*
X045649Y031944D02*
X045449D01*
Y031644D01*
X045649D01*
X045449Y031794D02*
X045549D01*
X045948Y031894D02*
X045898Y031944D01*
X045799D01*
X045749Y031894D01*
Y031694D01*
X045799Y031644D01*
X045898D01*
X045948Y031694D01*
Y031794D01*
X045848D01*
X046048Y031644D02*
X046148D01*
X046098D01*
Y031944D01*
X046048Y031894D01*
X044754Y030659D02*
Y030959D01*
X044904D01*
X044954Y030909D01*
Y030809D01*
X044904Y030759D01*
X044754D01*
X044854D02*
X044954Y030659D01*
X045254Y030909D02*
X045204Y030959D01*
X045104D01*
X045054Y030909D01*
Y030859D01*
X045104Y030809D01*
X045204D01*
X045254Y030759D01*
Y030709D01*
X045204Y030659D01*
X045104D01*
X045054Y030709D01*
X045554Y030959D02*
X045354D01*
Y030659D01*
X045554D01*
X045354Y030809D02*
X045454D01*
X045854Y030909D02*
X045804Y030959D01*
X045704D01*
X045654Y030909D01*
Y030709D01*
X045704Y030659D01*
X045804D01*
X045854Y030709D01*
Y030809D01*
X045754D01*
X045954Y030909D02*
X046004Y030959D01*
X046104D01*
X046154Y030909D01*
Y030709D01*
X046104Y030659D01*
X046004D01*
X045954Y030709D01*
Y030909D01*
X037312Y02616D02*
Y02611D01*
X037412Y02601D01*
X037512Y02611D01*
Y02616D01*
X037412Y02601D02*
Y02586D01*
X037812Y02616D02*
X037612D01*
Y02586D01*
X037812D01*
X037612Y02601D02*
X037712D01*
X037912Y02616D02*
Y02586D01*
X038112D01*
X038212Y02616D02*
Y02586D01*
X038412D01*
X038662Y02616D02*
X038562D01*
X038512Y02611D01*
Y02591D01*
X038562Y02586D01*
X038662D01*
X038712Y02591D01*
Y02611D01*
X038662Y02616D01*
X038812D02*
Y02586D01*
X038912Y02596D01*
X039012Y02586D01*
Y02616D01*
X039111Y02611D02*
X039161Y02616D01*
X039261D01*
X039311Y02611D01*
Y02606D01*
X039261Y02601D01*
X039211D01*
X039261D01*
X039311Y02596D01*
Y02591D01*
X039261Y02586D01*
X039161D01*
X039111Y02591D01*
X041298Y030467D02*
Y030417D01*
X041398Y030317D01*
X041498Y030417D01*
Y030467D01*
X041398Y030317D02*
Y030167D01*
X041797Y030467D02*
X041598D01*
Y030167D01*
X041797D01*
X041598Y030317D02*
X041698D01*
X041897Y030467D02*
Y030167D01*
X042097D01*
X042197Y030467D02*
Y030167D01*
X042397D01*
X042647Y030467D02*
X042547D01*
X042497Y030417D01*
Y030217D01*
X042547Y030167D01*
X042647D01*
X042697Y030217D01*
Y030417D01*
X042647Y030467D01*
X042797D02*
Y030167D01*
X042897Y030267D01*
X042997Y030167D01*
Y030467D01*
X043297Y030167D02*
X043097D01*
X043297Y030367D01*
Y030417D01*
X043247Y030467D01*
X043147D01*
X043097Y030417D01*
X033705Y030566D02*
Y030516D01*
X033805Y030416D01*
X033905Y030516D01*
Y030566D01*
X033805Y030416D02*
Y030266D01*
X034205Y030566D02*
X034005D01*
Y030266D01*
X034205D01*
X034005Y030416D02*
X034105D01*
X034305Y030566D02*
Y030266D01*
X034505D01*
X034605Y030566D02*
Y030266D01*
X034805D01*
X035054Y030566D02*
X034954D01*
X034905Y030516D01*
Y030316D01*
X034954Y030266D01*
X035054D01*
X035104Y030316D01*
Y030516D01*
X035054Y030566D01*
X035204D02*
Y030266D01*
X035304Y030366D01*
X035404Y030266D01*
Y030566D01*
X035654Y030266D02*
Y030566D01*
X035504Y030416D01*
X035704D01*
X037407Y031944D02*
Y031894D01*
X037507Y031794D01*
X037607Y031894D01*
Y031944D01*
X037507Y031794D02*
Y031644D01*
X037907Y031944D02*
X037707D01*
Y031644D01*
X037907D01*
X037707Y031794D02*
X037807D01*
X038007Y031944D02*
Y031644D01*
X038207D01*
X038307Y031944D02*
Y031644D01*
X038507D01*
X038757Y031944D02*
X038657D01*
X038607Y031894D01*
Y031694D01*
X038657Y031644D01*
X038757D01*
X038807Y031694D01*
Y031894D01*
X038757Y031944D01*
X038907D02*
Y031644D01*
X039006Y031744D01*
X039106Y031644D01*
Y031944D01*
X039206Y031644D02*
X039306D01*
X039256D01*
Y031944D01*
X039206Y031894D01*
X035597Y02586D02*
Y02616D01*
X035747D01*
X035797Y02611D01*
Y02601D01*
X035747Y02596D01*
X035597D01*
X035697D02*
X035797Y02586D01*
X036097Y02616D02*
X035897D01*
Y02586D01*
X036097D01*
X035897Y02601D02*
X035997D01*
X036197Y02616D02*
Y02586D01*
X036347D01*
X036397Y02591D01*
Y02611D01*
X036347Y02616D01*
X036197D01*
X036497Y02611D02*
X036547Y02616D01*
X036647D01*
X036696Y02611D01*
Y02606D01*
X036647Y02601D01*
X036597D01*
X036647D01*
X036696Y02596D01*
Y02591D01*
X036647Y02586D01*
X036547D01*
X036497Y02591D01*
X04166Y032431D02*
Y032731D01*
X04181D01*
X04186Y032681D01*
Y032581D01*
X04181Y032531D01*
X04166D01*
X04176D02*
X04186Y032431D01*
X04216Y032731D02*
X04196D01*
Y032431D01*
X04216D01*
X04196Y032581D02*
X04206D01*
X04226Y032731D02*
Y032431D01*
X04241D01*
X04246Y032481D01*
Y032681D01*
X04241Y032731D01*
X04226D01*
X042759Y032431D02*
X04256D01*
X042759Y032631D01*
Y032681D01*
X042709Y032731D01*
X04261D01*
X04256Y032681D01*
X034113Y032431D02*
Y032731D01*
X034263D01*
X034313Y032681D01*
Y032581D01*
X034263Y032531D01*
X034113D01*
X034213D02*
X034313Y032431D01*
X034612Y032731D02*
X034413D01*
Y032431D01*
X034612D01*
X034413Y032581D02*
X034512D01*
X034712Y032731D02*
Y032431D01*
X034862D01*
X034912Y032481D01*
Y032681D01*
X034862Y032731D01*
X034712D01*
X035162Y032431D02*
Y032731D01*
X035012Y032581D01*
X035212D01*
X035735Y031644D02*
Y031944D01*
X035885D01*
X035935Y031894D01*
Y031794D01*
X035885Y031744D01*
X035735D01*
X035835D02*
X035935Y031644D01*
X036234Y031944D02*
X036035D01*
Y031644D01*
X036234D01*
X036035Y031794D02*
X036135D01*
X036334Y031944D02*
Y031644D01*
X036484D01*
X036534Y031694D01*
Y031894D01*
X036484Y031944D01*
X036334D01*
X036634Y031644D02*
X036734D01*
X036684D01*
Y031944D01*
X036634Y031894D01*
X039984Y02611D02*
X039934Y02616D01*
X039834D01*
X039784Y02611D01*
Y02591D01*
X039834Y02586D01*
X039934D01*
X039984Y02591D01*
Y02601D01*
X039884D01*
X040084Y02586D02*
Y02616D01*
X040233D01*
X040283Y02611D01*
Y02601D01*
X040233Y02596D01*
X040084D01*
X040184D02*
X040283Y02586D01*
X040583Y02616D02*
X040383D01*
Y02586D01*
X040583D01*
X040383Y02601D02*
X040483D01*
X040883Y02616D02*
X040683D01*
Y02586D01*
X040883D01*
X040683Y02601D02*
X040783D01*
X040983Y02586D02*
Y02616D01*
X041183Y02586D01*
Y02616D01*
X041283Y02611D02*
X041333Y02616D01*
X041433D01*
X041483Y02611D01*
Y02606D01*
X041433Y02601D01*
X041383D01*
X041433D01*
X041483Y02596D01*
Y02591D01*
X041433Y02586D01*
X041333D01*
X041283Y02591D01*
X041509Y028177D02*
X041459Y028227D01*
X041359D01*
X041309Y028177D01*
Y027977D01*
X041359Y027927D01*
X041459D01*
X041509Y027977D01*
Y028077D01*
X041409D01*
X041609Y027927D02*
Y028227D01*
X041759D01*
X041809Y028177D01*
Y028077D01*
X041759Y028027D01*
X041609D01*
X041709D02*
X041809Y027927D01*
X042109Y028227D02*
X041909D01*
Y027927D01*
X042109D01*
X041909Y028077D02*
X042009D01*
X042409Y028227D02*
X042209D01*
Y027927D01*
X042409D01*
X042209Y028077D02*
X042309D01*
X042509Y027927D02*
Y028227D01*
X042709Y027927D01*
Y028227D01*
X043009Y027927D02*
X042809D01*
X043009Y028127D01*
Y028177D01*
X042959Y028227D01*
X042859D01*
X042809Y028177D01*
X034113D02*
X034063Y028227D01*
X033963D01*
X033913Y028177D01*
Y027977D01*
X033963Y027927D01*
X034063D01*
X034113Y027977D01*
Y028077D01*
X034013D01*
X034213Y027927D02*
Y028227D01*
X034363D01*
X034413Y028177D01*
Y028077D01*
X034363Y028027D01*
X034213D01*
X034313D02*
X034413Y027927D01*
X034712Y028227D02*
X034512D01*
Y027927D01*
X034712D01*
X034512Y028077D02*
X034612D01*
X035012Y028227D02*
X034812D01*
Y027927D01*
X035012D01*
X034812Y028077D02*
X034912D01*
X035112Y027927D02*
Y028227D01*
X035312Y027927D01*
Y028227D01*
X035562Y027927D02*
Y028227D01*
X035412Y028077D01*
X035612D01*
X039931Y031894D02*
X039881Y031944D01*
X039781D01*
X039731Y031894D01*
Y031694D01*
X039781Y031644D01*
X039881D01*
X039931Y031694D01*
Y031794D01*
X039831D01*
X040031Y031644D02*
Y031944D01*
X040181D01*
X040231Y031894D01*
Y031794D01*
X040181Y031744D01*
X040031D01*
X040131D02*
X040231Y031644D01*
X04053Y031944D02*
X040331D01*
Y031644D01*
X04053D01*
X040331Y031794D02*
X04043D01*
X04083Y031944D02*
X04063D01*
Y031644D01*
X04083D01*
X04063Y031794D02*
X04073D01*
X04093Y031644D02*
Y031944D01*
X04113Y031644D01*
Y031944D01*
X04123Y031644D02*
X04133D01*
X04128D01*
Y031944D01*
X04123Y031894D01*
X032939Y030652D02*
Y030951D01*
X033089D01*
X033139Y030901D01*
Y030802D01*
X033089Y030752D01*
X032939D01*
X033039D02*
X033139Y030652D01*
X033239D02*
Y030951D01*
X033389D01*
X033439Y030901D01*
Y030802D01*
X033389Y030752D01*
X033239D01*
X033339D02*
X033439Y030652D01*
X033689D02*
Y030951D01*
X033539Y030802D01*
X033739D01*
X033038Y028297D02*
Y028597D01*
X033188D01*
X033238Y028547D01*
Y028447D01*
X033188Y028397D01*
X033038D01*
X033138D02*
X033238Y028297D01*
X033338Y028597D02*
Y028547D01*
X033438Y028447D01*
X033538Y028547D01*
Y028597D01*
X033438Y028447D02*
Y028297D01*
X033788D02*
Y028597D01*
X033638Y028447D01*
X033838D01*
X033038Y025935D02*
Y026235D01*
X033188D01*
X033238Y026185D01*
Y026085D01*
X033188Y026035D01*
X033038D01*
X033138D02*
X033238Y025935D01*
X033538Y026185D02*
X033488Y026235D01*
X033388D01*
X033338Y026185D01*
Y025985D01*
X033388Y025935D01*
X033488D01*
X033538Y025985D01*
Y026085D01*
X033438D01*
X033788Y025935D02*
Y026235D01*
X033638Y026085D01*
X033838D01*
X034613Y023474D02*
Y023774D01*
X034763D01*
X034813Y023724D01*
Y023624D01*
X034763Y023574D01*
X034613D01*
X034713D02*
X034813Y023474D01*
X034913D02*
Y023774D01*
X035062D01*
X035112Y023724D01*
Y023624D01*
X035062Y023574D01*
X034913D01*
X035012D02*
X035112Y023474D01*
X035212Y023724D02*
X035262Y023774D01*
X035362D01*
X035412Y023724D01*
Y023674D01*
X035362Y023624D01*
X035312D01*
X035362D01*
X035412Y023574D01*
Y023524D01*
X035362Y023474D01*
X035262D01*
X035212Y023524D01*
X036913Y023474D02*
Y023774D01*
X037063D01*
X037113Y023724D01*
Y023624D01*
X037063Y023574D01*
X036913D01*
X037013D02*
X037113Y023474D01*
X037213Y023774D02*
Y023724D01*
X037313Y023624D01*
X037413Y023724D01*
Y023774D01*
X037313Y023624D02*
Y023474D01*
X037513Y023724D02*
X037563Y023774D01*
X037663D01*
X037713Y023724D01*
Y023674D01*
X037663Y023624D01*
X037613D01*
X037663D01*
X037713Y023574D01*
Y023524D01*
X037663Y023474D01*
X037563D01*
X037513Y023524D01*
X039042Y023474D02*
Y023774D01*
X039192D01*
X039242Y023724D01*
Y023624D01*
X039192Y023574D01*
X039042D01*
X039142D02*
X039242Y023474D01*
X039542Y023724D02*
X039492Y023774D01*
X039392D01*
X039342Y023724D01*
Y023524D01*
X039392Y023474D01*
X039492D01*
X039542Y023524D01*
Y023624D01*
X039442D01*
X039642Y023724D02*
X039692Y023774D01*
X039791D01*
X039841Y023724D01*
Y023674D01*
X039791Y023624D01*
X039742D01*
X039791D01*
X039841Y023574D01*
Y023524D01*
X039791Y023474D01*
X039692D01*
X039642Y023524D01*
X043176Y026033D02*
Y026333D01*
X043326D01*
X043376Y026283D01*
Y026183D01*
X043326Y026133D01*
X043176D01*
X043276D02*
X043376Y026033D01*
X043675Y026283D02*
X043625Y026333D01*
X043525D01*
X043475Y026283D01*
Y026083D01*
X043525Y026033D01*
X043625D01*
X043675Y026083D01*
Y026183D01*
X043575D01*
X043975Y026033D02*
X043775D01*
X043975Y026233D01*
Y026283D01*
X043925Y026333D01*
X043825D01*
X043775Y026283D01*
X043176Y028297D02*
Y028597D01*
X043326D01*
X043376Y028547D01*
Y028447D01*
X043326Y028397D01*
X043176D01*
X043276D02*
X043376Y028297D01*
X043475Y028597D02*
Y028547D01*
X043575Y028447D01*
X043675Y028547D01*
Y028597D01*
X043575Y028447D02*
Y028297D01*
X043975D02*
X043775D01*
X043975Y028497D01*
Y028547D01*
X043925Y028597D01*
X043825D01*
X043775Y028547D01*
X043176Y030541D02*
Y030841D01*
X043326D01*
X043376Y030791D01*
Y030691D01*
X043326Y030641D01*
X043176D01*
X043276D02*
X043376Y030541D01*
X043475D02*
Y030841D01*
X043625D01*
X043675Y030791D01*
Y030691D01*
X043625Y030641D01*
X043475D01*
X043575D02*
X043675Y030541D01*
X043975D02*
X043775D01*
X043975Y030741D01*
Y030791D01*
X043925Y030841D01*
X043825D01*
X043775Y030791D01*
X039239Y033833D02*
Y034133D01*
X039389D01*
X039439Y034083D01*
Y033983D01*
X039389Y033933D01*
X039239D01*
X039339D02*
X039439Y033833D01*
X039738Y034083D02*
X039688Y034133D01*
X039588D01*
X039538Y034083D01*
Y033883D01*
X039588Y033833D01*
X039688D01*
X039738Y033883D01*
Y033983D01*
X039638D01*
X039838Y033833D02*
X039938D01*
X039888D01*
Y034133D01*
X039838Y034083D01*
X037012Y033833D02*
Y034133D01*
X037162D01*
X037211Y034083D01*
Y033983D01*
X037162Y033933D01*
X037012D01*
X037112D02*
X037211Y033833D01*
X037311Y034133D02*
Y034083D01*
X037411Y033983D01*
X037511Y034083D01*
Y034133D01*
X037411Y033983D02*
Y033833D01*
X037611D02*
X037711D01*
X037661D01*
Y034133D01*
X037611Y034083D01*
X034908Y033809D02*
Y034109D01*
X035058D01*
X035108Y034059D01*
Y033959D01*
X035058Y033909D01*
X034908D01*
X035008D02*
X035108Y033809D01*
X035208D02*
Y034109D01*
X035358D01*
X035408Y034059D01*
Y033959D01*
X035358Y033909D01*
X035208D01*
X035308D02*
X035408Y033809D01*
X035508D02*
X035608D01*
X035558D01*
Y034109D01*
X035508Y034059D01*
X043671Y019886D02*
X043621Y019936D01*
X043521D01*
X043471Y019886D01*
Y019836D01*
X043521Y019786D01*
X043621D01*
X043671Y019736D01*
Y019686D01*
X043621Y019636D01*
X043521D01*
X043471Y019686D01*
X043771Y019936D02*
Y019636D01*
X043871Y019736D01*
X043971Y019636D01*
Y019936D01*
X044071Y019886D02*
X044121Y019936D01*
X044221D01*
X044271Y019886D01*
Y019836D01*
X044221Y019786D01*
X044171D01*
X044221D01*
X044271Y019736D01*
Y019686D01*
X044221Y019636D01*
X044121D01*
X044071Y019686D01*
X040029Y019886D02*
X039979Y019936D01*
X039879D01*
X039829Y019886D01*
Y019836D01*
X039879Y019786D01*
X039979D01*
X040029Y019736D01*
Y019686D01*
X039979Y019636D01*
X039879D01*
X039829Y019686D01*
X040129Y019936D02*
Y019636D01*
X040229Y019736D01*
X040329Y019636D01*
Y019936D01*
X040629Y019636D02*
X040429D01*
X040629Y019836D01*
Y019886D01*
X040579Y019936D01*
X040479D01*
X040429Y019886D01*
X036387D02*
X036337Y019936D01*
X036237D01*
X036187Y019886D01*
Y019836D01*
X036237Y019786D01*
X036337D01*
X036387Y019736D01*
Y019686D01*
X036337Y019636D01*
X036237D01*
X036187Y019686D01*
X036487Y019936D02*
Y019636D01*
X036587Y019736D01*
X036687Y019636D01*
Y019936D01*
X036787Y019636D02*
X036887D01*
X036837D01*
Y019936D01*
X036787Y019886D01*
X032647D02*
X032597Y019936D01*
X032497D01*
X032447Y019886D01*
Y019836D01*
X032497Y019786D01*
X032597D01*
X032647Y019736D01*
Y019686D01*
X032597Y019636D01*
X032497D01*
X032447Y019686D01*
X032747Y019936D02*
Y019636D01*
X032847Y019736D01*
X032947Y019636D01*
Y019936D01*
X033047Y019886D02*
X033097Y019936D01*
X033197D01*
X033247Y019886D01*
Y019686D01*
X033197Y019636D01*
X033097D01*
X033047Y019686D01*
Y019886D01*
X045538Y020325D02*
X045238D01*
Y020475D01*
X045288Y020525D01*
X045388D01*
X045438Y020475D01*
Y020325D01*
Y020425D02*
X045538Y020525D01*
X045588Y020625D02*
Y020825D01*
X045238Y020925D02*
X045538D01*
Y021075D01*
X045488Y021125D01*
X045438D01*
X045388Y021075D01*
Y020925D01*
Y021075D01*
X045338Y021125D01*
X045288D01*
X045238Y021075D01*
Y020925D01*
X045288Y021225D02*
X045238Y021274D01*
Y021374D01*
X045288Y021424D01*
X045338D01*
X045388Y021374D01*
Y021324D01*
Y021374D01*
X045438Y021424D01*
X045488D01*
X045538Y021374D01*
Y021274D01*
X045488Y021225D01*
X041794Y020325D02*
X041494D01*
Y020475D01*
X041544Y020525D01*
X041644D01*
X041694Y020475D01*
Y020325D01*
Y020425D02*
X041794Y020525D01*
X041844Y020625D02*
Y020825D01*
X041494Y020925D02*
X041794D01*
Y021075D01*
X041744Y021125D01*
X041694D01*
X041644Y021075D01*
Y020925D01*
Y021075D01*
X041594Y021125D01*
X041544D01*
X041494Y021075D01*
Y020925D01*
X041794Y021424D02*
Y021225D01*
X041594Y021424D01*
X041544D01*
X041494Y021374D01*
Y021274D01*
X041544Y021225D01*
X045046Y029675D02*
Y029975D01*
X045196D01*
X045246Y029925D01*
Y029825D01*
X045196Y029775D01*
X045046D01*
X045146D02*
X045246Y029675D01*
X045546Y029975D02*
X045346D01*
Y029675D01*
X045546D01*
X045346Y029825D02*
X045446D01*
X045645Y029675D02*
Y029975D01*
X045845Y029675D01*
Y029975D01*
X045945Y029925D02*
X045995Y029975D01*
X046095D01*
X046145Y029925D01*
Y029875D01*
X046095Y029825D01*
X046045D01*
X046095D01*
X046145Y029775D01*
Y029725D01*
X046095Y029675D01*
X045995D01*
X045945Y029725D01*
X045046Y028002D02*
Y028302D01*
X045196D01*
X045246Y028252D01*
Y028152D01*
X045196Y028102D01*
X045046D01*
X045146D02*
X045246Y028002D01*
X045546Y028302D02*
X045346D01*
Y028002D01*
X045546D01*
X045346Y028152D02*
X045446D01*
X045645Y028002D02*
Y028302D01*
X045845Y028002D01*
Y028302D01*
X046145Y028002D02*
X045945D01*
X046145Y028202D01*
Y028252D01*
X046095Y028302D01*
X045995D01*
X045945Y028252D01*
X045046Y027018D02*
Y027318D01*
X045196D01*
X045246Y027268D01*
Y027168D01*
X045196Y027118D01*
X045046D01*
X045146D02*
X045246Y027018D01*
X045546Y027318D02*
X045346D01*
Y027018D01*
X045546D01*
X045346Y027168D02*
X045446D01*
X045645Y027018D02*
Y027318D01*
X045845Y027018D01*
Y027318D01*
X045945Y027018D02*
X046045D01*
X045995D01*
Y027318D01*
X045945Y027268D01*
X045046Y026132D02*
Y026432D01*
X045196D01*
X045246Y026382D01*
Y026282D01*
X045196Y026232D01*
X045046D01*
X045146D02*
X045246Y026132D01*
X045546Y026432D02*
X045346D01*
Y026132D01*
X045546D01*
X045346Y026282D02*
X045446D01*
X045645Y026132D02*
Y026432D01*
X045845Y026132D01*
Y026432D01*
X045945Y026382D02*
X045995Y026432D01*
X046095D01*
X046145Y026382D01*
Y026182D01*
X046095Y026132D01*
X045995D01*
X045945Y026182D01*
Y026382D01*
X038156Y020341D02*
X037856D01*
Y020491D01*
X037906Y02054D01*
X038006D01*
X038056Y020491D01*
Y020341D01*
Y020441D02*
X038156Y02054D01*
X038206Y02064D02*
Y02084D01*
X037856Y02094D02*
X038156D01*
Y02109D01*
X038106Y02114D01*
X038056D01*
X038006Y02109D01*
Y02094D01*
Y02109D01*
X037956Y02114D01*
X037906D01*
X037856Y02109D01*
Y02094D01*
X038156Y02124D02*
Y02134D01*
Y02129D01*
X037856D01*
X037906Y02124D01*
X034514Y020325D02*
X034214D01*
Y020475D01*
X034264Y020525D01*
X034364D01*
X034414Y020475D01*
Y020325D01*
Y020425D02*
X034514Y020525D01*
X034564Y020625D02*
Y020825D01*
X034214Y020925D02*
X034514D01*
Y021075D01*
X034464Y021125D01*
X034414D01*
X034364Y021075D01*
Y020925D01*
Y021075D01*
X034314Y021125D01*
X034264D01*
X034214Y021075D01*
Y020925D01*
X034264Y021225D02*
X034214Y021274D01*
Y021374D01*
X034264Y021424D01*
X034464D01*
X034514Y021374D01*
Y021274D01*
X034464Y021225D01*
X034264D01*
X041899Y025076D02*
Y025276D01*
X041849Y025326D01*
X041749D01*
X041699Y025276D01*
Y025076D01*
X041749Y025026D01*
X041849D01*
X041799Y025126D02*
X041899Y025026D01*
X041849D02*
X041899Y025076D01*
X041999Y025276D02*
X042049Y025326D01*
X042149D01*
X042199Y025276D01*
Y025226D01*
X042149Y025176D01*
X042099D01*
X042149D01*
X042199Y025126D01*
Y025076D01*
X042149Y025026D01*
X042049D01*
X041999Y025076D01*
X043277Y025099D02*
Y025299D01*
X043227Y025349D01*
X043127D01*
X043077Y025299D01*
Y025099D01*
X043127Y025049D01*
X043227D01*
X043177Y025149D02*
X043277Y025049D01*
X043227D02*
X043277Y025099D01*
X043577Y025049D02*
X043377D01*
X043577Y025249D01*
Y025299D01*
X043527Y025349D01*
X043427D01*
X043377Y025299D01*
X044753Y025076D02*
Y025276D01*
X044703Y025326D01*
X044604D01*
X044554Y025276D01*
Y025076D01*
X044604Y025026D01*
X044703D01*
X044654Y025126D02*
X044753Y025026D01*
X044703D02*
X044753Y025076D01*
X044853Y025026D02*
X044953D01*
X044903D01*
Y025326D01*
X044853Y025276D01*
X046131Y025099D02*
Y025299D01*
X046081Y025349D01*
X045981D01*
X045932Y025299D01*
Y025099D01*
X045981Y025049D01*
X046081D01*
X046031Y025149D02*
X046131Y025049D01*
X046081D02*
X046131Y025099D01*
X046231Y025299D02*
X046281Y025349D01*
X046381D01*
X046431Y025299D01*
Y025099D01*
X046381Y025049D01*
X046281D01*
X046231Y025099D01*
Y025299D01*
X043171Y035187D02*
X043471D01*
Y035387D01*
X043171Y035687D02*
Y035487D01*
X043471D01*
Y035687D01*
X043321Y035487D02*
Y035587D01*
X043171Y035787D02*
X043471D01*
Y035937D01*
X043421Y035987D01*
X043221D01*
X043171Y035937D01*
Y035787D01*
Y036387D02*
Y036587D01*
X043221D01*
X043421Y036387D01*
X043471D01*
X043321Y036687D02*
Y036886D01*
X043221Y037186D02*
X043171Y037136D01*
Y037036D01*
X043221Y036986D01*
X043271D01*
X043321Y037036D01*
Y037136D01*
X043371Y037186D01*
X043421D01*
X043471Y037136D01*
Y037036D01*
X043421Y036986D01*
X043171Y037486D02*
Y037286D01*
X043471D01*
Y037486D01*
X043321Y037286D02*
Y037386D01*
X043221Y037786D02*
X043171Y037736D01*
Y037636D01*
X043221Y037586D01*
X043421D01*
X043471Y037636D01*
Y037736D01*
X043421Y037786D01*
X043321D01*
Y037686D01*
X043421Y038386D02*
X043221D01*
X043171Y038336D01*
Y038236D01*
X043221Y038186D01*
X043421D01*
X043471Y038236D01*
Y038336D01*
X043371Y038286D02*
X043471Y038386D01*
Y038336D02*
X043421Y038386D01*
X043171Y038486D02*
X043421D01*
X043471Y038536D01*
Y038636D01*
X043421Y038686D01*
X043171D01*
X043471Y038786D02*
X043271D01*
X043171Y038886D01*
X043271Y038986D01*
X043471D01*
X043321D01*
Y038786D01*
X043171Y039086D02*
X043471D01*
Y039236D01*
X043421Y039286D01*
X043221D01*
X043171Y039236D01*
Y039086D01*
X030876Y035684D02*
X030676D01*
Y035384D01*
X030876D01*
X030676Y035534D02*
X030776D01*
X030975Y035384D02*
Y035684D01*
X031175Y035384D01*
Y035684D01*
X031275Y035634D02*
X031325Y035684D01*
X031425D01*
X031475Y035634D01*
Y035584D01*
X031425Y035534D01*
X031375D01*
X031425D01*
X031475Y035484D01*
Y035434D01*
X031425Y035384D01*
X031325D01*
X031275Y035434D01*
X030876Y03716D02*
X030676D01*
Y03686D01*
X030876D01*
X030676Y03701D02*
X030776D01*
X030975Y03686D02*
Y03716D01*
X031175Y03686D01*
Y03716D01*
X031475Y03686D02*
X031275D01*
X031475Y03706D01*
Y03711D01*
X031425Y03716D01*
X031325D01*
X031275Y03711D01*
X030876Y038648D02*
X030676D01*
Y038348D01*
X030876D01*
X030676Y038498D02*
X030776D01*
X030975Y038348D02*
Y038648D01*
X031175Y038348D01*
Y038648D01*
X031275Y038348D02*
X031375D01*
X031325D01*
Y038648D01*
X031275Y038598D01*
X030876Y040113D02*
X030676D01*
Y039813D01*
X030876D01*
X030676Y039963D02*
X030776D01*
X030975Y039813D02*
Y040113D01*
X031175Y039813D01*
Y040113D01*
X031275Y040063D02*
X031325Y040113D01*
X031425D01*
X031475Y040063D01*
Y039863D01*
X031425Y039813D01*
X031325D01*
X031275Y039863D01*
Y040063D01*
D16*
X036419Y029386D02*
Y028986D01*
X036438Y029386D02*
Y028986D01*
X036305Y029386D02*
X036286Y029272D01*
Y029386D01*
X036571D01*
Y029272D01*
X036552Y029386D01*
X036362Y028986D02*
X036495D01*
X036686Y029386D02*
Y028986D01*
X036705Y029386D02*
Y028986D01*
X036629Y029386D02*
X036857D01*
X036914Y029367D01*
X036933Y029348D01*
X036952Y02931D01*
Y029272D01*
X036933Y029234D01*
X036914Y029215D01*
X036857Y029196D01*
X036705D01*
X036857Y029386D02*
X036895Y029367D01*
X036914Y029348D01*
X036933Y02931D01*
Y029272D01*
X036914Y029234D01*
X036895Y029215D01*
X036857Y029196D01*
X036629Y028986D02*
X036762D01*
X0368Y029196D02*
X036838Y029177D01*
X036857Y029158D01*
X036914Y029024D01*
X036933Y029005D01*
X036952D01*
X036971Y029024D01*
X036838Y029177D02*
X036857Y029139D01*
X036895Y029005D01*
X036914Y028986D01*
X036952D01*
X036971Y029024D01*
Y029043D01*
X037194Y029386D02*
X037061Y028986D01*
X037194Y029386D02*
X037328Y028986D01*
X037194Y029329D02*
X037308Y028986D01*
X037099Y0291D02*
X03727D01*
X037023Y028986D02*
X037137D01*
X037251D02*
X037366D01*
X037474Y029386D02*
Y028986D01*
X037493Y029386D02*
Y028986D01*
X037607Y029272D02*
Y02912D01*
X037417Y029386D02*
X037722D01*
Y029272D01*
X037703Y029386D01*
X037493Y029196D02*
X037607D01*
X037417Y028986D02*
X03755D01*
X037834Y029386D02*
Y028986D01*
X037853Y029386D02*
Y028986D01*
X037967Y029272D02*
Y02912D01*
X037777Y029386D02*
X038082D01*
Y029272D01*
X038063Y029386D01*
X037853Y029196D02*
X037967D01*
X037777Y028986D02*
X03791D01*
X038194Y029386D02*
Y028986D01*
X038213Y029386D02*
Y028986D01*
X038137Y029386D02*
X03827D01*
X038137Y028986D02*
X03827D01*
X038609Y029329D02*
X038628Y029272D01*
Y029386D01*
X038609Y029329D01*
X038571Y029367D01*
X038514Y029386D01*
X038476D01*
X038419Y029367D01*
X038381Y029329D01*
X038362Y029291D01*
X038343Y029234D01*
Y029139D01*
X038362Y029081D01*
X038381Y029043D01*
X038419Y029005D01*
X038476Y028986D01*
X038514D01*
X038571Y029005D01*
X038609Y029043D01*
X038628Y029081D01*
X038476Y029386D02*
X038438Y029367D01*
X0384Y029329D01*
X038381Y029291D01*
X038362Y029234D01*
Y029139D01*
X038381Y029081D01*
X0384Y029043D01*
X038438Y029005D01*
X038476Y028986D01*
X039102Y029386D02*
Y028986D01*
X039121Y029386D02*
Y028986D01*
X039045Y029386D02*
X039179D01*
X039045Y028986D02*
X039331D01*
Y0291D01*
X039312Y028986D01*
X039445Y029386D02*
Y028986D01*
X039464Y029386D02*
Y028986D01*
X039388Y029386D02*
X039521D01*
X039388Y028986D02*
X039521D01*
X03986Y029329D02*
X039879Y029272D01*
Y029386D01*
X03986Y029329D01*
X039822Y029367D01*
X039765Y029386D01*
X039727D01*
X03967Y029367D01*
X039632Y029329D01*
X039613Y029291D01*
X039594Y029234D01*
Y029139D01*
X039613Y029081D01*
X039632Y029043D01*
X03967Y029005D01*
X039727Y028986D01*
X039765D01*
X039822Y029005D01*
X03986Y029043D01*
X039727Y029386D02*
X039689Y029367D01*
X039651Y029329D01*
X039632Y029291D01*
X039613Y029234D01*
Y029139D01*
X039632Y029081D01*
X039651Y029043D01*
X039689Y029005D01*
X039727Y028986D01*
X03986Y029139D02*
Y028986D01*
X039879Y029139D02*
Y028986D01*
X039803Y029139D02*
X039936D01*
X040045Y029386D02*
Y028986D01*
X040064Y029386D02*
Y028986D01*
X040293Y029386D02*
Y028986D01*
X040312Y029386D02*
Y028986D01*
X039988Y029386D02*
X040121D01*
X040235D02*
X040369D01*
X040064Y029196D02*
X040293D01*
X039988Y028986D02*
X040121D01*
X040235D02*
X040369D01*
X04055Y029386D02*
Y028986D01*
X040569Y029386D02*
Y028986D01*
X040435Y029386D02*
X040416Y029272D01*
Y029386D01*
X040702D01*
Y029272D01*
X040683Y029386D01*
X040493Y028986D02*
X040626D01*
M02*
